<svg preserveAspectRatio="none" overflow="visible" style="display: block;" viewBox="0 0 116.929 258.675" fill="none" xmlns="http://www.w3.org/2000/svg">
<path id="Vector" d="M63.1122 70.8949C63.2475 69.534 63.3828 68.1731 63.5181 66.8042C63.7091 64.9101 63.9001 63.016 64.0831 61.1218C64.2503 59.4266 64.5049 57.7394 64.5447 56.0442C64.5686 54.9778 64.8312 53.8556 64.2901 52.813C64.2184 52.6778 64.2105 52.5345 64.3139 52.4151C64.8074 51.8819 64.5049 51.5556 64.0991 51.1099C62.6745 49.5659 61.2021 48.0857 59.4114 46.9715C56.61 45.2285 53.9359 43.2707 50.9196 41.8939C49.8771 41.4164 49.0414 40.6205 48.0625 40.0475C45.8182 38.7264 44.0991 36.8481 42.3562 34.9699C41.2102 33.7284 39.8254 32.7017 38.8067 31.3328C37.0717 29.0089 35.3527 26.6691 33.6416 24.3293C31.9623 22.0213 30.9595 19.387 30.0363 16.7288C29.0495 13.8717 28.1342 10.9907 27.2349 8.1097C26.5266 5.8415 25.8979 3.54943 26.2242 1.12206C26.3595 0.0794873 26.5982 -0.0955991 27.6408 0.0396968C30.5775 0.437626 33.2118 1.62345 35.7426 3.10375C37.4935 4.12245 39.2762 5.06952 41.0351 6.0723C43.1043 7.25017 44.9746 8.71455 46.9085 10.0914C48.3649 11.126 49.8214 12.1765 51.3096 13.1714C53.0764 14.3492 54.5488 15.8216 55.854 17.461C56.9761 18.8777 58.0824 20.3102 59.1806 21.7507C60.7007 23.7404 61.8786 25.8892 62.754 28.2608C63.6136 30.5688 64.6243 32.8291 65.452 35.145C66.4309 37.8748 66.6856 40.724 66.5901 43.6129C66.5423 45.0216 66.5901 46.4382 66.4787 47.9106C68.0067 45.6822 69.1766 43.3025 70.9355 41.3527C72.9092 39.172 75.3207 37.5485 77.9549 36.2512C82.7062 33.9194 87.7201 32.3595 92.8216 31.0304C95.7265 30.2743 98.5915 29.3671 101.457 28.4916C105.372 27.2978 109.272 26.0324 113.259 25.0854C113.96 24.9182 114.668 24.7431 115.384 24.6874C116.554 24.5919 117.119 25.3321 116.872 26.5099C116.626 27.6958 116.148 28.802 115.726 29.9242C115.098 31.6193 114.214 33.1713 113.355 34.7391C111.644 37.8589 109.447 40.5728 106.606 42.7295C104.194 44.56 101.488 45.8732 98.687 46.9953C96.1483 48.014 93.4662 48.5313 90.8478 49.2476C87.0675 50.2902 83.1678 50.7438 79.3238 51.484C77.3342 51.866 75.4082 52.4867 73.4106 52.8369C72.3999 53.02 71.3652 52.9404 70.3625 53.1314C69.0493 53.3781 67.7202 53.4179 66.3911 53.394C65.9295 53.3861 65.8022 53.5532 65.8261 54.0148C65.9454 56.9117 65.6669 59.7848 65.3485 62.6578C65.1098 64.8305 64.9825 67.0112 64.7517 69.1839C64.5209 71.4441 64.2025 73.7043 63.9717 75.9646C63.7807 77.8189 63.6613 79.6733 63.5101 81.5276C63.5022 81.6629 63.526 81.7982 63.6215 81.9494C63.7568 81.5117 63.924 81.0899 64.0274 80.6442C64.8551 76.9435 66.4787 73.6009 68.7707 70.6084C71.4607 67.0907 74.8591 64.4962 79.0771 63.008C81.1543 62.2758 83.2872 61.846 85.4519 61.4799C87.8952 61.0741 90.235 60.2543 92.6226 59.6256C93.0524 59.5142 93.4901 59.4664 93.9119 59.3311C94.5725 59.1242 95.1614 59.7768 94.9863 60.5329C94.7953 61.3447 94.5327 62.1485 94.2541 62.9364C92.9489 66.5734 91.8825 70.2821 90.4738 73.8874C89.4869 76.4102 88.4364 78.9092 86.9879 81.2013C85.3246 83.8356 83.51 86.3824 81.0827 88.3879C79.8809 89.3748 78.4882 90.107 77.0954 90.8153C74.7636 91.9852 72.4715 93.2267 70.1078 94.325C67.7759 95.4153 65.5157 96.5853 63.4226 98.0894C62.7779 98.551 62.3243 99.2434 61.5762 99.5697C61.3693 99.6652 61.4091 99.8881 61.3931 100.063C61.2578 101.352 61.1305 102.642 60.9952 103.955C61.425 103.955 61.6876 103.684 61.99 103.533C64.1229 102.491 66.2877 101.528 68.6116 100.947C70.3067 100.517 70.9355 101.321 71.214 102.713C71.8428 105.849 71.9383 109.04 72.0656 112.224C72.1531 114.365 72.2566 116.498 72.2964 118.638C72.3282 120.596 72.1929 122.546 71.9064 124.488C71.6199 126.406 71.1981 128.292 70.6967 130.162C69.9884 132.797 68.8742 135.24 67.2427 137.437C66.415 138.551 65.6828 139.753 64.7915 140.811C63.526 142.307 61.8706 143.326 60.1516 144.233C59.499 144.575 58.9976 145.085 58.4883 145.586C58.3211 145.753 58.3132 145.944 58.3052 146.159C58.2734 148.467 58.2734 150.767 58.1699 153.067C58.0585 155.558 58.1699 158.049 58.0426 160.54C57.9152 163.079 58.0824 165.618 58.2256 168.149C58.2972 169.454 58.3927 170.759 58.4405 172.064C58.4564 172.542 58.5997 172.924 58.9339 173.25C59.4672 173.768 59.9288 174.341 60.4301 175.105C60.852 173.863 61.2101 172.765 61.608 171.674C62.4357 169.382 63.1997 167.066 64.2025 164.83C64.9347 163.199 65.6987 161.583 66.5185 159.991C67.9351 157.246 69.869 154.89 71.9144 152.614C73.6096 150.727 75.4639 148.993 77.4217 147.369C79.2761 145.825 81.2339 144.456 83.3031 143.23C86.7333 141.193 90.2987 139.418 94.0074 137.954C96.4348 136.999 98.9179 136.187 101.465 135.606C103.884 135.049 106.319 134.508 108.794 134.245C109.367 134.182 109.948 134.166 110.529 134.197C111.62 134.261 112.169 134.977 112.081 136.084C111.986 137.301 111.588 138.447 111.301 139.625C110.76 141.814 110.219 144.002 109.471 146.127C108.683 148.356 107.823 150.56 106.781 152.701C105.969 154.373 105.261 156.092 104.401 157.747C102.857 160.731 100.931 163.453 98.504 165.761C95.8538 168.284 92.7977 170.25 89.5267 171.889C86.5423 173.386 83.4623 174.643 80.255 175.558C77.5252 176.338 74.7954 177.134 72.0019 177.659C69.8292 178.065 67.6725 178.59 65.5157 179.076C64.879 179.219 64.2105 179.156 63.5499 179.474C65.0939 181.249 66.3195 183.214 67.5212 185.196C69.4313 188.364 71.0946 191.658 72.4476 195.12C73.8722 198.781 74.3099 202.554 74.3656 206.422C74.4293 211.061 73.6414 215.55 71.9701 219.88C70.9753 222.466 69.487 224.774 68.0465 227.122C67.8316 227.48 67.5531 227.743 67.0676 227.576C66.7413 227.464 66.4389 227.695 66.1126 227.695C65.8738 227.695 65.9216 227.878 65.9614 228.053C66.8846 232.16 67.5929 236.322 68.7071 240.389C69.1766 242.1 69.6621 243.811 70.0998 245.53C70.6808 247.814 71.2299 250.114 71.986 252.359C72.5511 254.046 72.8217 255.829 73.4186 257.508C73.6016 258.025 73.3628 258.431 72.8455 258.614C72.2805 258.821 72.0099 258.471 71.8905 257.993C71.5324 256.553 71.0787 255.128 70.8161 253.656C70.6012 252.47 70.1555 251.332 69.8372 250.162C69.1766 247.766 68.5718 245.355 68.0386 242.92C67.6884 241.288 67.0994 239.704 66.6617 238.081C66.3036 236.752 66.0887 235.399 65.8499 234.046C65.4918 231.985 65.0143 229.939 64.4333 227.934C64.1707 227.026 63.2952 226.422 62.6426 225.729C59.9845 222.944 57.5412 219.975 55.1297 216.975C53.928 215.478 52.5591 214.11 51.2698 212.677C49.6224 210.847 47.9909 209 46.3435 207.162C45.6351 206.374 44.895 205.602 44.1708 204.822C42.786 203.35 41.5285 201.782 40.3188 200.158C39.2444 198.71 38.361 197.158 37.5492 195.574C36.8091 194.126 36.2997 192.566 36.0291 190.942C35.5118 187.799 35.7824 184.719 36.5783 181.655C36.6738 181.304 36.5624 181.097 36.252 180.914C35.0661 180.222 33.8246 179.633 32.5751 179.076C29.8692 177.866 27.5055 176.219 25.4283 174.078C23.2317 171.81 20.7884 169.788 18.3133 167.807C16.077 166.016 14.0714 163.979 12.2648 161.75C10.4264 159.49 8.70732 157.158 7.08377 154.739C4.74395 151.237 2.86572 147.512 1.38542 143.589C0.700986 141.758 0.215512 139.848 0.0324649 137.89C-0.0391623 137.174 -0.0152866 136.426 0.34285 135.773C0.971578 134.643 2.08578 134.293 3.71729 134.794C6.07303 135.511 8.21389 136.689 10.1637 138.193C12.9095 140.302 15.3607 142.777 18.186 144.782C20.0881 146.127 22.0618 147.353 24.0833 148.515C26.447 149.868 28.8266 151.197 31.1824 152.574C33.2277 153.768 35.2492 155.017 37.2627 156.259C39.5389 157.659 41.7673 159.148 43.924 160.731C46.0092 162.259 48.0784 163.795 49.8771 165.666C50.2511 166.048 50.7843 165.992 51.2141 166.223C53.2276 167.273 54.8193 168.849 56.4747 170.345C56.6259 170.481 56.7692 170.624 56.9045 170.751C57.0716 170.719 57.0796 170.608 57.0716 170.528C56.7772 167.154 56.7374 163.772 56.7851 160.389C56.809 158.646 56.8647 156.903 56.8965 155.16C56.9284 153.234 57 151.293 56.8965 149.359C56.8408 148.308 56.0609 147.464 55.6709 146.501C55.3207 145.65 55.0183 144.798 54.0872 144.392C51.7792 143.398 49.9805 141.671 48.1182 140.071C46.6061 138.774 45.2293 137.325 43.8763 135.853C42.587 134.452 41.7911 132.733 40.6849 131.221C39.6582 129.812 38.6077 128.42 37.6686 126.955C36.634 125.34 35.7267 123.668 34.9149 121.941C34.1668 120.334 33.1242 118.893 32.4 117.27C32.0976 116.585 31.7713 115.925 31.644 115.176C31.3893 113.664 32.2806 112.701 33.6893 112.813C35.6232 112.972 37.5094 113.394 39.1728 114.476C42.2766 116.498 44.9427 118.997 47.195 121.925C48.5082 123.636 49.3598 125.618 50.4421 127.457C50.4899 127.536 50.5217 127.616 50.5615 127.687C50.7207 127.64 50.7764 127.536 50.7684 127.409C50.4262 124.162 50.6729 120.938 51.2459 117.739C51.6598 115.455 52.2726 113.219 53.355 111.181C54.2622 109.47 55.4958 107.958 57.0318 106.74C57.4298 106.422 57.8118 106.048 58.2575 105.825C59.308 105.324 59.7457 104.52 59.7378 103.382C59.7378 102.753 59.881 102.124 59.873 101.504C59.873 100.771 59.3319 100.23 59.0215 99.6175C58.337 98.2406 57.581 96.8956 56.801 95.5745C56.3554 94.8184 55.8301 94.0942 55.2809 93.4098C53.2515 90.8869 51.7235 88.0696 50.2909 85.1806C48.6912 81.9494 48.3092 78.4954 48.2774 74.9857C48.2615 73.4815 48.5878 72.0091 48.9618 70.5289C49.6701 67.7513 50.9435 65.2046 51.8428 62.5146C52.1851 61.4799 52.6626 60.4931 53.0207 59.4664C53.4266 58.3124 55.1695 57.9225 56.1882 58.6149C57.4696 59.4903 58.2097 60.7 58.9578 61.9575C59.9447 63.6208 60.7087 65.3956 61.616 67.0987C62.2527 68.2925 62.5869 69.6057 63.0963 70.879L63.1122 70.8949ZM67.9271 88.2049L67.9112 88.1889C66.5662 90.1308 65.07 91.9613 63.4783 93.6963C62.3322 94.9458 61.8945 96.3544 61.7672 97.9541C61.9821 97.986 62.0617 97.8507 62.1651 97.7711C63.2236 96.9991 64.2901 96.251 65.4441 95.6302C67.1074 94.7309 68.8026 93.9032 70.4978 93.0755C72.6307 92.0329 74.7158 90.9108 76.8805 89.9239C78.5041 89.1838 80.0401 88.2367 81.3373 86.9713C82.555 85.7855 83.6055 84.4564 84.6561 83.1193C86.6935 80.5328 88.0544 77.5802 89.3198 74.5798C90.3703 72.0887 91.198 69.5261 92.0416 66.9634C92.7022 64.9499 93.3707 62.9443 94.0313 60.9308C94.0949 60.7318 94.1984 60.509 94.0392 60.3339C93.8562 60.127 93.6572 60.3339 93.4662 60.3817C91.3492 60.9547 89.2561 61.6073 87.1232 62.0768C84.4889 62.6578 81.8069 63.0239 79.2522 63.9789C76.3632 65.0613 73.8006 66.6769 71.6438 68.8257C69.4472 71.0223 67.6884 73.577 66.4309 76.4659C65.0461 79.6335 64.2343 82.9522 63.5817 86.3187C63.152 88.5391 62.8336 90.7755 62.4596 93.0118C62.388 93.4337 62.3084 93.8555 62.4118 94.3887C63.6215 92.8527 64.9427 91.5873 66.033 90.099C66.5503 89.3907 67.0358 88.5789 67.9271 88.2208V88.2049ZM50.0442 27.2023C50.2432 27.1546 50.3148 27.3138 50.4342 27.4252C51.7155 28.6349 52.5512 30.1868 53.5937 31.5796C54.5965 32.9166 55.4242 34.381 56.3076 35.7976C57.382 37.5087 58.4803 39.2039 59.6741 40.8274C60.3744 41.7825 61.1225 42.6897 61.7354 43.7084C62.3004 44.6396 63.0565 45.4593 63.6375 46.3825C64.2503 47.3614 65.078 48.1493 65.8101 49.0646C65.9932 48.6905 65.9773 48.3881 65.9693 48.0857C65.8659 45.7379 65.9852 43.3821 65.834 41.0264C65.7067 38.981 65.3247 37.0153 64.6164 35.1132C63.7091 32.6699 62.7222 30.2584 61.7354 27.8549C60.9952 26.0483 60.1994 24.2338 58.9419 22.7217C57.7481 21.2971 56.6419 19.8088 55.5117 18.3444C54.1588 16.5856 52.5989 15.0416 50.7764 13.7603C48.7231 12.3198 46.5981 10.9748 44.6164 9.42286C43.0008 8.15745 41.2659 7.06712 39.4911 6.04843C37.6527 4.99789 35.7745 4.01899 33.936 2.96846C31.9703 1.85425 29.8612 1.16981 27.6408 0.79576C27.0598 0.700257 26.837 0.931058 26.8051 1.48816C26.7017 3.247 26.8529 4.98198 27.3861 6.66124C28.6913 10.736 29.7896 14.8745 31.3734 18.8538C31.9941 20.4137 32.6229 21.9815 33.5938 23.3504C35.2731 25.73 37.0717 28.0221 38.7271 30.4176C39.1091 30.9747 39.5389 31.5 40.0323 31.9616C41.4569 33.2986 42.8417 34.6834 44.1708 36.1159C46.0172 38.1136 48.2296 39.7053 50.5933 40.9786C52.9968 42.2759 55.4003 43.5333 57.6367 45.1012C58.6952 45.8413 59.9128 46.287 60.9315 47.0829C62.2129 48.0857 63.4783 49.1044 64.6004 50.2902C64.9665 50.6722 65.6191 50.8632 65.1814 51.6511C65.5236 51.3248 65.4202 50.9348 65.5953 50.6244C65.8818 50.0992 65.7226 49.6853 65.3167 49.2556C64.8074 48.7223 64.3458 48.1334 63.924 47.5286C62.4277 45.3559 60.9952 43.1354 59.4353 41.0025C58.3132 39.4745 57.2069 37.9225 56.228 36.291C54.9148 34.0945 53.4743 31.9775 52.0179 29.8764C51.3812 28.9612 50.7048 28.0778 50.0442 27.1785L50.0283 27.1944L50.0442 27.2023ZM72.9649 207.544C72.8615 203.278 72.7102 199.84 71.4926 196.537C70.9832 195.16 70.6728 193.688 69.9884 192.415C69.3199 191.173 68.715 189.9 67.9828 188.69C66.3991 186.064 65.0541 183.294 63.0087 180.962C62.2606 180.111 61.6558 179.163 61.1305 178.137C60.3426 176.601 59.3717 175.152 58.1779 173.895C56.6817 172.319 55.1457 170.783 53.6574 169.207C52.9172 168.427 52.0577 167.862 51.0788 167.433C49.2881 166.645 47.1632 166.979 45.7306 168.348C45.0223 169.024 44.3458 169.733 43.7171 170.481C42.6029 171.794 41.6638 173.218 40.8679 174.762C40.1756 176.115 39.7219 177.564 39.0454 178.917C38.4326 180.142 37.9392 181.456 37.7721 182.816C37.4378 185.586 37.024 188.356 37.7004 191.149C38.0506 192.582 38.4087 194.014 39.0773 195.311C40.8361 198.718 43.2476 201.678 45.7625 204.543C47.3701 206.374 49.0494 208.133 50.657 209.963C52.0418 211.539 53.4186 213.115 54.7875 214.707C56.5464 216.752 58.1858 218.893 59.8969 220.97C61.5443 222.975 63.1201 225.061 65.4838 226.334C65.7067 226.453 65.9932 226.732 66.1683 226.509C66.5662 225.984 67.2507 225.801 67.577 225.204C67.8635 224.679 68.1898 224.169 68.5081 223.66C70.2192 220.874 71.4289 217.914 72.0497 214.683C72.5511 212.04 73.0684 209.414 72.9729 207.52L72.9649 207.544ZM111.27 136.004C111.27 135.336 110.792 135.041 109.988 135.065C108.428 135.121 106.876 135.359 105.372 135.702C103.701 136.084 102.03 136.458 100.366 136.903C97.6206 137.652 94.9465 138.607 92.3281 139.697C89.9644 140.676 87.6724 141.83 85.4599 143.103C82.8574 144.599 80.3186 146.199 78.0107 148.125C76.0528 149.764 74.1826 151.507 72.4794 153.425C70.8241 155.296 69.2562 157.23 67.9192 159.331C66.5423 161.495 65.4918 163.843 64.4811 166.199C63.8523 167.671 63.2395 169.168 62.6904 170.672C62.1731 172.088 61.7513 173.529 61.1146 174.898C60.9475 175.264 60.7007 175.749 60.9793 176.084C61.417 176.609 61.6399 177.261 62.0935 177.763C62.3243 178.009 62.5073 178.352 63.0087 178.248C64.5368 177.938 66.1046 177.787 67.6008 177.397C70.7524 176.577 73.9597 175.98 77.1113 175.136C81.8706 173.855 86.5423 172.375 90.8478 169.947C92.8375 168.825 94.7555 167.576 96.5223 166.135C99.5068 163.7 101.775 160.676 103.566 157.277C105.324 153.935 106.884 150.505 108.206 146.971C109.153 144.44 109.877 141.846 110.498 139.227C110.76 138.113 111.023 137.007 111.254 136.004H111.27ZM48.0386 165.857C47.8476 165.467 47.577 165.316 47.3622 165.125C45.8261 163.772 44.2265 162.498 42.4995 161.376C41.1783 160.517 39.9368 159.522 38.5998 158.694C36.2599 157.254 33.9679 155.741 31.5882 154.373C29.5349 153.195 27.5532 151.881 25.4681 150.751C22.5075 149.152 19.6345 147.456 16.9524 145.395C15.2891 144.114 13.7531 142.697 12.1136 141.4C10.4423 140.071 8.83466 138.662 6.99622 137.564C5.77856 136.84 4.50519 136.211 3.12039 135.893C1.79131 135.582 1.11483 136.108 1.18646 137.532C1.26605 139.044 1.5048 140.517 1.9664 141.965C2.69063 144.257 3.56608 146.486 4.64048 148.618C6.06507 151.444 7.7125 154.134 9.56685 156.696C11.2063 158.957 12.8856 161.185 14.7718 163.238C16.65 165.276 18.767 167.074 20.9635 168.762C22.3722 169.844 23.7013 171.022 24.9349 172.287C26.4152 173.807 27.9353 175.28 29.71 176.442C31.8986 177.874 34.3897 178.734 36.6499 180.055C36.9046 180.206 37.0399 180.079 37.1274 179.856C37.2945 179.418 37.4458 178.98 37.6129 178.543C38.3928 176.418 39.3399 174.372 40.4223 172.383C40.5735 172.096 40.9157 171.865 40.9555 171.579C41.0271 171.07 40.4461 171.308 40.1915 171.101C39.0932 170.226 37.9233 169.43 36.7374 168.658C34.7717 167.369 32.7979 166.103 31.0709 164.496C30.0761 163.573 28.8744 162.952 27.7602 162.188C26.2799 161.177 25.0304 159.88 23.5342 158.885C21.6798 157.651 20.0403 156.131 18.2895 154.762C16.9922 153.744 15.6233 152.836 14.5808 151.515C13.5621 150.218 12.4399 149.016 11.1029 148.022C10.0125 147.202 8.91424 146.39 8.08655 145.26C6.86889 143.589 5.59551 141.965 4.35397 140.31C4.22664 140.143 3.99584 139.991 4.0993 139.649C4.99066 140.493 5.62735 141.496 6.31179 142.435C7.68862 144.321 9.09729 146.151 10.9914 147.544C12.1136 148.372 13.2278 149.199 14.0634 150.33C14.6444 151.117 15.2652 151.874 16.0133 152.51C17.8597 154.078 19.8891 155.407 21.6878 157.031C22.9452 158.153 24.5131 158.837 25.7546 159.975C26.7335 160.875 27.7363 161.726 28.9221 162.371C30.3149 163.127 31.5723 164.082 32.6945 165.228C33.0526 165.586 33.4744 165.897 33.9042 166.167C36.252 167.671 38.6475 169.096 40.9077 170.727C41.2261 170.958 41.4012 170.926 41.6479 170.624C42.3085 169.812 42.9611 168.984 43.6932 168.244C44.8791 167.051 45.9614 165.642 48.0227 165.857H48.0386ZM65.5236 52.057C65.9773 52.3912 66.3513 52.3753 66.7095 52.3674C68.2932 52.3355 69.8611 52.2002 71.4369 52.049C73.2833 51.8739 75.0421 51.3407 76.8328 50.9189C81.6398 49.7729 86.59 49.359 91.3652 48.0538C93.8323 47.3773 96.3711 46.9794 98.7348 45.9528C103.574 43.8596 107.975 41.2174 111.031 36.7208C112.615 34.3969 113.896 31.9297 115.01 29.3591C115.424 28.3961 115.822 27.4252 115.973 26.3826C116.069 25.6982 115.925 25.5629 115.257 25.6743C114.501 25.8016 113.729 25.9051 112.997 26.112C110.705 26.7407 108.42 27.3695 106.144 28.0619C102.897 29.0487 99.666 30.1152 96.4189 31.11C92.6942 32.2481 88.9139 33.1633 85.237 34.4367C81.2498 35.8135 77.4297 37.453 74.0473 40.0395C72.2168 41.4402 70.8161 43.1593 69.6701 45.133C69.1289 46.0721 68.5399 46.9874 67.8396 47.8469C67.2507 48.5632 66.6617 49.367 66.9084 50.4255C66.9403 50.5846 66.9243 50.7199 66.7413 50.7359C66.407 50.7597 66.3911 51.0462 66.3672 51.2452C66.3115 51.6829 66.2081 52.049 65.5316 52.049L65.5236 52.057ZM60.2391 133.991C60.2789 134.389 60.2471 134.611 60.1834 134.842C59.4672 137.484 58.1699 139.888 57.1512 142.411C56.8965 143.047 56.5782 143.66 56.3554 144.313C56.228 144.703 56.4588 144.91 56.7533 145.013C57.1194 145.141 57 144.774 57.0477 144.615C57.1273 144.337 57.3502 144.361 57.5491 144.321C58.0346 144.225 58.5121 144.082 58.8862 143.74C59.3557 143.31 59.873 142.976 60.4222 142.657C61.5284 142.013 62.6824 141.408 63.526 140.421C65.8659 137.644 67.9192 134.675 69.1925 131.253C69.7735 129.709 70.0521 128.061 70.3625 126.438C70.6649 124.862 71.0071 123.286 71.0549 121.671C71.1424 118.949 71.1583 116.227 70.9912 113.505C70.8638 111.468 70.8081 109.422 70.6649 107.385C70.5535 105.857 70.4341 104.321 70.06 102.825C69.8531 102.021 69.487 101.83 68.715 102.116C67.561 102.538 66.423 103.024 65.2769 103.453C62.9689 104.321 60.9634 105.746 58.9021 107.035C57.3183 108.022 55.9972 109.383 55.0501 111.022C53.3629 113.935 52.583 117.15 52.201 120.453C51.811 123.812 51.8826 127.186 52.0418 130.56C52.201 133.919 53.148 137.11 54.2782 140.246C54.4294 140.668 54.5488 141.082 54.5408 141.535C54.5169 142.57 55.0661 143.318 55.7744 144.074C57.4059 140.795 59.2284 137.675 60.2471 133.983L60.2391 133.991ZM60.3346 94.5717C60.4063 94.5717 60.4699 94.5717 60.5416 94.5638C60.7326 92.9084 60.9156 91.261 61.1146 89.6056C61.3693 87.4568 61.6796 85.3159 61.8547 83.1591C62.0298 80.9785 62.1253 78.7819 62.4835 76.6251C62.9371 73.8476 62.4437 71.2213 61.4011 68.7143C60.5495 66.661 59.4831 64.6793 58.3689 62.7454C57.7083 61.5914 57.0239 60.3976 55.838 59.6256C55.1297 59.172 54.4294 59.347 54.119 60.1509C53.3072 62.2519 52.4716 64.353 51.6996 66.47C50.9196 68.6108 49.9646 70.7278 49.7577 73.0119C49.3598 77.3891 49.702 81.6629 51.9224 85.6104C53.0366 87.5921 53.9439 89.7011 55.3685 91.5077C56.6021 93.0676 57.6765 94.7229 58.5917 96.4897C59.0215 97.3174 59.3557 98.2088 60.0322 99.0683C60.4699 95.861 59.8014 92.8925 59.2841 89.916C59.8014 91.4281 60.1516 92.9721 60.3346 94.5638V94.5717ZM54.2145 143.35C54.3418 143.143 54.2384 143.008 54.1747 142.856C52.8456 139.657 51.6757 136.402 51.1027 132.964C50.9117 131.826 50.9674 130.648 50.3944 129.574C50.0203 128.873 49.6542 128.181 49.2802 127.48C47.585 124.329 45.7466 121.289 42.9451 118.957C41.3614 117.636 39.9448 116.092 38.0506 115.184C36.6101 114.492 35.1219 113.991 33.4903 114.046C32.8218 114.07 32.6229 114.412 32.7104 114.993C32.782 115.455 32.8855 115.909 33.1083 116.33C34.1429 118.336 35.1616 120.35 36.2122 122.347C37.0558 123.955 37.78 125.618 38.8226 127.122C39.7617 128.475 40.8282 129.733 41.6956 131.149C42.2687 132.081 42.7621 133.075 43.4227 133.935C44.8393 135.781 46.5663 137.349 48.2058 138.997C49.503 140.294 51.1425 141.201 52.5511 142.395C53.0287 142.801 53.5858 143.159 54.2065 143.342L54.2145 143.35Z" fill="var(--fill-0, #E7DFD2)"/>
</svg>
