<svg preserveAspectRatio="none" width="100%" height="100%" overflow="visible" style="display: block;" viewBox="0 0 153.793 331.586" fill="none" xmlns="http://www.w3.org/2000/svg">
<path id="Vector" d="M83.006 254.129C83.5326 256.143 82.4293 257.656 81.6269 259.286C81.0167 260.515 80.2143 261.593 79.4787 262.738C78.4005 264.41 77.4058 266.132 76.3442 267.82C75.4582 269.233 74.4301 270.537 73.1513 271.615C70.9864 273.429 69.1308 275.585 66.9074 277.341C64.5921 279.163 62.0343 280.617 59.5267 282.139C58.1559 282.974 56.7851 283.81 55.3475 284.512C53.6507 285.34 51.8536 285.917 50.0147 286.36C48.2928 286.778 46.5626 287.162 44.8491 287.613C42.9266 288.123 40.9623 288.173 39.0064 287.998C37.0421 287.814 35.0779 287.839 33.122 287.73C31.1159 287.613 29.2854 286.97 27.4465 286.251C25.7664 285.599 24.078 284.98 22.4146 284.287C20.1578 283.342 18.0681 282.13 16.5552 280.124C16.2543 279.731 15.8113 279.489 15.5271 279.046C14.7581 277.825 14.9169 276.538 15.4268 275.376C16.1875 273.629 16.7558 271.791 17.6586 270.111C19.4389 266.826 21.9549 264.159 24.7299 261.685C27.7056 259.027 31.1326 257.272 34.8856 256.026C39.7336 254.421 44.6317 253.059 49.7305 252.599C52.1879 252.382 54.6621 252.399 57.1195 252.181C61.5663 251.78 66.013 251.529 70.4765 251.571C73.2432 251.596 76.0099 251.345 78.7682 251.596C80.0555 251.713 81.326 252.023 82.6884 251.839C82.3541 250.217 81.9946 248.604 81.7104 246.974C81.4931 245.745 81.3427 244.508 81.2089 243.271C81.1588 242.803 81.0585 242.586 80.5319 242.569C76.5866 242.419 72.6748 242.561 68.7797 243.288C66.105 243.781 63.4051 244.174 60.6802 243.865C58.5906 243.631 56.5177 243.321 54.4447 242.945C52.5139 242.594 50.5998 242.184 48.7692 241.507C46.6545 240.722 44.5064 239.911 42.6257 238.665C40.628 237.345 39.1569 235.514 38.204 233.232C37.2511 230.951 37.0421 228.644 37.3932 226.245C37.6774 224.339 38.5383 222.676 39.5581 221.071C41.188 218.53 42.843 215.997 44.8491 213.74C47.1644 211.132 49.6302 208.658 52.213 206.309C54.0184 204.671 55.9409 203.2 58.0556 201.637C57.0275 201.637 56.1917 201.595 55.3558 201.654C54.7707 201.695 54.194 201.704 53.6172 201.587C51.9873 201.261 50.3072 201.395 48.6773 201.127C45.8354 200.667 42.9349 200.717 40.1181 200.141C38.7139 199.857 37.3598 199.347 35.9639 198.996C34.4092 198.603 32.8127 198.419 31.3081 197.825C29.4107 197.082 27.7641 195.878 25.9587 194.983C22.5233 193.278 19.7482 190.704 16.8729 188.23C15.1677 186.767 13.3706 185.43 11.9413 183.674C10.1943 181.535 8.72323 179.194 7.09331 176.971C6.17386 175.717 5.31293 174.43 4.58573 173.076C3.54926 171.145 2.78027 169.089 2.01964 167.041C1.34259 165.219 0.682268 163.396 0.381359 161.474C-0.128515 158.222 -0.178669 154.979 0.548528 151.736C1.38439 148 2.36235 144.314 4.00063 140.837C4.48543 139.8 5.12904 138.864 5.95654 138.07C7.39422 136.682 9.1328 136.975 10.8129 137.384C12.2338 137.727 13.6381 138.204 15.0005 138.739C16.129 139.182 17.3159 139.29 18.461 139.616C20.6593 140.226 22.7239 141.196 24.9222 141.781C26.736 142.274 28.6083 142.617 30.3386 143.352C32.3279 144.197 34.3757 144.865 36.3818 145.634C39.0566 146.662 41.4053 148.301 43.9463 149.571C45.7434 150.466 47.1978 151.928 48.811 153.124C51.2685 154.937 53.2662 157.286 55.8155 158.975C57.4538 160.061 59.1423 161.073 60.5047 162.51C62.2851 164.391 64.4583 165.879 66.0715 167.927C67.3671 169.565 69.0388 170.911 70.0251 172.791C71.1954 175.04 72.0312 177.38 72.2485 179.955C72.4575 182.454 72.9674 184.92 74.0289 187.243C73.9035 186.006 73.8199 184.761 73.6444 183.532C73.285 180.983 73.0342 178.417 72.8754 175.842C72.6665 172.582 72.3739 169.331 72.1482 166.071C72.0563 164.692 72.0479 163.304 72.0228 161.925C71.9727 159.05 71.7387 156.175 71.5297 153.308C71.3124 150.332 71.1201 147.348 71.0365 144.356C70.9446 141.046 70.7607 137.736 70.5183 134.434C70.3428 132.027 70.4013 129.619 70.4013 127.212C70.4013 124.245 70.418 121.277 70.3929 118.31C70.3595 113.955 70.4849 109.6 70.5517 105.246C70.5935 102.863 70.535 100.49 70.6019 98.1074C70.6437 96.653 70.8192 95.1986 70.8526 93.7275C70.1422 95.115 69.6741 96.5945 68.8299 97.8817C67.016 100.648 65.5784 103.658 63.1377 106.023C59.9698 109.091 56.6347 111.816 52.2966 113.011C50.4493 113.521 48.5519 113.73 46.6378 113.847C44.9159 113.955 43.2108 114.089 41.5223 113.646C38.8978 112.952 36.1896 112.685 33.5482 112.108C32.1356 111.799 30.9237 111.005 29.7284 110.161C27.6889 108.714 25.6076 107.327 24.0027 105.388C22.1889 103.189 19.6814 101.76 17.7422 99.7123C17.6502 99.612 17.5248 99.5451 17.4245 99.4531C15.9868 98.1409 15.9534 97.3133 17.4162 96.0428C18.3607 95.2237 18.9709 94.1789 19.7148 93.2176C22.2224 90.0079 25.3652 87.584 28.8507 85.5194C32.8211 83.1706 37.1675 81.758 41.4889 80.2785C44.2556 79.334 47.1142 78.9746 50.0398 78.8827C51.6613 78.8325 53.2829 78.54 54.8961 78.2808C59.3178 77.562 63.6225 77.9799 67.76 79.7018C69.0639 80.2451 70.1756 81.1478 71.1034 82.2428C71.2371 82.4016 71.3374 82.6775 71.6049 82.6106C71.8473 82.5437 71.8473 82.2762 71.8891 82.0589C72.3488 79.8272 72.4658 77.5536 72.75 75.2968C73.0677 72.7474 73.3519 70.1897 73.7781 67.6487C74.0958 65.7513 74.2044 63.8121 74.3549 61.8813C74.3883 61.4466 74.4134 61.0621 74.7979 60.7863C74.9567 60.6693 75.1239 60.5021 75.0069 60.3015C74.8898 60.0925 74.6558 60.2346 74.4719 60.2514C72.8503 60.3517 71.3876 61.0872 69.8245 61.4383C65.7455 62.3661 61.6331 63.0348 57.4287 63.2019C54.9964 63.2939 52.5557 63.5196 50.1401 63.2019C47.2229 62.8174 44.289 62.8843 41.3719 62.5918C39.6584 62.4162 37.9699 62.0485 36.3484 61.4884C34.8438 60.9702 33.2891 60.7111 31.7595 60.3433C29.7952 59.8752 28.065 58.9307 26.3013 58.0196C25.1479 57.4261 23.9609 56.8912 22.8325 56.2559C21.0689 55.2696 19.556 53.949 18.1852 52.4611C17.3827 51.5919 16.4967 50.7978 15.6441 49.9619C14.8166 49.1511 14.2901 48.1565 13.939 47.0782C13.4124 45.4734 14.2566 44.2864 15.6023 43.3921C18.6282 41.3777 22.1221 40.7424 25.6243 40.5167C30.2968 40.2242 34.9943 40.3078 39.6667 40.8009C41.7564 41.0182 43.821 41.4947 45.9106 41.7789C47.9752 42.0631 49.9729 42.6231 52.0207 42.9909C55.9493 43.6846 59.8277 44.5038 63.4469 46.3427C65.8375 47.5547 68.1361 48.8837 69.9833 50.8145C72.0145 52.9376 74.1125 55.0523 75.174 57.9026C75.1991 57.9695 75.2744 58.0196 75.3329 58.0781C75.7006 57.8608 75.4917 57.5181 75.5585 57.2423C76.3108 54.2165 76.3777 51.1154 76.7037 48.0395C76.8875 46.3343 77.3305 44.6626 77.8153 43.0159C78.1079 42.0463 78.1748 41.0517 78.3419 40.0737C78.6763 38.1178 79.3366 36.2789 80.1975 34.4985C81.3343 32.1331 82.3541 29.7091 83.4156 27.3101C84.5524 24.719 85.848 22.203 87.3107 19.7874C88.6314 17.6058 90.3616 15.7502 92.2423 14.0116C94.9588 11.504 97.8676 9.2723 101.111 7.49192C104.371 5.70318 107.823 4.46611 111.45 3.69712C113.047 3.35442 114.643 2.98664 116.231 2.62722C118.973 2.00869 121.756 1.66598 124.548 1.35672C126.337 1.15611 128.117 0.838484 129.889 0.537574C132.497 0.0945689 135.13 0.14472 137.763 0.0611345C139.87 -0.00573424 141.984 -0.156189 144.007 0.545933C145.604 1.0976 147.167 1.73285 148.788 2.20093C149.741 2.47677 150.727 2.66066 151.689 2.91141C152.984 3.24576 153.21 3.88937 152.407 4.92583C150.778 7.02384 149.8 9.42276 149.189 11.9721C148.562 14.58 148.153 17.238 147.526 19.8376C146.991 22.0693 146.214 24.2342 145.252 26.3322C144.107 28.8481 142.728 31.247 141.257 33.5791C140.555 34.6991 139.677 35.7105 138.708 36.6383C137.003 38.2599 135.339 39.9149 133.634 41.5448C131.745 43.3503 129.405 44.4703 127.198 45.7993C125.041 47.0949 122.877 48.3905 120.636 49.5524C119.349 50.221 117.953 50.7393 116.658 51.3662C114.359 52.4779 111.943 53.2719 109.645 54.3502C107.338 55.4201 104.922 56.1055 102.431 56.5318C100.425 56.8745 98.5279 57.585 96.5553 58.0363C93.8053 58.6632 91.0721 59.4656 88.2636 59.7415C85.2963 60.0257 82.329 60.4018 79.3283 60.1928C78.4673 60.1343 77.5479 60.3349 76.712 60.5857C76.0433 60.7863 76.0182 61.5302 75.9681 62.1237C75.8344 63.8038 75.8009 65.4922 75.6338 67.1639C75.3161 70.3235 74.8731 73.4663 74.614 76.6258C74.4803 78.1973 74.2964 79.7687 74.171 81.3484C74.1376 81.7246 74.2212 81.8165 74.5889 81.8583C75.4164 81.9586 75.9848 81.6828 76.6368 81.1311C79.7378 78.5065 83.1565 76.4002 86.9596 74.8956C90.1192 73.6418 93.3958 73.0149 96.7476 72.7809C98.0933 72.6889 99.4474 72.9815 100.785 73.1654C103.451 73.5248 106.143 73.4997 108.826 73.6335C110.673 73.7254 112.52 73.809 114.367 73.9678C117.268 74.2102 120.177 74.2771 123.085 74.2938C125.744 74.3021 128.41 74.4526 131.068 74.4024C134.286 74.3439 137.462 73.8006 140.639 73.3158C142.996 72.9564 145.361 72.6388 147.718 72.271C149.357 72.0119 150.978 71.6608 152.641 71.5689C153.059 71.5438 153.452 71.4853 153.678 72.0203C153.887 72.505 153.803 72.831 153.486 73.2239C152.165 74.8705 151.179 76.7512 150.334 78.657C149.181 81.2565 147.601 83.53 145.787 85.6782C143.815 88.0102 141.717 90.2169 139.092 91.8301C137.379 92.8917 135.757 94.0953 133.893 94.9228C131.386 96.0345 128.744 96.6196 126.07 97.0542C121.364 97.8149 116.608 97.9235 111.868 97.6728C107.731 97.4554 103.543 97.3551 99.5143 96.2184C95.8699 95.1903 92.142 94.4129 88.6481 92.8582C86.5083 91.9053 84.4354 90.8605 82.4293 89.6067C80.0638 88.1356 77.7485 86.5224 75.1155 85.511C75.0905 85.5027 75.0654 85.4859 75.0403 85.4692C73.7113 84.9593 73.7447 84.9593 73.6779 86.397C73.6193 87.726 73.4522 89.0467 73.3853 90.3757C73.1847 94.4046 72.7751 98.425 72.8587 102.479C72.9256 105.588 72.6748 108.706 72.6915 111.824C72.6915 114.29 72.6665 116.747 72.6497 119.213C72.6414 121.445 72.608 123.693 72.6163 125.925C72.633 129.569 72.5912 133.239 72.9924 136.883C73.1429 138.22 73.2516 139.583 73.0844 140.945C73.0426 141.288 73.0342 141.672 73.3351 142.007C73.7614 141.522 73.845 140.903 74.0122 140.343C75.2576 136.189 77.3807 132.495 80.1223 129.193C81.7857 127.195 83.8168 125.499 86.1405 124.27C87.5782 123.509 89.1998 123.225 90.7628 122.782C95.1678 121.545 99.6647 121.779 104.153 121.796C104.914 121.796 105.549 122.122 106.184 122.456C106.577 122.665 106.602 123.075 106.602 123.476C106.611 124.512 105.967 125.29 105.591 126.167C104.638 128.374 103.668 130.572 102.724 132.787C101.612 135.395 99.857 137.501 97.8091 139.416C94.8752 142.157 91.5903 144.406 87.9794 146.119C85.8563 147.122 83.4825 147.231 81.1588 147.398C78.7933 147.565 76.4027 147.139 74.054 147.691C73.5023 147.824 73.4354 148.017 73.4856 148.543C73.6444 150.14 73.8116 151.728 73.8199 153.341C73.8199 154.561 74.1041 155.79 74.1459 157.069C74.8481 156.342 75.4666 155.589 76.1353 154.879C78.6094 152.246 81.6687 150.491 84.87 148.936C87.8707 147.482 90.9718 146.362 94.24 145.676C98.3106 144.815 102.406 144.556 106.552 144.732C109.018 144.832 111.442 145.275 113.899 145.45C118.187 145.76 122.475 145.726 126.772 145.542C128.911 145.45 131.026 145.735 133.066 146.42C134.136 146.788 135.389 148.903 134.846 150.357C133.818 153.107 133.082 155.949 132.364 158.791C131.812 160.972 130.566 162.803 128.945 164.291C125.71 167.258 122.016 169.54 117.803 170.852C114.727 171.813 111.567 172.315 108.333 172.399C105.7 172.474 103.067 172.75 100.45 172.374C98.0431 172.022 95.6776 171.446 93.2787 171.053C90.3114 170.568 87.6367 169.314 84.9787 168.01C83.8502 167.459 83.0645 166.431 82.0364 165.728C80.6824 164.801 79.5623 163.639 78.4339 162.452C77.4977 161.474 76.2105 160.822 74.8898 160.337C74.4385 160.17 74.2797 160.32 74.3047 160.797C74.5137 164.7 74.5722 168.612 74.9651 172.499C75.3161 175.959 75.383 179.462 76.0433 182.897C76.2523 184 76.2189 185.162 76.3192 186.291C76.4947 188.355 76.7956 190.411 77.2553 192.434C77.3389 192.802 77.5479 192.919 77.8906 192.961C79.8131 193.211 81.6185 193.98 83.5076 194.34C86.2575 194.858 88.9406 195.702 91.7157 196.095C92.7689 196.246 93.7719 196.547 94.7582 196.914C96.5386 197.575 98.436 197.692 100.241 198.218C101.378 198.553 102.365 199.163 103.426 199.639C105.273 200.467 107.246 200.968 109.102 201.771C112.295 203.141 115.237 204.939 118.204 206.727C119.993 207.806 121.715 208.909 123.294 210.28C125.76 212.42 127.382 215.044 128.31 218.128C128.895 220.076 128.251 221.831 127.215 223.47C126.304 224.916 124.991 225.952 123.604 226.863C121.405 228.301 119.257 229.83 116.908 231.034C114.225 232.405 111.542 233.792 108.784 235.021C106.076 236.225 103.292 237.211 100.584 238.406C98.9793 239.117 97.2324 239.518 95.5857 240.137C93.8722 240.772 92.1587 241.382 90.4034 241.9C88.4475 242.477 86.4247 242.602 84.3936 242.611C83.2735 242.611 83.2819 242.594 83.4407 243.722C83.892 246.882 84.7112 249.95 85.5805 253.017C86.4832 256.202 87.411 259.386 88.1131 262.63C88.9072 266.266 89.8434 269.877 90.8046 273.479C92.0751 278.235 93.0363 283.075 94.5994 287.747C95.2597 289.711 95.8699 291.701 96.7308 293.607C97.2909 294.835 97.6419 296.156 98.0933 297.435C98.6366 298.989 99.2384 300.536 99.7316 302.116C100.475 304.498 101.52 306.755 102.381 309.087C103.15 311.16 104.12 313.157 104.989 315.188C105.95 317.454 106.912 319.719 107.856 321.992C108.491 323.522 109.469 324.884 110.029 326.456C110.339 327.317 110.656 328.178 110.832 329.072C111.057 330.217 110.28 331.337 109.143 331.563C108.45 331.705 107.605 331.187 107.263 330.226C106.535 328.219 105.599 326.289 104.88 324.283C104.446 323.079 104.203 321.767 103.735 320.596C102.791 318.214 102.197 315.715 100.977 313.425C99.5811 310.792 98.1267 308.159 97.1237 305.334C96.3965 303.277 95.7612 301.179 95.0173 299.14C94.1898 296.866 93.5797 294.551 92.9277 292.236C91.7073 287.889 90.5706 283.526 89.4672 279.146C88.506 275.335 87.5113 271.523 86.3578 267.77C85.4718 264.87 85.2963 261.836 84.4437 258.935C83.984 257.389 83.6664 255.792 83.2902 254.221L83.0227 254.187L83.006 254.129ZM68.3869 195.284C68.6543 195.209 68.9302 195.176 69.1726 195.059C70.8944 194.256 72.4993 193.161 74.4385 192.877C74.6057 192.852 74.7979 192.777 74.6725 192.551C74.4886 192.225 74.6391 191.791 74.3298 191.506C74.0874 191.724 74.2462 192.142 73.8868 192.275C73.845 192.225 73.7865 192.192 73.7865 192.15C73.7029 190.027 73.2014 187.996 72.4909 185.998C71.8807 184.31 71.3458 182.604 71.1953 180.782C71.0198 178.676 70.3846 176.653 69.4818 174.756C68.4036 172.482 66.6483 170.677 64.9682 168.855C63.589 167.358 62.0427 166.004 60.5047 164.667C59.5936 163.873 58.7828 162.953 57.7798 162.251C55.6651 160.755 53.5253 159.301 51.5777 157.554C49.3794 155.581 47.0223 153.776 44.6903 151.962C43.2442 150.842 41.4722 150.232 39.9677 149.187C37.995 147.816 35.7382 147.139 33.5399 146.286C32.1273 145.743 30.7314 145.099 29.3021 144.656C26.3014 143.72 23.217 143.035 20.2581 141.906C18.3022 141.163 16.1958 140.811 14.173 140.226C12.5097 139.742 10.9633 138.931 9.19131 138.747C8.08798 138.63 7.26884 138.947 6.64195 139.767C5.44667 141.321 4.68603 143.118 4.08421 144.957C3.21492 147.64 2.43757 150.357 1.93606 153.14C1.47634 155.698 1.40947 158.231 1.93606 160.805C2.2704 162.41 2.69669 163.981 3.16477 165.545C3.75823 167.534 4.51886 169.481 5.42994 171.337C6.77568 174.095 8.60621 176.57 10.3532 179.077C11.9747 181.409 13.73 183.633 15.9785 185.438C18.2186 187.243 20.2414 189.316 22.5316 191.038C25.081 192.952 27.9313 194.432 30.8066 195.786C33.9829 197.274 37.5353 197.525 40.862 198.553C42.5922 199.088 44.4562 198.778 46.2199 199.096C48.5686 199.514 50.9508 199.514 53.3163 199.748C54.8627 199.898 56.409 199.698 57.9553 199.714C58.4067 199.714 58.9082 199.731 59.1339 200.183C59.485 200.91 59.8694 200.575 60.2957 200.316C62.5442 198.971 64.7091 197.483 67.0411 196.279C67.5176 196.037 68.0609 195.786 68.3785 195.293L68.3869 195.284ZM84.6192 240.889C86.6002 240.83 88.4057 240.789 90.0273 240.212C93.9391 238.824 97.9178 237.604 101.721 235.907C103.994 234.896 106.368 234.11 108.642 233.099C110.79 232.146 112.88 231.059 114.961 229.981C118.137 228.326 121.121 226.362 123.93 224.155C125.384 223.01 126.596 221.581 126.688 219.608C126.763 218.02 126.036 216.582 125.317 215.228C124.214 213.163 122.358 211.742 120.653 210.221C119.449 209.143 117.853 208.667 116.532 207.764C114.083 206.084 111.492 204.663 108.767 203.518C106.368 202.515 103.836 201.863 101.512 200.667C98.8372 199.288 95.8114 199.096 92.9862 198.243C90.0022 197.349 86.8928 196.873 83.8753 196.062C81.9779 195.552 80.0555 195.134 78.1497 194.666C77.6733 194.549 77.1383 194.733 76.7037 194.423C75.9263 193.863 75.1155 194.031 74.3131 194.298C73.7614 194.482 73.2432 194.758 72.6915 194.933C72.0563 195.142 71.7804 195.552 71.6801 196.204C71.2956 198.745 70.9112 201.294 70.4598 203.827C69.883 207.07 69.8329 210.322 69.8496 213.581C69.858 216.323 70.7774 218.931 71.7972 221.447C72.9339 224.255 74.288 226.972 75.7006 229.663C77.0798 232.296 78.8685 234.653 80.4483 237.144C81.0669 238.114 82.0114 238.908 82.4711 239.928C82.9141 240.922 83.541 240.956 84.3685 240.897C84.5357 240.889 84.7028 240.897 84.636 240.897L84.6192 240.889ZM78.6512 252.666C77.3473 252.666 76.0517 252.641 74.7477 252.666C71.7554 252.741 68.7714 252.825 65.779 252.95C63.9819 253.026 62.1931 253.159 60.4044 253.31C58.7243 253.452 57.0442 253.728 55.3642 253.803C51.4022 253.987 47.4569 254.204 43.5953 255.216C40.8369 255.934 38.0535 256.595 35.3704 257.539C31.2831 258.977 27.6053 261.075 24.4374 264.126C20.793 267.628 18.344 271.782 16.7475 276.513C16.5051 277.224 16.597 277.968 17.0902 278.569C18.6282 280.433 20.442 281.963 22.7072 282.866C24.1448 283.442 25.6327 283.894 27.0536 284.487C29.4442 285.49 31.8765 286.201 34.5011 286.284C36.2982 286.343 38.1037 286.251 39.9008 286.518C40.8453 286.661 41.8567 286.594 42.8012 286.435C45.944 285.917 48.9866 284.972 52.0291 284.078C54.5868 283.334 56.7768 281.838 59.0336 280.484C62.7866 278.218 66.4142 275.786 69.5069 272.635C70.9362 271.18 72.5996 269.96 73.8868 268.347C75.4081 266.433 76.4947 264.226 77.9157 262.245C79.0023 260.741 80.022 259.194 80.8579 257.522C81.4012 256.444 82.0866 255.45 82.2454 254.212C82.3708 253.268 82.212 253.067 81.2507 253.026C81.0251 253.017 80.8244 253.092 80.6155 253.168C77.6565 254.246 74.6809 255.291 71.6384 256.118C69.8162 256.62 68.0358 257.197 66.2721 257.857C63.7228 258.801 61.3824 260.206 58.95 261.393C56.6347 262.529 54.1438 263.273 51.8619 264.452C47.9 266.483 44.0216 268.69 40.0847 270.771C38.1288 271.807 36.2314 272.919 34.3256 274.031C31.2747 275.811 28.274 277.675 25.407 279.74C24.7968 280.183 24.2033 280.626 23.4093 280.684C23.1084 280.701 22.7239 280.876 22.6069 280.509C22.4564 280.041 22.9746 279.982 23.2337 279.907C24.195 279.639 24.9723 279.104 25.7748 278.536C29.277 276.062 33.0133 273.939 36.7245 271.807C40.1014 269.868 43.5117 267.979 46.9554 266.149C49.1203 264.995 51.352 263.959 53.5754 262.914C54.8794 262.304 56.2335 261.81 57.529 261.192C59.6438 260.189 61.7418 259.144 63.8231 258.074C67.3922 256.235 71.2873 255.324 75.057 254.054C76.269 253.644 77.5311 253.377 78.6512 252.633V252.666ZM150.401 4.42432C149.515 4.14849 148.679 3.86429 147.827 3.63861C145.252 2.94485 142.845 1.60747 140.053 1.74121C139.585 1.76629 139.126 1.89167 138.658 1.83316C136.752 1.59076 134.838 1.84987 132.949 1.99197C130.165 2.20093 127.415 2.73588 124.64 3.02843C122.408 3.26248 120.202 3.63861 118.003 4.02311C115.613 4.44104 113.273 5.1348 110.907 5.69483C108.558 6.25485 106.243 6.97369 104.095 8.05195C101.378 9.42276 98.7871 11.0276 96.455 13.0086C94.4907 14.6803 92.5181 16.327 90.8547 18.3163C89.3335 20.1468 88.3555 22.295 87.2271 24.3512C85.8897 26.7836 84.8951 29.3747 83.7332 31.8906C82.9141 33.671 81.9529 35.3929 81.3009 37.2318C80.1641 40.4499 79.7713 43.8685 78.8853 47.1534C78.3252 49.2514 78.459 51.4498 77.9658 53.5645C77.7903 54.3251 77.4141 55.1025 77.5813 55.9132C77.8906 55.6458 78.1831 55.4034 78.459 55.1443C80.3647 53.3221 82.4962 51.759 84.4437 49.987C87.1603 47.5045 90.044 45.2142 92.9862 43.0159C95.3099 41.2857 97.6921 39.6307 100.066 37.959C102.298 36.3792 104.362 34.5905 106.527 32.9271C110.18 30.1353 113.916 27.4439 117.535 24.6103C120.854 22.0108 124.18 19.4447 127.833 17.33C130.441 15.8171 133.024 14.2457 135.632 12.7244C138.524 11.036 141.433 9.38096 144.325 7.70089C146.297 6.5474 148.295 5.42735 150.41 4.41596L150.401 4.42432ZM77.0297 58.3707C77.2052 58.4292 77.272 58.4793 77.3473 58.471C80.2226 58.3289 83.098 58.3038 85.9733 58.1116C89.0493 57.9026 91.9915 57.1754 94.9672 56.5318C97.458 55.9968 99.882 55.186 102.373 54.6595C104.939 54.1162 107.405 53.3555 109.795 52.294C112.453 51.1238 115.245 50.2628 117.845 48.9505C119.466 48.1314 121.105 47.3624 122.676 46.443C124.055 45.6322 125.401 44.7629 126.772 43.9354C128.435 42.9324 130.19 42.0965 131.703 40.8511C133.241 39.5806 134.629 38.1512 136.091 36.7971C138.223 34.8162 139.978 32.551 141.391 30.0267C142.444 28.146 143.472 26.2486 144.258 24.2258C145.311 21.5344 146.147 18.7844 146.632 15.9341C147.192 12.6492 147.869 9.39768 149.465 6.42202C149.616 6.12947 149.891 5.87871 149.908 5.42735C147.952 6.58919 146.088 7.72596 144.199 8.82094C141.859 10.1834 139.527 11.5542 137.212 12.9417C134.813 14.371 132.43 15.8422 130.023 17.2548C127.683 18.6339 125.392 20.0716 123.169 21.6347C120.561 23.4652 118.054 25.4211 115.529 27.377C112.972 29.3496 110.347 31.2387 107.798 33.2113C104.688 35.6102 101.596 38.0342 98.3775 40.2743C94.8585 42.7234 91.4231 45.2895 88.1549 48.0645C85.2294 50.5554 82.329 53.0797 79.4703 55.6458C78.5843 56.4398 77.8655 57.4261 77.0297 58.379V58.3707ZM105.499 145.969C102.281 145.919 99.9071 146.036 97.5416 146.336C94.0644 146.779 90.6959 147.649 87.4194 148.894C84.9536 149.83 82.6884 151.151 80.4483 152.53C78.2918 153.859 76.3442 155.456 74.7979 157.487C74.1209 158.381 74.1794 158.473 75.2994 158.791C77.2804 159.359 78.902 160.546 80.2394 162.026C82.003 163.973 83.984 165.728 86.2324 166.94C88.6982 168.269 91.3396 169.389 94.2651 169.674C96.455 169.883 98.6032 170.576 100.793 170.836C103.877 171.203 106.978 170.936 110.071 170.785C112.211 170.685 114.317 170.334 116.365 169.766C120.252 168.679 123.771 166.823 126.897 164.266C128.519 162.945 130.015 161.449 130.725 159.443C131.845 156.267 132.372 152.898 133.534 149.722C133.843 148.894 133.116 147.866 132.33 147.615C130.182 146.947 127.984 146.821 125.752 146.938C122.124 147.122 118.497 147.122 114.869 146.846C111.459 146.587 108.073 145.944 105.474 145.969H105.499ZM77.481 240.897C78.5927 240.897 79.696 240.897 80.8077 240.897C81.234 240.897 81.3761 240.805 81.1003 240.379C79.8966 238.565 78.8017 236.676 77.5144 234.921C75.6672 232.405 74.3465 229.63 73.0259 226.83C71.8473 224.331 70.7356 221.823 69.883 219.173C69.0806 216.674 68.7546 214.166 68.8299 211.575C68.9302 208.449 69.206 205.34 69.8747 202.264C70.2759 200.408 70.4347 198.494 70.9864 196.664C71.0533 196.438 71.2789 196.154 71.0616 195.97C70.8276 195.769 70.5099 195.987 70.3093 196.129C68.9218 197.098 67.3587 197.742 65.9629 198.711C64.0989 200.007 62.1179 201.119 60.2289 202.372C57.4371 204.228 54.7958 206.284 52.3718 208.608C50.6917 210.221 48.9113 211.734 47.3817 213.481C45.5428 215.579 43.6956 217.685 42.1743 220.034C40.8202 222.124 39.3742 224.163 38.973 226.721C38.5634 229.321 38.8476 231.736 40.2602 234.06C42.1409 237.136 45.2503 238.323 48.2928 239.61C50.5998 240.588 53.0488 241.106 55.5313 241.516C57.9721 241.925 60.4044 242.226 62.8702 242.293C64.9849 242.352 67.0411 241.85 69.1224 241.541C71.8891 241.123 74.6809 240.906 77.481 240.881V240.897ZM77.1634 81.7747C77.7819 81.7747 78.3001 81.7831 78.81 81.7747C81.7773 81.7079 84.7112 82.201 87.6618 82.3849C88.5645 82.4434 89.4756 82.5437 90.3198 82.9031C92.5432 83.8309 94.8502 84.5163 97.0234 85.603C97.9679 86.0794 98.9292 86.5893 99.9322 86.9403C101.596 87.5254 103.309 87.9768 105.006 88.47C106.811 88.9966 108.633 89.4897 110.506 89.7154C113.231 90.0414 115.956 90.3674 118.681 90.6933C121.313 91.011 123.905 91.6462 126.596 91.571C131.235 91.4456 135.657 90.802 139.886 88.5703C143.154 86.84 145.378 84.3157 147.242 81.3317C148.746 78.9161 149.741 76.2079 151.262 73.7839C151.346 73.6502 151.496 73.5081 151.379 73.3409C151.271 73.1821 151.078 73.2239 150.92 73.274C149.858 73.6084 148.738 73.6502 147.651 73.8257C143.689 74.4693 139.711 74.9708 135.74 75.5141C133.208 75.8652 130.667 75.8819 128.109 75.8401C124.323 75.7816 120.536 75.673 116.758 75.5392C114.902 75.4723 113.064 75.138 111.208 75.0711C108.466 74.9708 105.733 74.8287 103 74.6448C101.228 74.5278 99.4808 74.1183 97.7172 74.043C94.5325 73.9009 91.4399 74.5696 88.4308 75.5643C85.0121 76.6927 81.9445 78.5316 78.9103 80.429C78.3169 80.8051 77.7318 81.198 77.1801 81.7831L77.1634 81.7747ZM19.439 99.2358C19.7649 99.6454 19.9405 99.9797 20.2163 100.189C22.3895 101.86 24.5711 103.507 26.3264 105.655C27.4966 107.093 29.1767 107.912 30.6478 108.99C31.4753 109.6 32.3112 110.202 33.3059 110.486C35.8636 111.222 38.5467 111.255 41.1211 111.966C43.2275 112.551 45.4258 112.459 47.6241 112.217C50.7252 111.874 53.6423 111.097 56.3505 109.517C58.8831 108.046 60.8641 105.981 62.8618 103.892C64.6422 102.019 65.8208 99.7708 67.1581 97.6143C68.2448 95.859 68.9051 93.9365 69.6992 92.0558C70.1254 91.0528 70.3177 89.9829 70.5768 88.9464C70.8694 87.818 71.4294 86.7732 71.5297 85.603C71.5631 85.2686 71.7554 84.8256 71.4294 84.5999C71.1536 84.4077 70.9028 84.8089 70.6186 84.9092C70.3344 85.0095 70.0419 85.1265 69.7827 85.2686C66.7068 86.9821 63.4636 88.3362 60.3375 89.9494C58.3482 90.9692 56.3672 92.0056 54.3277 92.9334C51.9204 94.0201 49.5382 95.1986 47.2313 96.5193C45.2586 97.6477 43.0687 98.2913 41.0292 99.2693C36.666 101.359 32.0855 101.593 27.4047 100.849C24.7884 100.431 22.2474 99.612 19.4557 99.2358H19.439ZM18.227 97.5975C19.8067 98.1994 21.3363 98.4752 22.8409 98.8346C25.7162 99.52 28.5665 100.381 31.5589 100.322C33.7154 100.281 35.9054 100.289 37.9532 99.4866C40.3939 98.5253 42.843 97.539 45.2085 96.4106C47.7244 95.1986 50.1233 93.7442 52.6309 92.5072C54.637 91.5125 56.643 90.5095 58.6407 89.4897C61.9424 87.7929 65.2022 86.0292 68.5206 84.3659C70.652 83.3043 70.7189 82.9784 68.7881 81.5825C68.6794 81.4989 68.5457 81.4571 68.4287 81.3819C66.2471 80.0111 63.7646 79.6934 61.2904 79.3675C59.3847 79.1167 57.4538 79.1836 55.5815 79.5012C53.6172 79.8355 51.6697 80.2535 49.672 80.3621C47.3734 80.4959 45.058 80.663 42.8848 81.4404C39.3491 82.7025 35.7382 83.8059 32.3697 85.511C29.3104 87.0574 26.3849 88.821 23.8021 91.1364C21.6791 93.0338 20.4085 95.6333 18.227 97.5892V97.5975ZM71.6133 58.8805C70.3261 58.2286 68.9302 57.9193 67.7349 57.1754C66.4393 56.3646 64.9849 56.0052 63.5305 55.6792C62.6612 55.487 61.8421 55.1526 61.0229 54.835C59.3763 54.1997 57.7213 53.6063 55.9576 53.3388C53.7175 52.9961 51.4942 52.5865 49.254 52.2271C47.7495 51.9847 46.2867 51.5584 44.7738 51.3495C41.7564 50.9232 38.7055 50.9148 35.6881 50.4384C33.239 50.0539 30.7648 49.778 28.2991 49.5189C24.7216 49.1428 21.2528 48.4156 17.9762 46.8692C17.3827 46.5851 16.7893 46.2925 16.1791 46.0334C15.9701 45.9414 15.6441 45.7576 15.594 46.1671C15.5438 46.5934 15.4853 47.0531 15.7779 47.446C17.6418 49.9536 19.882 52.085 22.2976 54.0409C23.9442 55.3699 25.9503 56.0888 27.8059 57.0667C29.2101 57.8023 30.6227 58.5295 32.1942 58.8053C33.9996 59.1229 35.7633 59.5827 37.5102 60.1176C38.6971 60.477 39.8924 60.7612 41.1378 60.9033C43.2359 61.1374 45.3422 61.0789 47.4402 61.3045C49.1203 61.4884 50.8004 61.6305 52.4805 61.7141C54.9128 61.8311 57.3368 61.4132 59.7692 61.3965C60.3208 61.3965 60.8725 61.3547 61.4158 61.2627C63.2463 60.9702 65.0769 60.6609 66.9074 60.3433C68.5206 60.0591 70.0837 59.6077 71.6133 58.8973V58.8805ZM73.636 145.542C74.2462 144.69 74.7227 143.745 75.4749 143.018C79.3533 139.232 83.1732 135.378 87.7955 132.461C90.2111 130.94 92.5348 129.268 95.1845 128.165C98.0432 126.97 100.994 125.975 103.593 124.211C103.802 124.069 104.061 123.927 104.262 124.195C104.463 124.454 104.479 124.78 104.262 125.039C104.12 125.198 103.911 125.306 103.727 125.415C101.896 126.552 99.8987 127.362 97.9094 128.14C95.2932 129.168 92.7689 130.313 90.4285 131.884C87.9961 133.514 85.4885 135.044 83.215 136.891C81.4513 138.321 79.8549 139.934 78.0996 141.38C76.7956 142.45 75.6755 143.72 74.6391 145.058C74.4719 145.275 74.1543 145.501 74.3465 145.76C74.497 145.969 74.8564 145.868 75.1322 145.81C75.4331 145.751 75.7341 145.735 76.035 145.735C77.9157 145.71 79.7963 145.693 81.677 145.668C85.4718 145.626 88.7985 144.222 91.8494 142.099C93.4125 141.012 94.9755 139.9 96.3631 138.58C97.7088 137.309 99.1799 136.122 100.116 134.501C102.072 131.149 103.434 127.505 105.039 123.977C105.29 123.417 105.073 123.2 104.529 123.192C103.117 123.175 101.713 123.15 100.3 123.166C96.8729 123.208 93.4375 123.283 90.1192 124.32C88.5394 124.813 86.9847 125.315 85.5638 126.226C83.7249 127.413 82.212 128.942 80.7994 130.564C79.4954 132.06 78.3586 133.732 77.3974 135.47C76.2188 137.602 75.3747 139.9 74.5221 142.182C74.1209 143.261 73.7196 144.347 73.636 145.526V145.542ZM74.1794 58.2536C74.1794 58.145 74.2044 58.0781 74.1794 58.0447C71.9643 54.6511 69.3481 51.6587 65.8626 49.4855C63.6475 48.1063 61.3071 46.9863 58.8079 46.234C56.6848 45.5987 54.4865 45.3146 52.3049 44.905C49.7723 44.4369 47.2814 43.7766 44.7404 43.3921C39.976 42.6732 35.1865 42.2637 30.3636 42.2971C27.4214 42.3138 24.5043 42.4225 21.6289 43.041C19.9739 43.4004 18.344 43.8434 16.8812 44.7378C16.5051 44.9718 16.1791 45.1307 16.8729 45.465C17.6168 45.8244 18.369 46.1504 19.1297 46.468C22.122 47.7302 25.2816 48.3571 28.4829 48.6246C33.122 49.0174 37.7108 49.8282 42.3666 50.0873C46.9471 50.3381 51.3353 51.8259 55.8908 52.2689C58.2897 52.5029 60.488 53.4642 62.7365 54.2499C64.5503 54.8768 66.573 54.8433 68.1946 56.0637C69.2729 56.8745 70.6604 56.9999 71.8557 57.6017C72.5411 57.9444 73.3351 58.3205 74.1961 58.262L74.1794 58.2536ZM136.651 91.5376C134.955 91.8468 133.534 92.2815 132.046 92.4737C128.502 92.9251 124.966 92.992 121.456 92.3316C118.739 91.8218 115.989 91.5125 113.247 91.1447C111.091 90.8605 108.951 90.6181 106.828 90.0748C102.991 89.0969 99.2969 87.7846 95.6693 86.2048C92.4596 84.8089 89.2499 83.4214 85.5972 83.1539C81.9445 82.8864 78.3001 82.6106 74.6391 82.5688C74.3298 82.5688 74.0038 82.5019 73.9453 82.9366C73.8868 83.3545 74.2379 83.3461 74.4803 83.4381C75.6338 83.9062 76.8207 84.299 77.9407 84.8507C79.5957 85.6698 81.1253 86.723 82.7051 87.6759C84.5189 88.7709 86.2157 90.0581 88.2302 90.8104C90.3449 91.6044 92.4178 92.5155 94.5994 93.1257C96.0872 93.5436 97.6169 93.8278 99.0963 94.2708C100.367 94.6553 101.671 94.9813 102.983 95.1318C105.758 95.4494 108.55 95.6416 111.342 95.8673C114.944 96.1599 118.538 95.8673 122.141 95.7587C125.175 95.6667 128.126 95.0231 131.051 94.2625C133.032 93.7442 134.796 92.8164 136.651 91.5292V91.5376Z" fill="var(--fill-0, #E7DFD2)"/>
</svg>
