<svg preserveAspectRatio="none" width="100%" height="100%" overflow="visible" style="display: block;" viewBox="0 0 209.886 215.139" fill="none" xmlns="http://www.w3.org/2000/svg">
<path id="Vector" d="M79.9573 167.835C79.5357 167.047 79.2044 166.292 78.9736 165.521C78.6223 164.364 78.291 163.208 78.1204 162.011C77.9698 160.902 77.5884 159.826 77.3977 158.717C77.1066 157.007 76.5043 155.36 75.7214 153.753C75.2596 152.805 74.7778 151.858 74.4265 150.878C73.7439 148.95 73.5131 147.022 74.1153 145.03C74.7276 143.013 75.5909 141.086 76.8958 139.302C77.7891 138.081 78.8029 136.917 79.9272 135.816C81.212 134.555 82.557 133.334 83.9924 132.185C86.7026 130.008 89.7741 128.257 93.3977 127.157C95.3149 126.57 97.2321 125.976 99.1995 125.526C101.9 124.908 104.63 124.45 107.45 124.241C110.833 123.992 114.206 123.912 117.589 124.04C120.349 124.145 123.099 124.329 125.84 124.635C128.239 124.9 130.638 125.205 133.027 125.51C134.532 125.703 136.038 125.92 137.554 126.105C139.119 126.297 140.695 126.498 142.271 126.667C144.841 126.94 147.37 127.35 149.779 128.137C150.492 128.37 151.215 128.627 151.787 129.045C152.931 129.864 153.202 130.94 152.891 132.097C152.5 133.559 151.747 134.9 150.592 136.089C149.438 137.278 147.882 137.993 146.126 138.443C144.158 138.949 142.251 139.608 140.254 140.057C138.838 140.379 137.433 140.732 136.018 141.045C134.873 141.294 133.719 141.56 132.565 141.776C130.828 142.106 129.092 142.459 127.345 142.74C126.111 142.941 124.876 143.23 123.641 143.471C121.574 143.881 119.486 144.234 117.368 144.419C113.654 144.757 109.93 145.086 106.216 145.455C104.379 145.64 102.562 145.921 100.735 146.106C99.2196 146.259 97.6838 146.355 96.1882 146.612C94.2409 146.941 92.3237 147.359 90.4567 147.913C88.0778 148.62 86.01 149.761 83.9523 150.894C82.3563 151.769 80.9711 152.87 79.8067 154.107C79.4554 154.484 79.2346 154.942 78.9836 155.376C78.8632 155.585 78.7728 155.786 78.4817 155.882C78.3412 155.93 78.291 156.027 78.3312 156.155C78.6925 157.529 78.7728 158.926 79.0338 160.308C79.2847 161.657 79.4755 163.015 79.7967 164.348C80.1279 165.698 80.6097 167.031 81.2622 168.325C81.6838 169.16 82.1154 170.003 82.3061 170.911C82.4065 171.385 82.9084 171.731 83.2396 172.124C84.0727 173.096 84.6348 174.197 85.4278 175.185C86.02 175.924 86.7528 176.566 87.3551 177.289C89.1016 179.378 91.1894 181.217 93.468 182.928C94.2208 183.498 94.7026 184.254 95.335 184.912C96.0376 185.643 96.7002 186.39 97.463 187.097C98.2259 187.804 98.8683 188.599 99.6613 189.298C101.267 190.704 102.683 192.246 104.489 193.507C104.73 193.676 104.69 194.013 105.142 194.094C105.062 193.411 104.77 192.8 104.55 192.174C104.218 191.25 103.536 190.447 103.114 189.547C102.241 187.7 101.719 185.796 101.639 183.82C101.558 181.884 102.11 180.028 102.743 178.173C103.435 176.124 104.349 174.14 105.252 172.148C105.594 171.409 106.085 170.734 106.557 170.06C106.708 169.843 106.959 169.618 107.32 169.69C107.671 169.762 107.872 170.003 107.952 170.285C108.374 171.763 108.585 173.265 108.715 174.767C108.836 176.165 108.896 177.554 108.926 178.96C108.966 181.265 108.856 183.563 108.464 185.852C108.193 187.426 107.681 188.969 107.42 190.543C107.21 191.804 106.758 193.041 106.818 194.335C106.818 194.431 106.818 194.56 106.748 194.608C106.186 195.009 106.607 195.226 106.949 195.515C108.675 197.002 110.552 198.375 112.369 199.789C115.099 201.901 117.829 204.03 120.62 206.095C122.567 207.532 124.635 208.858 126.683 210.199C127.857 210.962 128.961 211.814 130.206 212.489C131.28 213.067 132.173 213.79 133.147 214.449C133.278 214.537 133.438 214.633 133.378 214.81C133.308 215.003 133.067 214.963 132.896 215.035C132.203 215.3 131.762 215.011 131.25 214.682C129.905 213.806 128.489 213.003 127.144 212.127C125.699 211.179 124.344 210.143 122.868 209.227C121.032 208.087 119.285 206.858 117.619 205.572C116.304 204.568 114.999 203.54 113.774 202.456C112.349 201.195 110.653 200.142 109.067 199.01C107.691 198.03 106.326 197.026 105.092 195.933C104.389 195.315 104.339 195.274 103.385 195.612C102.582 195.901 101.839 196.263 101.067 196.584C99.1895 197.363 97.1518 197.757 95.0841 197.998C93.9297 198.126 92.7353 198.046 91.5608 198.014C89.3927 197.949 87.2145 197.909 85.0865 197.556C81.754 197.002 78.3513 196.744 75.0388 196.126C73.5834 195.853 72.148 195.58 70.8531 194.961C70.4817 194.784 70.1906 194.568 70.2207 194.214C70.2508 193.861 70.6724 193.788 71.0137 193.716C73.8242 193.114 76.5846 192.375 79.4353 191.925C81.0915 191.66 82.7678 191.555 84.4441 191.451C86.1706 191.338 87.887 191.258 89.6135 191.17C91.6713 191.065 93.6587 191.387 95.6161 191.845C97.8143 192.359 99.9323 193.033 102.06 193.716C102.131 193.74 102.211 193.732 102.452 193.756C101.849 193.25 101.348 192.825 100.856 192.399C99.0188 190.832 97.1117 189.314 95.3551 187.684C94.522 186.912 93.6587 186.165 92.8858 185.354C92.0326 184.462 91.1393 183.595 90.3262 182.679C89.1819 181.378 87.9573 180.117 86.803 178.823C85.6185 177.506 84.3738 176.229 83.1693 174.92C81.6536 173.281 80.2885 171.562 79.0037 169.811C78.4416 169.048 77.498 168.55 76.685 167.971C74.838 166.662 72.8205 165.521 70.8531 164.332C70.2006 163.939 69.4779 163.625 68.7954 163.272C68.685 163.216 68.5545 163.176 68.4641 163.248C68.0526 163.593 67.6109 163.441 67.1291 163.36C66.6975 163.28 66.2558 163.425 65.8443 163.529C63.4553 164.107 61.237 164.991 59.0488 165.947C56.6899 166.975 54.3511 168.06 51.7915 168.758C49.7539 169.313 47.666 169.714 45.5983 170.18C44.5443 170.413 43.4903 170.646 42.4364 170.879C39.8065 171.457 37.1164 171.803 34.4564 172.269C32.0674 172.686 29.7086 173.209 27.3196 173.626C25.3021 173.972 23.2744 174.309 21.1966 174.446C18.6069 174.614 16.0172 174.574 13.4375 174.421C11.1589 174.293 8.89042 174.084 6.66205 173.61C4.81512 173.217 3.19907 172.518 1.6633 171.666C1.1313 171.369 0.679605 170.967 0.247984 170.574C-0.133448 170.22 -0.0631791 169.65 0.378479 169.256C1.46255 168.301 2.67709 167.457 3.96191 166.662C5.09617 165.955 6.21037 165.24 7.3647 164.557C9.19156 163.489 11.0686 162.461 12.9758 161.473C16.1276 159.834 19.2493 158.147 22.6019 156.782C24.1577 156.147 25.7136 155.488 27.3397 154.982C29.3372 154.364 31.3347 153.737 33.4025 153.263C35.5606 152.773 37.7287 152.412 39.9671 152.38C41.8241 152.356 43.661 152.532 45.4678 152.862C47.2745 153.191 49.0813 153.512 50.848 153.962C52.4942 154.38 54.1403 154.822 55.7263 155.392C57.2821 155.946 58.838 156.533 60.4139 157.055C62.8129 157.85 64.9409 158.966 66.7878 160.436C67.5808 161.063 68.3537 161.722 69.2471 162.236C70.4917 162.943 71.6461 163.738 72.8506 164.485C74.3462 165.409 75.8217 166.349 77.3073 167.321C77.0162 166.887 76.7352 166.453 76.4441 166.019C75.4002 164.501 74.3663 162.975 73.3023 161.465C72.7 160.605 71.9873 159.794 71.4051 158.926C70.1103 156.99 68.7552 155.087 67.7615 153.03C67.099 151.665 66.3562 150.331 65.6636 148.982C64.9308 147.568 64.1981 146.154 63.4955 144.732C62.9534 143.616 62.4415 142.483 61.9597 141.343C61.5281 140.314 61.0563 139.294 59.6711 138.869C58.1152 138.387 56.5393 137.953 54.8128 138.065C53.4979 138.146 52.193 138.025 50.9082 137.76C49.5933 137.495 48.2884 137.222 46.9734 136.973C45.8793 136.772 44.8454 136.443 43.8617 136.041C42.4263 135.447 40.9207 135.093 39.3247 134.957C37.4276 134.788 35.8216 134.185 34.5668 133.005C33.0813 131.591 31.3548 130.354 29.8391 128.964C28.9357 128.137 28.2531 127.173 27.5104 126.249C27.3096 125.992 27.0988 125.743 26.8479 125.518C26.1753 124.932 26.356 124.313 27.3096 124.016C29.0361 123.478 30.8228 123.333 32.6496 123.502C35.661 123.791 38.6221 124.297 41.4928 125.068C43.0989 125.494 44.5945 126.137 46.0098 126.892C47.6359 127.759 49.272 128.611 50.8881 129.486C52.8856 130.571 54.7627 131.768 56.5293 133.085C57.5632 133.856 58.577 134.635 59.5205 135.479C59.7112 135.655 59.8016 135.905 60.0927 136.009C60.2232 135.896 60.1529 135.784 60.1228 135.688C59.4603 133.406 58.8079 131.125 58.1153 128.852C57.7138 127.534 57.3725 126.209 57.1818 124.859C57.0914 124.241 56.6096 123.735 56.2483 123.213C55.5757 122.241 55.0237 121.237 54.7326 120.16C54.3712 118.819 53.6686 117.59 52.986 116.353C52.454 115.397 52.173 114.385 51.8819 113.381C51.4502 111.879 51.0186 110.368 50.858 108.818C50.7576 107.83 50.8279 106.842 51.1089 105.87C51.8015 103.5 52.173 101.099 52.3837 98.6808C52.5343 96.9859 52.3436 95.307 52.3034 93.6202C52.3034 93.3711 52.1127 93.3631 51.932 93.347C50.4063 93.1944 49.0814 92.608 47.7162 92.0939C46.331 91.5718 45.0361 90.9131 43.6811 90.3348C41.5129 89.419 39.1741 88.8326 37.016 87.9169C35.5706 87.3064 34.2155 86.5594 32.9307 85.74C31.8868 85.0733 30.7826 84.4789 29.7588 83.8041C28.0725 82.6956 26.4965 81.5068 25.2619 80.0207C23.9871 78.4865 22.9131 76.8799 21.9896 75.2091C20.9557 73.3375 20.2531 71.3855 19.8817 69.3532C19.6408 67.9957 19.4501 66.6382 19.3095 65.2726C19.0686 62.9431 18.8077 60.6136 18.1653 58.3163C17.8541 57.2158 17.7537 56.0832 17.7136 54.9505C17.6935 54.5569 18.0046 54.4043 18.4965 54.5007C20.1828 54.8381 21.4576 55.7137 22.7023 56.5973C24.2481 57.6897 25.8842 58.6858 27.43 59.7782C28.5743 60.5895 29.6484 61.4651 30.6321 62.413C31.405 63.16 32.3184 63.7625 33.3021 64.3006C34.9985 65.2164 36.5142 66.2606 37.6785 67.6262C38.592 68.6946 39.7764 69.5782 40.9709 70.4537C41.7438 71.016 42.3059 71.6988 42.7877 72.4458C43.6409 73.7391 44.4038 75.0645 45.5782 76.2132C46.2005 76.8237 46.582 77.5547 46.9634 78.2616C47.5657 79.4102 48.469 80.4224 49.1315 81.5389C49.6234 82.3663 49.8944 83.282 50.336 84.1335C50.9985 85.4187 51.2294 86.8004 51.7514 88.1177C52.2231 89.3226 52.6146 90.5356 52.7451 91.7967C52.7551 91.9092 52.7752 92.0377 52.8455 92.118C53.8191 93.1944 53.4477 94.4475 53.528 95.6283C53.6083 96.8493 53.3373 98.0703 53.3373 99.3716C53.789 98.8736 53.9496 98.3354 54.2206 97.8454C54.9835 96.4718 55.9973 95.2106 57.0613 93.9816C57.6636 93.2908 58.1554 92.5839 58.3562 91.6762C58.6774 90.2464 59.0387 88.8085 59.5808 87.4028C60.3938 85.2982 61.3073 83.2338 62.2006 81.1533C62.9735 79.346 63.8668 77.5707 64.5996 75.7553C65.6034 73.2893 67.0287 70.9678 68.4742 68.6624C69.3073 67.337 70.2609 66.0678 71.1341 64.7585C71.7866 63.7865 72.2684 62.7584 72.7301 61.7221C73.0313 61.0313 73.2621 60.3244 73.5633 59.6336C74.0551 58.501 73.9347 57.3764 73.5833 56.2518C73.5432 56.1233 73.4328 56.035 73.2922 55.9627C72.3286 55.4646 71.3349 55.0228 70.1806 54.9104C67.9522 54.6855 65.784 54.2678 63.6561 53.6974C62.4917 53.3842 61.247 53.2717 60.0626 53.0146C58.0651 52.5889 56.0174 52.3319 54.06 51.7937C52.5544 51.384 51.0186 51.0065 49.6234 50.396C48.5092 49.906 47.4351 49.3517 46.2808 48.926C45.3373 48.5806 44.3837 48.2432 43.5205 47.7934C42.326 47.1668 41.1917 46.468 40.0274 45.8013C39.1942 45.3193 38.3711 44.8213 37.5179 44.3473C36.213 43.6163 35.1992 42.6685 34.2557 41.6644C33.3724 40.7246 32.6195 39.7124 31.8366 38.7083C30.8629 37.4552 30.1804 36.1057 29.5681 34.7241C29.1063 33.6879 28.755 32.6195 28.203 31.6154C27.671 30.6515 27.3297 29.6394 26.7977 28.6915C25.8039 26.9163 25.1615 25.0446 24.3585 23.2212C24.2381 22.9481 24.0775 22.6911 23.9068 22.442C23.7663 22.2332 23.5455 22.0243 23.7763 21.7914C24.0373 21.5183 24.3384 21.3094 24.8403 21.4058C25.8742 21.6147 26.9281 21.7994 27.962 22.0002C30.0298 22.4019 32.1176 22.7553 34.1453 23.2533C36.2833 23.7755 38.341 24.4422 40.4088 25.1169C42.2758 25.7194 44.203 26.1692 46.1704 26.5146C48.1177 26.852 50.0148 27.342 51.8417 28.0007C53.4377 28.5791 55.0738 29.0771 56.6799 29.6313C58.3662 30.2097 59.9421 30.9407 61.3373 31.9126C62.7426 32.8766 64.1479 33.8325 65.4528 34.8767C66.2257 35.4872 67.0287 36.0736 67.7514 36.7323C68.2734 37.2062 68.8455 37.648 69.3374 38.146C70.3913 39.1903 71.2044 40.331 71.6661 41.6403C72.3688 43.6163 72.7201 45.6245 72.971 47.6568C73.1015 48.7493 73.7138 49.7694 74.0852 50.8217C74.4064 51.7374 74.7577 52.6692 74.828 53.6251C74.8782 54.34 74.828 55.071 75.0087 55.7779C75.1894 56.4607 75.3901 57.1354 75.5307 57.9468C75.8719 57.513 76.153 57.1836 76.414 56.8302C77.6586 55.1514 79.1342 53.6091 80.5897 52.0587C82.2158 50.3237 83.9523 48.6609 85.6687 46.9901C87.074 45.6165 88.4491 44.2108 89.9147 42.8773C91.4303 41.5037 93.0565 40.2185 94.7328 38.9574C95.6161 38.2906 96.5395 37.6641 97.4229 36.9974C98.0251 36.5395 98.4668 36.0013 98.8883 35.439C100.053 33.9128 101.348 32.4669 102.713 31.0612C103.335 30.4185 103.415 29.6956 103.415 28.9486C103.415 28.0489 103.134 27.1814 103.034 26.2897C102.924 25.4142 102.833 24.5466 102.813 23.671C102.793 22.5384 102.683 21.4138 102.833 20.2812C103.004 18.9478 103.335 17.6385 103.907 16.3773C104.479 15.1242 105.152 13.8952 105.945 12.7144C106.647 11.6621 107.501 10.6821 108.394 9.71817C110.151 7.82245 111.937 5.95082 113.393 3.88641C113.634 3.541 113.875 3.15543 114.376 2.95461C114.768 2.79395 114.989 2.84215 115.18 3.16346C115.481 3.66149 115.461 4.19968 115.471 4.71378C115.521 6.27213 115.732 7.83048 115.601 9.38884C115.38 12.0878 115.28 14.7949 114.688 17.4778C114.226 19.5984 113.152 21.5102 111.787 23.3337C110.572 24.9563 109.307 26.5628 107.982 28.1212C107.159 29.0931 106.336 30.0812 105.222 30.8684C104.981 31.0371 104.74 31.2138 104.379 31.1335C104.228 31.0933 104.108 31.1335 104.008 31.2299C102.783 32.4107 101.548 33.5995 100.324 34.7803C100.364 34.8125 100.414 34.8526 100.454 34.8848C100.886 34.5875 101.328 34.2984 101.749 33.9851C103.998 32.3303 106.336 30.78 108.856 29.3904C112.359 27.4625 116.073 25.8399 119.917 24.386C122.236 23.5024 124.585 22.675 126.974 21.9279C127.727 21.695 128.459 21.3817 129.192 21.1889C129.945 20.9881 130.096 20.5945 130.367 20.1768C130.929 19.3093 131.732 18.5703 132.434 17.783C133.318 16.8031 134.121 15.7829 134.853 14.7226C135.797 13.3731 136.469 11.9191 137.413 10.5696C138.869 8.51327 140.866 6.93885 143.586 5.95885C145.935 5.12345 148.464 4.79411 150.904 4.22378C152.339 3.88641 153.744 3.4687 155.18 3.17952C158.151 2.57707 161.022 1.70953 164.003 1.14724C165.498 0.858062 167.034 0.777734 168.55 0.625112C170.778 0.400195 173.007 0.175281 175.255 0.094954C177.544 0.0065939 179.842 -0.0576715 182.121 0.0788851C184.46 0.215442 186.748 0.592986 188.967 1.3079C190.934 1.94249 193.002 2.36019 195.09 2.69756C197.8 3.13936 200.44 3.82215 203.11 4.40854C204.415 4.68968 205.75 4.8664 207.085 5.01902C207.717 5.09132 208.329 5.25198 208.972 5.26804C209.504 5.28411 209.674 5.66967 209.845 5.96689C209.996 6.22393 209.694 6.40065 209.474 6.56131C208.681 7.16376 207.888 7.75818 207.095 8.36867C206.231 9.03539 205.529 9.81457 204.786 10.5616C203.802 11.5496 202.758 12.4895 201.684 13.4052C200.921 14.0559 200.269 14.7788 199.546 15.4616C198.462 16.4898 197.137 17.3091 195.893 18.2008C193.875 19.6547 191.305 20.1366 188.936 20.9881C186.989 21.687 185.042 22.3697 183.085 23.0445C182.312 23.3096 181.549 23.5827 180.746 23.7835C179.34 24.1209 177.945 24.4663 176.5 24.6832C174.131 25.0446 171.782 25.5025 169.393 25.7355C167.386 25.9363 165.358 26.0166 163.34 26.2014C161.845 26.346 160.349 26.5709 158.843 26.6512C156.434 26.7797 154.025 26.7878 151.616 26.7637C149.759 26.7396 147.943 26.5227 146.116 26.2496C144.349 25.9845 142.653 25.5346 140.926 25.1892C138.899 24.7796 136.891 24.3217 134.873 23.904C133.538 23.6309 132.364 23.0284 131.109 22.5786C130.577 22.3858 130.126 22.2412 129.463 22.5143C127.877 23.173 126.171 23.6469 124.484 24.1209C123.049 24.5225 121.704 25.0768 120.369 25.6551C118.763 26.354 117.157 27.0769 115.601 27.84C114.176 28.5389 112.801 29.294 111.425 30.049C110.361 30.6354 109.318 31.2459 108.284 31.8644C106.718 32.7962 105.242 33.8244 103.757 34.8366C102.713 35.5515 101.659 36.2584 100.605 36.9652C98.266 38.5236 95.9774 40.1301 93.8996 41.9295C91.7616 43.777 89.6838 45.6647 87.7766 47.6729C87.4554 48.0102 86.9636 48.2352 86.7829 48.7332C87.2145 48.6207 87.4855 48.4039 87.7967 48.2512C90.547 46.9419 93.4278 45.8976 96.5897 45.3594C98.6374 45.014 100.324 44.0742 101.95 43.038C103.706 41.9214 105.483 40.8209 107.43 39.8972C108.504 39.3831 109.619 38.9252 110.733 38.4834C111.837 38.0497 113.001 37.7203 114.166 37.391C116.655 36.7002 119.205 36.1941 121.794 35.8246C123.611 35.5675 125.428 35.3266 127.255 35.1418C129.363 34.9249 131.491 34.7803 133.609 34.692C135.717 34.5956 137.835 34.6197 139.942 34.7803C142.793 35.0052 145.624 35.3346 148.434 35.7844C150.974 36.1941 153.453 36.7564 155.882 37.4954C157.629 38.0336 159.335 38.6441 161.052 39.2224C163.852 40.1783 166.683 41.086 169.383 42.2267C171.381 43.0701 173.368 43.9377 175.406 44.7088C177.222 45.3916 179.079 45.994 180.977 46.5242C182.924 47.0785 184.881 47.6166 186.758 48.3316C187.541 48.6288 187.772 49.2473 187.361 49.8497C186.568 51.0145 185.353 51.9142 184.249 52.8701C183.074 53.8822 181.84 54.8622 180.455 55.6896C179.049 56.525 177.453 57.0632 175.707 57.264C173.559 57.505 171.411 57.7138 169.253 57.9227C167.747 58.0672 166.231 58.0351 164.715 58.0672C163.401 58.0913 162.096 58.1395 160.781 58.1154C158.211 58.0672 155.641 58.1154 153.082 57.8102C150.753 57.5371 148.414 57.3202 146.126 56.8945C144.841 56.6535 143.536 56.4768 142.281 56.0832C141.689 55.8984 140.976 55.8422 140.344 55.6735C138.467 55.1835 136.53 54.9184 134.643 54.4927C133.157 54.1633 131.611 54.0348 130.156 53.6091C128.479 53.111 126.763 52.7094 125.077 52.2355C123.812 51.882 122.487 51.6009 121.192 51.2796C119.837 50.9422 118.562 50.4602 117.308 49.9301C116.003 49.3839 114.637 48.9501 113.272 48.5083C112.279 48.187 111.345 47.7532 110.331 47.456C108.464 46.9098 106.587 46.4117 104.65 46.0503C104.028 45.9378 103.405 45.8494 102.773 45.7852C101.729 45.6808 100.755 45.978 99.7917 46.1949C97.5031 46.725 95.2346 47.3355 93.0063 48.0183C90.8482 48.677 88.7001 49.3597 86.5219 49.9622C85.5181 50.2353 84.8256 50.9583 84.1229 51.5848C83.4504 52.1792 82.7377 52.7817 82.4667 53.601C82.3764 53.8822 81.9146 53.8179 81.7139 54.075C80.8607 55.1674 79.9272 56.2197 79.0539 57.2961C78.03 58.5653 76.9861 59.8345 76.0225 61.1277C74.9284 62.5897 73.8744 64.0757 72.8707 65.5698C71.616 67.4254 70.4215 69.3131 69.2169 71.1927C68.1529 72.8475 67.2797 74.5745 66.3863 76.2855C65.3825 78.2134 64.5896 80.2055 63.7966 82.1896C62.9534 84.2941 62.2909 86.4549 61.5482 88.5836C61.3675 89.0897 61.1768 89.5877 60.966 90.15C61.4478 90.0375 61.7489 89.7484 62.0199 89.5315C63.8669 87.9892 66.1153 86.8968 68.3838 85.8364C70.8129 84.6958 73.3625 83.756 76.0124 82.9768C77.3976 82.5751 78.813 82.2538 80.2383 81.9646C81.3324 81.7397 82.4065 81.4265 83.5106 81.2256C84.8255 80.9766 86.1606 80.7919 87.4855 80.5991C87.7967 80.5509 87.9874 80.4625 88.2183 80.2697C90.2258 78.5909 92.5245 77.2334 95.2547 76.406C98.1857 75.5144 101.247 75.0083 104.369 74.7432C109.508 74.3014 114.668 74.2131 119.827 74.3014C123.732 74.3657 127.636 74.5585 131.471 75.177C133.388 75.4822 135.275 75.8919 137.152 76.3016C139.039 76.7032 140.946 77.0245 142.813 77.4743C143.897 77.7314 145.001 77.9563 146.086 78.1973C147.24 78.4463 148.424 78.6953 149.599 78.8961C150.924 79.1291 152.239 79.3701 153.554 79.6352C155.922 80.1171 158.322 80.5107 160.741 80.824C163.451 81.1774 166.161 81.5229 168.871 81.8361C170.367 82.0048 171.882 82.0932 173.378 82.2378C174.181 82.3181 175.014 82.3743 175.787 82.5591C176.741 82.784 177.102 83.2338 176.61 83.9889C175.827 85.1617 174.663 86.0774 173.579 87.0333C172.163 88.2864 170.768 89.5636 169.122 90.632C168.239 91.2023 167.285 91.6762 166.332 92.1662C165.137 92.7767 163.882 93.2747 162.638 93.7969C160.751 94.5841 158.823 95.307 156.836 95.9255C154.126 96.777 151.335 97.4196 148.535 98.0221C145.734 98.6326 142.894 99.0905 139.993 99.3234C138.387 99.4519 136.801 99.6768 135.195 99.7572C133.488 99.8375 131.792 99.9821 130.085 100.046C128.5 100.103 126.904 100.175 125.318 100.159C123.109 100.127 120.901 100.038 118.693 99.8937C115.4 99.6849 112.238 99.0423 109.087 98.2872C107.37 97.8775 105.614 97.5883 103.877 97.2028C101.719 96.7288 99.6713 96.046 97.7942 95.0339C96.399 94.2788 94.9034 93.6443 93.5282 92.8651C92.3137 92.1743 91.0891 91.4754 90.1355 90.5115C89.5533 89.9331 88.8406 89.419 88.3488 88.7925C87.3049 87.459 86.5621 86.0212 86.4316 84.4146C86.3814 83.7078 86.4015 83.0169 86.6625 82.3342C86.7327 82.1414 86.8933 82.0048 87.0539 81.8602C87.1141 81.804 87.2045 81.7317 87.1543 81.6514C87.084 81.5469 86.9435 81.571 86.8331 81.5951C85.2672 81.9165 83.6812 82.1494 82.1354 82.5109C79.4855 83.1374 76.8054 83.6917 74.2659 84.6074C72.1379 85.3705 70.0501 86.1979 68.0626 87.1779C66.1956 88.1017 64.4691 89.1781 62.8932 90.399C62.4214 90.7605 61.9697 91.1541 61.4578 91.4593C59.9622 92.351 59.902 93.7165 59.5607 94.9857C59.2194 96.279 58.9183 97.5803 58.6774 98.8896C58.4465 100.167 58.2759 101.452 58.1755 102.737C58.0249 104.697 57.9246 106.657 57.8744 108.617C57.8242 110.561 57.8743 112.505 57.8543 114.457C57.8342 116.112 57.8844 117.775 58.0751 119.421C58.2959 121.341 58.5368 123.245 58.9183 125.157C59.2194 126.627 59.4603 128.113 59.8016 129.583C60.1027 130.9 60.6046 132.177 60.9559 133.479C61.1567 134.21 61.227 134.957 61.5482 135.672C62.1504 137.005 62.4716 138.403 63.0538 139.744C63.5356 140.845 63.8869 141.969 64.3888 143.062C64.9108 144.194 65.5231 145.303 66.1153 146.411C66.7577 147.608 67.2596 148.853 67.9823 150.026C68.3637 150.645 68.7351 151.271 69.0563 151.93C70.1304 154.155 71.4051 156.324 72.9108 158.38C74.2257 160.179 75.2295 162.107 76.685 163.85C77.6486 164.991 78.4215 166.244 79.2948 167.441C79.4253 167.618 79.606 167.754 79.887 167.907L79.9573 167.835ZM103.917 44.6285C104.098 44.6927 104.178 44.7409 104.269 44.757C106.959 45.1024 109.528 45.8253 112.028 46.6527C114.708 47.5444 117.338 48.5404 119.988 49.4883C123.119 50.5968 126.462 51.2635 129.714 52.115C131.752 52.6451 133.85 53.0388 135.968 53.3842C138.226 53.7456 140.414 54.3561 142.633 54.8542C144.971 55.3843 147.33 55.8181 149.729 56.1555C152.59 56.5571 155.481 56.8141 158.392 56.8864C160.68 56.9427 162.959 56.9266 165.248 56.9025C166.542 56.8864 167.847 56.9346 169.122 56.8222C170.939 56.6535 172.766 56.533 174.583 56.3482C176.61 56.1474 178.527 55.7297 180.174 54.6935C181.308 53.9786 182.312 53.1592 183.345 52.372C184.44 51.5286 185.433 50.6209 186.367 49.665C186.648 49.3758 186.658 49.1188 186.146 48.9581C185.734 48.8296 185.363 48.6529 184.952 48.5243C182.703 47.8576 180.404 47.2632 178.196 46.5162C175.777 45.7049 173.388 44.8454 171.069 43.8413C169.132 43.0059 167.175 42.1945 165.127 41.5198C163.752 41.0619 162.407 40.5478 161.032 40.09C159.275 39.4955 157.508 38.9333 155.752 38.3469C153.945 37.7524 152.078 37.2946 150.181 36.9572C147.33 36.4431 144.449 36.0415 141.539 35.7844C139.973 35.6479 138.397 35.5033 136.831 35.5033C134.261 35.4952 131.692 35.6398 129.132 35.8567C125.779 36.1379 122.457 36.5797 119.164 37.1902C116.755 37.632 114.397 38.2183 112.108 38.9654C111.094 39.2947 110.09 39.6562 109.147 40.09C106.828 41.1744 104.65 42.4355 102.552 43.785C102.141 44.0501 101.609 44.2027 101.327 44.6124C101.669 44.7008 101.89 44.5481 102.12 44.4357C103.767 43.6485 105.563 43.1986 107.43 42.9336C109.398 42.6605 111.385 42.6042 113.373 42.5239C117.388 42.3632 121.413 42.1464 125.418 42.6123C127.425 42.8452 129.453 42.9657 131.441 43.2709C133.006 43.5119 134.522 43.9055 136.058 44.2188C138.176 44.6526 140.324 44.9899 142.412 45.504C145.242 46.2029 148.123 46.7571 150.964 47.4399C152.911 47.9058 154.919 48.195 156.906 48.5083C158.462 48.7573 159.978 49.167 161.554 49.3919C164.414 49.8016 167.285 50.0586 170.186 50.2112C172.184 50.3156 174.201 50.3237 176.209 50.2594C177.754 50.2193 179.29 50.0104 180.846 50.0184C182.041 50.0184 183.225 49.8899 184.319 49.4642C184.6 49.3598 184.901 49.3678 185.202 49.3678C185.373 49.3678 185.604 49.3357 185.644 49.5204C185.684 49.7293 185.463 49.7935 185.263 49.8176C183.797 50.0184 182.402 50.4201 180.866 50.4602C177.765 50.5406 174.673 50.7815 171.561 50.6771C169.032 50.5888 166.532 50.2915 164.023 50.0747C162.306 49.922 160.62 49.6409 158.954 49.2794C157.438 48.9501 155.892 48.7493 154.357 48.5083C151.907 48.1388 149.609 47.3596 147.18 46.9419C145.453 46.6447 143.767 46.1788 142.06 45.8013C139.892 45.3273 137.674 44.9819 135.536 44.4357C132.013 43.536 128.359 43.295 124.745 42.8854C122.818 42.6685 120.871 42.7006 118.924 42.7568C115.38 42.8613 111.847 42.9818 108.334 43.4316C106.818 43.6244 105.353 43.9618 103.927 44.6204L103.917 44.6285ZM66.8581 161.923C66.6372 161.778 66.4566 161.657 66.2759 161.529C65.3926 160.886 64.5394 160.212 63.6159 159.609C62.2508 158.717 60.5745 158.227 59.0086 157.649C57.6335 157.143 56.2784 156.581 54.8329 156.187C53.8392 155.922 52.9258 155.504 51.9019 155.279C49.2921 154.701 46.7125 154.05 44.0424 153.641C42.1353 153.344 40.2181 153.215 38.2908 153.36C35.8215 153.544 33.4527 154.131 31.1139 154.733C29.1565 155.231 27.2494 155.906 25.3623 156.573C22.8227 157.472 20.4539 158.613 18.0749 159.73C14.9131 161.208 11.9017 162.87 8.8804 164.525C6.18026 166.003 3.61061 167.61 1.22164 169.393C0.609342 169.851 0.559156 170.196 1.16142 170.63C2.24549 171.417 3.49017 172.012 4.8051 172.502C6.70223 173.217 8.73988 173.498 10.7976 173.682C13.1966 173.899 15.5956 173.972 18.0147 173.964C20.7148 173.964 23.3748 173.674 25.9947 173.184C28.6647 172.686 31.3247 172.132 33.9947 171.642C35.9119 171.289 37.8492 170.991 39.7764 170.654C42.1152 170.244 44.3937 169.682 46.6924 169.16C48.1679 168.823 49.6435 168.493 51.0989 168.1C53.5682 167.433 55.7966 166.373 58.0851 165.393C60.0124 164.565 61.9597 163.754 63.9974 163.119C64.6699 162.911 65.3524 162.726 66.0551 162.517C65.8443 162.364 65.6335 162.396 65.4428 162.388C63.6862 162.332 61.9497 162.533 60.2232 162.782C58.577 163.015 56.971 163.393 55.375 163.786C53.0964 164.34 50.7376 164.517 48.4188 164.895C46.9734 165.128 45.5581 165.457 44.1528 165.818C42.2557 166.316 40.3686 166.798 38.3912 167.055C36.6948 167.28 34.9583 167.409 33.292 167.738C30.9633 168.204 28.6847 168.831 26.366 169.353C24.8905 169.682 23.3949 169.979 21.8692 170.116C18.6069 170.413 15.3346 170.614 12.0824 170.967C8.58931 171.345 5.21663 170.887 1.7737 170.269C2.71724 170.116 3.58049 170.333 4.44373 170.461C6.66206 170.791 8.89042 170.927 11.1489 170.726C13.7587 170.493 16.3685 170.236 18.9883 170.036C21.6483 169.835 24.2682 169.513 26.8278 168.855C29.6985 168.116 32.5794 167.329 35.5806 167.015C38.2607 166.734 40.8605 166.268 43.4101 165.569C45.518 164.991 47.666 164.493 49.8743 164.22C51.3699 164.035 52.8756 163.866 54.321 163.521C56.1579 163.095 57.9647 162.605 59.8417 162.292C62.1404 161.898 64.4691 161.722 66.8782 161.915L66.8581 161.923ZM151.245 88.9371C152.61 88.8487 153.975 88.7523 155.34 88.6399C158.663 88.3507 161.975 88.0695 165.207 87.3225C167.978 86.6799 170.778 86.1176 173.388 85.0894C174.141 84.7922 175.004 84.6556 175.516 84.013C176.008 83.4025 175.978 83.2579 175.094 83.1776C173.197 83.0089 171.29 82.9125 169.413 82.6715C167.335 82.3984 165.248 82.1976 163.17 81.9084C161.132 81.6273 159.094 81.3943 157.067 81.057C154.728 80.6714 152.419 80.2215 150.111 79.7557C148.344 79.4022 146.567 79.0327 144.801 78.6712C143.295 78.3579 141.81 78.0045 140.294 77.7394C138.266 77.378 136.279 76.9281 134.271 76.5345C132.344 76.157 130.387 75.8598 128.419 75.6268C126.301 75.3778 124.173 75.3216 122.045 75.2252C119.415 75.1047 116.786 75.1127 114.156 75.1449C111.988 75.169 109.819 75.193 107.651 75.3537C106.226 75.4662 104.77 75.4662 103.365 75.667C101.468 75.9401 99.5809 76.2534 97.724 76.6711C94.9134 77.3057 92.394 78.3339 90.2258 79.8922C89.9347 80.1011 89.4027 80.2456 89.754 80.7196C89.7842 80.7597 89.7139 80.8802 89.6436 80.9204C89.3526 81.1212 89.5633 81.1694 89.7842 81.2096C92.0125 81.6032 94.0903 82.3422 96.1782 83.033C98.2761 83.7318 100.424 84.3102 102.632 84.6877C105.302 85.1376 107.942 85.6517 110.572 86.222C112.279 86.5915 113.995 86.9369 115.752 87.1056C118.02 87.3225 120.299 87.4912 122.557 87.7643C125.308 88.1017 128.048 88.4149 130.828 88.5113C133.137 88.5917 135.436 88.664 137.734 88.8246C140.173 88.9933 142.623 89.0094 145.062 89.0254C147.13 89.0335 149.197 89.0897 151.255 88.9451L151.245 88.9371ZM174.231 85.2018C172.946 85.6276 171.812 86.0453 170.648 86.3827C168.761 86.9209 166.803 87.2984 164.856 87.7081C162.537 88.19 160.199 88.5113 157.83 88.7362C154.377 89.0736 150.924 89.3146 147.431 89.3146C144.108 89.3146 140.786 89.3146 137.473 89.1138C135.215 88.9772 132.956 88.8969 130.698 88.7844C128.831 88.6961 126.954 88.6158 125.117 88.3426C122.788 87.9972 120.439 87.7803 118.09 87.6277C115.34 87.459 112.67 87.0333 110.03 86.4309C108.334 86.0453 106.637 85.6597 104.901 85.3786C103.576 85.1697 102.261 84.9448 100.956 84.6958C98.256 84.1817 95.8068 83.1214 93.197 82.4145C91.8018 82.0369 90.4567 81.5309 88.951 81.4827C88.5696 81.4747 87.9774 81.306 88.2886 81.9646C88.3488 82.0932 88.1882 82.294 88.1179 82.4627C88.0577 82.6153 87.9673 82.7679 87.9473 82.9205C87.8268 84.2781 88.0878 85.5794 88.8005 86.8325C89.463 87.9812 90.4567 88.9371 91.5006 89.8448C92.133 90.399 92.7553 90.9854 93.5684 91.4192C94.6324 91.9895 95.6964 92.5518 96.8105 93.0659C97.8846 93.572 98.9185 94.1423 100.013 94.6243C101.448 95.2588 102.964 95.7328 104.55 96.0621C106.457 96.4557 108.384 96.7931 110.251 97.2911C114.607 98.4478 119.084 98.9298 123.651 99.0101C126.161 99.0503 128.67 99.0423 131.17 98.9459C133.579 98.8495 135.968 98.5924 138.367 98.4559C139.491 98.3916 140.645 98.2711 141.779 98.1024C143.024 97.9096 144.299 97.8132 145.533 97.5723C147.411 97.2028 149.288 96.8493 151.145 96.4316C152.881 96.038 154.638 95.6524 156.314 95.1303C158.703 94.3833 161.042 93.5398 163.3 92.5598C165.559 91.5798 167.797 90.5918 169.674 89.1459C170.869 88.2302 171.943 87.2341 173.077 86.2702C173.438 85.965 173.9 85.7159 174.201 85.1938L174.231 85.2018ZM77.4077 153.761C77.759 152.862 78.0601 151.978 78.4416 151.11C79.1442 149.48 80.0476 147.946 81.4328 146.588C82.6474 145.407 84.0426 144.411 85.5784 143.52C88.9812 141.543 92.5847 139.897 96.6299 138.885C99.7315 138.114 102.853 137.439 106.025 136.901C108.223 136.523 110.472 136.362 112.68 136.009C114.597 135.704 116.505 135.374 118.442 135.182C119.917 135.037 121.403 134.9 122.858 134.692C125.207 134.354 127.546 133.936 129.925 133.752C131.742 133.607 133.548 133.43 135.355 133.205C137.032 132.997 138.708 132.828 140.394 132.724C142.733 132.587 145.072 132.442 147.35 131.96C148.625 131.695 149.88 131.39 151.004 130.82C151.938 130.346 151.917 130.016 150.984 129.51C150.964 129.502 150.954 129.494 150.934 129.486C149.579 128.852 148.103 128.466 146.587 128.177C145.423 127.96 144.249 127.799 143.074 127.647C140.665 127.334 138.246 127.036 135.827 126.747C133.649 126.49 131.471 126.153 129.282 125.944C127.566 125.783 125.87 125.454 124.153 125.341C121.955 125.197 119.757 125.012 117.538 124.972C115.139 124.932 112.75 124.9 110.361 125.012C106.758 125.181 103.195 125.582 99.7416 126.458C96.6299 127.245 93.5483 128.105 90.6675 129.374C88.0075 130.539 85.8293 132.169 83.8017 133.936C82.6875 134.908 81.6135 135.913 80.5997 136.957C79.9272 137.648 79.2647 138.354 78.7026 139.102C77.3876 140.853 76.4039 142.732 75.7314 144.708C75.2897 146.002 75.079 147.319 75.3399 148.636C75.5708 149.817 75.9924 150.966 76.5445 152.082C76.8155 152.637 76.8958 153.255 77.3977 153.753L77.4077 153.761ZM131.531 20.9961C133.037 20.5624 134.432 20.1848 135.797 19.7591C137.794 19.1325 139.802 18.514 141.83 17.9598C143.897 17.3894 145.965 16.8111 148.043 16.2729C149.779 15.8231 151.506 15.325 153.293 14.9636C154.919 14.6342 156.575 14.4575 158.221 14.2085C159.687 13.9836 161.132 13.6944 162.577 13.4132C164.786 12.9795 167.044 12.8108 169.293 12.5778C172.495 12.2485 175.707 11.9995 178.889 11.5978C181.087 11.3167 183.285 10.9874 185.473 10.658C187.481 10.3528 189.478 9.98326 191.506 9.74228C193.484 9.51736 195.471 9.34064 197.418 9.01933C200.048 8.58556 202.658 8.04736 205.258 7.50917C206.262 7.30032 207.326 7.11557 208.048 6.40869C208.139 6.32836 208.269 6.22393 208.259 6.13557C208.259 5.99098 208.058 6.03115 207.928 6.01509C205.74 5.71788 203.541 5.43673 201.423 4.8905C199.075 4.28805 196.716 3.74182 194.337 3.22772C193.393 3.02691 192.44 2.88231 191.516 2.6092C189.649 2.06297 187.832 1.39626 185.885 1.05085C184.67 0.833968 183.436 0.568882 182.201 0.536751C179.993 0.480522 177.775 0.536756 175.566 0.617083C173.117 0.697411 170.688 0.93036 168.269 1.21954C167.305 1.34003 166.322 1.35609 165.358 1.50068C163.501 1.78183 161.684 2.22363 159.887 2.68953C157.107 3.40444 154.316 4.09526 151.536 4.81017C149.619 5.30017 147.662 5.66967 145.754 6.15967C143.536 6.72196 141.689 7.70999 140.163 9.06752C138.889 10.2001 138.065 11.5818 137.232 12.9393C136.57 14.0237 135.897 15.1081 135.064 16.1283C134.582 16.7147 134.121 17.3171 133.488 17.8071C132.976 18.1927 133.087 18.755 132.756 19.1888C132.334 19.743 131.973 20.3214 131.521 20.9881L131.531 20.9961ZM131.461 21.6066C132.645 22.0806 133.639 22.6027 134.763 22.8678C137.905 23.5988 141.057 24.3217 144.229 24.9884C146.296 25.4222 148.404 25.7355 150.562 25.8238C153.182 25.9363 155.782 25.8479 158.392 25.7435C160.5 25.6551 162.588 25.382 164.685 25.1651C166.723 24.9563 168.781 24.9242 170.798 24.5948C172.615 24.2976 174.412 23.9201 176.239 23.6871C179.1 23.3176 181.729 22.434 184.359 21.5183C186.347 20.8275 188.304 20.0804 190.342 19.4699C192.349 18.8675 194.277 18.1847 195.913 16.9637C197.619 15.6865 199.205 14.345 200.741 12.9393C202.548 11.2846 204.244 9.56555 206.121 7.83048C204.585 8.15179 203.16 8.449 201.735 8.75425C199.908 9.14785 198.091 9.56555 196.224 9.80653C193.574 10.1439 190.904 10.3849 188.274 10.7946C186.407 11.0837 184.52 11.3408 182.653 11.63C180.776 11.9191 178.889 12.1521 176.992 12.3368C175.436 12.4895 173.87 12.5939 172.304 12.7385C170.427 12.9152 168.56 13.1321 166.683 13.3088C165.177 13.4454 163.692 13.6623 162.236 13.9755C160.369 14.3772 158.482 14.6904 156.565 14.9234C154.628 15.1563 152.731 15.4857 150.874 15.9596C148.826 16.4817 146.808 17.0601 144.781 17.6144C143.094 18.0722 141.388 18.4899 139.712 18.9799C137.995 19.486 136.319 20.0563 134.612 20.5865C133.609 20.8998 132.595 21.1729 131.461 21.6066ZM77.8494 154.781C78.03 154.781 78.0401 154.685 78.0702 154.613C78.5721 153.544 79.4353 152.677 80.4391 151.898C82.0752 150.629 83.8921 149.568 85.8594 148.628C87.5257 147.833 89.1719 147.062 91.0088 146.564C92.8657 146.066 94.7428 145.656 96.66 145.375C99.1493 145.022 101.669 144.853 104.158 144.54C107.2 144.154 110.281 143.945 113.333 143.648C115.4 143.447 117.498 143.319 119.536 142.997C122.798 142.491 126.02 141.849 129.252 141.222C131.611 140.764 133.99 140.363 136.319 139.824C138.979 139.206 141.639 138.612 144.259 137.881C145.333 137.583 146.477 137.415 147.481 137.013C148.806 136.483 149.91 135.688 150.623 134.611C151.385 133.446 152.058 132.266 152.028 130.908C152.028 130.812 152.078 130.707 151.948 130.651C151.797 130.587 151.757 130.715 151.667 130.772C150.392 131.519 149.007 132.033 147.461 132.37C144.871 132.924 142.221 133.053 139.581 133.278C138.728 133.35 137.875 133.422 137.032 133.503C134.713 133.736 132.404 134.001 130.085 134.21C128.379 134.354 126.703 134.595 125.026 134.852C123.561 135.077 122.095 135.302 120.62 135.487C119.104 135.68 117.568 135.776 116.063 135.993C113.875 136.314 111.696 136.684 109.488 136.909C108.143 137.045 106.798 137.206 105.483 137.471C102.652 138.033 99.8118 138.603 97.0414 139.326C95.0138 139.857 93.0163 140.459 91.1593 141.286C88.8708 142.307 86.6725 143.463 84.6248 144.781C82.9084 145.881 81.4228 147.158 80.3788 148.733C79.5758 149.946 78.9635 151.215 78.4918 152.532C78.2308 153.271 77.8494 153.986 77.8293 154.781H77.8494ZM73.2722 53.6894C73.4328 53.6171 73.3826 53.5046 73.3625 53.4243C73.2119 52.4925 72.961 51.5688 72.6297 50.6691C72.3487 49.8899 72.0175 49.1107 71.8167 48.3155C71.4152 46.7089 71.3751 45.0542 70.9836 43.4477C70.8531 42.9175 70.7527 42.3793 70.5118 41.8732C69.8292 40.4354 68.8255 39.1501 67.5908 37.9613C66.9685 37.3588 66.2759 36.8046 65.5632 36.2905C64.4491 35.4711 63.3148 34.6679 62.2106 33.8325C60.8756 32.8203 59.4402 31.9367 57.8443 31.2218C55.8969 30.3463 53.7689 29.784 51.7514 29.0369C50.0048 28.3863 48.1579 27.9204 46.2608 27.6071C43.9822 27.2296 41.7538 26.7155 39.6058 26.0005C38.5618 25.6551 37.528 25.2776 36.4539 24.9804C35.1591 24.6189 33.8441 24.3217 32.5392 23.9924C30.7324 23.5345 28.8654 23.2694 27.0285 22.916C26.9081 22.8919 26.7274 22.8115 26.6571 22.9481C26.617 23.0284 26.6873 23.165 26.7475 23.2614C27.5003 24.3137 28.2933 25.3499 29.3472 26.2255C31.3648 27.8963 33.4225 29.5269 35.7714 30.9085C38.0298 32.242 40.2482 33.6156 42.5067 34.949C44.2231 35.9611 46.1202 36.7483 47.8166 37.7846C48.469 38.1782 49.0814 38.6119 49.7539 38.9815C51.8618 40.1382 54.1504 41.086 56.0977 42.4516C57.0814 43.1344 58.3562 43.4959 59.39 44.1545C60.8957 45.1104 62.5921 45.8575 64.1479 46.7652C65.9647 47.8335 67.8117 48.8537 69.4578 50.0907C70.311 50.7333 71.1843 51.3519 71.8368 52.1391C72.2785 52.6773 72.7803 53.1833 73.2621 53.6974L73.2722 53.6894ZM25.2418 22.6509C25.6233 23.3337 25.8642 24.0165 26.1452 24.6992C26.3058 25.1089 26.3761 25.5507 26.5768 25.9282C26.9482 26.611 27.2494 27.3179 27.5405 28.0168C27.8717 28.82 28.3334 29.5751 28.7149 30.3543C28.9658 30.8684 29.1666 31.3985 29.4276 31.9126C29.9194 32.8846 30.351 33.8726 30.7826 34.8607C31.164 35.7523 31.666 36.5957 32.1879 37.4392C32.8103 38.4352 33.5831 39.367 34.4062 40.2667C35.1591 41.1021 35.8517 41.9857 36.7651 42.7167C38.5518 44.1465 40.8303 45.0462 42.7676 46.3153C44.0625 47.1668 45.6384 47.6729 47.114 48.2994C47.7062 48.5484 48.3185 48.7814 48.8906 49.0625C49.8542 49.5365 50.8178 50.0345 51.8919 50.3237C54.4013 50.9984 56.9308 51.6009 59.5205 52.0507C61.7489 52.4443 63.9672 52.8861 66.1354 53.4565C66.8179 53.6332 67.5005 53.8019 68.2132 53.8822C69.9397 54.0669 71.7163 54.1071 73.3123 55.055C73.2019 54.806 73.1618 54.6855 73.0915 54.573C72.5796 53.7055 71.9271 52.9183 71.1643 52.1793C70.1404 51.1993 68.956 50.3558 67.7816 49.4963C66.7376 48.7412 65.493 48.187 64.3687 47.5122C62.8531 46.6045 61.237 45.8334 59.6811 44.9899C58.2257 44.2108 56.6899 43.544 55.3047 42.6685C54.6222 42.2427 53.9697 41.7688 53.2169 41.4073C51.8417 40.7487 50.4163 40.1382 49.1315 39.359C48.2883 38.8529 47.4653 38.3228 46.6221 37.8247C45.1466 36.9572 43.5004 36.3066 42.0449 35.4149C40.7701 34.6277 39.5455 33.7762 38.2206 33.0533C35.3899 31.503 32.7902 29.7438 30.3912 27.7758C28.6446 26.3459 27.0285 24.8519 26.1051 22.9561C25.9445 22.6268 25.6835 22.5786 25.2519 22.6429L25.2418 22.6509ZM18.3359 55.1594C18.4062 55.794 18.4262 56.4286 18.5567 57.0471C18.7876 58.1315 19.159 59.1918 19.4099 60.2682C19.9018 62.3487 20.0222 64.4693 20.3535 66.5659C20.7249 68.9355 21.1163 71.2891 22.2606 73.5222C22.9532 74.8798 23.7161 76.2052 24.5994 77.4743C25.282 78.4624 26.0248 79.4263 26.9382 80.2938C28.9357 82.1815 31.4552 83.5712 33.8742 85.0733C36.3937 86.6397 39.3147 87.5876 42.2055 88.5836C43.9721 89.1861 45.6083 89.9653 47.2746 90.6962C48.6397 91.2987 50.0449 91.8047 51.5205 92.1984C51.8417 92.2867 51.9822 92.2225 51.8216 91.9333C51.5105 91.3469 51.2093 90.7605 50.9283 90.1661C50.3963 89.0656 49.7037 88.0374 48.8505 87.0735C47.8367 85.9248 46.6322 84.9046 45.6083 83.764C45.1968 83.2981 44.7551 82.8322 44.2231 82.4627C42.9182 81.571 41.6434 80.6874 40.6497 79.5468C40.1578 78.9765 39.6359 78.4061 38.9834 77.9322C36.7049 76.2775 34.5267 74.5344 32.4389 72.719C30.6522 71.1606 28.8353 69.6264 27.2393 67.9395C26.4363 67.088 25.5931 66.2526 24.9005 65.3449C23.967 64.1239 23.1439 62.8628 22.2506 61.6257C20.7449 59.5453 19.3898 57.4246 18.3359 55.1674V55.1594ZM51.8216 90.0054C51.7715 89.8207 51.7212 89.6359 51.671 89.4512C51.3699 88.4953 51.0588 87.5394 50.7677 86.5835C50.2156 84.7761 49.533 82.9928 48.5293 81.314C47.8969 80.2376 47.0537 79.2496 46.5117 78.133C46.1503 77.402 45.6183 76.7434 45.0663 76.1088C44.2833 75.2091 43.5807 74.2773 42.9885 73.2893C42.3762 72.2691 41.6936 71.265 40.6095 70.518C39.0637 69.4496 37.8391 68.1644 36.5543 66.9113C35.8215 66.1883 35.0386 65.5136 34.0449 65.0316C32.6797 64.3649 31.4552 63.5697 30.3811 62.6138C29.4777 61.8105 28.6045 60.9831 27.5706 60.2763C25.4627 58.8384 23.3447 57.4086 21.2167 55.9948C20.6546 55.6173 20.0524 55.2799 19.3598 55.0469C19.1991 54.9907 19.0084 54.9023 18.8579 55.0148C18.7073 55.1273 18.8779 55.2478 18.9181 55.3682C19.2192 56.2037 19.6207 57.015 20.1226 57.7781C21.8692 60.4048 23.5856 63.0395 25.5931 65.5457C26.8177 67.072 28.2732 68.4616 29.7588 69.8191C30.893 70.8473 32.0374 71.8595 33.2218 72.8395C34.4263 73.8355 35.5204 74.9039 36.8353 75.8196C37.6986 76.4301 38.5819 77.0245 39.3749 77.6993C41.0612 79.1211 42.3159 80.8642 44.3937 81.9968C45.3774 82.535 45.9094 83.4186 46.6623 84.1254C48.188 85.5553 49.7739 86.9289 50.8781 88.6158C51.1792 89.0817 51.4201 89.5636 51.8116 90.0054H51.8216ZM102.552 194.375C102.552 194.327 102.572 194.278 102.582 194.222C100.093 193.636 97.6939 192.816 95.1945 192.262C93.5784 191.901 91.9322 191.668 90.2459 191.684C88.9912 191.7 87.7465 191.74 86.4918 191.82C84.4843 191.957 82.4767 192.069 80.4893 192.334C77.6085 192.72 74.8481 193.467 72.0476 194.07C71.6862 194.15 71.0137 194.102 71.0338 194.367C71.0639 194.672 71.6662 194.833 72.0877 194.969C72.1078 194.969 72.1279 194.969 72.148 194.985C73.6135 195.435 75.1392 195.708 76.695 195.909C79.7364 196.295 82.7779 196.688 85.8193 197.098C87.6261 197.339 89.463 197.331 91.2898 197.419C93.9297 197.556 96.4893 197.331 98.9787 196.6C100.555 196.142 101.95 195.427 103.435 194.833L103.405 194.68H89.8143V194.519C94.0602 194.471 98.3162 194.423 102.562 194.375H102.552ZM27.8617 125.173C28.0223 125.655 28.4338 125.96 28.6847 126.338C29.4275 127.438 30.3811 128.41 31.4552 129.318C32.6095 130.29 33.794 131.237 34.8881 132.242C35.7915 133.077 36.7852 133.752 38.1603 134.025C38.9533 134.185 39.7563 134.298 40.5593 134.394C41.8944 134.555 43.129 134.957 44.3235 135.431C46.2005 136.17 48.2382 136.483 50.2457 136.884C51.661 137.166 53.0764 137.423 54.5519 137.342C55.7765 137.278 56.981 137.334 58.1454 137.688C58.316 137.736 58.5067 137.84 58.7376 137.72C58.5669 137.583 58.4164 137.423 58.2257 137.318C56.6498 136.499 55.3649 135.342 53.6485 134.675C52.7752 134.338 52.0826 133.736 51.1792 133.438C48.8404 132.667 46.6422 131.671 44.3937 130.764C42.7777 130.113 41.1214 129.535 39.415 129.053C38.0098 128.659 36.6145 128.249 35.3397 127.615C34.5166 127.205 33.6032 126.916 32.6597 126.691C31.5355 126.418 30.4414 126.097 29.3874 125.679C28.9257 125.494 28.5242 125.165 27.8817 125.181L27.8617 125.173ZM106.336 192.134C106.437 191.7 106.537 191.266 106.647 190.824C107.119 188.905 107.812 187.025 108.093 185.073C108.294 183.683 108.575 182.286 108.535 180.896C108.474 178.671 108.515 176.438 108.223 174.221C108.073 173.032 107.832 171.859 107.481 170.702C107.45 170.59 107.521 170.397 107.31 170.381C107.099 170.365 107.029 170.542 106.959 170.67C106.587 171.337 106.196 172.004 105.885 172.686C104.901 174.791 104.088 176.936 103.365 179.113C102.753 180.952 102.321 182.8 102.592 184.728C102.823 186.398 103.164 188.029 103.988 189.595C104.57 190.688 105.232 191.764 105.433 192.961C105.493 193.331 105.543 193.708 105.604 194.078C105.654 194.078 105.694 194.078 105.744 194.078C105.875 192.816 106.005 191.555 106.136 190.294C106.356 190.913 106.065 191.531 106.346 192.142L106.336 192.134ZM104.931 29.6313C105.011 29.5831 105.102 29.551 105.162 29.4948C106.015 28.6192 106.919 27.7677 107.681 26.844C108.966 25.2937 110.181 23.6951 111.385 22.1047C112.279 20.9319 112.971 19.6788 113.393 18.3453C113.915 16.6745 114.266 14.9796 114.397 13.2526C114.577 10.9873 114.979 8.72212 114.778 6.44082C114.758 6.16771 114.979 5.87853 114.668 5.57328C114.366 6.19984 114.146 6.81032 113.794 7.36458C112.489 9.39686 111.656 11.5978 110.201 13.5819C109.077 15.1162 108.665 16.8753 108.003 18.5462C107.43 20.0001 107.079 21.5102 106.577 22.9802C106.206 24.0566 105.975 25.1491 105.654 26.2255C105.323 27.334 105.413 28.4987 104.931 29.6394V29.6313ZM60.8154 138.499C60.3436 137.624 59.8719 136.901 59.2094 136.282C57.4427 134.635 55.4151 133.197 53.2972 131.848C51.7213 130.844 49.9847 130.016 48.3285 129.117C46.9734 128.386 45.6786 127.583 44.2432 126.932C42.7074 126.233 41.1014 125.735 39.395 125.39C37.4276 124.996 35.4602 124.602 33.4426 124.386C31.7161 124.201 29.9997 124.128 28.1929 124.602C29.1063 124.972 29.8993 125.325 30.7324 125.615C32.1478 126.121 33.6935 126.37 35.0787 126.956C35.8617 127.293 36.6547 127.639 37.4778 127.92C38.9433 128.418 40.459 128.82 41.9044 129.358C44.1328 130.193 46.3611 131.045 48.4992 132.041C50.1152 132.804 51.8718 133.342 53.4678 134.185C55.3549 135.182 57.1416 136.258 58.8781 137.399C59.4603 137.776 60.0525 138.138 60.8355 138.491L60.8154 138.499ZM57.503 95.6123C57.2018 95.9577 56.9208 96.2067 56.7401 96.4878C55.8568 97.8936 55.0839 99.3475 54.3812 100.826C53.7689 102.127 53.4176 103.484 52.986 104.826C52.4942 106.368 52.2934 107.91 52.5042 109.501C52.6548 110.666 53.1065 111.774 53.3172 112.923C53.528 114.08 54.06 115.156 54.592 116.24C55.0136 117.1 55.4452 117.951 55.7564 118.843C55.9973 119.55 56.2984 120.241 56.5795 120.931C56.6196 119.767 56.5795 118.626 56.5293 117.477C56.4591 115.598 56.2984 113.726 56.1579 111.846C56.0374 110.272 56.0274 108.69 56.1278 107.115C56.2282 105.637 56.4791 104.175 56.5895 102.697C56.7 101.139 57.0111 99.5965 57.2621 98.0462C57.3825 97.267 57.5632 96.4959 57.503 95.6042V95.6123ZM114.547 3.82215C114.366 3.82215 114.356 3.91854 114.296 3.9828C113.333 5.20377 112.419 6.45688 111.375 7.62966C110.05 9.11572 108.615 10.5456 107.39 12.0959C105.875 14.0077 104.871 16.0962 104.128 18.273C103.616 19.7591 103.716 21.2773 103.727 22.7714C103.727 24.4904 104.138 26.1933 104.419 27.8963C104.439 28.0409 104.459 28.1854 104.66 28.2417C104.801 28.1854 104.77 28.081 104.791 27.9927C104.961 27.2617 105.102 26.5146 105.312 25.7917C105.794 24.1851 106.176 22.5706 106.778 20.9881C107.3 19.6065 107.681 18.1927 108.233 16.8111C108.685 15.6785 108.976 14.5057 109.789 13.4695C110.231 12.9072 110.572 12.2887 110.914 11.6782C112.008 9.73424 113.092 7.79032 114.156 5.83836C114.497 5.20378 114.838 4.54509 114.557 3.80608L114.547 3.82215ZM94.6826 46.5885C93.4379 46.7411 92.3036 47.1427 91.2296 47.6568C92.3739 47.2873 93.5282 46.9499 94.6826 46.5885Z" fill="var(--fill-0, #E7DFD2)"/>
</svg>
