<svg preserveAspectRatio="none" width="100%" height="100%" overflow="visible" style="display: block;" viewBox="0 0 227.745 491.032" fill="none" xmlns="http://www.w3.org/2000/svg">
<path id="Vector" d="M122.92 376.329C123.7 379.312 122.066 381.552 120.878 383.966C119.974 385.786 118.786 387.382 117.697 389.078C116.1 391.554 114.627 394.104 113.055 396.604C111.743 398.696 110.22 400.627 108.327 402.223C105.121 404.909 102.373 408.103 99.0804 410.702C95.6517 413.401 91.864 415.554 88.1507 417.807C86.1207 419.045 84.0907 420.283 81.9617 421.323C79.449 422.548 76.7878 423.402 74.0647 424.058C71.5148 424.677 68.9526 425.246 66.4151 425.915C63.5682 426.67 60.6594 426.744 57.763 426.484C54.8542 426.212 51.9454 426.249 49.0489 426.088C46.0782 425.915 43.3675 424.962 40.6444 423.897C38.1564 422.932 35.6561 422.016 33.1929 420.988C29.8508 419.59 26.7564 417.795 24.516 414.824C24.0704 414.242 23.4143 413.883 22.9935 413.227C21.8547 411.42 22.0899 409.514 22.8449 407.794C23.9713 405.207 24.813 402.483 26.1498 399.995C28.7863 395.131 32.5121 391.182 36.6215 387.519C41.0281 383.582 46.103 380.983 51.6607 379.139C58.8398 376.762 66.0933 374.745 73.6438 374.064C77.2829 373.742 80.9468 373.767 84.5859 373.445C91.1709 372.851 97.7559 372.479 104.366 372.541C108.463 372.578 112.56 372.207 116.645 372.578C118.551 372.752 120.432 373.21 122.45 372.937C121.955 370.536 121.422 368.147 121.002 365.733C120.68 363.914 120.457 362.082 120.259 360.25C120.185 359.557 120.036 359.235 119.256 359.21C113.414 358.987 107.621 359.198 101.853 360.275C97.8921 361.005 93.894 361.587 89.8588 361.129C86.7644 360.782 83.6946 360.324 80.6249 359.767C77.7656 359.247 74.9311 358.641 72.2203 357.638C69.0887 356.475 65.9076 355.274 63.1226 353.43C60.1643 351.474 57.9858 348.763 56.5747 345.384C55.1636 342.005 54.8542 338.589 55.374 335.036C55.7949 332.214 57.0698 329.751 58.5799 327.374C60.9936 323.611 63.4444 319.861 66.4151 316.519C69.8438 312.657 73.4953 308.993 77.32 305.515C79.9936 303.089 82.8406 300.91 85.9722 298.596C84.4497 298.596 83.2119 298.534 81.9741 298.62C81.1077 298.682 80.2536 298.695 79.3995 298.521C76.9858 298.039 74.4979 298.237 72.0842 297.841C67.8757 297.16 63.5806 297.234 59.4092 296.38C57.3297 295.959 55.3245 295.204 53.2574 294.684C50.9551 294.103 48.591 293.83 46.3629 292.951C43.5531 291.85 41.1147 290.067 38.4411 288.743C33.3538 286.218 29.2443 282.405 24.9863 278.742C22.4612 276.575 19.8 274.595 17.6834 271.996C15.0964 268.827 12.9179 265.361 10.5042 262.069C9.14261 260.212 7.86769 258.306 6.79082 256.3C5.25596 253.441 4.11718 250.396 2.99079 247.364C1.98819 244.665 1.01034 241.967 0.564739 239.12C-0.190312 234.305 -0.264584 229.502 0.812293 224.7C2.05008 219.167 3.4983 213.708 5.92437 208.559C6.64228 207.024 7.59538 205.638 8.82079 204.462C10.9498 202.407 13.5244 202.84 16.0123 203.447C18.1166 203.954 20.1961 204.66 22.2137 205.452C23.8847 206.108 25.6423 206.269 27.3381 206.752C30.5935 207.655 33.6508 209.091 36.9062 209.958C39.5922 210.688 42.3649 211.195 44.9271 212.285C47.873 213.535 50.9056 214.525 53.8763 215.664C57.8372 217.186 61.3154 219.612 65.0783 221.494C67.7395 222.818 69.8933 224.984 72.2822 226.754C75.9213 229.44 78.8796 232.919 82.6549 235.419C85.081 237.028 87.5813 238.526 89.5989 240.655C92.2354 243.44 95.4536 245.643 97.8426 248.676C99.7611 251.102 102.237 253.095 103.697 255.88C105.43 259.209 106.668 262.675 106.99 266.487C107.299 270.188 108.054 273.84 109.626 277.281C109.441 275.449 109.317 273.605 109.057 271.785C108.525 268.01 108.153 264.21 107.918 260.398C107.609 255.57 107.175 250.755 106.841 245.928C106.705 243.885 106.693 241.831 106.656 239.788C106.581 235.53 106.235 231.272 105.925 227.027C105.603 222.62 105.319 218.201 105.195 213.77C105.059 208.868 104.787 203.967 104.428 199.078C104.168 195.513 104.254 191.948 104.254 188.383C104.254 183.989 104.279 179.595 104.242 175.201C104.192 168.752 104.378 162.303 104.477 155.854C104.539 152.326 104.452 148.811 104.551 145.283C104.613 143.129 104.873 140.976 104.923 138.797C103.871 140.852 103.177 143.043 101.927 144.949C99.2412 149.046 97.1123 153.502 93.4979 157.005C88.8067 161.548 83.8679 165.583 77.4438 167.353C74.7083 168.108 71.8985 168.417 69.064 168.591C66.5141 168.752 63.989 168.95 61.4887 168.294C57.6021 167.266 53.5916 166.87 49.6802 166.016C47.5883 165.558 45.7935 164.382 44.0235 163.132C41.0033 160.991 37.9212 158.936 35.5446 156.064C32.8586 152.809 29.1453 150.692 26.2736 147.66C26.1375 147.511 25.9518 147.412 25.8033 147.276C23.6743 145.333 23.6248 144.107 25.7909 142.226C27.1896 141.013 28.0932 139.466 29.1948 138.042C32.9082 133.289 37.5622 129.699 42.7238 126.642C48.6033 123.164 55.0398 121.072 61.4392 118.881C65.5363 117.482 69.7695 116.95 74.1018 116.814C76.5031 116.74 78.9044 116.307 81.2933 115.923C87.8412 114.858 94.2158 115.477 100.343 118.027C102.274 118.832 103.92 120.168 105.294 121.79C105.492 122.025 105.641 122.434 106.037 122.335C106.396 122.236 106.396 121.839 106.458 121.518C107.138 118.213 107.312 114.846 107.732 111.504C108.203 107.729 108.624 103.941 109.255 100.178C109.725 97.3684 109.886 94.4967 110.109 91.6374C110.159 90.9938 110.196 90.4244 110.765 90.0159C111 89.8426 111.248 89.5951 111.075 89.298C110.901 88.9885 110.555 89.199 110.282 89.2237C107.881 89.3723 105.715 90.4615 103.4 90.9814C97.3598 92.3553 91.2699 93.3456 85.0438 93.5931C81.4419 93.7293 77.8275 94.0635 74.2503 93.5931C69.9304 93.0237 65.5858 93.1228 61.2659 92.6895C58.7284 92.4296 56.2281 91.885 53.8268 91.0556C51.5988 90.2882 49.2965 89.9045 47.0313 89.3599C44.1225 88.6667 41.5603 87.268 38.9486 85.9188C37.2404 85.04 35.4828 84.2478 33.8117 83.3071C31.2 81.8465 28.9596 79.8908 26.9296 77.6875C25.7414 76.4002 24.4293 75.2243 23.1668 73.9865C21.9413 72.7859 21.1615 71.3129 20.6417 69.7162C19.8619 67.3396 21.112 65.5819 23.1049 64.2575C27.5857 61.2744 32.7596 60.3337 37.946 59.9995C44.8652 59.5663 51.8216 59.6901 58.7408 60.4204C61.8353 60.7422 64.8926 61.4477 67.9871 61.8686C71.0444 62.2894 74.0028 63.1187 77.0353 63.6634C82.8529 64.6907 88.5963 65.9038 93.9559 68.6269C97.496 70.4217 100.9 72.3898 103.635 75.2491C106.643 78.3931 109.75 81.5247 111.322 85.7455C111.359 85.8446 111.471 85.9188 111.557 86.0055C112.102 85.6836 111.792 85.1761 111.891 84.7677C113.005 80.2869 113.105 75.6947 113.587 71.1396C113.86 68.6145 114.516 66.139 115.233 63.7005C115.667 62.2647 115.766 60.7917 116.013 59.3435C116.508 56.4471 117.486 53.7239 118.761 51.0874C120.445 47.5845 121.955 43.9949 123.527 40.4425C125.21 36.6053 127.129 32.8796 129.295 29.3024C131.25 26.0717 133.813 23.3238 136.598 20.7492C140.621 17.0359 144.928 13.731 149.731 11.0945C154.558 8.44561 159.67 6.61368 165.042 5.47491C167.406 4.96742 169.77 4.42279 172.122 3.89054C176.182 2.97458 180.304 2.46709 184.438 2.0091C187.087 1.71204 189.724 1.24168 192.348 0.796071C196.21 0.140043 200.109 0.21431 204.008 0.0905315C207.127 -0.00849159 210.259 -0.231294 213.254 0.808449C215.618 1.62539 217.933 2.56611 220.334 3.25927C221.745 3.66774 223.206 3.94006 224.629 4.31139C226.548 4.80651 226.882 5.7596 225.694 7.29446C223.28 10.4013 221.832 13.9538 220.928 17.729C220 21.5909 219.393 25.5271 218.465 29.3766C217.673 32.6815 216.522 35.8874 215.098 38.9942C213.403 42.72 211.36 46.2724 209.182 49.7259C208.142 51.3845 206.842 52.8822 205.406 54.2562C202.881 56.6575 200.418 59.1083 197.893 61.522C195.096 64.1956 191.63 65.8543 188.362 67.8223C185.169 69.7409 181.963 71.6595 178.645 73.38C176.739 74.3702 174.672 75.1377 172.754 76.066C169.35 77.7123 165.772 78.8882 162.369 80.4849C158.952 82.0693 155.375 83.0843 151.686 83.7156C148.716 84.2231 145.906 85.2752 142.985 85.9436C138.912 86.8719 134.865 88.0602 130.706 88.4687C126.312 88.8895 121.918 89.4465 117.474 89.1371C116.199 89.0504 114.837 89.3475 113.6 89.7188C112.609 90.0159 112.572 91.1175 112.498 91.9964C112.3 94.4843 112.25 96.9847 112.003 99.4602C111.533 104.139 110.876 108.793 110.493 113.472C110.295 115.799 110.022 118.126 109.837 120.466C109.787 121.023 109.911 121.159 110.456 121.221C111.681 121.369 112.523 120.961 113.488 120.144C118.08 116.257 123.143 113.138 128.775 110.91C133.454 109.053 138.306 108.125 143.269 107.778C145.262 107.642 147.267 108.075 149.248 108.348C153.196 108.88 157.182 108.843 161.155 109.041C163.891 109.177 166.626 109.301 169.362 109.536C173.657 109.895 177.965 109.994 182.272 110.019C186.208 110.031 190.157 110.254 194.093 110.179C198.859 110.093 203.562 109.288 208.266 108.57C211.756 108.038 215.259 107.568 218.75 107.023C221.176 106.639 223.577 106.12 226.04 105.983C226.659 105.946 227.241 105.86 227.575 106.652C227.885 107.37 227.761 107.852 227.291 108.434C225.335 110.873 223.874 113.658 222.624 116.48C220.916 120.329 218.576 123.696 215.89 126.877C212.969 130.331 209.862 133.598 205.976 135.987C203.438 137.559 201.037 139.342 198.277 140.567C194.563 142.213 190.652 143.08 186.691 143.724C179.722 144.85 172.679 145.011 165.661 144.64C159.534 144.318 153.333 144.169 147.367 142.486C141.97 140.963 136.449 139.812 131.275 137.51C128.107 136.099 125.037 134.552 122.066 132.695C118.563 130.516 115.134 128.127 111.235 126.63C111.198 126.617 111.161 126.593 111.124 126.568C109.156 125.813 109.205 125.813 109.106 127.942C109.02 129.91 108.772 131.866 108.673 133.834C108.376 139.8 107.77 145.754 107.893 151.757C107.992 156.361 107.621 160.978 107.646 165.595C107.646 169.247 107.609 172.886 107.584 176.537C107.572 179.842 107.522 183.172 107.534 186.477C107.559 191.874 107.497 197.307 108.091 202.704C108.314 204.685 108.475 206.702 108.228 208.72C108.166 209.227 108.153 209.797 108.599 210.292C109.23 209.574 109.354 208.658 109.602 207.829C111.446 201.677 114.59 196.206 118.65 191.317C121.113 188.358 124.121 185.846 127.562 184.026C129.691 182.9 132.092 182.479 134.407 181.823C140.93 179.991 147.589 180.337 154.236 180.362C155.363 180.362 156.303 180.845 157.244 181.34C157.826 181.649 157.863 182.256 157.863 182.85C157.875 184.385 156.922 185.536 156.365 186.836C154.954 190.104 153.518 193.359 152.12 196.639C150.473 200.501 147.874 203.62 144.841 206.455C140.497 210.515 135.632 213.844 130.285 216.382C127.141 217.867 123.626 218.028 120.185 218.276C116.682 218.523 113.142 217.892 109.663 218.709C108.846 218.907 108.747 219.192 108.822 219.971C109.057 222.336 109.304 224.687 109.317 227.076C109.317 228.883 109.738 230.703 109.8 232.597C110.839 231.52 111.755 230.406 112.746 229.354C116.409 225.455 120.94 222.855 125.68 220.553C130.124 218.399 134.716 216.741 139.556 215.726C145.584 214.451 151.649 214.067 157.789 214.327C161.44 214.476 165.03 215.132 168.669 215.392C175.019 215.85 181.369 215.8 187.731 215.528C190.9 215.392 194.031 215.812 197.051 216.827C198.636 217.372 200.492 220.504 199.688 222.657C198.165 226.73 197.076 230.938 196.012 235.147C195.195 238.377 193.35 241.088 190.949 243.291C186.159 247.685 180.688 251.065 174.449 253.008C169.894 254.431 165.215 255.174 160.425 255.298C156.526 255.409 152.627 255.818 148.753 255.261C145.188 254.741 141.685 253.887 138.133 253.305C133.738 252.587 129.778 250.73 125.841 248.799C124.17 247.983 123.007 246.46 121.484 245.42C119.479 244.046 117.82 242.326 116.149 240.568C114.763 239.12 112.857 238.154 110.901 237.437C110.233 237.189 109.998 237.412 110.035 238.117C110.344 243.898 110.431 249.691 111.013 255.446C111.533 260.571 111.632 265.757 112.609 270.845C112.919 272.478 112.869 274.199 113.018 275.87C113.278 278.927 113.723 281.972 114.404 284.968C114.528 285.512 114.837 285.686 115.345 285.747C118.192 286.119 120.865 287.258 123.663 287.79C127.735 288.557 131.708 289.807 135.818 290.389C137.378 290.612 138.863 291.058 140.323 291.602C142.96 292.58 145.77 292.753 148.443 293.533C150.127 294.028 151.587 294.932 153.159 295.637C155.895 296.863 158.816 297.606 161.564 298.794C166.292 300.824 170.649 303.485 175.043 306.134C177.692 307.731 180.242 309.364 182.582 311.394C186.233 314.563 188.634 318.45 190.008 323.017C190.875 325.901 189.922 328.501 188.387 330.927C187.038 333.068 185.094 334.603 183.04 335.952C179.784 338.081 176.603 340.346 173.125 342.129C169.152 344.159 165.178 346.214 161.094 348.033C157.083 349.815 152.961 351.276 148.951 353.046C146.574 354.098 143.987 354.692 141.549 355.608C139.011 356.549 136.474 357.453 133.875 358.22C130.978 359.074 127.983 359.26 124.975 359.272C123.316 359.272 123.329 359.247 123.564 360.918C124.232 365.597 125.445 370.14 126.733 374.683C128.069 379.399 129.443 384.115 130.483 388.917C131.659 394.302 133.045 399.649 134.469 404.984C136.35 412.027 137.774 419.194 140.088 426.113C141.066 429.022 141.97 431.968 143.245 434.79C144.074 436.609 144.594 438.565 145.262 440.459C146.067 442.761 146.958 445.051 147.688 447.39C148.79 450.918 150.337 454.26 151.612 457.714C152.751 460.783 154.187 463.742 155.474 466.749C156.897 470.104 158.321 473.458 159.72 476.825C160.66 479.09 162.109 481.108 162.938 483.435C163.396 484.71 163.866 485.985 164.126 487.309C164.46 489.005 163.309 490.663 161.626 490.998C160.598 491.208 159.348 490.441 158.841 489.017C157.764 486.047 156.378 483.187 155.313 480.217C154.669 478.434 154.31 476.491 153.617 474.758C152.219 471.23 151.34 467.529 149.533 464.138C147.466 460.239 145.312 456.34 143.826 452.156C142.75 449.111 141.809 446.004 140.707 442.984C139.482 439.617 138.578 436.188 137.613 432.76C135.806 426.323 134.122 419.862 132.488 413.376C131.065 407.732 129.592 402.087 127.884 396.53C126.572 392.234 126.312 387.741 125.049 383.446C124.368 381.156 123.898 378.792 123.341 376.465L122.945 376.416L122.92 376.329ZM101.271 289.189C101.667 289.077 102.076 289.028 102.435 288.854C104.985 287.666 107.361 286.045 110.233 285.624C110.48 285.587 110.765 285.475 110.579 285.141C110.307 284.658 110.53 284.015 110.072 283.594C109.713 283.916 109.948 284.534 109.416 284.733C109.354 284.658 109.267 284.609 109.267 284.547C109.144 281.403 108.401 278.395 107.349 275.437C106.445 272.936 105.653 270.411 105.43 267.713C105.17 264.594 104.23 261.598 102.893 258.788C101.296 255.422 98.6966 252.748 96.2087 250.05C94.1663 247.834 91.8764 245.829 89.5989 243.848C88.2497 242.672 87.049 241.311 85.5637 240.271C82.4321 238.055 79.2634 235.902 76.3793 233.315C73.1239 230.394 69.6334 227.72 66.1799 225.034C64.0385 223.375 61.4144 222.472 59.1864 220.924C56.2652 218.894 52.9232 217.892 49.6678 216.629C47.576 215.825 45.5089 214.872 43.3922 214.216C38.9486 212.829 34.3811 211.814 29.9994 210.143C27.1029 209.042 23.9837 208.522 20.9883 207.655C18.5251 206.937 16.2351 205.737 13.611 205.464C11.9771 205.291 10.7641 205.762 9.83578 206.975C8.06575 209.277 6.93934 211.938 6.04813 214.661C4.76083 218.635 3.6097 222.657 2.86703 226.779C2.18624 230.567 2.08722 234.317 2.86703 238.13C3.36214 240.506 3.99342 242.833 4.68658 245.148C5.56541 248.094 6.69179 250.978 8.04098 253.726C10.0338 257.811 12.7446 261.474 15.3316 265.188C17.7329 268.641 20.3322 271.934 23.6619 274.607C26.9792 277.281 29.9746 280.351 33.3661 282.901C37.1414 285.735 41.3623 287.926 45.6202 289.931C50.3238 292.134 55.5844 292.506 60.5108 294.028C63.0731 294.82 65.8333 294.363 68.4451 294.833C71.9233 295.452 75.451 295.452 78.9539 295.798C81.2438 296.021 83.5337 295.724 85.8236 295.749C86.492 295.749 87.2347 295.774 87.5689 296.442C88.0888 297.519 88.6582 297.024 89.2894 296.64C92.6191 294.647 95.825 292.444 99.2784 290.662C99.9839 290.303 100.789 289.931 101.259 289.201L101.271 289.189ZM125.309 356.722C128.243 356.636 130.916 356.574 133.318 355.72C139.11 353.665 145.002 351.858 150.634 349.345C154.001 347.847 157.516 346.684 160.883 345.186C164.064 343.775 167.159 342.166 170.241 340.569C174.944 338.118 179.363 335.21 183.522 331.942C185.676 330.246 187.471 328.129 187.607 325.208C187.718 322.856 186.642 320.727 185.577 318.722C183.943 315.665 181.195 313.561 178.67 311.308C176.888 309.711 174.524 309.006 172.568 307.669C168.941 305.181 165.104 303.077 161.069 301.381C157.516 299.895 153.766 298.93 150.325 297.16C146.364 295.118 141.883 294.833 137.699 293.57C133.28 292.246 128.676 291.54 124.207 290.34C121.398 289.585 118.551 288.966 115.729 288.273C115.023 288.099 114.231 288.372 113.587 287.914C112.436 287.084 111.235 287.332 110.047 287.728C109.23 288 108.463 288.409 107.646 288.669C106.705 288.978 106.297 289.585 106.148 290.55C105.579 294.313 105.009 298.088 104.341 301.839C103.487 306.641 103.413 311.456 103.437 316.284C103.45 320.344 104.811 324.206 106.321 327.931C108.005 332.09 110.01 336.113 112.102 340.099C114.144 343.998 116.793 347.488 119.133 351.177C120.049 352.613 121.447 353.789 122.128 355.299C122.784 356.772 123.712 356.821 124.938 356.735C125.185 356.722 125.433 356.735 125.334 356.735L125.309 356.722ZM116.471 374.163C114.54 374.163 112.622 374.126 110.691 374.163C106.26 374.274 101.841 374.398 97.4093 374.584C94.7481 374.695 92.0992 374.893 89.4504 375.116C86.9624 375.326 84.4744 375.735 81.9865 375.846C76.1194 376.118 70.277 376.44 64.5584 377.938C60.4737 379.003 56.3519 379.98 52.3786 381.379C46.3258 383.508 40.8795 386.615 36.1883 391.133C30.7915 396.319 27.1648 402.471 24.8006 409.477C24.4417 410.529 24.5778 411.631 25.3081 412.522C27.5857 415.282 30.2717 417.547 33.6261 418.884C35.7551 419.738 37.9583 420.407 40.0626 421.285C43.6027 422.771 47.2046 423.823 51.0913 423.947C53.7525 424.033 56.4262 423.897 59.0874 424.293C60.4861 424.504 61.9838 424.405 63.3825 424.169C68.0366 423.402 72.5422 422.003 77.0477 420.679C80.8353 419.577 84.0784 417.362 87.4204 415.356C92.9781 412.002 98.3501 408.4 102.93 403.734C105.047 401.58 107.51 399.773 109.416 397.384C111.669 394.549 113.278 391.281 115.382 388.348C116.991 386.12 118.501 383.83 119.739 381.354C120.544 379.758 121.559 378.285 121.794 376.453C121.979 375.054 121.744 374.757 120.321 374.695C119.987 374.683 119.69 374.794 119.38 374.905C114.998 376.502 110.592 378.049 106.086 379.275C103.388 380.018 100.751 380.872 98.1396 381.849C94.3644 383.248 90.8986 385.328 87.2966 387.085C83.8679 388.769 80.1793 389.87 76.8002 391.616C70.933 394.623 65.1897 397.891 59.3597 400.973C56.4633 402.508 53.6535 404.154 50.8313 405.801C46.3134 408.437 41.8698 411.197 37.6241 414.255C36.7206 414.911 35.8417 415.567 34.6658 415.653C34.2202 415.678 33.6508 415.938 33.4775 415.394C33.2547 414.7 34.0222 414.614 34.4059 414.502C35.8293 414.106 36.9805 413.314 38.1688 412.472C43.3551 408.808 48.888 405.665 54.3838 402.508C59.3845 399.636 64.4346 396.839 69.5343 394.128C72.7402 392.42 76.0451 390.885 79.3376 389.338C81.2686 388.434 83.2738 387.704 85.1924 386.788C88.324 385.303 91.4308 383.756 94.5129 382.171C99.7983 379.448 105.566 378.099 111.149 376.217C112.944 375.611 114.813 375.215 116.471 374.113V374.163ZM222.723 6.55179C221.411 6.14332 220.173 5.72247 218.911 5.38827C215.098 4.3609 211.533 2.38044 207.399 2.57849C206.706 2.61562 206.025 2.80129 205.332 2.71464C202.51 2.35569 199.675 2.7394 196.878 2.94982C192.756 3.25927 188.684 4.05146 184.574 4.48468C181.27 4.83126 178.002 5.38827 174.746 5.95765C171.206 6.57655 167.741 7.60391 164.238 8.43323C160.759 9.26255 157.331 10.327 154.15 11.9238C150.127 13.9538 146.29 16.3303 142.836 19.2639C139.927 21.7395 137.006 24.1779 134.543 27.1238C132.29 29.8346 130.842 33.0157 129.171 36.0607C127.191 39.6626 125.718 43.4998 123.997 47.2255C122.784 49.862 121.361 52.4119 120.395 55.135C118.712 59.9005 118.13 64.9631 116.818 69.8276C115.989 72.9344 116.187 76.1898 115.456 79.3214C115.196 80.4478 114.639 81.5989 114.887 82.7996C115.345 82.4035 115.778 82.0445 116.187 81.6608C119.009 78.9624 122.165 76.6478 125.049 74.0237C129.072 70.3474 133.342 66.9559 137.699 63.7005C141.14 61.1383 144.668 58.6875 148.183 56.2119C151.488 53.8725 154.546 51.2236 157.752 48.7604C163.161 44.6262 168.694 40.6405 174.053 36.4444C178.967 32.5949 183.894 28.7949 189.303 25.6633C193.165 23.4229 196.989 21.0958 200.851 18.843C205.134 16.3427 209.442 13.8919 213.724 11.4039C216.646 9.69577 219.604 8.03714 222.735 6.53941L222.723 6.55179ZM114.07 86.4387C114.33 86.5253 114.429 86.5996 114.54 86.5872C118.798 86.3768 123.056 86.3397 127.314 86.055C131.869 85.7455 136.226 84.6687 140.633 83.7156C144.322 82.9234 147.911 81.7227 151.6 80.9429C155.4 80.1384 159.051 79.012 162.591 77.44C166.527 75.7071 170.662 74.4321 174.511 72.4888C176.913 71.2758 179.339 70.137 181.666 68.7754C183.708 67.5748 185.701 66.2875 187.731 65.0621C190.194 63.5767 192.793 62.3389 195.034 60.4946C197.311 58.6132 199.366 56.4966 201.532 54.4914C204.688 51.5578 207.288 48.2034 209.38 44.4653C210.939 41.6802 212.462 38.8705 213.625 35.875C215.185 31.8893 216.423 27.817 217.141 23.5961C217.97 18.7316 218.973 13.9166 221.337 9.51011C221.56 9.07688 221.968 8.70554 221.993 8.03714C219.096 9.75766 216.336 11.4411 213.539 13.0626C210.073 15.0802 206.619 17.1101 203.191 19.1649C199.638 21.2815 196.111 23.46 192.546 25.5519C189.08 27.5942 185.688 29.7232 182.396 32.0379C178.534 34.7486 174.821 37.6451 171.083 40.5415C167.295 43.4627 163.408 46.2601 159.633 49.1812C155.028 52.7337 150.449 56.3233 145.683 59.6406C140.472 63.2673 135.385 67.0673 130.545 71.1768C126.213 74.8654 121.918 78.6035 117.684 82.4035C116.372 83.5794 115.308 85.04 114.07 86.4511V86.4387ZM156.229 216.159C151.464 216.085 147.948 216.258 144.445 216.704C139.296 217.36 134.308 218.647 129.456 220.491C125.804 221.878 122.45 223.833 119.133 225.876C115.939 227.844 113.055 230.208 110.765 233.216C109.762 234.54 109.849 234.676 111.508 235.147C114.441 235.988 116.843 237.746 118.823 239.937C121.435 242.821 124.368 245.42 127.698 247.215C131.35 249.183 135.261 250.842 139.593 251.263C142.836 251.572 146.017 252.599 149.26 252.983C153.828 253.528 158.42 253.132 163 252.909C166.169 252.76 169.288 252.241 172.32 251.399C178.076 249.79 183.287 247.042 187.916 243.254C190.318 241.298 192.533 239.083 193.586 236.112C195.244 231.409 196.024 226.42 197.745 221.717C198.202 220.491 197.126 218.969 195.962 218.597C192.781 217.607 189.526 217.422 186.221 217.595C180.849 217.867 175.477 217.867 170.105 217.459C165.055 217.075 160.041 216.122 156.192 216.159H156.229ZM114.738 356.735C116.385 356.735 118.019 356.735 119.665 356.735C120.296 356.735 120.506 356.599 120.098 355.967C118.316 353.281 116.694 350.484 114.788 347.885C112.052 344.159 110.097 340.049 108.141 335.903C106.396 332.202 104.749 328.488 103.487 324.565C102.299 320.864 101.816 317.15 101.927 313.313C102.076 308.684 102.484 304.079 103.474 299.524C104.069 296.776 104.304 293.942 105.121 291.231C105.22 290.897 105.554 290.476 105.232 290.204C104.886 289.906 104.415 290.228 104.118 290.439C102.063 291.875 99.7488 292.828 97.6816 294.263C94.9214 296.182 91.9878 297.828 89.1904 299.685C85.0562 302.433 81.1448 305.478 77.5552 308.919C75.0673 311.308 72.4308 313.548 70.1656 316.135C67.4425 319.242 64.707 322.361 62.4542 325.84C60.449 328.934 58.3076 331.954 57.7135 335.742C57.1069 339.591 57.5278 343.169 59.6196 346.61C62.4047 351.165 67.0092 352.922 71.5148 354.829C74.9311 356.277 78.5578 357.044 82.234 357.651C85.8484 358.257 89.4504 358.703 93.1018 358.802C96.2334 358.888 99.2784 358.146 102.36 357.688C106.458 357.069 110.592 356.747 114.738 356.71V356.735ZM114.268 121.097C115.184 121.097 115.951 121.109 116.706 121.097C121.101 120.998 125.445 121.728 129.815 122C131.151 122.087 132.501 122.236 133.751 122.768C137.043 124.142 140.46 125.157 143.678 126.766C145.077 127.471 146.5 128.226 147.985 128.746C150.449 129.613 152.986 130.281 155.499 131.011C158.172 131.791 160.871 132.522 163.643 132.856C167.679 133.339 171.714 133.821 175.749 134.304C179.648 134.774 183.485 135.715 187.471 135.604C194.341 135.418 200.888 134.465 207.152 131.16C211.991 128.598 215.284 124.86 218.044 120.441C220.272 116.864 221.745 112.853 223.998 109.264C224.122 109.065 224.345 108.855 224.171 108.607C224.01 108.372 223.726 108.434 223.491 108.508C221.919 109.004 220.26 109.065 218.651 109.325C212.784 110.279 206.892 111.021 201.012 111.826C197.262 112.346 193.499 112.37 189.711 112.308C184.104 112.222 178.497 112.061 172.902 111.863C170.154 111.764 167.431 111.269 164.683 111.17C160.623 111.021 156.576 110.811 152.528 110.538C149.904 110.365 147.317 109.759 144.705 109.647C139.989 109.437 135.409 110.427 130.953 111.9C125.891 113.571 121.348 116.294 116.855 119.104C115.976 119.661 115.11 120.243 114.293 121.109L114.268 121.097ZM28.7863 146.954C29.2691 147.561 29.529 148.056 29.9375 148.365C33.1557 150.841 36.3863 153.279 38.9857 156.46C40.7186 158.589 43.2066 159.802 45.3851 161.399C46.6105 162.303 47.8483 163.194 49.3212 163.615C53.1089 164.704 57.0822 164.754 60.8946 165.806C64.0138 166.672 67.2692 166.536 70.5246 166.177C75.1168 165.67 79.4366 164.518 83.4471 162.179C87.1976 160 90.1311 156.943 93.0895 153.849C95.7259 151.076 97.4712 147.746 99.4517 144.553C101.061 141.954 102.039 139.107 103.215 136.322C103.846 134.836 104.131 133.252 104.514 131.717C104.947 130.046 105.777 128.499 105.925 126.766C105.975 126.271 106.26 125.615 105.777 125.281C105.368 124.996 104.997 125.59 104.576 125.738C104.155 125.887 103.722 126.06 103.338 126.271C98.7833 128.808 93.9807 130.813 89.3513 133.202C86.4054 134.712 83.4718 136.247 80.4516 137.621C76.8868 139.23 73.3591 140.976 69.9428 142.931C67.0216 144.602 63.7786 145.555 60.7584 147.004C54.2972 150.098 47.5141 150.445 40.5825 149.343C36.7082 148.724 32.9453 147.511 28.8111 146.954H28.7863ZM26.9915 144.528C29.331 145.419 31.5961 145.828 33.8241 146.36C38.0821 147.375 42.303 148.65 46.7343 148.563C49.9278 148.501 53.1708 148.514 56.2033 147.326C59.8177 145.902 63.4444 144.441 66.9474 142.77C70.6731 140.976 74.2256 138.822 77.9389 136.99C80.9096 135.517 83.8803 134.032 86.8386 132.522C91.7279 130.009 96.5553 127.397 101.469 124.934C104.626 123.362 104.725 122.879 101.865 120.812C101.704 120.688 101.506 120.626 101.333 120.515C98.1025 118.485 94.4263 118.015 90.7624 117.532C87.9402 117.161 85.081 117.26 82.3083 117.73C79.3995 118.225 76.5155 118.844 73.5572 119.005C70.1532 119.203 66.7246 119.451 63.5063 120.602C58.2705 122.471 52.9232 124.105 47.9349 126.63C43.4046 128.92 39.0724 131.531 35.2476 134.96C32.1036 137.77 30.2222 141.619 26.9915 144.516V144.528ZM106.049 87.1937C104.143 86.2283 102.076 85.7703 100.306 84.6687C98.3872 83.468 96.2334 82.9357 94.0797 82.453C92.7924 82.1683 91.5794 81.6732 90.3663 81.2028C87.9279 80.2621 85.4771 79.3833 82.8653 78.9872C79.5481 78.4797 76.2555 77.8732 72.9383 77.3409C70.7102 76.982 68.5441 76.3507 66.3037 76.0413C61.8353 75.41 57.3174 75.3976 52.849 74.6921C49.2222 74.1227 45.5584 73.7142 41.9069 73.3305C36.6091 72.7735 31.4723 71.6966 26.6202 69.4067C25.7414 68.9859 24.8625 68.5526 23.9589 68.1689C23.6495 68.0328 23.1668 67.7605 23.0925 68.367C23.0182 68.9982 22.9316 69.679 23.3648 70.2608C26.1251 73.9742 29.4424 77.1305 33.0196 80.0269C35.458 81.995 38.4287 83.0595 41.1766 84.5077C43.2561 85.597 45.3479 86.6739 47.675 87.0823C50.3486 87.5527 52.9603 88.2335 55.5473 89.0257C57.305 89.5579 59.075 89.9788 60.9193 90.1892C64.0262 90.5358 67.1454 90.4491 70.2523 90.7833C72.7402 91.0556 75.2282 91.2661 77.7161 91.3898C81.3181 91.5631 84.9077 90.9442 88.5096 90.9195C89.3266 90.9195 90.1435 90.8576 90.9481 90.7214C93.6588 90.2882 96.3696 89.8302 99.0804 89.3599C101.469 88.939 103.784 88.2706 106.049 87.2185V87.1937ZM109.045 215.528C109.948 214.265 110.654 212.866 111.768 211.79C117.511 206.182 123.168 200.476 130.013 196.156C133.59 193.904 137.031 191.428 140.955 189.794C145.188 188.024 149.557 186.551 153.407 183.939C153.716 183.729 154.1 183.518 154.397 183.915C154.694 184.298 154.719 184.781 154.397 185.165C154.187 185.4 153.877 185.561 153.605 185.722C150.894 187.405 147.936 188.606 144.99 189.757C141.116 191.279 137.378 192.975 133.912 195.302C130.31 197.716 126.596 199.981 123.23 202.717C120.618 204.833 118.254 207.222 115.654 209.364C113.723 210.948 112.065 212.829 110.53 214.81C110.282 215.132 109.812 215.466 110.097 215.85C110.319 216.159 110.852 216.01 111.26 215.924C111.706 215.837 112.151 215.812 112.597 215.812C115.382 215.775 118.167 215.751 120.952 215.713C126.572 215.651 131.498 213.572 136.016 210.428C138.331 208.819 140.645 207.173 142.7 205.217C144.693 203.335 146.871 201.578 148.258 199.177C151.154 194.213 153.172 188.816 155.548 183.593C155.92 182.763 155.598 182.442 154.793 182.429C152.701 182.404 150.622 182.367 148.53 182.392C143.455 182.454 138.368 182.565 133.454 184.1C131.114 184.831 128.812 185.573 126.708 186.922C123.985 188.68 121.744 190.945 119.652 193.347C117.721 195.562 116.038 198.038 114.615 200.612C112.869 203.769 111.619 207.173 110.357 210.552C109.762 212.149 109.168 213.758 109.045 215.503V215.528ZM109.849 86.2654C109.849 86.1045 109.886 86.0055 109.849 85.956C106.569 80.9305 102.695 76.4992 97.5331 73.281C94.253 71.2386 90.7872 69.58 87.0862 68.466C83.9422 67.5253 80.6868 67.1044 77.4562 66.4979C73.7057 65.8048 70.0171 64.8269 66.2542 64.2575C59.1988 63.193 52.1063 62.5865 44.9642 62.636C40.6072 62.6608 36.2873 62.8217 32.0293 63.7376C29.5785 64.2699 27.1648 64.9259 24.9987 66.2504C24.4417 66.5969 23.9589 66.8321 24.9863 67.3272C26.0879 67.8595 27.2019 68.3422 28.3283 68.8126C32.7596 70.6816 37.4385 71.61 42.1792 72.0061C49.0489 72.5878 55.8444 73.7885 62.7389 74.1722C69.522 74.5435 76.0204 76.7468 82.7663 77.4028C86.3188 77.7494 89.5741 79.1729 92.9038 80.3364C95.5898 81.2647 98.5852 81.2152 100.987 83.0224C102.583 84.223 104.638 84.4087 106.408 85.2999C107.423 85.8074 108.599 86.3644 109.874 86.2778L109.849 86.2654ZM202.361 135.554C199.849 136.012 197.745 136.656 195.541 136.94C190.293 137.609 185.057 137.708 179.858 136.73C175.836 135.975 171.763 135.517 167.703 134.972C164.51 134.552 161.341 134.193 158.197 133.388C152.516 131.94 147.045 129.996 141.673 127.657C136.92 125.59 132.166 123.535 126.757 123.139C121.348 122.743 115.951 122.335 110.53 122.273C110.072 122.273 109.589 122.174 109.503 122.817C109.416 123.436 109.936 123.424 110.295 123.56C112.003 124.253 113.761 124.835 115.419 125.652C117.87 126.865 120.135 128.425 122.475 129.836C125.161 131.457 127.673 133.363 130.656 134.477C133.788 135.653 136.858 137.002 140.088 137.906C142.292 138.525 144.557 138.946 146.748 139.602C148.629 140.171 150.56 140.654 152.503 140.877C156.613 141.347 160.747 141.632 164.881 141.966C170.216 142.399 175.539 141.966 180.873 141.805C185.367 141.669 189.736 140.716 194.068 139.589C197.002 138.822 199.614 137.448 202.361 135.542V135.554Z" fill="var(--fill-0, #E7DFD2)"/>
</svg>
