<svg preserveAspectRatio="none" width="100%" height="100%" overflow="visible" style="display: block;" viewBox="0 0 170.874 378.013" fill="none" xmlns="http://www.w3.org/2000/svg">
<g id="Group">
<path id="Vector" d="M92.2287 103.602C92.4264 101.613 92.6242 99.6245 92.8219 97.6241C93.101 94.8561 93.3801 92.0881 93.6476 89.3201C93.8919 86.8428 94.264 84.3772 94.3222 81.9C94.3571 80.3415 94.7409 78.7017 93.95 77.1781C93.8453 76.9804 93.8337 76.771 93.9849 76.5966C94.706 75.8174 94.264 75.3405 93.6709 74.6892C91.5891 72.433 89.4375 70.2697 86.8207 68.6415C82.7268 66.0945 78.8191 63.2334 74.4112 61.2214C72.8876 60.5236 71.6665 59.3606 70.236 58.5232C66.9562 56.5926 64.4441 53.8479 61.8971 51.1031C60.2223 49.2888 58.1987 47.7885 56.71 45.7881C54.1746 42.3921 51.6625 38.9728 49.162 35.5535C46.708 32.1807 45.2426 28.3311 43.8935 24.4466C42.4513 20.2714 41.1138 16.0612 39.7996 11.8511C38.7645 8.53645 37.8457 5.18694 38.3226 1.63972C38.5203 0.116158 38.8692 -0.139703 40.3928 0.0580108C44.6843 0.639523 48.5339 2.37243 52.2323 4.53565C54.791 6.02432 57.3962 7.40832 59.9665 8.87373C62.9903 10.595 65.7234 12.735 68.5496 14.747C70.6779 16.2589 72.8062 17.7941 74.9811 19.2479C77.563 20.9692 79.7146 23.1208 81.622 25.5166C83.2618 27.5868 84.8784 29.6802 86.4834 31.7853C88.7048 34.6929 90.426 37.833 91.7054 41.2988C92.9614 44.6716 94.4385 47.9746 95.648 51.359C97.0785 55.3482 97.4507 59.5118 97.3111 63.7336C97.2414 65.7921 97.3111 67.8623 97.1483 70.0139C99.3813 66.7574 101.091 63.28 103.661 60.4306C106.546 57.2439 110.07 54.8713 113.919 52.9756C120.862 49.5679 128.189 47.2884 135.644 45.3461C139.889 44.2413 144.076 42.9154 148.263 41.6361C153.985 39.8916 159.684 38.0424 165.511 36.6584C166.534 36.4141 167.569 36.1583 168.616 36.0769C170.326 35.9373 171.151 37.0189 170.791 38.7402C170.43 40.4731 169.733 42.0897 169.116 43.7295C168.197 46.2068 166.906 48.4747 165.65 50.7658C163.15 55.3249 159.94 59.2908 155.788 62.4426C152.264 65.1176 148.31 67.0365 144.216 68.6764C140.506 70.1651 136.586 70.921 132.76 71.9678C127.236 73.4913 121.537 74.1542 115.92 75.2359C113.012 75.7941 110.197 76.7013 107.278 77.213C105.801 77.4805 104.289 77.3642 102.824 77.6433C100.905 78.0039 98.9626 78.062 97.0204 78.0271C96.3458 78.0155 96.1597 78.2597 96.1946 78.9343C96.3691 83.1677 95.962 87.3662 95.4968 91.5647C95.1479 94.7398 94.9618 97.9264 94.6246 101.101C94.2873 104.404 93.8221 107.707 93.4848 111.01C93.2057 113.72 93.0312 116.43 92.8102 119.14C92.7986 119.338 92.8335 119.535 92.9731 119.756C93.1708 119.117 93.415 118.5 93.5662 117.849C94.7758 112.441 97.1483 107.556 100.498 103.183C104.429 98.0427 109.395 94.2513 115.559 92.0764C118.594 91.0065 121.711 90.3784 124.875 89.8434C128.445 89.2503 131.865 88.0524 135.354 87.1336C135.982 86.9708 136.621 86.901 137.238 86.7033C138.203 86.4009 139.064 87.3546 138.808 88.4594C138.529 89.6457 138.145 90.8204 137.738 91.9718C135.83 97.2868 134.272 102.706 132.213 107.975C130.771 111.662 129.236 115.314 127.119 118.663C124.689 122.513 122.037 126.234 118.49 129.165C116.734 130.607 114.698 131.677 112.663 132.712C109.255 134.422 105.906 136.236 102.452 137.841C99.0441 139.435 95.7411 141.144 92.6823 143.343C91.7403 144.017 91.0773 145.029 89.9841 145.506C89.6817 145.645 89.7399 145.971 89.7166 146.227C89.5189 148.111 89.3328 149.995 89.1351 151.914C89.7631 151.914 90.1469 151.519 90.5889 151.298C93.7058 149.774 96.8692 148.367 100.265 147.518C102.742 146.89 103.661 148.064 104.068 150.1C104.987 154.682 105.127 159.346 105.313 163.998C105.441 167.126 105.592 170.243 105.65 173.372C105.697 176.233 105.499 179.082 105.08 181.92C104.661 184.723 104.045 187.479 103.312 190.212C102.277 194.062 100.649 197.632 98.2648 200.842C97.0553 202.471 95.9853 204.227 94.6827 205.774C92.8335 207.96 90.4144 209.449 87.9023 210.775C86.9486 211.275 86.2159 212.019 85.4716 212.752C85.2273 212.996 85.2157 213.275 85.2041 213.589C85.1575 216.962 85.1576 220.323 85.0064 223.684C84.8435 227.324 85.0064 230.965 84.8203 234.605C84.6342 238.315 84.8784 242.025 85.0878 245.723C85.1924 247.631 85.332 249.538 85.4018 251.446C85.425 252.143 85.6344 252.702 86.1229 253.178C86.9021 253.934 87.5766 254.772 88.3093 255.888C88.9257 254.074 89.4491 252.469 90.0306 250.876C91.2402 247.526 92.3567 244.142 93.8221 240.874C94.8921 238.489 96.0086 236.129 97.2065 233.802C99.2767 229.79 102.103 226.348 105.092 223.021C107.569 220.265 110.279 217.73 113.14 215.357C115.85 213.101 118.711 211.1 121.735 209.309C126.747 206.332 131.958 203.738 137.377 201.598C140.925 200.203 144.553 199.016 148.275 198.167C151.81 197.353 155.369 196.562 158.986 196.179C159.824 196.086 160.673 196.062 161.522 196.109C163.115 196.202 163.918 197.249 163.79 198.865C163.65 200.645 163.068 202.319 162.65 204.041C161.859 207.239 161.068 210.437 159.975 213.543C158.823 216.799 157.567 220.021 156.044 223.149C154.858 225.592 153.822 228.104 152.566 230.523C150.31 234.884 147.496 238.862 143.948 242.234C140.076 245.921 135.61 248.794 130.829 251.19C126.468 253.376 121.967 255.214 117.28 256.551C113.291 257.691 109.302 258.854 105.22 259.622C102.045 260.215 98.8929 260.982 95.7411 261.692C94.8106 261.901 93.8337 261.808 92.8684 262.273C95.1247 264.867 96.9157 267.739 98.6719 270.635C101.463 275.264 103.894 280.079 105.871 285.138C107.953 290.488 108.592 296.001 108.674 301.653C108.767 308.434 107.616 314.993 105.173 321.32C103.719 325.1 101.545 328.473 99.4395 331.904C99.1255 332.427 98.7184 332.811 98.009 332.566C97.5321 332.404 97.0902 332.741 96.6133 332.741C96.2644 332.741 96.3342 333.008 96.3924 333.264C97.7415 339.265 98.7766 345.348 100.405 351.291C101.091 353.792 101.8 356.292 102.44 358.804C103.289 362.142 104.092 365.503 105.196 368.783C106.022 371.249 106.418 373.854 107.29 376.308C107.557 377.064 107.208 377.657 106.453 377.924C105.627 378.227 105.231 377.715 105.057 377.017C104.534 374.912 103.871 372.83 103.487 370.679C103.173 368.946 102.521 367.283 102.056 365.573C101.091 362.072 100.207 358.548 99.4279 354.99C98.9161 352.605 98.0555 350.291 97.4158 347.918C96.8925 345.976 96.5784 343.999 96.2295 342.022C95.7062 339.01 95.0084 336.021 94.1593 333.09C93.7755 331.764 92.4962 330.88 91.5425 329.868C87.658 325.798 84.0876 321.46 80.5636 317.075C78.8074 314.889 76.807 312.888 74.9229 310.795C72.5155 308.12 70.1313 305.421 67.7238 302.735C66.6887 301.583 65.6071 300.455 64.5488 299.316C62.5251 297.164 60.6875 294.873 58.9197 292.5C57.3497 290.384 56.0587 288.116 54.8724 285.801C53.7908 283.685 53.0465 281.405 52.651 279.032C51.8951 274.439 52.2905 269.938 53.4535 265.46C53.5931 264.948 53.4303 264.646 52.9767 264.378C51.2438 263.367 49.4295 262.506 47.6035 261.692C43.6492 259.924 40.1951 257.517 37.1596 254.388C33.9496 251.073 30.3791 248.119 26.7621 245.223C23.494 242.607 20.5632 239.629 17.9232 236.373C15.2366 233.07 12.7244 229.662 10.3519 226.127C6.93258 221.009 4.18784 215.566 2.02462 209.833C1.02442 207.158 0.314974 204.366 0.0474781 201.505C-0.057194 200.459 -0.0223033 199.365 0.501057 198.412C1.41985 196.76 3.04808 196.248 5.43228 196.981C8.87483 198.028 12.0034 199.749 14.8528 201.947C18.8652 205.029 22.4473 208.646 26.576 211.577C29.3557 213.543 32.24 215.334 35.1941 217.032C38.6482 219.009 42.1257 220.951 45.5682 222.963C48.5572 224.708 51.5113 226.534 54.4537 228.348C57.78 230.395 61.0364 232.57 64.1882 234.884C67.2354 237.117 70.2592 239.362 72.8876 242.095C73.4343 242.653 74.2135 242.572 74.8415 242.909C77.784 244.444 80.11 246.747 82.5291 248.933C82.7501 249.131 82.9594 249.34 83.1571 249.527C83.4014 249.48 83.413 249.317 83.4014 249.201C82.9711 244.27 82.9129 239.327 82.9827 234.384C83.0176 231.837 83.099 229.29 83.1455 226.743C83.192 223.928 83.2967 221.091 83.1455 218.264C83.0641 216.729 81.9243 215.496 81.3545 214.089C80.8427 212.845 80.4008 211.6 79.04 211.007C75.6673 209.553 73.0388 207.03 70.3174 204.692C68.1076 202.796 66.0956 200.68 64.1184 198.528C62.2343 196.481 61.0713 193.969 59.4547 191.759C57.9544 189.701 56.4192 187.665 55.0469 185.525C53.5349 183.164 52.2091 180.722 51.0228 178.198C49.9296 175.849 48.406 173.744 47.3476 171.371C46.9057 170.371 46.4289 169.406 46.2428 168.313C45.8706 166.103 47.1732 164.696 49.2317 164.858C52.0579 165.091 54.8143 165.707 57.245 167.289C61.7808 170.243 65.6769 173.895 68.9683 178.175C70.8872 180.676 72.1317 183.571 73.7134 186.258C73.7832 186.374 73.8297 186.491 73.8878 186.595C74.1205 186.526 74.2019 186.374 74.1902 186.188C73.6901 181.443 74.0507 176.733 74.888 172.058C75.4928 168.72 76.3883 165.452 77.9701 162.474C79.2959 159.974 81.0986 157.764 83.3432 155.985C83.9247 155.519 84.483 154.973 85.1343 154.647C86.6695 153.914 87.3091 152.74 87.2975 151.077C87.2975 150.158 87.5069 149.239 87.4952 148.332C87.4952 147.262 86.7044 146.471 86.2508 145.576C85.2506 143.563 84.1457 141.598 83.006 139.667C82.3547 138.562 81.5871 137.504 80.7846 136.504C77.8189 132.817 75.5859 128.7 73.4924 124.478C71.1547 119.756 70.5965 114.709 70.55 109.58C70.5267 107.382 71.0035 105.23 71.5502 103.067C72.5853 99.0081 74.4461 95.2864 75.7603 91.3554C76.2604 89.8434 76.9582 88.4013 77.4816 86.901C78.0747 85.2146 80.6218 84.6447 82.1104 85.6565C83.9829 86.9359 85.0645 88.7037 86.1577 90.5412C87.5999 92.972 88.7164 95.5655 90.0423 98.0544C90.9727 99.7989 91.4611 101.718 92.2055 103.579L92.2287 103.602ZM99.265 128.898L99.2418 128.875C97.2763 131.712 95.0898 134.387 92.7637 136.923C91.089 138.749 90.4493 140.807 90.2632 143.145C90.5772 143.191 90.6935 142.994 90.8447 142.877C92.3916 141.749 93.95 140.656 95.6364 139.749C98.0671 138.435 100.544 137.225 103.022 136.015C106.138 134.492 109.186 132.852 112.349 131.41C114.722 130.328 116.966 128.944 118.862 127.095C120.641 125.362 122.177 123.42 123.712 121.466C126.689 117.686 128.678 113.371 130.527 108.987C132.062 105.347 133.272 101.602 134.505 97.8567C135.47 94.9142 136.447 91.9834 137.412 89.041C137.505 88.7502 137.656 88.4245 137.424 88.1687C137.156 87.8663 136.866 88.1687 136.586 88.2385C133.493 89.0758 130.434 90.0295 127.317 90.7157C123.468 91.5647 119.548 92.0997 115.815 93.4953C111.593 95.077 107.848 97.438 104.696 100.578C101.486 103.788 98.9161 107.521 97.0785 111.743C95.0549 116.372 93.8686 121.222 92.9149 126.141C92.2869 129.386 91.8217 132.654 91.2751 135.922C91.1704 136.539 91.0541 137.155 91.2053 137.934C92.9731 135.69 94.9037 133.841 96.497 131.666C97.253 130.631 97.9624 129.444 99.265 128.921V128.898ZM73.1319 39.752C73.4226 39.6822 73.5273 39.9148 73.7018 40.0776C75.5742 41.8454 76.7954 44.1133 78.319 46.1486C79.7844 48.1025 80.9939 50.2425 82.2849 52.3127C83.855 54.8132 85.4599 57.2904 87.2045 59.663C88.2279 61.0586 89.3212 62.3844 90.2167 63.8731C91.0424 65.2338 92.1473 66.4318 92.9963 67.7809C93.8919 69.2114 95.1014 70.3628 96.1714 71.7003C96.4389 71.1536 96.4156 70.7117 96.404 70.2697C96.2528 66.8388 96.4272 63.3963 96.2063 59.9537C96.0202 56.9648 95.4619 54.0921 94.4268 51.3125C93.101 47.742 91.6588 44.218 90.2167 40.7057C89.1351 38.0656 87.9721 35.4139 86.1345 33.2042C84.39 31.1224 82.7733 28.9475 81.1219 26.8076C79.1447 24.2373 76.8652 21.981 74.2019 20.1085C71.2013 18.0035 68.096 16.038 65.2001 13.7701C62.8391 11.9208 60.3037 10.3275 57.7102 8.83884C55.0236 7.30365 52.2789 5.87313 49.5923 4.33794C46.7196 2.7097 43.6376 1.7095 40.3928 1.16288C39.5438 1.02332 39.2181 1.3606 39.1716 2.17471C39.0204 4.745 39.2414 7.28039 40.0206 9.73437C41.928 15.689 43.5329 21.7368 45.8473 27.5519C46.7545 29.8314 47.6733 32.1226 49.0922 34.123C51.5462 37.6004 54.1746 40.9499 56.5937 44.4506C57.1519 45.2647 57.78 46.0323 58.501 46.7069C60.5829 48.6608 62.6065 50.6844 64.5488 52.7779C67.247 55.6971 70.4802 58.0231 73.9344 59.8839C77.4467 61.7797 80.959 63.6172 84.2271 65.9084C85.774 66.99 87.5534 67.6413 89.0421 68.8043C90.9145 70.2697 92.7637 71.7584 94.4036 73.4913C94.9386 74.0496 95.8923 74.3287 95.2526 75.4801C95.7527 75.0033 95.6015 74.4334 95.8574 73.9798C96.2761 73.2122 96.0434 72.6074 95.4503 71.9794C94.706 71.2002 94.0314 70.3395 93.415 69.4556C91.2285 66.2806 89.1351 63.0357 86.8556 59.9188C85.2157 57.6858 83.5991 55.4179 82.1686 53.0337C80.2496 49.8238 78.1445 46.7301 76.0162 43.6598C75.0858 42.3223 74.0972 41.0313 73.1319 39.7171L73.1086 39.7404L73.1319 39.752ZM106.627 303.293C106.476 297.059 106.255 292.035 104.475 287.209C103.731 285.196 103.277 283.045 102.277 281.184C101.3 279.37 100.416 277.509 99.3464 275.741C97.032 271.903 95.0665 267.856 92.0775 264.448C90.9843 263.204 90.1004 261.82 89.3328 260.319C88.1814 258.075 86.7625 255.958 85.018 254.121C82.8315 251.818 80.5869 249.573 78.412 247.27C77.3304 246.131 76.0743 245.305 74.6438 244.677C72.027 243.525 68.9217 244.014 66.8283 246.014C65.7932 247.003 64.8046 248.038 63.8858 249.131C62.2576 251.05 60.8852 253.132 59.7222 255.388C58.7104 257.365 58.0475 259.482 57.0589 261.459C56.1634 263.25 55.4423 265.169 55.1981 267.158C54.7096 271.205 54.1048 275.253 55.0934 279.335C55.6051 281.428 56.1285 283.522 57.1054 285.417C59.6757 290.395 63.1997 294.722 66.8748 298.909C69.2241 301.583 71.6781 304.154 74.0274 306.829C76.0511 309.132 78.0631 311.434 80.0635 313.76C82.6338 316.749 85.0296 319.878 87.5301 322.913C89.9376 325.844 92.2404 328.891 95.6945 330.752C96.0202 330.927 96.4389 331.334 96.6947 331.008C97.2763 330.24 98.2765 329.973 98.7533 329.101C99.172 328.333 99.6488 327.589 100.114 326.844C102.615 322.774 104.382 318.447 105.289 313.725C106.022 309.864 106.778 306.026 106.639 303.258L106.627 303.293ZM162.603 198.749C162.603 197.772 161.905 197.342 160.731 197.377C158.451 197.458 156.183 197.807 153.985 198.307C151.543 198.865 149.101 199.412 146.67 200.063C142.657 201.156 138.75 202.552 134.923 204.145C131.469 205.576 128.12 207.262 124.886 209.123C121.083 211.31 117.373 213.647 114.001 216.462C111.139 218.858 108.406 221.405 105.918 224.208C103.498 226.941 101.207 229.767 99.2534 232.837C97.2414 236.001 95.7062 239.432 94.2291 242.874C93.3103 245.026 92.4148 247.212 91.6123 249.41C90.8564 251.48 90.24 253.585 89.3095 255.586C89.0653 256.121 88.7048 256.83 89.1118 257.319C89.7515 258.086 90.0771 259.04 90.7401 259.773C91.0773 260.133 91.3448 260.633 92.0775 260.482C94.3105 260.029 96.6017 259.808 98.7882 259.238C103.394 258.04 108.081 257.168 112.686 255.935C119.641 254.062 126.468 251.899 132.76 248.352C135.668 246.712 138.471 244.886 141.052 242.781C145.414 239.222 148.728 234.803 151.345 229.837C153.915 224.952 156.195 219.939 158.126 214.775C159.51 211.077 160.568 207.286 161.475 203.459C161.859 201.831 162.243 200.214 162.58 198.749H162.603ZM70.2011 242.374C69.9219 241.804 69.5265 241.583 69.2125 241.304C66.9679 239.327 64.6302 237.466 62.1064 235.826C60.1758 234.57 58.3615 233.116 56.4076 231.907C52.9883 229.802 49.6388 227.592 46.1614 225.592C43.1608 223.87 40.2648 221.951 37.2177 220.3C32.8913 217.962 28.6927 215.485 24.7734 212.473C22.3426 210.6 20.098 208.53 17.7022 206.634C15.2598 204.692 12.9105 202.633 10.2239 201.028C8.44451 199.97 6.58367 199.051 4.56001 198.586C2.61776 198.133 1.62919 198.9 1.73386 200.982C1.85016 203.192 2.19907 205.343 2.87363 207.46C3.93198 210.81 5.2113 214.066 6.78138 217.183C8.8632 221.312 11.2707 225.243 13.9805 228.988C16.3763 232.291 18.8303 235.547 21.5867 238.548C24.3314 241.525 27.4251 244.153 30.635 246.619C32.6935 248.201 34.6358 249.922 36.4385 251.771C38.6017 253.993 40.8231 256.144 43.4166 257.842C46.6149 259.936 50.2552 261.192 53.5582 263.122C53.9304 263.343 54.1281 263.157 54.256 262.832C54.5002 262.192 54.7212 261.552 54.9655 260.913C56.1052 257.807 57.4892 254.818 59.0709 251.911C59.2919 251.492 59.792 251.155 59.8502 250.736C59.9548 249.992 59.1058 250.341 58.7336 250.038C57.1287 248.759 55.419 247.596 53.6861 246.468C50.8135 244.584 47.9292 242.734 45.4054 240.385C43.9516 239.036 42.1955 238.129 40.5672 237.012C38.404 235.535 36.578 233.64 34.3916 232.186C31.6817 230.383 29.2859 228.162 26.7272 226.161C24.8315 224.673 22.8311 223.347 21.3075 221.416C19.8189 219.521 18.179 217.764 16.2251 216.311C14.6318 215.113 13.0268 213.926 11.8173 212.275C10.0379 209.833 8.17701 207.46 6.3627 205.041C6.17661 204.797 5.83934 204.576 5.99053 204.076C7.29311 205.308 8.22353 206.774 9.22373 208.146C11.2358 210.903 13.2943 213.578 16.0623 215.613C17.7022 216.822 19.3304 218.032 20.5516 219.683C21.4006 220.835 22.3077 221.94 23.401 222.87C26.0992 225.161 29.0649 227.103 31.6933 229.476C33.5309 231.116 35.8221 232.116 37.6364 233.779C39.0669 235.093 40.5323 236.338 42.2652 237.28C44.3005 238.385 46.1381 239.78 47.778 241.455C48.3013 241.979 48.9177 242.432 49.5458 242.828C52.9767 245.026 56.4774 247.107 59.7804 249.492C60.2456 249.829 60.5014 249.782 60.862 249.34C61.8273 248.154 62.781 246.945 63.851 245.863C65.5839 244.119 67.1656 242.06 70.1778 242.374H70.2011ZM95.7527 76.0732C96.4156 76.5617 96.9622 76.5384 97.4856 76.5268C99.8 76.4803 102.091 76.2826 104.394 76.0616C107.092 75.8057 109.662 75.0265 112.279 74.4101C119.304 72.7354 126.538 72.1306 133.516 70.2232C137.121 69.2347 140.831 68.6531 144.286 67.1528C151.357 64.0941 157.788 60.2328 162.254 53.6618C164.569 50.2657 166.441 46.6604 168.069 42.9038C168.674 41.4965 169.256 40.0777 169.477 38.5541C169.616 37.5539 169.407 37.3562 168.43 37.519C167.325 37.7051 166.197 37.8563 165.127 38.1587C161.778 39.0775 158.44 39.9962 155.113 41.0081C150.368 42.4502 145.646 44.0087 140.901 45.4625C135.458 47.1256 129.934 48.4631 124.561 50.3239C118.734 52.3359 113.152 54.7318 108.209 58.5116C105.534 60.5585 103.487 63.0706 101.812 65.9549C101.021 67.3273 100.161 68.6648 99.1371 69.9208C98.2765 70.9676 97.4158 72.1422 97.7764 73.689C97.8229 73.9216 97.7996 74.1194 97.5321 74.1426C97.0436 74.1775 97.0204 74.5962 96.9855 74.8869C96.9041 75.5266 96.7529 76.0616 95.7643 76.0616L95.7527 76.0732ZM88.0302 195.807C88.0884 196.388 88.0418 196.714 87.9488 197.051C86.9021 200.912 85.0064 204.424 83.5177 208.111C83.1455 209.042 82.6803 209.937 82.3547 210.891C82.1686 211.461 82.5059 211.763 82.9362 211.914C83.4712 212.1 83.2967 211.565 83.3665 211.333C83.4828 210.926 83.8084 210.961 84.0992 210.903C84.8086 210.763 85.5065 210.554 86.0531 210.054C86.7393 209.426 87.4952 208.937 88.2977 208.472C89.9143 207.53 91.6007 206.646 92.8335 205.204C96.2528 201.145 99.2534 196.807 101.114 191.806C101.963 189.549 102.37 187.142 102.824 184.769C103.266 182.467 103.766 180.164 103.836 177.803C103.964 173.825 103.987 169.848 103.743 165.87C103.557 162.893 103.475 159.904 103.266 156.927C103.103 154.694 102.929 152.449 102.382 150.263C102.08 149.088 101.545 148.809 100.416 149.227C98.73 149.844 97.0669 150.553 95.3922 151.181C92.0194 152.449 89.0886 154.531 86.0763 156.415C83.7619 157.857 81.8313 159.846 80.4473 162.242C77.9817 166.498 76.8419 171.197 76.2837 176.023C75.7138 180.931 75.8185 185.863 76.0511 190.794C76.2837 195.702 77.6677 200.366 79.3192 204.948C79.5401 205.564 79.7146 206.169 79.703 206.832C79.6681 208.344 80.4706 209.437 81.5057 210.542C83.8899 205.75 86.5532 201.191 88.0418 195.795L88.0302 195.807ZM88.1698 138.202C88.2745 138.202 88.3675 138.202 88.4722 138.19C88.7513 135.771 89.0188 133.364 89.3095 130.945C89.6817 127.805 90.1353 124.676 90.3912 121.524C90.647 118.338 90.7866 115.128 91.3099 111.976C91.9729 107.917 91.2518 104.079 89.7282 100.415C88.4838 97.4147 86.9253 94.5188 85.2971 91.6926C84.3318 90.0063 83.3316 88.2617 81.5987 87.1336C80.5636 86.4707 79.5401 86.7265 79.0866 87.9012C77.9003 90.9716 76.6791 94.042 75.551 97.1356C74.4112 100.264 73.0156 103.358 72.7132 106.696C72.1317 113.092 72.6318 119.338 75.8766 125.106C77.5049 128.002 78.8307 131.084 80.9125 133.724C82.7152 136.004 84.2853 138.423 85.6228 141.005C86.2508 142.214 86.7393 143.517 87.7278 144.773C88.3675 140.086 87.3906 135.748 86.6346 131.398C87.3906 133.608 87.9023 135.864 88.1698 138.19V138.202ZM79.2261 209.484C79.4122 209.181 79.261 208.984 79.168 208.763C77.2257 204.087 75.5161 199.33 74.6787 194.306C74.3996 192.643 74.481 190.922 73.6436 189.352C73.097 188.328 72.562 187.316 72.0154 186.293C69.5381 181.687 66.8516 177.245 62.7577 173.837C60.4433 171.906 58.3731 169.65 55.6051 168.324C53.5 167.312 51.3252 166.58 48.941 166.661C47.964 166.696 47.6733 167.196 47.8012 168.045C47.9059 168.72 48.0571 169.383 48.3827 169.999C49.8947 172.93 51.3833 175.872 52.9185 178.791C54.1513 181.141 55.2097 183.571 56.7332 185.77C58.1056 187.747 59.6641 189.584 60.9318 191.655C61.7691 193.015 62.4902 194.469 63.4555 195.725C65.5257 198.423 68.0495 200.714 70.4453 203.122C72.341 205.018 74.7369 206.344 76.7954 208.088C77.4932 208.681 78.3073 209.205 79.2145 209.472L79.2261 209.484Z" fill="var(--fill-0, #E7DFD2)"/>
<path id="Vector_2" d="M70.4687 245.828C70.8525 247.689 71.1433 249.562 71.5271 251.422C72.4459 255.993 73.4926 260.529 74.5509 265.065C75.3185 268.344 76.0629 271.624 76.8188 274.904C77.191 276.52 77.6562 278.114 78.2261 279.684C79.1216 282.173 79.7962 284.731 80.4591 287.29C81.0406 289.535 82.0175 291.64 82.7502 293.826C83.8551 297.141 84.7623 300.525 86.0183 303.805C87.9141 308.736 89.6819 313.726 91.6125 318.645C92.8802 321.867 94.2758 325.03 95.8343 328.112C96.125 328.682 96.4972 329.229 96.4041 329.926C96.3692 330.147 96.6019 330.45 96.2762 330.554C95.9506 330.659 95.7994 330.368 95.6831 330.113C95.183 328.996 94.5433 327.926 94.2177 326.763C93.7408 325.042 92.8453 323.507 92.2173 321.867C91.3101 319.494 90.589 317.029 89.5307 314.714C87.7745 310.876 86.8092 306.759 85.0996 302.909C83.9831 300.397 83.3783 297.687 82.5409 295.071C82.0059 293.396 81.3081 291.768 80.715 290.105C79.7148 287.29 79.11 284.348 78.1214 281.545C76.6211 277.3 75.6558 272.927 74.6672 268.554C73.4577 263.192 72.3296 257.807 71.3061 252.399C70.8874 250.224 70.6897 248.026 70.4687 245.828Z" fill="var(--fill-0, #E7DFD2)"/>
<path id="Vector_3" d="M93.7055 255.609C94.8569 254.469 96.2991 253.76 97.7296 253.097C101.102 251.527 104.208 249.538 107.348 247.561C111.663 244.839 115.954 242.071 120.129 239.152C123.572 236.745 127.038 234.349 130.271 231.639C131.981 230.209 133.783 228.836 135.458 227.371C139.261 224.045 143.146 220.776 146.46 216.915C150.449 212.275 154.532 207.716 158.195 202.808C159.044 201.668 159.823 200.389 160.347 199.016C160.51 198.586 160.638 197.842 161.359 198.225C162.045 198.598 161.661 199.167 161.359 199.621C159.044 202.971 156.8 206.367 154.02 209.379C151.717 211.868 149.728 214.647 147.46 217.159C145.041 219.834 142.564 222.451 139.761 224.766C137.191 226.882 134.749 229.15 132.155 231.232C128.538 234.14 124.782 236.861 120.955 239.489C117.106 242.141 113.209 244.723 109.209 247.142C106.603 248.724 104.056 250.387 101.393 251.876C99.4741 252.946 97.4156 253.771 95.4152 254.725C94.8337 255.004 94.2871 255.318 93.7172 255.621L93.7055 255.609Z" fill="var(--fill-0, #E7DFD2)"/>
<path id="Vector_4" d="M93.1477 255.981C92.3801 256.458 91.6008 256.924 90.8333 257.4C91.4497 256.679 92.194 256.156 93.1477 255.981Z" fill="var(--fill-0, #E7DFD2)"/>
<path id="Vector_5" d="M41.3234 2.12832C43.5332 4.37295 45.4405 6.85019 47.0106 9.5833C45.1498 7.07117 43.1377 4.67534 41.3234 2.12832Z" fill="var(--fill-0, #E7DFD2)"/>
<path id="Vector_6" d="M73.1434 39.7288C72.0269 38.5425 70.7941 37.426 70.3987 35.7396H70.3754C71.2361 36.8677 72.0851 37.9959 72.9573 39.1007C73.1202 39.3101 73.155 39.5194 73.1202 39.7637L73.1434 39.7404V39.7288Z" fill="var(--fill-0, #E7DFD2)"/>
<path id="Vector_7" d="M70.3987 35.7279C70.0847 35.7977 69.8637 35.6465 69.7242 35.4023C69.1543 34.4369 68.1192 33.8438 67.6075 32.611C68.91 33.4716 69.4683 34.7626 70.3755 35.7512L70.4103 35.7279H70.3987Z" fill="var(--fill-0, #E7DFD2)"/>
<path id="Vector_8" d="M98.5321 74.8286C102.975 73.4563 107.069 71.2116 111.372 69.5252C114.151 68.432 117.036 67.583 119.699 66.199C121.653 65.1755 123.525 63.9892 125.619 63.2682C127.061 62.7681 128.503 62.2912 129.969 61.8376C130.969 61.5353 131.795 60.8258 132.876 60.7211C121.548 65.7221 110.372 71.0837 98.5321 74.817V74.8286Z" fill="var(--fill-0, #E7DFD2)"/>
<path id="Vector_9" d="M165.464 42.2061C166.348 41.2757 166.708 40.0313 167.499 39.066C167.709 38.8101 168.092 38.5542 168.395 38.8101C168.72 39.0776 168.453 39.4381 168.244 39.7056C167.464 40.6942 166.627 41.613 165.464 42.2177V42.2061Z" fill="var(--fill-0, #E7DFD2)"/>
<path id="Vector_10" d="M164.604 43.0434C163.801 43.7296 162.894 44.2646 161.987 44.7879C161.929 44.7182 161.882 44.6484 161.824 44.567C162.685 43.9738 163.545 43.3691 164.406 42.7759C164.476 42.869 164.534 42.9504 164.604 43.0434Z" fill="var(--fill-0, #E7DFD2)"/>
<path id="Vector_11" d="M133.493 60.2795C134.167 59.7096 134.9 59.2328 135.97 59.0234C135.121 59.6398 134.388 60.0934 133.493 60.2795Z" fill="var(--fill-0, #E7DFD2)"/>
<path id="Vector_12" d="M102.056 150.588C102.207 151.402 102.01 152.077 101.8 152.751C100.8 156.008 99.3694 159.09 98.0785 162.23C96.6247 165.754 95.4384 169.371 94.1591 172.953C92.9379 176.396 91.961 179.896 90.9957 183.42C90.9259 181.932 91.3097 180.513 91.7284 179.117C92.9728 174.988 94.2172 170.86 95.7059 166.812C96.6247 164.323 97.6482 161.893 98.6716 159.439C99.7532 156.857 101.056 154.333 101.614 151.553C101.684 151.228 101.777 150.925 102.056 150.588Z" fill="var(--fill-0, #E7DFD2)"/>
<path id="Vector_13" d="M89.0308 191.806C89.4495 190.085 89.8682 188.375 90.2869 186.654C89.9961 188.398 90.1589 190.271 89.0192 191.794H89.0308V191.806Z" fill="var(--fill-0, #E7DFD2)"/>
<path id="Vector_14" d="M90.5306 186.014C90.2515 185.27 90.6586 184.665 90.833 184.002C90.9842 184.723 90.8098 185.374 90.5306 186.014Z" fill="var(--fill-0, #E7DFD2)"/>
<path id="Vector_15" d="M89.0186 191.794C89.3093 192.922 88.6464 193.888 88.4371 194.923C88.2161 193.806 88.8325 192.853 89.0302 191.818L89.0186 191.794Z" fill="var(--fill-0, #E7DFD2)"/>
<path id="Vector_16" d="M99.2535 128.898C99.079 127.921 99.9048 127.432 100.382 126.886C103.871 122.897 107.243 118.814 110.477 114.604C113.431 110.755 117.059 107.591 120.723 104.439C123.456 102.09 125.898 99.4385 128.492 96.9496C130.585 94.926 132.551 92.786 134.563 90.6809C134.761 90.4716 134.923 90.2739 135.354 90.3437C134.54 91.7393 133.528 92.9372 132.435 94.0072C128.841 97.5311 125.41 101.218 121.688 104.602C119.99 106.149 118.234 107.649 116.513 109.173C114.303 111.127 112.384 113.348 110.488 115.616C108.081 118.489 106.034 121.641 103.266 124.234C102.161 125.269 101.324 126.642 100.347 127.851C100.033 128.247 99.6838 128.63 99.2186 128.875L99.2419 128.898H99.2535Z" fill="var(--fill-0, #E7DFD2)"/>
<path id="Vector_17" d="M82.9594 108.952C81.8312 102.044 81.2381 95.1353 81.8778 88.1688C81.7615 95.1237 82.4593 102.044 82.9594 108.952Z" fill="var(--fill-0, #E7DFD2)"/>
<path id="Vector_18" d="M82.9128 109.905C83.157 110.906 83.157 111.918 83.0756 112.941C82.7616 111.941 82.8663 110.929 82.9128 109.905Z" fill="var(--fill-0, #E7DFD2)"/>
</g>
</svg>
