<svg preserveAspectRatio="none" width="100%" height="100%" overflow="visible" style="display: block;" viewBox="0 0 270.67 367.762" fill="none" xmlns="http://www.w3.org/2000/svg">
<path id="Vector" d="M103.113 286.9C102.57 285.554 102.143 284.264 101.845 282.945C101.392 280.968 100.965 278.991 100.745 276.945C100.55 275.05 100.059 273.21 99.8126 271.315C99.4372 268.39 98.6605 265.575 97.6508 262.829C97.0554 261.209 96.434 259.588 95.9809 257.913C95.1007 254.618 94.803 251.322 95.5797 247.917C96.3693 244.47 97.4825 241.175 99.1653 238.126C100.317 236.039 101.625 234.048 103.075 232.167C104.732 230.011 106.466 227.924 108.317 225.96C111.812 222.239 115.773 219.246 120.446 217.364C122.919 216.362 125.391 215.346 127.928 214.577C131.411 213.52 134.931 212.737 138.569 212.38C142.931 211.954 147.281 211.817 151.643 212.037C155.203 212.215 158.75 212.531 162.284 213.053C165.377 213.506 168.471 214.028 171.552 214.55C173.494 214.879 175.435 215.25 177.39 215.566C179.409 215.895 181.442 216.238 183.474 216.527C186.788 216.994 190.05 217.694 193.157 219.04C194.076 219.438 195.008 219.877 195.746 220.591C197.221 221.992 197.571 223.832 197.169 225.809C196.665 228.308 195.694 230.601 194.205 232.634C192.716 234.666 190.71 235.888 188.445 236.657C185.908 237.522 183.448 238.648 180.872 239.417C179.047 239.966 177.235 240.57 175.409 241.106C173.934 241.532 172.445 241.985 170.957 242.355C168.717 242.918 166.478 243.523 164.225 244.003C162.633 244.347 161.041 244.841 159.449 245.253C156.782 245.953 154.09 246.557 151.358 246.873C146.569 247.45 141.766 248.013 136.977 248.644C134.608 248.96 132.265 249.441 129.909 249.757C127.954 250.018 125.974 250.182 124.045 250.622C121.534 251.185 119.061 251.899 116.654 252.846C113.586 254.055 110.919 256.004 108.265 257.941C106.207 259.437 104.421 261.318 102.919 263.433C102.466 264.078 102.181 264.861 101.858 265.603C101.702 265.96 101.586 266.303 101.211 266.468C101.029 266.55 100.965 266.715 101.016 266.935C101.482 269.283 101.586 271.672 101.923 274.034C102.246 276.341 102.492 278.661 102.906 280.941C103.334 283.247 103.955 285.527 104.796 287.738C105.34 289.166 105.897 290.607 106.143 292.159C106.272 292.969 106.919 293.56 107.346 294.232C108.421 295.894 109.146 297.775 110.168 299.464C110.932 300.727 111.877 301.826 112.654 303.062C114.906 306.632 117.599 309.776 120.537 312.701C121.508 313.676 122.129 314.967 122.945 316.093C123.851 317.342 124.705 318.619 125.689 319.828C126.673 321.036 127.501 322.395 128.524 323.59C130.595 325.993 132.42 328.629 134.75 330.785C135.061 331.074 135.009 331.65 135.592 331.788C135.488 330.62 135.113 329.577 134.828 328.506C134.401 326.927 133.52 325.554 132.977 324.016C131.851 320.857 131.178 317.603 131.074 314.225C130.97 310.916 131.682 307.744 132.498 304.572C133.391 301.071 134.569 297.679 135.734 294.274C136.174 293.01 136.808 291.857 137.417 290.704C137.611 290.333 137.935 289.948 138.401 290.072C138.854 290.195 139.113 290.607 139.216 291.088C139.76 293.615 140.032 296.182 140.2 298.75C140.355 301.139 140.433 303.515 140.472 305.918C140.524 309.859 140.381 313.786 139.876 317.699C139.527 320.391 138.867 323.027 138.53 325.718C138.258 327.874 137.676 329.989 137.753 332.2C137.753 332.364 137.753 332.584 137.663 332.666C136.938 333.353 137.482 333.724 137.922 334.218C140.148 336.758 142.569 339.106 144.912 341.523C148.433 345.134 151.954 348.773 155.552 352.302C158.064 354.76 160.73 357.026 163.371 359.319C164.885 360.623 166.309 362.079 167.914 363.232C169.3 364.221 170.452 365.457 171.707 366.583C171.876 366.734 172.083 366.899 172.005 367.201C171.914 367.53 171.604 367.462 171.384 367.585C170.491 368.038 169.921 367.544 169.261 366.981C167.526 365.484 165.701 364.111 163.966 362.614C162.102 360.994 160.355 359.223 158.452 357.657C156.083 355.708 153.831 353.607 151.682 351.41C149.986 349.693 148.303 347.936 146.724 346.082C144.886 343.926 142.698 342.127 140.653 340.191C138.88 338.516 137.119 336.8 135.527 334.932C134.621 333.875 134.556 333.806 133.326 334.383C132.291 334.877 131.333 335.495 130.336 336.044C127.915 337.376 125.288 338.049 122.621 338.461C121.132 338.681 119.592 338.543 118.078 338.489C115.281 338.379 112.472 338.31 109.728 337.706C105.431 336.758 101.042 336.319 96.7706 335.262C94.8936 334.795 93.0425 334.328 91.3726 333.271C90.8937 332.969 90.5183 332.598 90.5571 331.994C90.596 331.389 91.1396 331.266 91.5798 331.142C95.2043 330.112 98.764 328.849 102.44 328.08C104.576 327.627 106.738 327.449 108.9 327.27C111.126 327.078 113.34 326.94 115.566 326.789C118.22 326.611 120.783 327.16 123.307 327.943C126.142 328.822 128.873 329.975 131.618 331.142C131.708 331.183 131.812 331.17 132.122 331.211C131.346 330.346 130.699 329.618 130.064 328.89C127.695 326.213 125.236 323.617 122.971 320.83C121.896 319.512 120.783 318.235 119.786 316.848C118.686 315.324 117.534 313.841 116.485 312.275C115.01 310.051 113.43 307.895 111.942 305.684C110.414 303.432 108.809 301.249 107.256 299.011C105.301 296.21 103.541 293.271 101.884 290.278C101.159 288.973 99.942 288.122 98.8935 287.133C96.5117 284.895 93.9098 282.945 91.3726 280.913C90.5312 280.24 89.5992 279.705 88.719 279.101C88.5766 279.004 88.4083 278.936 88.2918 279.059C87.7611 279.65 87.1915 279.389 86.5702 279.252C86.0136 279.114 85.444 279.361 84.9133 279.54C81.8324 280.529 78.9716 282.039 76.1497 283.673C73.1077 285.431 70.0916 287.284 66.7907 288.479C64.1629 289.426 61.4704 290.113 58.8038 290.909C57.4446 291.308 56.0855 291.706 54.7263 292.104C51.3348 293.093 47.8656 293.683 44.4352 294.48C41.3544 295.194 38.3124 296.086 35.2316 296.8C32.6297 297.391 30.0149 297.967 27.3353 298.201C23.9956 298.489 20.6559 298.42 17.3291 298.16C14.3906 297.94 11.4651 297.583 8.59143 296.773C6.20961 296.1 4.12554 294.905 2.14501 293.45C1.45894 292.942 0.876423 292.255 0.319802 291.582C-0.172095 290.978 -0.0814763 290.003 0.488089 289.33C1.88611 287.696 3.45239 286.255 5.10931 284.895C6.57206 283.687 8.00893 282.465 9.49757 281.298C11.8535 279.471 14.2742 277.714 16.7336 276.025C20.7983 273.224 24.8241 270.34 29.1476 268.006C31.154 266.921 33.1604 265.795 35.2575 264.93C37.8335 263.872 40.4095 262.801 43.0761 261.991C45.8592 261.154 48.6552 260.536 51.5419 260.481C53.9367 260.44 56.3055 260.742 58.6355 261.305C60.9656 261.868 63.2957 262.417 65.5739 263.186C67.6968 263.9 69.8197 264.655 71.865 265.63C73.8714 266.578 75.8779 267.58 77.9102 268.472C81.004 269.832 83.7482 271.741 86.1301 274.253C87.1527 275.324 88.1494 276.45 89.3015 277.329C90.9066 278.538 92.3953 279.897 93.9486 281.174C95.8774 282.753 97.7802 284.36 99.6961 286.021C99.3207 285.28 98.9582 284.538 98.5828 283.797C97.2366 281.201 95.9033 278.592 94.5311 276.011C93.7545 274.542 92.8354 273.155 92.0846 271.672C90.4147 268.363 88.6672 265.108 87.3857 261.593C86.5313 259.259 85.5734 256.979 84.6802 254.672C83.7353 252.256 82.7903 249.839 81.8842 247.409C81.1852 245.5 80.525 243.564 79.9036 241.614C79.347 239.856 78.7386 238.112 76.9523 237.385C74.9458 236.561 72.9135 235.819 70.687 236.012C68.9913 236.149 67.3085 235.943 65.6516 235.49C63.9558 235.037 62.273 234.57 60.5772 234.144C59.1663 233.801 57.833 233.238 56.5644 232.551C54.7133 231.535 52.7716 230.931 50.7134 230.698C48.2669 230.409 46.1957 229.379 44.5776 227.361C42.6618 224.944 40.4353 222.83 38.4807 220.454C37.3157 219.04 36.4354 217.392 35.4775 215.813C35.2186 215.373 34.9468 214.948 34.6232 214.563C33.7559 213.561 33.9889 212.504 35.2186 211.996C37.4451 211.076 39.7493 210.828 42.1052 211.117C45.9886 211.611 49.8073 212.476 53.5095 213.794C55.5806 214.522 57.5094 215.621 59.3346 216.911C61.4316 218.394 63.5416 219.85 65.6257 221.347C68.2017 223.2 70.6223 225.246 72.9006 227.498C74.2339 228.816 75.5413 230.148 76.7581 231.59C77.004 231.892 77.1206 232.318 77.4959 232.496C77.6642 232.304 77.5736 232.112 77.5348 231.947C76.6804 228.047 75.839 224.148 74.9458 220.262C74.4281 218.01 73.9879 215.744 73.742 213.437C73.6255 212.38 73.0042 211.515 72.5382 210.622C71.6709 208.961 70.9589 207.244 70.5835 205.404C70.1175 203.111 69.2114 201.01 68.3311 198.896C67.6451 197.262 67.2826 195.532 66.9072 193.815C66.3506 191.247 65.7939 188.666 65.5868 186.016C65.4574 184.327 65.548 182.638 65.9104 180.976C66.8036 176.926 67.2826 172.82 67.5545 168.687C67.7486 165.79 67.5026 162.92 67.4509 160.036C67.4509 159.611 67.2049 159.597 66.9719 159.569C65.0043 159.308 63.2957 158.306 61.5352 157.427C59.7488 156.535 58.0789 155.409 56.3314 154.42C53.5353 152.855 50.5193 151.852 47.7362 150.287C45.8721 149.243 44.1246 147.966 42.4677 146.566C41.1214 145.426 39.6975 144.41 38.3771 143.256C36.2024 141.362 34.1701 139.329 32.5779 136.789C30.9339 134.166 29.5489 131.42 28.358 128.564C27.0247 125.365 26.1185 122.028 25.6396 118.554C25.3289 116.233 25.083 113.913 24.9017 111.578C24.5911 107.596 24.2545 103.614 23.4261 99.687C23.0248 97.8058 22.8953 95.8697 22.8435 93.9336C22.8176 93.2607 23.2189 92.9998 23.8532 93.1646C26.0279 93.7413 27.6719 95.238 29.277 96.7485C31.2705 98.616 33.3805 100.319 35.374 102.186C36.8497 103.573 38.2347 105.07 39.5033 106.69C40.5001 107.967 41.678 108.997 42.9466 109.917C45.1343 111.482 47.0889 113.267 48.5905 115.602C49.7685 117.428 51.2959 118.938 52.8364 120.435C53.8331 121.396 54.558 122.563 55.1793 123.84C56.2796 126.051 57.2634 128.317 58.778 130.28C59.5805 131.324 60.0724 132.574 60.5643 133.782C61.341 135.745 62.506 137.476 63.3603 139.384C63.9946 140.799 64.3442 142.364 64.9137 143.819C65.7681 146.016 66.0658 148.378 66.7389 150.63C67.3473 152.69 67.8522 154.763 68.0204 156.919C68.0334 157.111 68.0593 157.331 68.1499 157.468C69.4055 159.308 68.9266 161.451 69.0301 163.469C69.1337 165.556 68.7842 167.643 68.7842 169.868C69.3667 169.016 69.5738 168.096 69.9233 167.259C70.9071 164.911 72.2145 162.755 73.5867 160.654C74.3634 159.473 74.9976 158.265 75.2565 156.713C75.6707 154.269 76.1367 151.811 76.8358 149.408C77.8843 145.811 79.0623 142.282 80.2143 138.725C81.2111 135.636 82.3631 132.601 83.3081 129.498C84.6026 125.282 86.4407 121.314 88.3048 117.373C89.3792 115.107 90.6089 112.938 91.7351 110.7C92.5765 109.038 93.1978 107.28 93.7933 105.509C94.1816 104.328 94.4794 103.12 94.8677 101.939C95.502 100.003 95.3467 98.0804 94.8936 96.158C94.8418 95.9383 94.6994 95.7873 94.5182 95.6637C93.2755 94.8124 91.994 94.0571 90.5053 93.8649C87.6316 93.4804 84.8356 92.7664 82.0913 91.7915C80.5897 91.256 78.9846 91.0637 77.4571 90.6243C74.8811 89.8965 72.2404 89.4571 69.7162 88.5371C67.7745 87.8368 65.794 87.1915 63.9947 86.1479C62.5578 85.3103 61.1727 84.3628 59.6841 83.6351C58.4673 83.0446 57.2375 82.4679 56.1243 81.6989C54.5839 80.6279 53.1211 79.4333 51.6196 78.2936C50.5451 77.4697 49.4837 76.6183 48.3834 75.8082C46.7006 74.5586 45.3932 72.9384 44.1764 71.2219C43.0372 69.6154 42.0664 67.8852 41.0567 66.1688C39.8011 64.0267 38.9208 61.7199 38.1312 59.3581C37.5357 57.5867 37.0827 55.7605 36.3707 54.044C35.6847 52.3963 35.2445 50.6661 34.5584 49.0458C33.2769 46.0112 32.4485 42.8118 31.4129 39.6948C31.2576 39.2279 31.0505 38.7885 30.8304 38.3629C30.6492 38.0059 30.3644 37.6488 30.6621 37.2506C30.9987 36.7838 31.387 36.4268 32.0343 36.5915C33.3676 36.9485 34.7267 37.2644 36.06 37.6076C38.7266 38.2942 41.4191 38.8984 44.034 39.7497C46.7912 40.6423 49.4449 41.782 52.1115 42.9354C54.5192 43.9653 57.0045 44.7342 59.5417 45.3247C62.053 45.9014 64.4995 46.739 66.8554 47.8649C68.9136 48.8536 71.0236 49.7049 73.0948 50.6524C75.2695 51.6411 77.3018 52.8906 79.1011 54.5521C80.9133 56.1999 82.7256 57.8339 84.4084 59.619C85.4051 60.6625 86.4407 61.6649 87.3727 62.7909C88.0459 63.6011 88.7837 64.3563 89.418 65.2076C90.7772 66.9927 91.8257 68.9425 92.4212 71.1808C93.3273 74.5587 93.7803 77.9915 94.104 81.4655C94.2722 83.333 95.0619 85.0769 95.5408 86.8757C95.9551 88.441 96.4081 90.0339 96.4987 91.6679C96.5634 92.89 96.4987 94.1395 96.7317 95.3479C96.9647 96.5151 97.2236 97.6685 97.4049 99.0553C97.845 98.3139 98.2074 97.7509 98.544 97.1467C100.149 94.2768 102.052 91.6404 103.929 88.9903C106.026 86.0243 108.265 83.1819 110.479 80.3258C112.291 77.9778 114.065 75.5748 115.955 73.2954C117.909 70.9473 120.006 68.7503 122.168 66.5945C123.307 65.4548 124.498 64.3837 125.637 63.244C126.414 62.4614 126.983 61.5414 127.527 60.5802C129.029 57.9712 130.699 55.4996 132.459 53.0966C133.262 51.9981 133.365 50.7623 133.365 49.4852C133.365 47.9473 133.003 46.4644 132.873 44.9402C132.731 43.4435 132.614 41.9605 132.588 40.4638C132.563 38.5276 132.42 36.6053 132.614 34.6691C132.834 32.3897 133.262 30.1515 133.999 27.9957C134.737 25.8536 135.605 23.7527 136.627 21.7342C137.533 19.9354 138.634 18.2602 139.786 16.6124C142.051 13.3718 144.355 10.1725 146.232 6.64351C146.543 6.05306 146.853 5.39395 147.501 5.05067C148.006 4.77604 148.29 4.85843 148.536 5.40768C148.925 6.25903 148.899 7.17903 148.912 8.05783C148.976 10.7217 149.248 13.3856 149.08 16.0495C148.795 20.6632 148.666 25.2906 147.902 29.8769C147.307 33.502 145.922 36.77 144.161 39.887C142.595 42.6608 140.964 45.407 139.255 48.0709C138.194 49.7324 137.132 51.4214 135.695 52.767C135.385 53.0554 135.074 53.3575 134.608 53.2202C134.414 53.1515 134.258 53.2202 134.129 53.3849C132.55 55.4035 130.957 57.4357 129.378 59.4542C129.43 59.5091 129.495 59.5778 129.546 59.6327C130.103 59.1246 130.673 58.6303 131.216 58.0948C134.116 55.2661 137.132 52.616 140.381 50.2405C144.899 46.945 149.688 44.1712 154.646 41.6858C157.636 40.1754 160.665 38.7611 163.746 37.4841C164.717 37.0859 165.662 36.5503 166.607 36.2208C167.578 35.8775 167.772 35.2047 168.122 34.4906C168.847 33.0077 169.882 31.7444 170.788 30.3987C171.927 28.7235 172.963 26.9796 173.908 25.1671C175.125 22.8602 175.992 20.3748 177.209 18.068C179.086 14.5528 181.662 11.8614 185.17 10.1862C188.199 8.75812 191.461 8.19514 194.606 7.22022C196.457 6.6435 198.27 5.92947 200.121 5.43514C203.952 4.40529 207.655 2.92231 211.499 1.96112C213.428 1.46679 215.408 1.32947 217.363 1.06858C220.237 0.684101 223.111 0.29963 226.01 0.162316C228.962 0.0112717 231.926 -0.0985848 234.864 0.134848C237.88 0.36828 240.832 1.01366 243.693 2.23575C246.23 3.32052 248.896 4.03455 251.589 4.61126C255.084 5.36649 258.488 6.53366 261.932 7.53604C263.614 8.01664 265.336 8.31872 267.058 8.57962C267.873 8.7032 268.663 8.97783 269.491 9.0053C270.177 9.03276 270.397 9.69186 270.618 10.1999C270.812 10.6393 270.423 10.9414 270.139 11.216C269.116 12.2459 268.093 13.262 267.071 14.3056C265.957 15.4453 265.051 16.7772 264.093 18.0542C262.825 19.7432 261.479 21.3498 260.094 22.9151C259.11 24.0274 258.268 25.2632 257.336 26.4303C255.938 28.188 254.23 29.5886 252.624 31.1127C250.023 33.5981 246.709 34.422 243.654 35.8775C241.143 37.0721 238.631 38.2393 236.107 39.3927C235.11 39.8459 234.127 40.3127 233.091 40.656C231.279 41.2327 229.479 41.8232 227.615 42.1939C224.56 42.8118 221.531 43.5945 218.451 43.9927C215.862 44.336 213.247 44.4733 210.645 44.7891C208.716 45.0363 206.787 45.4208 204.846 45.5581C201.739 45.7778 198.632 45.7915 195.525 45.7503C193.131 45.7091 190.788 45.3384 188.432 44.8715C186.154 44.4184 183.966 43.6494 181.739 43.059C179.125 42.3587 176.536 41.576 173.934 40.862C172.212 40.3951 170.698 39.3653 169.08 38.5963C168.393 38.2667 167.811 38.0196 166.957 38.4864C164.911 39.6124 162.711 40.4226 160.536 41.2327C158.685 41.9193 156.95 42.8667 155.229 43.8554C153.158 45.05 151.086 46.2859 149.08 47.5903C147.242 48.785 145.468 50.0757 143.695 51.3664C142.323 52.3688 140.977 53.4124 139.643 54.4697C137.624 56.0625 135.721 57.8202 133.805 59.5503C132.459 60.7724 131.1 61.9808 129.741 63.1891C126.725 65.853 123.773 68.5993 121.094 71.6751C118.336 74.8333 115.657 78.0601 113.197 81.493C112.783 82.0697 112.149 82.4542 111.916 83.3055C112.472 83.1133 112.822 82.7425 113.223 82.4816C116.77 80.2434 120.485 78.4584 124.563 77.5384C127.203 76.9479 129.378 75.3413 131.475 73.57C133.741 71.6613 136.032 69.7801 138.543 68.201C139.928 67.3222 141.365 66.5396 142.802 65.7843C144.226 65.0428 145.727 64.4799 147.229 63.9169C150.439 62.736 153.727 61.8709 157.067 61.2393C159.41 60.7999 161.753 60.3879 164.109 60.0721C166.827 59.7014 169.571 59.4542 172.303 59.3032C175.021 59.1384 177.752 59.1796 180.471 59.4542C184.147 59.8387 187.798 60.4017 191.422 61.1706C194.697 61.8709 197.894 62.8321 201.027 64.0954C203.279 65.0154 205.48 66.059 207.694 67.0476C211.305 68.6816 214.955 70.2333 218.438 72.1831C221.014 73.6249 223.577 75.1079 226.204 76.4261C228.547 77.5933 230.942 78.6231 233.389 79.5294C235.9 80.4769 238.424 81.3968 240.845 82.6189C241.854 83.127 242.152 84.1843 241.621 85.2142C240.599 87.2052 239.033 88.7431 237.609 90.3772C236.094 92.1073 234.502 93.7825 232.715 95.1968C230.903 96.6249 228.845 97.5449 226.593 97.8882C223.823 98.3001 221.052 98.6571 218.269 99.0141C216.328 99.2613 214.373 99.2064 212.418 99.2613C210.723 99.3025 209.04 99.3849 207.344 99.3437C204.03 99.2613 200.716 99.3437 197.415 98.8219C194.412 98.355 191.396 97.9843 188.445 97.2565C186.788 96.8446 185.105 96.5425 183.487 95.8697C182.723 95.5539 181.804 95.4577 180.989 95.1694C178.568 94.3318 176.07 93.8786 173.636 93.1509C171.72 92.5879 169.727 92.3682 167.85 91.6404C165.688 90.7891 163.474 90.1025 161.3 89.2924C159.669 88.6882 157.96 88.2076 156.29 87.6583C154.543 87.0816 152.899 86.2577 151.281 85.3515C149.598 84.4178 147.837 83.6763 146.077 82.921C144.795 82.3718 143.591 81.6303 142.284 81.1222C139.876 80.1885 137.456 79.3372 134.957 78.7192C134.155 78.527 133.352 78.376 132.537 78.2661C131.19 78.0876 129.935 78.5957 128.692 78.9664C125.741 79.8727 122.815 80.9163 119.942 82.0834C117.158 83.2094 114.388 84.3765 111.579 85.4064C110.285 85.8733 109.392 87.1091 108.486 88.1801C107.618 89.1963 106.699 90.2261 106.35 91.6267C106.233 92.1073 105.638 91.9975 105.379 92.4369C104.278 94.3043 103.075 96.1031 101.948 97.9431C100.628 100.113 99.2818 102.282 98.0391 104.493C96.6282 106.992 95.269 109.532 93.9745 112.086C92.3564 115.258 90.816 118.485 89.2626 121.698C87.8905 124.527 86.7643 127.479 85.6122 130.404C84.3178 133.699 83.2952 137.105 82.2725 140.496C81.1852 144.094 80.3308 147.788 79.3729 151.427C79.1399 152.292 78.894 153.143 78.6221 154.104C79.2435 153.912 79.6318 153.418 79.9813 153.047C82.3632 150.411 85.2628 148.543 88.1883 146.731C91.3209 144.781 94.6088 143.174 98.0262 141.842C99.8125 141.156 101.638 140.606 103.476 140.112C104.887 139.728 106.272 139.192 107.696 138.849C109.392 138.423 111.113 138.107 112.822 137.778C113.223 137.695 113.469 137.544 113.767 137.215C116.356 134.345 119.32 132.024 122.841 130.61C126.621 129.086 130.569 128.221 134.595 127.768C141.223 127.012 147.876 126.861 154.53 127.012C159.565 127.122 164.601 127.452 169.546 128.509C172.018 129.031 174.452 129.731 176.872 130.431C179.306 131.118 181.765 131.667 184.173 132.436C185.571 132.876 186.995 133.26 188.393 133.672C189.882 134.098 191.409 134.523 192.924 134.867C194.632 135.265 196.328 135.677 198.024 136.13C201.079 136.954 204.173 137.627 207.292 138.162C210.787 138.766 214.282 139.357 217.777 139.892C219.706 140.181 221.661 140.332 223.59 140.579C224.625 140.716 225.7 140.812 226.696 141.128C227.926 141.513 228.392 142.282 227.758 143.572C226.748 145.577 225.246 147.142 223.848 148.776C222.023 150.919 220.224 153.102 218.101 154.928C216.962 155.903 215.732 156.713 214.502 157.551C212.962 158.594 211.344 159.446 209.739 160.338C207.305 161.684 204.82 162.92 202.257 163.977C198.762 165.433 195.163 166.531 191.551 167.561C187.94 168.605 184.277 169.387 180.536 169.785C178.464 170.005 176.419 170.39 174.348 170.527C172.147 170.664 169.96 170.911 167.759 171.021C165.714 171.117 163.656 171.241 161.61 171.213C158.763 171.159 155.915 171.007 153.067 170.76C148.821 170.403 144.744 169.305 140.679 168.014C138.465 167.314 136.2 166.819 133.961 166.16C131.178 165.35 128.537 164.183 126.116 162.453C124.317 161.162 122.388 160.077 120.615 158.745C119.048 157.565 117.469 156.37 116.239 154.722C115.489 153.734 114.569 152.855 113.935 151.784C112.589 149.504 111.631 147.046 111.463 144.3C111.398 143.092 111.424 141.911 111.761 140.744C111.851 140.414 112.058 140.181 112.265 139.934C112.343 139.837 112.459 139.714 112.395 139.576C112.304 139.398 112.123 139.439 111.981 139.48C109.961 140.03 107.916 140.428 105.922 141.046C102.505 142.117 99.0488 143.064 95.7738 144.63C93.0295 145.934 90.3371 147.348 87.774 149.024C85.3663 150.603 83.1398 152.443 81.1075 154.53C80.4991 155.148 79.9166 155.821 79.2564 156.342C77.3276 157.867 77.25 160.201 76.8099 162.371C76.3698 164.581 75.9814 166.806 75.6707 169.044C75.373 171.227 75.153 173.424 75.0235 175.621C74.8293 178.972 74.6999 182.322 74.6352 185.673C74.5705 188.996 74.6352 192.319 74.6093 195.655C74.5834 198.484 74.6481 201.326 74.8941 204.141C75.1788 207.423 75.4895 210.677 75.9814 213.945C76.3697 216.458 76.6804 218.998 77.1205 221.511C77.5089 223.763 78.1561 225.947 78.6092 228.171C78.8681 229.421 78.9587 230.698 79.3729 231.92C80.1496 234.199 80.5639 236.588 81.3146 238.881C81.936 240.763 82.389 242.685 83.0363 244.553C83.7094 246.489 84.499 248.384 85.2627 250.278C86.0912 252.324 86.7384 254.453 87.6704 256.458C88.1623 257.515 88.6413 258.586 89.0555 259.712C90.4406 263.515 92.0846 267.223 94.0263 270.738C95.722 273.814 97.0165 277.109 98.8935 280.089C100.136 282.039 101.133 284.181 102.259 286.227C102.427 286.529 102.66 286.763 103.023 287.024L103.113 286.9ZM134.012 76.2888C134.245 76.3987 134.349 76.481 134.465 76.5085C137.935 77.0989 141.248 78.3348 144.472 79.7491C147.928 81.2733 151.319 82.976 154.737 84.5963C158.776 86.4912 163.086 87.6309 167.28 89.0864C169.908 89.9927 172.613 90.6655 175.345 91.256C178.257 91.8739 181.079 92.9175 183.94 93.7688C186.956 94.6751 189.998 95.4165 193.092 95.9933C196.781 96.6798 200.509 97.1192 204.263 97.2428C207.215 97.3389 210.153 97.3115 213.104 97.2703C214.774 97.2428 216.457 97.3252 218.101 97.133C220.444 96.8446 222.8 96.6386 225.143 96.3228C227.758 95.9795 230.23 95.2655 232.353 93.4942C233.816 92.2721 235.11 90.8715 236.444 89.5258C237.855 88.084 239.136 86.5324 240.34 84.8983C240.702 84.404 240.715 83.9646 240.055 83.69C239.524 83.4703 239.046 83.1682 238.515 82.9485C235.615 81.8088 232.651 80.7927 229.803 79.5157C226.683 78.1288 223.602 76.6595 220.612 74.9431C218.114 73.5151 215.59 72.1282 212.949 70.9748C211.176 70.1921 209.441 69.3133 207.668 68.5306C205.402 67.5145 203.124 66.5533 200.859 65.5509C198.529 64.5348 196.121 63.7521 193.674 63.1754C189.998 62.2966 186.283 61.61 182.529 61.1706C180.51 60.9372 178.477 60.69 176.458 60.69C173.144 60.6763 169.83 60.9234 166.529 61.2942C162.206 61.7748 157.921 62.53 153.675 63.5736C150.569 64.3288 147.527 65.3312 144.575 66.6082C143.268 67.1712 141.973 67.7891 140.757 68.5306C137.766 70.3843 134.957 72.5401 132.252 74.847C131.721 75.3001 131.035 75.561 130.673 76.2613C131.113 76.4124 131.398 76.1515 131.695 75.9592C133.818 74.6136 136.135 73.8446 138.543 73.3915C141.08 72.9246 143.643 72.8285 146.206 72.6912C151.384 72.4166 156.575 72.0458 161.74 72.8422C164.329 73.2405 166.944 73.4464 169.507 73.9682C171.526 74.3802 173.481 75.053 175.461 75.5885C178.193 76.33 180.963 76.9067 183.655 77.7855C187.306 78.9801 191.021 79.9276 194.684 81.0948C197.195 81.8912 199.784 82.3855 202.347 82.921C204.354 83.3467 206.308 84.047 208.341 84.4315C212.03 85.1318 215.732 85.5712 219.473 85.8321C222.049 86.0106 224.651 86.0243 227.24 85.9145C229.233 85.8458 231.214 85.4888 233.22 85.5025C234.761 85.5025 236.288 85.2828 237.699 84.5551C238.062 84.3766 238.45 84.3903 238.838 84.3903C239.058 84.3903 239.356 84.3354 239.408 84.6512C239.46 85.0082 239.175 85.118 238.916 85.1592C237.026 85.5025 235.227 86.1891 233.246 86.2578C229.246 86.3951 225.259 86.807 221.247 86.6285C217.984 86.4774 214.761 85.9694 211.525 85.5986C209.312 85.3377 207.137 84.8571 204.988 84.2392C203.033 83.6763 201.04 83.333 199.059 82.921C195.901 82.2894 192.937 80.9575 189.804 80.2434C187.577 79.7354 185.403 78.939 183.202 78.2936C180.406 77.4834 177.545 76.893 174.788 75.9592C170.245 74.4213 165.533 74.0094 160.873 73.3091C158.387 72.9384 155.876 72.9933 153.365 73.0894C148.795 73.2679 144.239 73.4739 139.708 74.2428C137.753 74.5724 135.864 75.1491 134.025 76.2751L134.012 76.2888ZM86.2206 276.794C85.9359 276.546 85.7029 276.341 85.4699 276.121C84.3307 275.022 83.2305 273.869 82.0395 272.839C80.2791 271.315 78.1173 270.477 76.0979 269.489C74.3245 268.623 72.577 267.662 70.713 266.989C69.4314 266.536 68.2534 265.822 66.9331 265.438C63.5675 264.449 60.2407 263.337 56.7974 262.637C54.3379 262.129 51.8655 261.909 49.3801 262.156C46.1957 262.472 43.1408 263.474 40.1247 264.504C37.6005 265.355 35.141 266.509 32.7074 267.649C29.4324 269.186 26.3774 271.136 23.3096 273.045C19.232 275.572 15.3486 278.414 11.4522 281.243C7.97011 283.769 4.65627 286.515 1.57544 289.564C0.785812 290.346 0.721092 290.937 1.49777 291.678C2.8958 293.024 4.50094 294.04 6.1967 294.878C8.64324 296.1 11.271 296.581 13.9247 296.896C17.0184 297.267 20.1122 297.391 23.2319 297.377C26.714 297.377 30.1443 296.883 33.5229 296.045C36.9662 295.194 40.3965 294.246 43.8398 293.409C46.3122 292.804 48.8106 292.296 51.2959 291.72C54.312 291.019 57.2505 290.058 60.2148 289.166C62.1177 288.589 64.0206 288.026 65.8975 287.353C69.0819 286.213 71.9556 284.401 74.907 282.726C77.3924 281.311 79.9037 279.924 82.5314 278.84C83.3987 278.483 84.279 278.167 85.1851 277.81C84.9133 277.549 84.6414 277.604 84.3954 277.59C82.1301 277.494 79.8907 277.837 77.6642 278.263C75.5413 278.661 73.4701 279.306 71.4119 279.979C68.4735 280.927 65.4315 281.229 62.4413 281.874C60.5773 282.272 58.7521 282.835 56.9398 283.453C54.4933 284.305 52.0597 285.129 49.5096 285.568C47.3219 285.952 45.0825 286.172 42.9337 286.735C39.9305 287.532 36.9921 288.603 34.0018 289.495C32.099 290.058 30.1702 290.566 28.2026 290.8C23.9956 291.308 19.7757 291.651 15.5816 292.255C11.0768 292.901 6.7274 292.118 2.28738 291.061C3.50418 290.8 4.61742 291.17 5.73067 291.39C8.59144 291.953 11.4651 292.186 14.3777 291.843C17.7433 291.445 21.1089 291.006 24.4875 290.662C27.9178 290.319 31.2964 289.77 34.5973 288.644C38.2995 287.38 42.0146 286.035 45.885 285.499C49.3413 285.019 52.694 284.222 55.9819 283.028C58.7003 282.039 61.4704 281.188 64.3183 280.721C66.247 280.405 68.1887 280.117 70.0528 279.526C72.4216 278.798 74.7517 277.961 77.1723 277.425C80.1367 276.752 83.1398 276.45 86.2466 276.78L86.2206 276.794ZM195.047 152.031C196.807 151.88 198.568 151.715 200.328 151.523C204.613 151.028 208.884 150.548 213.053 149.271C216.625 148.172 220.237 147.211 223.602 145.454C224.573 144.945 225.687 144.712 226.347 143.614C226.981 142.57 226.942 142.323 225.803 142.185C223.357 141.897 220.897 141.732 218.476 141.32C215.797 140.853 213.104 140.51 210.425 140.016C207.797 139.535 205.169 139.137 202.554 138.56C199.538 137.901 196.561 137.132 193.584 136.336C191.306 135.732 189.014 135.1 186.736 134.482C184.794 133.947 182.879 133.342 180.924 132.889C178.309 132.271 175.746 131.502 173.157 130.83C170.672 130.184 168.148 129.676 165.61 129.278C162.879 128.852 160.135 128.756 157.39 128.591C153.999 128.385 150.607 128.399 147.216 128.454C144.42 128.495 141.624 128.537 138.828 128.811C136.99 129.003 135.113 129.003 133.3 129.347C130.854 129.814 128.42 130.349 126.026 131.063C122.401 132.148 119.152 133.905 116.356 136.569C115.98 136.926 115.294 137.174 115.747 137.984C115.786 138.052 115.696 138.258 115.605 138.327C115.23 138.67 115.501 138.753 115.786 138.821C118.66 139.494 121.34 140.757 124.032 141.938C126.738 143.133 129.508 144.122 132.355 144.767C135.799 145.536 139.203 146.415 142.595 147.39C144.795 148.021 147.009 148.612 149.274 148.9C152.2 149.271 155.138 149.559 158.051 150.026C161.598 150.603 165.131 151.138 168.717 151.303C171.694 151.44 174.659 151.564 177.623 151.839C180.769 152.127 183.927 152.154 187.073 152.182C189.739 152.196 192.406 152.292 195.059 152.045L195.047 152.031ZM224.69 145.646C223.033 146.374 221.57 147.088 220.069 147.664C217.635 148.584 215.111 149.23 212.6 149.93C209.609 150.754 206.593 151.303 203.538 151.688C199.085 152.264 194.632 152.676 190.128 152.676C185.843 152.676 181.558 152.676 177.286 152.333C174.374 152.099 171.461 151.962 168.549 151.77C166.141 151.619 163.72 151.482 161.352 151.015C158.348 150.424 155.319 150.053 152.29 149.793C148.743 149.504 145.3 148.776 141.896 147.747C139.708 147.088 137.52 146.428 135.281 145.948C133.572 145.591 131.877 145.206 130.194 144.781C126.712 143.902 123.553 142.089 120.187 140.881C118.388 140.236 116.654 139.371 114.712 139.288C114.22 139.274 113.456 138.986 113.858 140.112C113.935 140.332 113.728 140.675 113.637 140.963C113.56 141.224 113.443 141.485 113.417 141.746C113.262 144.067 113.599 146.291 114.518 148.433C115.372 150.397 116.654 152.031 118 153.582C118.815 154.53 119.618 155.532 120.666 156.274C122.039 157.249 123.411 158.21 124.848 159.089C126.233 159.954 127.566 160.929 128.977 161.753C130.828 162.837 132.783 163.648 134.828 164.21C137.287 164.883 139.773 165.46 142.18 166.311C147.798 168.289 153.572 169.113 159.462 169.25C162.698 169.319 165.934 169.305 169.157 169.14C172.264 168.975 175.345 168.536 178.438 168.302C179.888 168.193 181.377 167.987 182.84 167.698C184.445 167.369 186.089 167.204 187.681 166.792C190.102 166.16 192.522 165.556 194.917 164.842C197.157 164.169 199.422 163.51 201.584 162.618C204.664 161.341 207.681 159.899 210.593 158.224C213.506 156.548 216.392 154.859 218.813 152.388C220.353 150.822 221.738 149.12 223.201 147.472C223.667 146.95 224.263 146.525 224.651 145.632L224.69 145.646ZM99.8255 262.843C100.279 261.305 100.667 259.794 101.159 258.311C102.065 255.524 103.23 252.901 105.016 250.581C106.583 248.562 108.382 246.859 110.362 245.335C114.751 241.957 119.398 239.142 124.615 237.412C128.614 236.094 132.64 234.941 136.731 234.021C139.566 233.375 142.465 233.101 145.313 232.496C147.786 231.975 150.245 231.412 152.743 231.082C154.646 230.835 156.562 230.601 158.439 230.244C161.468 229.668 164.484 228.954 167.552 228.638C169.895 228.391 172.225 228.089 174.555 227.704C176.717 227.347 178.879 227.059 181.053 226.88C184.069 226.647 187.086 226.4 190.024 225.576C191.668 225.123 193.286 224.601 194.736 223.626C195.94 222.816 195.914 222.253 194.71 221.388C194.684 221.374 194.671 221.36 194.645 221.347C192.898 220.262 190.995 219.603 189.04 219.108C187.539 218.738 186.024 218.463 184.51 218.202C181.403 217.667 178.283 217.158 175.164 216.664C172.355 216.225 169.546 215.648 166.724 215.291C164.51 215.016 162.322 214.453 160.109 214.261C157.274 214.014 154.439 213.698 151.578 213.63C148.485 213.561 145.404 213.506 142.323 213.698C137.676 213.987 133.08 214.673 128.627 216.17C124.615 217.516 120.641 218.985 116.925 221.154C113.495 223.145 110.686 225.933 108.071 228.954C106.634 230.615 105.249 232.332 103.942 234.117C103.075 235.298 102.22 236.506 101.495 237.783C99.7996 240.776 98.531 243.99 97.6637 247.367C97.0942 249.578 96.8224 251.83 97.1589 254.082C97.4566 256.101 98.0003 258.064 98.7123 259.973C99.0618 260.92 99.1653 261.978 99.8126 262.829L99.8255 262.843ZM169.623 35.8912C171.565 35.1497 173.364 34.5044 175.125 33.7766C177.701 32.7056 180.29 31.6482 182.904 30.7008C185.571 29.7259 188.238 28.7372 190.917 27.8172C193.157 27.0483 195.383 26.1969 197.687 25.579C199.784 25.016 201.92 24.7139 204.043 24.2883C205.933 23.9038 207.797 23.4095 209.661 22.9289C212.509 22.1874 215.421 21.899 218.321 21.5008C222.45 20.9378 226.593 20.5121 230.696 19.8256C233.531 19.345 236.366 18.782 239.188 18.219C241.777 17.6972 244.353 17.0656 246.968 16.6536C249.518 16.2692 252.081 15.9671 254.592 15.4178C257.984 14.6763 261.349 13.7563 264.702 12.8363C265.996 12.4793 267.368 12.1635 268.3 10.9551C268.417 10.8178 268.585 10.6393 268.572 10.4883C268.572 10.2411 268.313 10.3098 268.145 10.2823C265.323 9.77425 262.488 9.29365 259.757 8.35992C256.728 7.33007 253.686 6.39634 250.618 5.51754C249.401 5.17425 248.171 4.92708 246.981 4.46022C244.573 3.52649 242.23 2.38679 239.719 1.79635C238.152 1.4256 236.56 0.972458 234.968 0.917533C232.12 0.821414 229.259 0.917542 226.411 1.05485C223.253 1.19217 220.12 1.59038 217.001 2.0847C215.758 2.29067 214.489 2.31813 213.247 2.5653C210.852 3.0459 208.509 3.80111 206.192 4.59753C202.606 5.81962 199.008 7.00052 195.422 8.22261C192.949 9.06022 190.425 9.69185 187.966 10.5295C185.105 11.4907 182.723 13.1796 180.756 15.5002C179.112 17.4363 178.05 19.7981 176.976 22.1187C176.121 23.9724 175.254 25.8262 174.18 27.57C173.558 28.5724 172.963 29.6023 172.147 30.4399C171.487 31.099 171.63 32.0602 171.202 32.8017C170.659 33.7491 170.193 34.7378 169.61 35.8775L169.623 35.8912ZM169.533 36.9348C171.06 37.745 172.342 38.6375 173.791 39.0906C177.843 40.3402 181.908 41.576 185.998 42.7157C188.665 43.4572 191.383 43.9927 194.166 44.1438C197.545 44.336 200.898 44.185 204.263 44.0065C206.982 43.8554 209.674 43.3885 212.379 43.0178C215.007 42.6608 217.661 42.6059 220.263 42.0429C222.606 41.5348 224.923 40.8894 227.279 40.4912C230.968 39.8596 234.36 38.3491 237.751 36.7838C240.314 35.6029 242.838 34.3259 245.466 33.2823C248.055 32.2524 250.54 31.0853 252.65 28.9981C254.851 26.8148 256.896 24.5217 258.877 22.1187C261.207 19.2901 263.394 16.3515 265.815 13.3856C263.834 13.9348 261.996 14.4429 260.158 14.9647C257.802 15.6375 255.459 16.3515 253.052 16.7635C249.634 17.3402 246.191 17.7521 242.799 18.4524C240.392 18.9468 237.958 19.3862 235.55 19.8805C233.13 20.3748 230.696 20.773 228.25 21.0889C226.243 21.3498 224.224 21.5283 222.204 21.7754C219.784 22.0775 217.376 22.4483 214.955 22.7503C213.014 22.9838 211.098 23.3545 209.221 23.89C206.813 24.5766 204.38 25.1121 201.907 25.5103C199.409 25.9086 196.962 26.4715 194.568 27.2817C191.927 28.1742 189.325 29.1629 186.71 30.1103C184.535 30.893 182.335 31.6071 180.173 32.4447C177.96 33.3097 175.798 34.2847 173.597 35.1909C172.303 35.7265 170.995 36.1933 169.533 36.9348ZM100.395 264.586C100.628 264.586 100.641 264.422 100.68 264.298C101.327 262.472 102.44 260.989 103.735 259.657C105.845 257.487 108.188 255.675 110.725 254.068C112.874 252.709 114.997 251.391 117.366 250.539C119.76 249.688 122.181 248.988 124.653 248.507C127.864 247.903 131.113 247.615 134.323 247.079C138.245 246.42 142.219 246.063 146.155 245.555C148.821 245.212 151.527 244.992 154.154 244.443C158.361 243.578 162.517 242.479 166.685 241.408C169.727 240.625 172.795 239.939 175.798 239.019C179.228 237.961 182.658 236.945 186.037 235.696C187.422 235.188 188.898 234.899 190.192 234.213C191.901 233.307 193.325 231.947 194.244 230.107C195.228 228.116 196.095 226.098 196.056 223.777C196.056 223.612 196.121 223.434 195.953 223.338C195.759 223.228 195.707 223.447 195.59 223.544C193.946 224.821 192.16 225.699 190.166 226.276C186.827 227.224 183.409 227.443 180.005 227.828C178.905 227.951 177.804 228.075 176.717 228.212C173.727 228.61 170.749 229.064 167.759 229.421C165.559 229.668 163.397 230.08 161.235 230.519C159.345 230.904 157.455 231.288 155.552 231.604C153.598 231.933 151.617 232.098 149.675 232.469C146.854 233.018 144.045 233.65 141.197 234.034C139.462 234.268 137.728 234.542 136.032 234.995C132.381 235.957 128.718 236.932 125.145 238.167C122.53 239.074 119.954 240.104 117.56 241.518C114.608 243.262 111.773 245.239 109.133 247.491C106.919 249.372 105.003 251.555 103.657 254.247C102.622 256.32 101.832 258.49 101.224 260.742C100.887 262.005 100.395 263.227 100.369 264.586H100.395ZM94.4923 91.7777C94.6994 91.6542 94.6347 91.4619 94.6088 91.3246C94.4146 89.7318 94.091 88.1527 93.6638 86.6148C93.3014 85.2828 92.8742 83.9509 92.6153 82.5915C92.0975 79.8452 92.0458 77.0166 91.5409 74.2703C91.3726 73.364 91.2432 72.444 90.9325 71.579C90.0523 69.1211 88.7578 66.924 87.1656 64.8918C86.363 63.862 85.4699 62.9145 84.5508 62.0357C83.114 60.6351 81.6512 59.262 80.2273 57.8339C78.5056 56.1037 76.6546 54.5933 74.5964 53.3712C72.0851 51.8745 69.3408 50.9133 66.7389 49.6363C64.4866 48.5241 62.1047 47.7276 59.6582 47.1921C56.7197 46.5467 53.846 45.6679 51.0759 44.4459C49.7296 43.8554 48.3963 43.21 47.0113 42.702C45.3414 42.0841 43.6456 41.576 41.9628 41.013C39.6328 40.2303 37.2251 39.7772 34.8562 39.173C34.7008 39.1318 34.4679 38.9945 34.3772 39.2279C34.3255 39.3653 34.4161 39.5987 34.4937 39.7635C35.4646 41.5623 36.4872 43.3336 37.8464 44.8303C40.4483 47.6864 43.1019 50.4739 46.131 52.8357C49.0435 55.1151 51.9043 57.4631 54.8169 59.7426C57.0304 61.4727 59.4769 62.8184 61.6646 64.5897C62.506 65.2625 63.2957 66.004 64.1629 66.6357C66.8813 68.613 69.8327 70.2333 72.344 72.5676C73.6125 73.7348 75.2565 74.3527 76.5898 75.4787C78.5315 77.1127 80.7192 78.3897 82.7256 79.9413C85.0686 81.7676 87.4504 83.5115 89.5733 85.6261C90.6736 86.7246 91.7998 87.7819 92.6412 89.1276C93.2108 90.0476 93.858 90.9127 94.4794 91.7915L94.4923 91.7777ZM32.552 38.7199C33.0439 39.8871 33.3546 41.0542 33.717 42.2214C33.9242 42.9217 34.0148 43.6769 34.2737 44.3223C34.7526 45.4894 35.141 46.6978 35.5164 47.8924C35.9436 49.2656 36.539 50.5563 37.0309 51.8882C37.3545 52.767 37.6134 53.6733 37.95 54.5521C38.5843 56.2136 39.1409 57.9026 39.6975 59.5915C40.1894 61.1157 40.8366 62.5575 41.5098 63.9993C42.3123 65.7019 43.3091 67.2948 44.3705 68.8327C45.3414 70.2608 46.2346 71.7712 47.4125 73.0207C49.7167 75.4649 52.6551 77.0028 55.1534 79.1724C56.8233 80.6279 58.8556 81.493 60.7585 82.564C61.5222 82.9897 62.3118 83.3879 63.0497 83.8685C64.2924 84.6786 65.535 85.53 66.9201 86.0243C70.1563 87.1778 73.4184 88.2076 76.7581 88.9765C79.6318 89.6494 82.4926 90.4046 85.2886 91.3795C86.1689 91.6816 87.0491 91.97 87.9682 92.1073C90.1947 92.4231 92.4859 92.4918 94.5441 94.1121C94.4017 93.6864 94.3499 93.4804 94.2593 93.2882C93.5991 91.8052 92.7577 90.4595 91.7739 89.1963C90.4536 87.521 88.9261 86.0792 87.4116 84.61C86.0653 83.3192 84.4602 82.3718 83.0104 81.2183C81.0557 79.6667 78.9716 78.3485 76.9652 76.9067C75.0882 75.5748 73.1077 74.4351 71.3214 72.9384C70.4411 72.2106 69.5997 71.4005 68.6288 70.7825C66.8554 69.6566 65.0173 68.613 63.3603 67.281C62.273 66.416 61.2115 65.5097 60.1242 64.6584C58.2213 63.1754 56.0984 62.0631 54.2214 60.539C52.5774 59.1933 50.9982 57.7378 49.2895 56.502C45.6391 53.8518 42.2864 50.8446 39.1927 47.4805C36.9403 45.0363 34.8562 42.4823 33.6653 39.2417C33.4582 38.6787 33.1216 38.5963 32.565 38.7062L32.552 38.7199ZM23.6461 94.2906C23.7367 95.3753 23.7626 96.4601 23.9309 97.5174C24.2286 99.3712 24.7076 101.184 25.0312 103.024C25.6655 106.58 25.8208 110.205 26.248 113.789C26.7269 117.84 27.2318 121.863 28.7075 125.68C29.6006 128.001 30.5845 130.267 31.7236 132.436C32.6038 134.125 33.5617 135.773 34.7397 137.256C37.3157 140.483 40.5648 142.858 43.6845 145.426C46.9336 148.104 50.7005 149.724 54.4285 151.427C56.7068 152.456 58.8168 153.788 60.9656 155.038C62.7261 156.068 64.5383 156.933 66.4412 157.606C66.8554 157.757 67.0367 157.647 66.8296 157.153C66.4283 156.15 66.0399 155.148 65.6775 154.132C64.9914 152.251 64.0982 150.493 62.9979 148.845C61.6905 146.882 60.1371 145.138 58.8168 143.188C58.2861 142.391 57.7165 141.595 57.0304 140.963C55.3476 139.439 53.7036 137.929 52.4221 135.979C51.7878 135.004 51.1147 134.029 50.2733 133.219C47.3349 130.39 44.5259 127.411 41.8334 124.307C39.5292 121.643 37.1862 119.021 35.128 116.137C34.0924 114.682 33.0051 113.254 32.1119 111.702C30.9081 109.615 29.8466 107.459 28.6945 105.344C26.7528 101.788 25.0053 98.1628 23.6461 94.3043V94.2906ZM66.8296 153.857C66.7648 153.541 66.7001 153.225 66.6353 152.91C66.247 151.276 65.8457 149.642 65.4703 148.008C64.7584 144.918 63.8782 141.87 62.5837 139C61.7682 137.16 60.6808 135.471 59.9818 133.562C59.5158 132.313 58.8297 131.187 58.1178 130.102C57.1081 128.564 56.2019 126.971 55.4382 125.282C54.6486 123.538 53.7684 121.822 52.3703 120.545C50.3769 118.719 48.7976 116.522 47.1407 114.38C46.1957 113.144 45.186 111.99 43.9045 111.166C42.144 110.027 40.5648 108.667 39.1797 107.033C38.0147 105.66 36.8885 104.246 35.5552 103.037C32.8368 100.58 30.1055 98.1354 27.3612 95.7186C26.6363 95.0733 25.8597 94.4965 24.9665 94.0983C24.7594 94.0022 24.5134 93.8512 24.3192 94.0434C24.1251 94.2357 24.3451 94.4416 24.3969 94.6476C24.7852 96.0757 25.303 97.4625 25.9502 98.767C28.2026 103.257 30.4162 107.761 33.0051 112.045C34.5844 114.654 36.4613 117.03 38.3771 119.35C39.8399 121.108 41.3156 122.838 42.8431 124.513C44.3964 126.216 45.8074 128.042 47.5031 129.608C48.6164 130.651 49.7555 131.667 50.7781 132.821C52.9528 135.251 54.5709 138.231 57.2505 140.167C58.519 141.087 59.2051 142.597 60.176 143.806C62.1436 146.25 64.1888 148.598 65.6127 151.482C66.0011 152.278 66.3117 153.102 66.8166 153.857H66.8296ZM132.252 332.268C132.252 332.186 132.278 332.103 132.291 332.007C129.08 331.005 125.987 329.604 122.763 328.657C120.679 328.039 118.556 327.641 116.382 327.668C114.764 327.696 113.159 327.764 111.54 327.902C108.951 328.135 106.363 328.327 103.8 328.78C100.084 329.44 96.5246 330.717 92.9131 331.746C92.4471 331.884 91.5797 331.801 91.6056 332.254C91.6445 332.776 92.4212 333.051 92.9649 333.284C92.9907 333.284 93.0166 333.284 93.0425 333.312C94.9324 334.081 96.9 334.548 98.9064 334.891C102.829 335.55 106.751 336.223 110.673 336.923C113.003 337.335 115.372 337.321 117.728 337.472C121.132 337.706 124.433 337.321 127.644 336.072C129.676 335.289 131.475 334.067 133.391 333.051L133.352 332.79H115.825V332.515C121.301 332.433 126.789 332.351 132.265 332.268H132.252ZM35.9306 213.973C36.1377 214.797 36.6684 215.318 36.992 215.964C37.95 217.845 39.1797 219.507 40.5648 221.058C42.0534 222.72 43.5809 224.34 44.9919 226.056C46.1569 227.484 47.4384 228.638 49.2118 229.105C50.2345 229.379 51.27 229.572 52.3056 229.736C54.0273 230.011 55.6195 230.698 57.1599 231.508C59.5805 232.771 62.2083 233.307 64.7972 233.993C66.6224 234.474 68.4476 234.913 70.3505 234.776C71.9298 234.666 73.4831 234.762 74.9847 235.366C75.2047 235.449 75.4507 235.627 75.7484 235.421C75.5283 235.188 75.3342 234.913 75.0883 234.735C73.0559 233.334 71.399 231.357 69.1854 230.217C68.0593 229.64 67.1661 228.61 66.0011 228.102C62.985 226.784 60.1501 225.081 57.2505 223.53C55.1664 222.418 53.0305 221.429 50.8299 220.605C49.0177 219.932 47.2183 219.232 45.5744 218.147C44.5129 217.447 43.335 216.953 42.1182 216.568C40.6684 216.101 39.2574 215.552 37.8982 214.838C37.3027 214.522 36.7849 213.959 35.9565 213.987L35.9306 213.973ZM137.132 328.437C137.262 327.696 137.391 326.954 137.533 326.199C138.142 322.917 139.035 319.704 139.397 316.367C139.656 313.992 140.019 311.603 139.967 309.227C139.889 305.423 139.941 301.606 139.566 297.816C139.372 295.784 139.061 293.779 138.608 291.802C138.569 291.61 138.66 291.28 138.388 291.253C138.116 291.225 138.025 291.527 137.935 291.747C137.456 292.887 136.951 294.026 136.55 295.194C135.281 298.791 134.232 302.458 133.3 306.179C132.511 309.323 131.954 312.481 132.304 315.777C132.601 318.633 133.042 321.42 134.103 324.098C134.854 325.966 135.708 327.806 135.967 329.852C136.045 330.483 136.109 331.129 136.187 331.76C136.252 331.76 136.304 331.76 136.368 331.76C136.537 329.604 136.705 327.449 136.873 325.293C137.158 326.35 136.783 327.407 137.145 328.451L137.132 328.437ZM135.32 50.6524C135.423 50.57 135.54 50.5151 135.618 50.419C136.718 48.9223 137.883 47.4667 138.867 45.8876C140.524 43.2375 142.09 40.505 143.643 37.7862C144.795 35.7814 145.689 33.6393 146.232 31.3599C146.905 28.5038 147.358 25.6065 147.527 22.6542C147.76 18.782 148.277 14.9098 148.019 11.0101C147.993 10.5432 148.277 10.0489 147.876 9.52708C147.488 10.5981 147.203 11.6417 146.75 12.5892C145.067 16.0632 143.993 19.8256 142.116 23.2172C140.666 25.8399 140.135 28.8471 139.281 31.7032C138.543 34.1885 138.09 36.77 137.443 39.2829C136.964 41.1229 136.666 42.9903 136.252 44.8303C135.825 46.7253 135.941 48.7163 135.32 50.6661V50.6524ZM78.428 236.753C77.8196 235.256 77.2112 234.021 76.3568 232.963C74.0785 230.148 71.4637 227.69 68.7324 225.384C66.7001 223.667 64.4607 222.253 62.3248 220.715C60.5773 219.465 58.9074 218.092 57.0563 216.98C55.0758 215.785 53.0046 214.934 50.804 214.344C48.2669 213.671 45.7297 212.998 43.1279 212.627C40.9014 212.311 38.6878 212.188 36.3578 212.998C37.5357 213.63 38.5584 214.234 39.6328 214.728C41.458 215.593 43.4514 216.019 45.2378 217.021C46.2475 217.598 47.2701 218.188 48.3316 218.669C50.2215 219.52 52.1762 220.207 54.0402 221.127C56.9139 222.555 59.7876 224.01 62.5449 225.713C64.629 227.018 66.8943 227.938 68.9525 229.379C71.3861 231.082 73.6902 232.922 75.9296 234.872C76.6804 235.517 77.4442 236.135 78.4538 236.739L78.428 236.753ZM74.1562 163.442C73.7679 164.032 73.4054 164.458 73.1724 164.938C72.0333 167.341 71.0366 169.827 70.1304 172.353C69.3408 174.578 68.8878 176.898 68.3311 179.191C67.6968 181.828 67.4379 184.464 67.7098 187.183C67.9039 189.174 68.4865 191.069 68.7583 193.033C69.0301 195.01 69.7162 196.85 70.4023 198.704C70.9459 200.173 71.5026 201.628 71.9038 203.153C72.2145 204.361 72.6029 205.542 72.9653 206.723C73.0171 204.732 72.9653 202.782 72.9006 200.818C72.81 197.605 72.6028 194.406 72.4216 191.193C72.2663 188.501 72.2533 185.796 72.3828 183.105C72.5122 180.578 72.8359 178.079 72.9783 175.553C73.1207 172.889 73.5219 170.252 73.8455 167.602C74.0009 166.27 74.2339 164.952 74.1562 163.428V163.442ZM147.721 6.53365C147.488 6.53365 147.475 6.69842 147.397 6.80827C146.154 8.89544 144.977 11.0375 143.63 13.0423C141.922 15.5826 140.07 18.0268 138.491 20.6769C136.537 23.945 135.242 27.5151 134.284 31.2363C133.624 33.7766 133.754 36.3718 133.766 38.9259C133.766 41.8644 134.297 44.7754 134.66 47.6864C134.686 47.9336 134.711 48.1808 134.97 48.2769C135.152 48.1808 135.113 48.0023 135.139 47.8512C135.359 46.6017 135.54 45.3247 135.812 44.0888C136.433 41.3426 136.925 38.5826 137.702 35.8775C138.375 33.5157 138.867 31.099 139.579 28.7372C140.161 26.8011 140.537 24.7963 141.585 23.025C142.155 22.0638 142.595 21.0065 143.035 19.9629C144.446 16.6399 145.844 13.3169 147.216 9.98022C147.656 8.89544 148.096 7.76948 147.734 6.50619L147.721 6.53365ZM122.103 79.6392C120.498 79.9001 119.035 80.5867 117.65 81.4655C119.126 80.8339 120.615 80.2572 122.103 79.6392Z" fill="var(--fill-0, #E7DFD2)"/>
</svg>
