<svg preserveAspectRatio="none" width="100%" height="100%" overflow="visible" style="display: block;" viewBox="0 0 197.826 426.524" fill="none" xmlns="http://www.w3.org/2000/svg">
<path id="Vector" d="M106.772 326.889C107.449 329.481 106.03 331.427 104.998 333.523C104.213 335.104 103.181 336.491 102.235 337.964C100.848 340.114 99.5681 342.329 98.2026 344.501C97.0629 346.318 95.7405 347.995 94.0954 349.382C91.3107 351.715 88.9238 354.489 86.0639 356.747C83.0856 359.091 79.7956 360.962 76.5701 362.919C74.8068 363.994 73.0435 365.069 71.1942 365.972C69.0116 367.037 66.6999 367.778 64.3346 368.348C62.1197 368.886 59.8941 369.38 57.69 369.961C55.217 370.617 52.6904 370.681 50.1745 370.456C47.6478 370.219 45.1211 370.251 42.6052 370.112C40.0248 369.961 37.6702 369.133 35.3048 368.209C33.1437 367.37 30.9718 366.574 28.8322 365.682C25.9292 364.467 23.2413 362.908 21.2952 360.327C20.9082 359.822 20.3383 359.51 19.9727 358.94C18.9836 357.371 19.1879 355.715 19.8437 354.22C20.8221 351.973 21.5533 349.608 22.7144 347.447C25.0046 343.221 28.2409 339.792 31.8105 336.609C35.6381 333.19 40.0463 330.932 44.8738 329.33C51.1099 327.266 57.4104 325.513 63.969 324.922C67.13 324.642 70.3125 324.664 73.4736 324.384C79.1935 323.868 84.9134 323.546 90.6549 323.599C94.2137 323.632 97.7725 323.309 101.321 323.632C102.976 323.782 104.611 324.18 106.363 323.943C105.933 321.858 105.471 319.783 105.105 317.686C104.826 316.105 104.632 314.514 104.46 312.923C104.396 312.321 104.267 312.041 103.589 312.02C98.5144 311.826 93.4826 312.009 88.4723 312.944C85.0317 313.579 81.5589 314.084 78.0538 313.686C75.3659 313.385 72.6994 312.987 70.033 312.504C67.5493 312.052 65.0872 311.525 62.7325 310.654C60.0123 309.644 57.2491 308.601 54.83 306.999C52.2603 305.3 50.368 302.945 49.1423 300.01C47.9166 297.075 47.6478 294.107 48.0994 291.022C48.4649 288.57 49.5724 286.431 50.8841 284.366C52.9807 281.098 55.1095 277.84 57.69 274.937C60.6682 271.582 63.84 268.4 67.1623 265.379C69.4846 263.271 71.9575 261.379 74.6777 259.368C73.3553 259.368 72.2801 259.315 71.2049 259.39C70.4523 259.444 69.7104 259.454 68.9686 259.304C66.872 258.884 64.7109 259.057 62.6143 258.712C58.9587 258.121 55.2278 258.186 51.6044 257.444C49.7982 257.078 48.0564 256.422 46.2608 255.971C44.261 255.465 42.2074 255.229 40.2721 254.466C37.8314 253.509 35.7133 251.96 33.391 250.81C28.972 248.617 25.4024 245.305 21.7038 242.122C19.5104 240.241 17.1988 238.521 15.3602 236.263C13.1131 233.51 11.2208 230.5 9.12422 227.64C7.94152 226.027 6.83409 224.371 5.89869 222.63C4.56547 220.146 3.5763 217.501 2.59788 214.867C1.72699 212.523 0.877611 210.179 0.490547 207.706C-0.165311 203.524 -0.229824 199.352 0.705579 195.18C1.78076 190.374 3.03872 185.633 5.14607 181.16C5.76967 179.827 6.59755 178.623 7.66198 177.601C9.51128 175.816 11.7476 176.193 13.9087 176.719C15.7366 177.16 17.5429 177.773 19.2954 178.461C20.7469 179.031 22.2736 179.171 23.7466 179.59C26.5743 180.375 29.23 181.622 32.0577 182.375C34.3909 183.009 36.7993 183.45 39.0249 184.396C41.5838 185.482 44.218 186.342 46.7984 187.331C50.239 188.654 53.2602 190.761 56.5288 192.396C58.8404 193.546 60.7112 195.428 62.7863 196.965C65.9473 199.298 68.517 202.319 71.7963 204.491C73.9036 205.889 76.0755 207.19 77.828 209.039C80.1181 211.458 82.9136 213.372 84.9887 216.006C86.6552 218.114 88.8056 219.845 90.0743 222.264C91.5795 225.156 92.6547 228.167 92.9343 231.478C93.2031 234.693 93.8589 237.865 95.2244 240.854C95.0631 239.263 94.9556 237.66 94.7298 236.08C94.2675 232.801 93.9449 229.5 93.7406 226.188C93.4718 221.995 93.0955 217.813 92.8052 213.62C92.6869 211.845 92.6762 210.061 92.6439 208.287C92.5794 204.588 92.2784 200.889 92.0096 197.202C91.73 193.374 91.4828 189.536 91.3752 185.686C91.257 181.429 91.0204 177.171 90.7086 172.924C90.4828 169.828 90.5581 166.731 90.5581 163.635C90.5581 159.818 90.5796 156.001 90.5474 152.184C90.5044 146.582 90.6656 140.981 90.7517 135.379C90.8054 132.315 90.7301 129.261 90.8162 126.197C90.8699 124.326 91.0957 122.455 91.1387 120.563C90.2248 122.348 89.6227 124.251 88.5368 125.907C86.2036 129.465 84.3543 133.336 81.2148 136.379C77.1399 140.325 72.85 143.83 67.2698 145.367C64.8936 146.023 62.453 146.292 59.9908 146.442C57.776 146.582 55.5826 146.754 53.4108 146.184C50.0347 145.292 46.5511 144.948 43.1536 144.206C41.3365 143.808 39.7775 142.787 38.24 141.701C35.6166 139.841 32.9394 138.056 30.875 135.562C28.5419 132.734 25.3164 130.895 22.822 128.261C22.7037 128.132 22.5424 128.046 22.4134 127.928C20.5641 126.24 20.5211 125.175 22.4027 123.541C23.6176 122.488 24.4025 121.144 25.3594 119.907C28.5849 115.778 32.6276 112.66 37.1111 110.005C42.2182 106.983 47.8091 105.166 53.3677 103.263C56.9266 102.048 60.6037 101.586 64.3668 101.468C66.4527 101.403 68.5385 101.027 70.6136 100.694C76.3013 99.769 81.8384 100.307 87.1605 102.522C88.8378 103.22 90.2678 104.382 91.4612 105.79C91.6333 105.994 91.7623 106.349 92.1064 106.263C92.4182 106.177 92.4182 105.833 92.4719 105.553C93.0633 102.683 93.2138 99.7583 93.5793 96.8553C93.9879 93.576 94.3535 90.286 94.9018 87.0174C95.3104 84.5768 95.4502 82.0824 95.6437 79.5987C95.6867 79.0396 95.719 78.545 96.2135 78.1902C96.4178 78.0397 96.6329 77.8247 96.4823 77.5666C96.3318 77.2979 96.0307 77.4806 95.7942 77.5021C93.7084 77.6311 91.8268 78.5773 89.8162 79.0289C84.5694 80.2223 79.2795 81.0825 73.8714 81.2975C70.7426 81.4158 67.6031 81.7061 64.4958 81.2975C60.7435 80.8029 56.9696 80.8889 53.2172 80.5126C51.0131 80.2868 48.8412 79.8138 46.7554 79.0934C44.8201 78.4268 42.8203 78.0935 40.8527 77.6204C38.326 77.0183 36.1004 75.8034 33.8318 74.6314C32.348 73.868 30.8213 73.1799 29.3698 72.3628C27.1012 71.0941 25.1551 69.3953 23.3918 67.4815C22.3596 66.3633 21.22 65.3419 20.1233 64.2667C19.0588 63.2238 18.3815 61.9443 17.9299 60.5573C17.2526 58.493 18.3385 56.9663 20.0695 55.8158C23.9616 53.2246 28.4559 52.4075 32.9609 52.1172C38.9711 51.7409 45.0136 51.8484 51.0239 52.4828C53.7118 52.7623 56.3675 53.3752 59.0554 53.7407C61.7111 54.1063 64.2808 54.8266 66.915 55.2997C71.9683 56.1921 76.9571 57.2458 81.6126 59.6112C84.6876 61.1702 87.6444 62.8797 90.0205 65.3634C92.6332 68.0943 95.3319 70.8145 96.6974 74.4809C96.7296 74.5669 96.8264 74.6314 96.9017 74.7067C97.3747 74.4271 97.1059 73.9863 97.192 73.6315C98.1596 69.7394 98.2456 65.7504 98.6649 61.7938C98.9015 59.6004 99.4713 57.4501 100.095 55.332C100.471 54.0848 100.557 52.8053 100.772 51.5474C101.202 49.0314 102.052 46.6661 103.159 44.3759C104.621 41.3332 105.933 38.2152 107.299 35.1294C108.761 31.7964 110.427 28.5601 112.309 25.4528C114.008 22.6466 116.233 20.2597 118.652 18.0233C122.147 14.7978 125.888 11.9271 130.06 9.63696C134.253 7.33608 138.694 5.74482 143.36 4.75566C145.414 4.31484 147.467 3.84176 149.51 3.37943C153.037 2.5838 156.617 2.14298 160.208 1.74516C162.509 1.48712 164.799 1.07855 167.078 0.691489C170.433 0.121645 173.82 0.186156 177.207 0.0786381C179.916 -0.00737603 182.636 -0.200908 185.238 0.702241C187.292 1.41186 189.302 2.22899 191.388 2.83109C192.614 3.1859 193.883 3.42244 195.119 3.74499C196.786 4.17506 197.076 5.00295 196.044 6.33617C193.947 9.03486 192.689 12.1206 191.904 15.3999C191.098 18.7545 190.571 22.1735 189.765 25.5173C189.077 28.388 188.077 31.1728 186.84 33.8714C185.367 37.1077 183.593 40.1935 181.701 43.1932C180.798 44.634 179.669 45.9349 178.422 47.1284C176.228 49.2142 174.089 51.3431 171.895 53.4397C169.465 55.7621 166.455 57.2028 163.616 58.9123C160.842 60.5788 158.058 62.2454 155.176 63.7399C153.52 64.6 151.725 65.2666 150.058 66.073C147.102 67.503 143.994 68.5244 141.038 69.9114C138.07 71.2876 134.963 72.1693 131.759 72.7176C129.178 73.1584 126.738 74.0723 124.2 74.6529C120.663 75.4593 117.147 76.4915 113.535 76.8463C109.718 77.2118 105.901 77.6957 102.041 77.4269C100.934 77.3516 99.7509 77.6096 98.6757 77.9322C97.8156 78.1902 97.7833 79.1471 97.7188 79.9105C97.5467 82.0716 97.5037 84.2435 97.2887 86.3938C96.8801 90.458 96.3103 94.5007 95.977 98.5648C95.805 100.586 95.5684 102.608 95.4072 104.64C95.3641 105.123 95.4717 105.242 95.9447 105.295C97.0092 105.424 97.7403 105.07 98.5789 104.36C102.568 100.984 106.965 98.2746 111.857 96.3392C115.922 94.7265 120.136 93.9201 124.448 93.619C126.179 93.5008 127.92 93.8771 129.641 94.1136C133.071 94.5759 136.533 94.5437 139.984 94.7157C142.36 94.834 144.736 94.9415 147.112 95.1458C150.843 95.4576 154.585 95.5436 158.326 95.5651C161.746 95.5759 165.175 95.7694 168.594 95.7049C172.734 95.6296 176.82 94.9308 180.905 94.3071C183.937 93.8448 186.98 93.4363 190.012 92.9632C192.119 92.6299 194.205 92.1783 196.345 92.06C196.882 92.0278 197.388 91.9525 197.678 92.6406C197.947 93.2642 197.839 93.6835 197.431 94.1889C195.732 96.307 194.463 98.7261 193.377 101.178C191.894 104.521 189.861 107.446 187.528 110.209C184.991 113.209 182.292 116.047 178.916 118.122C176.712 119.488 174.626 121.036 172.229 122.1C169.003 123.53 165.605 124.283 162.165 124.842C156.112 125.821 149.994 125.96 143.898 125.638C138.576 125.358 133.189 125.229 128.007 123.767C123.319 122.445 118.523 121.445 114.029 119.445C111.277 118.219 108.61 116.875 106.03 115.262C102.987 113.37 100.009 111.295 96.6221 109.994C96.5899 109.983 96.5576 109.962 96.5253 109.94C94.8158 109.284 94.8588 109.284 94.7728 111.134C94.6975 112.843 94.4825 114.542 94.3965 116.252C94.1384 121.434 93.6116 126.605 93.7191 131.82C93.8051 135.82 93.4826 139.83 93.5041 143.841C93.5041 147.012 93.4718 150.173 93.4503 153.345C93.4396 156.216 93.3966 159.108 93.4073 161.979C93.4288 166.667 93.3751 171.387 93.8912 176.074C94.0847 177.795 94.2245 179.547 94.0094 181.3C93.9557 181.741 93.9449 182.235 94.332 182.665C94.8803 182.042 94.9878 181.246 95.2029 180.526C96.8049 175.182 99.5358 170.43 103.062 166.183C105.202 163.613 107.815 161.43 110.804 159.85C112.653 158.872 114.739 158.506 116.749 157.936C122.416 156.345 128.2 156.646 133.974 156.667C134.952 156.667 135.769 157.087 136.586 157.517C137.092 157.786 137.124 158.312 137.124 158.829C137.135 160.162 136.307 161.162 135.823 162.291C134.597 165.129 133.35 167.957 132.135 170.806C130.705 174.161 128.447 176.87 125.813 179.332C122.039 182.859 117.814 185.751 113.169 187.955C110.438 189.245 107.385 189.385 104.396 189.6C101.353 189.815 98.2779 189.267 95.2566 189.976C94.547 190.148 94.461 190.396 94.5255 191.073C94.7298 193.127 94.9448 195.169 94.9556 197.245C94.9556 198.814 95.3211 200.395 95.3749 202.04C96.278 201.104 97.0737 200.137 97.9338 199.223C101.116 195.836 105.051 193.578 109.169 191.578C113.029 189.708 117.018 188.267 121.222 187.385C126.458 186.278 131.727 185.944 137.059 186.17C140.231 186.299 143.349 186.869 146.51 187.095C152.026 187.493 157.542 187.45 163.068 187.213C165.82 187.095 168.541 187.46 171.164 188.342C172.54 188.815 174.153 191.535 173.454 193.406C172.132 196.944 171.186 200.599 170.261 204.255C169.551 207.061 167.949 209.416 165.863 211.329C161.703 215.146 156.95 218.082 151.531 219.77C147.575 221.006 143.511 221.651 139.35 221.759C135.963 221.855 132.576 222.21 129.211 221.726C126.114 221.275 123.071 220.533 119.986 220.028C116.169 219.404 112.728 217.791 109.309 216.114C107.858 215.404 106.847 214.082 105.525 213.179C103.783 211.985 102.342 210.491 100.891 208.964C99.6864 207.706 98.0306 206.867 96.3318 206.244C95.7512 206.029 95.5469 206.222 95.5792 206.835C95.848 211.856 95.9233 216.888 96.4286 221.888C96.8802 226.339 96.9662 230.844 97.8155 235.263C98.0843 236.682 98.0413 238.177 98.1704 239.628C98.3962 242.284 98.7832 244.929 99.3746 247.531C99.4821 248.004 99.7509 248.154 100.192 248.208C102.665 248.531 104.987 249.52 107.417 249.982C110.954 250.649 114.406 251.735 117.975 252.24C119.33 252.433 120.62 252.82 121.889 253.294C124.179 254.143 126.62 254.293 128.942 254.971C130.404 255.401 131.673 256.186 133.038 256.799C135.414 257.863 137.952 258.508 140.339 259.54C144.446 261.304 148.231 263.615 152.047 265.916C154.348 267.303 156.563 268.722 158.595 270.486C161.767 273.238 163.853 276.614 165.046 280.582C165.799 283.087 164.971 285.345 163.638 287.452C162.466 289.312 160.778 290.645 158.993 291.817C156.165 293.666 153.402 295.634 150.381 297.182C146.93 298.946 143.478 300.73 139.93 302.311C136.447 303.859 132.866 305.128 129.383 306.665C127.318 307.579 125.071 308.095 122.953 308.891C120.749 309.708 118.545 310.493 116.287 311.16C113.771 311.901 111.169 312.063 108.557 312.073C107.116 312.073 107.127 312.052 107.331 313.503C107.911 317.568 108.965 321.514 110.083 325.459C111.245 329.556 112.438 333.652 113.341 337.824C114.363 342.501 115.567 347.146 116.803 351.78C118.437 357.898 119.674 364.123 121.684 370.133C122.534 372.66 123.319 375.219 124.426 377.67C125.147 379.251 125.598 380.949 126.179 382.594C126.878 384.594 127.652 386.583 128.286 388.615C129.243 391.68 130.587 394.583 131.694 397.582C132.684 400.249 133.931 402.818 135.049 405.431C136.285 408.345 137.522 411.259 138.737 414.183C139.554 416.151 140.812 417.903 141.532 419.924C141.93 421.032 142.339 422.139 142.564 423.29C142.855 424.763 141.855 426.204 140.393 426.494C139.5 426.677 138.414 426.01 137.973 424.774C137.038 422.193 135.834 419.709 134.909 417.129C134.35 415.581 134.038 413.893 133.436 412.388C132.221 409.323 131.458 406.108 129.888 403.162C128.093 399.776 126.222 396.389 124.932 392.755C123.996 390.11 123.179 387.411 122.222 384.788C121.158 381.863 120.373 378.885 119.534 375.907C117.964 370.316 116.502 364.703 115.083 359.069C113.846 354.167 112.567 349.264 111.083 344.436C109.944 340.705 109.718 336.803 108.621 333.072C108.03 331.083 107.621 329.029 107.137 327.008L106.793 326.965L106.772 326.889ZM87.9669 251.197C88.311 251.1 88.6658 251.057 88.9776 250.907C91.1924 249.875 93.2568 248.466 95.7512 248.1C95.9663 248.068 96.2135 247.971 96.0523 247.681C95.8157 247.262 96.0093 246.703 95.6114 246.337C95.2996 246.617 95.5039 247.154 95.0416 247.326C94.9878 247.262 94.9126 247.219 94.9126 247.165C94.8051 244.434 94.1599 241.821 93.246 239.252C92.4612 237.08 91.7731 234.887 91.5795 232.543C91.3537 229.833 90.5366 227.231 89.3754 224.791C87.9884 221.866 85.7306 219.544 83.5695 217.2C81.7954 215.275 79.8063 213.534 77.828 211.813C76.6561 210.792 75.6131 209.609 74.3229 208.706C71.6027 206.781 68.8503 204.911 66.3451 202.663C63.5174 200.126 60.4854 197.804 57.4857 195.471C55.6256 194.03 53.3462 193.245 51.4109 191.901C48.8735 190.138 45.9705 189.267 43.1428 188.17C41.3258 187.471 39.5302 186.643 37.6917 186.074C33.8318 184.869 29.8644 183.988 26.0583 182.536C23.5423 181.579 20.8329 181.128 18.231 180.375C16.0914 179.751 14.1023 178.709 11.8229 178.472C10.4037 178.321 9.35001 178.73 8.54363 179.784C7.00613 181.784 6.0277 184.095 5.25357 186.461C4.13539 189.912 3.13548 193.406 2.49038 196.987C1.89903 200.277 1.81302 203.534 2.49038 206.846C2.92045 208.91 3.46879 210.932 4.07089 212.942C4.83426 215.501 5.81267 218.006 6.98461 220.393C8.71564 223.941 11.0703 227.124 13.3174 230.349C15.4032 233.349 17.6611 236.209 20.5534 238.531C23.4348 240.854 26.0367 243.52 28.9827 245.735C32.262 248.197 35.9284 250.1 39.627 251.842C43.7127 253.756 48.2822 254.078 52.5614 255.401C54.787 256.089 57.1846 255.691 59.4532 256.1C62.4745 256.637 65.5387 256.637 68.5815 256.938C70.5706 257.132 72.5597 256.874 74.5487 256.895C75.1293 256.895 75.7744 256.917 76.0647 257.497C76.5163 258.433 77.0109 258.003 77.5592 257.67C80.4514 255.938 83.2362 254.025 86.2359 252.476C86.8487 252.165 87.5476 251.842 87.9562 251.208L87.9669 251.197ZM108.847 309.859C111.395 309.783 113.717 309.73 115.803 308.988C120.835 307.203 125.953 305.633 130.845 303.451C133.769 302.15 136.823 301.139 139.747 299.838C142.511 298.612 145.199 297.215 147.876 295.828C151.961 293.699 155.8 291.172 159.412 288.334C161.283 286.861 162.842 285.022 162.961 282.485C163.057 280.442 162.122 278.593 161.197 276.851C159.778 274.195 157.391 272.367 155.198 270.41C153.649 269.023 151.596 268.411 149.897 267.249C146.747 265.088 143.414 263.26 139.909 261.787C136.823 260.497 133.565 259.659 130.576 258.121C127.136 256.347 123.243 256.1 119.609 255.003C115.771 253.853 111.771 253.24 107.89 252.197C105.449 251.541 102.976 251.003 100.525 250.401C99.9122 250.251 99.224 250.487 98.6649 250.09C97.665 249.369 96.6221 249.584 95.5899 249.928C94.8803 250.165 94.2137 250.52 93.5041 250.745C92.687 251.014 92.3321 251.541 92.2031 252.38C91.7085 255.648 91.214 258.927 90.6334 262.185C89.8915 266.357 89.827 270.539 89.8485 274.733C89.8592 278.259 91.0419 281.614 92.3537 284.85C93.8159 288.463 95.5577 291.957 97.3747 295.419C99.1488 298.806 101.45 301.838 103.482 305.042C104.277 306.289 105.492 307.31 106.084 308.622C106.653 309.902 107.46 309.945 108.524 309.869C108.739 309.859 108.954 309.869 108.868 309.869L108.847 309.859ZM101.17 325.008C99.4928 325.008 97.8263 324.976 96.149 325.008C92.2999 325.105 88.4615 325.212 84.6124 325.373C82.3008 325.47 79.9999 325.642 77.699 325.836C75.5379 326.019 73.3768 326.373 71.2157 326.47C66.1193 326.707 61.0445 326.986 56.0772 328.287C52.5291 329.212 48.9488 330.061 45.4975 331.276C40.2398 333.125 35.5091 335.824 31.4341 339.749C26.7464 344.254 23.5961 349.597 21.5425 355.683C21.2307 356.597 21.349 357.553 21.9833 358.328C23.9617 360.725 26.2948 362.693 29.2085 363.854C31.0578 364.596 32.9716 365.176 34.7994 365.94C37.8745 367.23 41.0032 368.144 44.3793 368.251C46.6909 368.327 49.0133 368.208 51.3249 368.553C52.5399 368.735 53.8408 368.649 55.0558 368.445C59.0984 367.778 63.0121 366.563 66.9257 365.413C70.2158 364.456 73.0327 362.532 75.9357 360.79C80.7632 357.876 85.4295 354.747 89.4077 350.694C91.2462 348.823 93.3858 347.253 95.0416 345.178C96.9984 342.716 98.3962 339.878 100.224 337.329C101.622 335.394 102.933 333.405 104.009 331.255C104.707 329.868 105.589 328.588 105.793 326.997C105.955 325.782 105.75 325.524 104.514 325.47C104.224 325.459 103.966 325.556 103.697 325.653C99.8906 327.04 96.063 328.384 92.1494 329.448C89.8055 330.093 87.5154 330.835 85.2467 331.685C81.9674 332.9 78.9569 334.706 75.8282 336.233C72.8499 337.695 69.6459 338.652 66.7107 340.168C61.6143 342.781 56.6255 345.619 51.5614 348.296C49.0455 349.629 46.6049 351.059 44.1535 352.489C40.2291 354.78 36.3692 357.177 32.6813 359.833C31.8965 360.403 31.1331 360.973 30.1117 361.048C29.7246 361.069 29.23 361.295 29.0795 360.822C28.886 360.22 29.5526 360.145 29.8859 360.048C31.1223 359.704 32.1223 359.016 33.1544 358.285C37.6594 355.102 42.4654 352.371 47.2392 349.629C51.5829 347.135 55.9697 344.705 60.3994 342.35C63.1841 340.867 66.0548 339.534 68.9148 338.19C70.5921 337.405 72.3339 336.77 74.0004 335.975C76.7206 334.684 79.4193 333.34 82.0965 331.964C86.6875 329.599 91.6978 328.427 96.5468 326.793C98.1058 326.266 99.7293 325.922 101.17 324.965V325.008ZM193.463 5.69106C192.324 5.33625 191.248 4.97069 190.152 4.6804C186.84 3.788 183.744 2.06772 180.153 2.23974C179.551 2.272 178.959 2.43328 178.357 2.35801C175.906 2.04621 173.444 2.37952 171.014 2.5623C167.433 2.83109 163.896 3.5192 160.326 3.89552C157.456 4.19657 154.617 4.6804 151.789 5.17498C148.714 5.71257 145.704 6.60496 142.661 7.32533C139.64 8.0457 136.662 8.97035 133.898 10.3573C130.404 12.1206 127.071 14.185 124.071 16.7331C121.545 18.8835 119.007 21.0016 116.868 23.5605C114.911 25.9151 113.653 28.6783 112.201 31.3233C110.481 34.452 109.202 37.7851 107.707 41.0214C106.654 43.3115 105.417 45.5264 104.578 47.8918C103.116 52.0312 102.611 56.4287 101.471 60.6541C100.751 63.3528 100.923 66.1805 100.288 68.9007C100.063 69.8791 99.5788 70.879 99.7939 71.922C100.192 71.5779 100.568 71.2661 100.923 70.9328C103.374 68.5889 106.116 66.5783 108.621 64.299C112.115 61.1057 115.825 58.1597 119.609 55.332C122.598 53.1064 125.663 50.9775 128.716 48.8272C131.587 46.7951 134.243 44.4942 137.027 42.3546C141.726 38.7635 146.532 35.3014 151.187 31.6566C155.456 28.3128 159.735 25.012 164.434 22.2918C167.788 20.3457 171.11 18.3244 174.465 16.3676C178.185 14.1957 181.927 12.0669 185.647 9.90576C188.184 8.42201 190.754 6.98127 193.474 5.68031L193.463 5.69106ZM99.0843 75.083C99.3101 75.1582 99.396 75.2228 99.4928 75.212C103.191 75.0292 106.89 74.997 110.589 74.7497C114.545 74.4809 118.33 73.5455 122.158 72.7176C125.362 72.0295 128.48 70.9866 131.684 70.3092C134.984 69.6103 138.156 68.6319 141.231 67.2664C144.65 65.7612 148.241 64.6538 151.585 62.9657C153.671 61.9121 155.778 60.9229 157.8 59.7402C159.574 58.6973 161.305 57.5791 163.068 56.5147C165.208 55.2245 167.465 54.1493 169.412 52.5473C171.39 50.913 173.175 49.0745 175.056 47.3327C177.798 44.7845 180.056 41.8708 181.873 38.6237C183.228 36.2046 184.55 33.7639 185.561 31.162C186.915 27.6999 187.991 24.1626 188.614 20.4962C189.335 16.2708 190.205 12.0884 192.259 8.26073C192.453 7.88442 192.807 7.56187 192.829 6.98127C190.313 8.47577 187.915 9.93801 185.485 11.3465C182.475 13.099 179.475 14.8623 176.497 16.6471C173.411 18.4857 170.347 20.378 167.25 22.195C164.24 23.9691 161.294 25.8184 158.434 27.829C155.079 30.1836 151.854 32.6995 148.607 35.2154C145.317 37.7528 141.941 40.1827 138.662 42.7202C134.662 45.8059 130.684 48.9239 126.544 51.8054C122.018 54.9557 117.599 58.2565 113.395 61.8261C109.632 65.0301 105.901 68.2771 102.224 71.5779C101.084 72.5993 100.159 73.868 99.0843 75.0937V75.083ZM135.705 187.762C131.565 187.697 128.512 187.848 125.469 188.235C120.996 188.804 116.663 189.923 112.449 191.525C109.277 192.729 106.363 194.428 103.482 196.202C100.708 197.911 98.2026 199.965 96.2135 202.577C95.3426 203.728 95.4179 203.846 96.8586 204.255C99.4068 204.986 101.493 206.513 103.213 208.416C105.482 210.921 108.03 213.179 110.922 214.738C114.094 216.447 117.491 217.888 121.254 218.254C124.071 218.522 126.835 219.415 129.652 219.748C133.619 220.221 137.608 219.877 141.586 219.684C144.338 219.555 147.048 219.103 149.682 218.372C154.682 216.974 159.208 214.587 163.229 211.297C165.315 209.598 167.24 207.674 168.154 205.093C169.594 201.008 170.272 196.675 171.766 192.589C172.164 191.525 171.229 190.202 170.218 189.88C167.455 189.019 164.627 188.858 161.756 189.009C157.09 189.245 152.424 189.245 147.758 188.89C143.371 188.557 139.016 187.729 135.673 187.762H135.705ZM99.6648 309.869C101.095 309.869 102.514 309.869 103.944 309.869C104.492 309.869 104.675 309.751 104.32 309.203C102.772 306.87 101.364 304.44 99.7079 302.182C97.3317 298.946 95.6329 295.376 93.9342 291.774C92.4182 288.559 90.9882 285.334 89.8915 281.926C88.8593 278.711 88.44 275.485 88.5368 272.152C88.6658 268.131 89.0206 264.131 89.8807 260.175C90.3968 257.788 90.6011 255.326 91.3107 252.971C91.3967 252.681 91.687 252.315 91.4075 252.079C91.1064 251.821 90.6979 252.1 90.4398 252.283C88.655 253.53 86.6445 254.358 84.8489 255.605C82.4513 257.272 79.9031 258.702 77.4732 260.314C73.8821 262.701 70.4846 265.346 67.3665 268.335C65.2054 270.41 62.9153 272.356 60.9477 274.604C58.5823 277.302 56.2062 280.012 54.2494 283.033C52.5076 285.721 50.6475 288.344 50.1315 291.634C49.6046 294.978 49.9702 298.085 51.7872 301.074C54.2064 305.031 58.206 306.558 62.1197 308.214C65.0872 309.472 68.2374 310.138 71.4307 310.665C74.5702 311.192 77.699 311.579 80.8708 311.665C83.591 311.74 86.2359 311.095 88.9131 310.697C92.4719 310.16 96.063 309.88 99.6648 309.848V309.869ZM99.2563 105.188C100.052 105.188 100.719 105.199 101.374 105.188C105.191 105.102 108.965 105.736 112.761 105.973C113.922 106.048 115.094 106.177 116.18 106.639C119.04 107.833 122.007 108.715 124.802 110.112C126.017 110.725 127.254 111.381 128.544 111.833C130.684 112.585 132.888 113.166 135.07 113.8C137.393 114.477 139.737 115.112 142.145 115.402C145.65 115.821 149.155 116.241 152.66 116.66C156.047 117.069 159.38 117.886 162.842 117.789C168.809 117.628 174.497 116.8 179.938 113.929C184.142 111.704 187.001 108.456 189.399 104.618C191.334 101.511 192.614 98.0273 194.571 94.9092C194.678 94.7372 194.872 94.5544 194.721 94.3394C194.581 94.1351 194.334 94.1889 194.13 94.2534C192.764 94.6835 191.324 94.7372 189.926 94.963C184.83 95.7909 179.712 96.436 174.605 97.1349C171.347 97.5864 168.078 97.6079 164.788 97.5542C159.918 97.4789 155.047 97.3391 150.187 97.1671C147.801 97.0811 145.435 96.651 143.048 96.565C139.522 96.436 136.006 96.2532 132.49 96.0167C130.211 95.8662 127.964 95.3393 125.695 95.2425C121.598 95.0598 117.62 95.9199 113.75 97.1994C109.352 98.6509 105.406 101.016 101.503 103.457C100.74 103.941 99.9874 104.446 99.2778 105.199L99.2563 105.188ZM25.0046 127.648C25.4239 128.175 25.6497 128.605 26.0045 128.874C28.7999 131.024 31.6062 133.143 33.864 135.906C35.3693 137.755 37.5304 138.809 39.4227 140.196C40.4871 140.981 41.5623 141.755 42.8418 142.12C46.1318 143.066 49.5831 143.109 52.8947 144.023C55.6041 144.776 58.4318 144.658 61.2595 144.346C65.2485 143.905 69.0008 142.905 72.4844 140.873C75.7422 138.981 78.2903 136.325 80.86 133.637C83.1501 131.229 84.6661 128.336 86.3864 125.563C87.7842 123.305 88.6335 120.832 89.655 118.413C90.2033 117.122 90.4506 115.746 90.7839 114.413C91.1602 112.961 91.8806 111.617 92.0096 110.112C92.0526 109.682 92.2999 109.112 91.8806 108.822C91.5258 108.575 91.2032 109.091 90.8377 109.22C90.4721 109.349 90.0958 109.499 89.7625 109.682C85.8058 111.886 81.6341 113.628 77.613 115.703C75.0541 117.015 72.5059 118.348 69.8825 119.542C66.7859 120.939 63.7217 122.455 60.7542 124.154C58.2168 125.606 55.3998 126.433 52.7764 127.691C47.164 130.379 41.272 130.68 35.251 129.723C31.8857 129.186 28.6172 128.132 25.0261 127.648H25.0046ZM23.4456 125.541C25.4777 126.315 27.4452 126.67 29.3805 127.132C33.0792 128.014 36.7455 129.121 40.5946 129.046C43.3686 128.992 46.1856 129.003 48.8197 127.971C51.9593 126.734 55.1095 125.466 58.1523 124.014C61.3886 122.455 64.4743 120.584 67.6998 118.993C70.2803 117.714 72.8607 116.424 75.4304 115.112C79.6773 112.929 83.8705 110.661 88.139 108.521C90.8807 107.156 90.9667 106.736 88.483 104.941C88.3432 104.833 88.1712 104.779 88.0207 104.683C85.2145 102.919 82.0212 102.511 78.8387 102.091C76.3873 101.769 73.9036 101.855 71.4952 102.263C68.9686 102.694 66.4634 103.231 63.8937 103.371C60.937 103.543 57.9588 103.758 55.1633 104.758C50.6153 106.381 45.9705 107.801 41.6376 109.994C37.7024 111.983 33.9393 114.252 30.617 117.23C27.8861 119.671 26.2518 123.014 23.4456 125.53V125.541ZM92.1171 75.7388C90.4613 74.9002 88.6658 74.5024 87.1283 73.5455C85.4618 72.5026 83.591 72.0402 81.7202 71.6209C80.602 71.3736 79.5483 70.9436 78.4946 70.535C76.3765 69.7179 74.2477 68.9545 71.9791 68.6104C69.0976 68.1696 66.2376 67.6428 63.3561 67.1804C61.4208 66.8686 59.5393 66.3203 57.5932 66.0515C53.7118 65.5032 49.7874 65.4924 45.906 64.8796C42.7558 64.385 39.5732 64.0302 36.4014 63.6969C31.7997 63.213 27.3377 62.2776 23.123 60.2885C22.3596 59.923 21.5963 59.5467 20.8114 59.2134C20.5426 59.0951 20.1233 58.8586 20.0588 59.3854C19.9943 59.9337 19.919 60.5251 20.2953 61.0304C22.6929 64.2559 25.5744 66.9976 28.6817 69.5136C30.7998 71.2231 33.3802 72.1477 35.7671 73.4057C37.5734 74.3519 39.3904 75.2873 41.4118 75.6421C43.7342 76.0506 46.0028 76.642 48.2499 77.3301C49.7767 77.7924 51.3142 78.158 52.9162 78.3408C55.6149 78.6418 58.3243 78.5666 61.023 78.8569C63.1841 79.0934 65.3452 79.2762 67.5063 79.3837C70.6351 79.5342 73.7531 78.9966 76.8819 78.9751C77.5915 78.9751 78.3011 78.9214 79 78.8031C81.3546 78.4268 83.7092 78.029 86.0639 77.6204C88.139 77.2548 90.1495 76.6742 92.1171 75.7603V75.7388ZM94.719 187.213C95.5039 186.117 96.1168 184.902 97.0844 183.966C102.073 179.096 106.987 174.139 112.933 170.387C116.04 168.43 119.029 166.279 122.437 164.86C126.114 163.323 129.91 162.043 133.253 159.775C133.522 159.592 133.855 159.409 134.114 159.753C134.372 160.086 134.393 160.506 134.114 160.839C133.931 161.043 133.662 161.183 133.425 161.323C131.071 162.785 128.501 163.828 125.942 164.828C122.577 166.15 119.33 167.623 116.319 169.645C113.191 171.741 109.965 173.709 107.041 176.085C104.772 177.924 102.718 179.999 100.46 181.859C98.7832 183.235 97.3425 184.869 96.0093 186.59C95.7942 186.869 95.3856 187.159 95.6329 187.493C95.8265 187.762 96.2888 187.633 96.6436 187.557C97.0307 187.482 97.4177 187.46 97.8048 187.46C100.224 187.428 102.643 187.407 105.062 187.374C109.944 187.321 114.223 185.514 118.147 182.783C120.158 181.386 122.168 179.956 123.953 178.257C125.684 176.623 127.576 175.096 128.781 173.01C131.297 168.699 133.049 164.011 135.113 159.474C135.436 158.753 135.156 158.474 134.458 158.463C132.641 158.441 130.834 158.409 129.017 158.431C124.609 158.484 120.19 158.581 115.922 159.914C113.889 160.549 111.89 161.194 110.062 162.366C107.696 163.893 105.75 165.86 103.933 167.946C102.256 169.871 100.794 172.021 99.5573 174.257C98.0413 176.999 96.9554 179.956 95.8587 182.891C95.3427 184.278 94.8265 185.676 94.719 187.192V187.213ZM95.4179 74.9325C95.4179 74.7927 95.4502 74.7067 95.4179 74.6637C92.5687 70.2984 89.2034 66.4493 84.7199 63.6539C81.8707 61.8798 78.8602 60.4391 75.6454 59.4714C72.9144 58.6543 70.0867 58.2887 67.2805 57.7619C64.0227 57.1598 60.8187 56.3104 57.5502 55.8158C51.4217 54.8912 45.2609 54.3643 39.0571 54.4073C35.2725 54.4288 31.5201 54.5686 27.8215 55.3642C25.6927 55.8266 23.5961 56.3964 21.7145 57.5468C21.2307 57.8479 20.8114 58.0522 21.7038 58.4822C22.6607 58.9446 23.6283 59.3639 24.6068 59.7725C28.4559 61.396 32.5201 62.2024 36.638 62.5464C42.6052 63.0518 48.5079 64.0947 54.4967 64.428C60.3886 64.7505 66.0333 66.6643 71.893 67.2342C74.9788 67.5352 77.8065 68.7717 80.6987 69.7824C83.0319 70.5887 85.6338 70.5457 87.7196 72.1155C89.1066 73.1584 90.8914 73.3197 92.4289 74.0938C93.3106 74.5346 94.332 75.0185 95.4394 74.9432L95.4179 74.9325ZM175.777 117.746C173.594 118.144 171.766 118.703 169.852 118.95C165.294 119.531 160.746 119.617 156.23 118.767C152.736 118.112 149.198 117.714 145.672 117.241C142.898 116.875 140.145 116.563 137.414 115.864C132.479 114.606 127.727 112.918 123.061 110.886C118.932 109.091 114.803 107.306 110.105 106.962C105.406 106.618 100.719 106.263 96.0093 106.209C95.6114 106.209 95.1921 106.123 95.1169 106.682C95.0416 107.22 95.4932 107.209 95.805 107.328C97.2887 107.93 98.8155 108.435 100.256 109.145C102.385 110.198 104.353 111.553 106.385 112.779C108.718 114.187 110.9 115.843 113.492 116.811C116.212 117.832 118.878 119.004 121.684 119.789C123.598 120.326 125.566 120.692 127.469 121.262C129.103 121.756 130.78 122.176 132.469 122.369C136.038 122.778 139.629 123.025 143.22 123.315C147.854 123.692 152.478 123.315 157.112 123.176C161.014 123.057 164.81 122.229 168.573 121.251C171.121 120.584 173.39 119.391 175.777 117.735V117.746Z" fill="var(--fill-0, #E7DFD2)"/>
</svg>
