<svg viewBox="0 0 184 397" fill="none" xmlns="http://www.w3.org/2000/svg">
<path d="M99.3063 304.033C99.9362 306.443 98.6163 308.253 97.6563 310.203C96.9263 311.673 95.9662 312.963 95.0863 314.333C93.7962 316.333 92.6062 318.393 91.3363 320.413C90.2763 322.103 89.0462 323.663 87.5162 324.953C84.9262 327.123 82.7062 329.703 80.0462 331.803C77.2762 333.983 74.2162 335.723 71.2162 337.543C69.5762 338.543 67.9362 339.543 66.2162 340.383C64.1862 341.373 62.0363 342.063 59.8363 342.593C57.7763 343.093 55.7062 343.553 53.6562 344.093C51.3562 344.703 49.0062 344.763 46.6662 344.553C44.3162 344.333 41.9662 344.363 39.6262 344.233C37.2262 344.093 35.0363 343.323 32.8363 342.463C30.8263 341.683 28.8062 340.943 26.8162 340.113C24.1162 338.983 21.6163 337.533 19.8063 335.133C19.4463 334.663 18.9162 334.373 18.5762 333.843C17.6562 332.383 17.8462 330.843 18.4562 329.453C19.3662 327.363 20.0462 325.163 21.1262 323.153C23.2562 319.223 26.2663 316.033 29.5863 313.073C33.1463 309.893 37.2462 307.793 41.7362 306.303C47.5362 304.383 53.3962 302.753 59.4962 302.203C62.4362 301.943 65.3962 301.963 68.3363 301.703C73.6562 301.223 78.9762 300.923 84.3162 300.973C87.6262 301.003 90.9362 300.703 94.2362 301.003C95.7762 301.143 97.2962 301.513 98.9262 301.293C98.5262 299.353 98.0962 297.423 97.7562 295.473C97.4962 294.003 97.3163 292.523 97.1563 291.043C97.0963 290.483 96.9762 290.223 96.3462 290.203C91.6262 290.023 86.9462 290.193 82.2862 291.063C79.0862 291.653 75.8562 292.123 72.5962 291.753C70.0962 291.473 67.6162 291.103 65.1362 290.653C62.8262 290.233 60.5362 289.743 58.3462 288.933C55.8162 287.993 53.2462 287.023 50.9962 285.533C48.6062 283.953 46.8462 281.763 45.7062 279.033C44.5662 276.303 44.3162 273.543 44.7362 270.673C45.0762 268.393 46.1062 266.403 47.3262 264.483C49.2762 261.443 51.2562 258.413 53.6562 255.713C56.4262 252.593 59.3762 249.633 62.4662 246.823C64.6262 244.863 66.9262 243.103 69.4562 241.233C68.2262 241.233 67.2262 241.183 66.2262 241.253C65.5263 241.303 64.8363 241.313 64.1462 241.173C62.1962 240.783 60.1862 240.943 58.2362 240.623C54.8362 240.073 51.3662 240.133 47.9962 239.443C46.3162 239.103 44.6962 238.493 43.0262 238.073C41.1662 237.603 39.2562 237.383 37.4562 236.673C35.1862 235.783 33.2163 234.343 31.0563 233.273C26.9463 231.233 23.6262 228.153 20.1862 225.193C18.1462 223.443 15.9963 221.843 14.2863 219.743C12.1962 217.183 10.4362 214.383 8.48625 211.723C7.38625 210.223 6.35625 208.683 5.48625 207.063C4.24625 204.753 3.32624 202.293 2.41624 199.843C1.60624 197.663 0.816248 195.483 0.456248 193.183C-0.153752 189.293 -0.213755 185.413 0.656245 181.533C1.65624 177.063 2.82625 172.653 4.78625 168.493C5.36625 167.253 6.13625 166.133 7.12625 165.183C8.84625 163.523 10.9262 163.873 12.9362 164.363C14.6362 164.773 16.3163 165.343 17.9463 165.983C19.2963 166.513 20.7163 166.643 22.0863 167.033C24.7163 167.763 27.1862 168.923 29.8162 169.623C31.9862 170.213 34.2262 170.623 36.2962 171.503C38.6762 172.513 41.1262 173.313 43.5262 174.233C46.7262 175.463 49.5362 177.423 52.5762 178.943C54.7262 180.013 56.4663 181.763 58.3963 183.193C61.3363 185.363 63.7262 188.173 66.7762 190.193C68.7362 191.493 70.7562 192.703 72.3862 194.423C74.5162 196.673 77.1162 198.453 79.0462 200.903C80.5962 202.863 82.5963 204.473 83.7763 206.723C85.1763 209.413 86.1763 212.213 86.4363 215.293C86.6863 218.283 87.2962 221.233 88.5662 224.013C88.4162 222.533 88.3162 221.043 88.1062 219.573C87.6762 216.523 87.3763 213.453 87.1863 210.373C86.9363 206.473 86.5862 202.583 86.3162 198.683C86.2062 197.033 86.1962 195.373 86.1662 193.723C86.1062 190.283 85.8262 186.843 85.5762 183.413C85.3162 179.853 85.0862 176.283 84.9862 172.703C84.8762 168.743 84.6562 164.783 84.3662 160.833C84.1562 157.953 84.2262 155.073 84.2262 152.193C84.2262 148.643 84.2463 145.093 84.2163 141.543C84.1763 136.333 84.3263 131.123 84.4063 125.913C84.4563 123.063 84.3863 120.223 84.4663 117.373C84.5163 115.633 84.7262 113.893 84.7662 112.133C83.9162 113.793 83.3562 115.563 82.3462 117.103C80.1762 120.413 78.4562 124.013 75.5362 126.843C71.7462 130.513 67.7562 133.773 62.5662 135.203C60.3563 135.813 58.0862 136.063 55.7962 136.203C53.7362 136.333 51.6963 136.493 49.6763 135.963C46.5363 135.133 43.2962 134.813 40.1362 134.123C38.4462 133.753 36.9963 132.803 35.5662 131.793C33.1263 130.063 30.6362 128.403 28.7162 126.083C26.5462 123.453 23.5463 121.743 21.2263 119.293C21.1163 119.173 20.9662 119.093 20.8462 118.983C19.1262 117.413 19.0863 116.423 20.8363 114.903C21.9663 113.923 22.6963 112.673 23.5863 111.523C26.5863 107.683 30.3462 104.783 34.5162 102.313C39.2662 99.5031 44.4662 97.8131 49.6362 96.0431C52.9462 94.9131 56.3663 94.4831 59.8663 94.3731C61.8063 94.3131 63.7462 93.9631 65.6762 93.6531C70.9662 92.7931 76.1162 93.2931 81.0662 95.3531C82.6262 96.0031 83.9562 97.0831 85.0662 98.3931C85.2262 98.5831 85.3462 98.9131 85.6662 98.8331C85.9562 98.7531 85.9562 98.4331 86.0062 98.1731C86.5562 95.5031 86.6962 92.7831 87.0362 90.0831C87.4162 87.0331 87.7562 83.9731 88.2662 80.9331C88.6462 78.6631 88.7762 76.3431 88.9562 74.0331C88.9962 73.5131 89.0262 73.0531 89.4862 72.7231C89.6762 72.5831 89.8762 72.3831 89.7362 72.1431C89.5962 71.8931 89.3162 72.0631 89.0962 72.0831C87.1562 72.2031 85.4062 73.0831 83.5362 73.5031C78.6562 74.6131 73.7362 75.4131 68.7062 75.6131C65.7962 75.7231 62.8762 75.9931 59.9862 75.6131C56.4962 75.1531 52.9862 75.2331 49.4962 74.8831C47.4462 74.6731 45.4262 74.2331 43.4862 73.5631C41.6862 72.9431 39.8262 72.6331 37.9962 72.1931C35.6462 71.6331 33.5762 70.5031 31.4662 69.4131C30.0862 68.7031 28.6662 68.0631 27.3162 67.3031C25.2062 66.1231 23.3962 64.5431 21.7563 62.7631C20.7963 61.7231 19.7362 60.7731 18.7162 59.7731C17.7262 58.8031 17.0962 57.6131 16.6762 56.3231C16.0462 54.4031 17.0562 52.9831 18.6662 51.9131C22.2862 49.5031 26.4662 48.7431 30.6562 48.4731C36.2462 48.1231 41.8662 48.2231 47.4562 48.8131C49.9562 49.0731 52.4263 49.6431 54.9263 49.9831C57.3963 50.3231 59.7862 50.9931 62.2362 51.4331C66.9362 52.2631 71.5762 53.2431 75.9062 55.4431C78.7662 56.8931 81.5162 58.4831 83.7262 60.7931C86.1562 63.3331 88.6663 65.8631 89.9363 69.2731C89.9663 69.3531 90.0563 69.4131 90.1263 69.4831C90.5663 69.2231 90.3162 68.8131 90.3962 68.4831C91.2962 64.8631 91.3762 61.1531 91.7662 57.4731C91.9862 55.4331 92.5162 53.4331 93.0962 51.4631C93.4462 50.3031 93.5262 49.1131 93.7262 47.9431C94.1262 45.6031 94.9162 43.4031 95.9462 41.2731C97.3062 38.4431 98.5262 35.5431 99.7962 32.6731C101.156 29.5731 102.706 26.5631 104.456 23.6731C106.036 21.0631 108.106 18.8431 110.356 16.7631C113.606 13.7631 117.086 11.0931 120.966 8.96314C124.866 6.82314 128.996 5.34314 133.336 4.42314C135.246 4.01314 137.156 3.57314 139.056 3.14314C142.336 2.40314 145.666 1.99314 149.006 1.62314C151.146 1.38314 153.276 1.00314 155.396 0.64314C158.516 0.11314 161.666 0.17314 164.816 0.0731397C167.336 -0.00686029 169.866 -0.18686 172.286 0.65314C174.196 1.31314 176.066 2.07314 178.006 2.63314C179.146 2.96314 180.326 3.18314 181.476 3.48314C183.026 3.88314 183.296 4.65314 182.336 5.89314C180.386 8.40314 179.216 11.2731 178.486 14.3231C177.736 17.4431 177.246 20.6231 176.496 23.7331C175.856 26.4031 174.926 28.9931 173.776 31.5031C172.406 34.5131 170.756 37.3831 168.996 40.1731C168.156 41.5131 167.106 42.7231 165.946 43.8331C163.906 45.7731 161.916 47.7531 159.876 49.7031C157.616 51.8631 154.816 53.2031 152.176 54.7931C149.596 56.3431 147.006 57.8931 144.326 59.2831C142.786 60.0831 141.116 60.7031 139.566 61.4531C136.816 62.7831 133.926 63.7331 131.176 65.0231C128.416 66.3031 125.526 67.1231 122.546 67.6331C120.146 68.0431 117.876 68.8931 115.516 69.4331C112.226 70.1831 108.956 71.1431 105.596 71.4731C102.046 71.8131 98.4963 72.2631 94.9063 72.0131C93.8763 71.9431 92.7763 72.1831 91.7763 72.4831C90.9762 72.7231 90.9462 73.6131 90.8862 74.3231C90.7262 76.3331 90.6862 78.3531 90.4862 80.3531C90.1062 84.1331 89.5762 87.8931 89.2662 91.6731C89.1062 93.5531 88.8862 95.4331 88.7362 97.3231C88.6962 97.7731 88.7962 97.8831 89.2362 97.9331C90.2262 98.0531 90.9063 97.7231 91.6863 97.0631C95.3963 93.9231 99.4862 91.4031 104.036 89.6031C107.816 88.1031 111.736 87.3531 115.746 87.0731C117.356 86.9631 118.976 87.3131 120.576 87.5331C123.766 87.9631 126.986 87.9331 130.196 88.0931C132.406 88.2031 134.616 88.3031 136.826 88.4931C140.296 88.7831 143.776 88.8631 147.256 88.8831C150.436 88.8931 153.626 89.0731 156.806 89.0131C160.656 88.9431 164.456 88.2931 168.256 87.7131C171.076 87.2831 173.906 86.9031 176.726 86.4631C178.686 86.1531 180.626 85.7331 182.616 85.6231C183.116 85.5931 183.586 85.5231 183.856 86.1631C184.106 86.7431 184.006 87.1331 183.626 87.6031C182.046 89.5731 180.866 91.8231 179.856 94.1031C178.476 97.2131 176.586 99.9331 174.416 102.503C172.056 105.293 169.546 107.933 166.406 109.863C164.356 111.133 162.416 112.573 160.186 113.563C157.186 114.893 154.026 115.593 150.826 116.113C145.196 117.023 139.506 117.153 133.836 116.853C128.886 116.593 123.876 116.473 119.056 115.113C114.696 113.883 110.236 112.953 106.056 111.093C103.496 109.953 101.016 108.703 98.6162 107.203C95.7862 105.443 93.0163 103.513 89.8662 102.303C89.8363 102.293 89.8063 102.273 89.7763 102.253C88.1863 101.643 88.2262 101.643 88.1462 103.363C88.0762 104.953 87.8762 106.533 87.7962 108.123C87.5562 112.943 87.0662 117.753 87.1662 122.603C87.2462 126.323 86.9463 130.053 86.9663 133.783C86.9663 136.733 86.9362 139.673 86.9162 142.623C86.9062 145.293 86.8663 147.983 86.8763 150.653C86.8963 155.013 86.8462 159.403 87.3262 163.763C87.5062 165.363 87.6363 166.993 87.4363 168.623C87.3863 169.033 87.3762 169.493 87.7362 169.893C88.2462 169.313 88.3462 168.573 88.5462 167.903C90.0362 162.933 92.5762 158.513 95.8562 154.563C97.8462 152.173 100.276 150.143 103.056 148.673C104.776 147.763 106.716 147.423 108.586 146.893C113.856 145.413 119.236 145.693 124.606 145.713C125.516 145.713 126.276 146.103 127.036 146.503C127.506 146.753 127.536 147.243 127.536 147.723C127.546 148.963 126.776 149.893 126.326 150.943C125.186 153.583 124.026 156.213 122.896 158.863C121.566 161.983 119.466 164.503 117.016 166.793C113.506 170.073 109.576 172.763 105.256 174.813C102.716 176.013 99.8762 176.143 97.0962 176.343C94.2662 176.543 91.4062 176.033 88.5962 176.693C87.9362 176.853 87.8562 177.083 87.9162 177.713C88.1062 179.623 88.3062 181.523 88.3162 183.453C88.3162 184.913 88.6562 186.383 88.7062 187.913C89.5462 187.043 90.2862 186.143 91.0863 185.293C94.0462 182.143 97.7062 180.043 101.536 178.183C105.126 176.443 108.836 175.103 112.746 174.283C117.616 173.253 122.516 172.943 127.476 173.153C130.426 173.273 133.326 173.803 136.266 174.013C141.396 174.383 146.526 174.343 151.666 174.123C154.226 174.013 156.756 174.353 159.196 175.173C160.476 175.613 161.976 178.143 161.326 179.883C160.096 183.173 159.216 186.573 158.356 189.973C157.696 192.583 156.206 194.773 154.266 196.553C150.396 200.103 145.976 202.833 140.936 204.403C137.256 205.553 133.476 206.153 129.606 206.253C126.456 206.343 123.306 206.673 120.176 206.223C117.296 205.803 114.466 205.113 111.596 204.643C108.046 204.063 104.846 202.563 101.666 201.003C100.316 200.343 99.3763 199.113 98.1462 198.273C96.5262 197.163 95.1862 195.773 93.8363 194.353C92.7162 193.183 91.1762 192.403 89.5962 191.823C89.0562 191.623 88.8662 191.803 88.8962 192.373C89.1462 197.043 89.2163 201.723 89.6863 206.373C90.1063 210.513 90.1862 214.703 90.9762 218.813C91.2262 220.133 91.1862 221.523 91.3063 222.873C91.5163 225.343 91.8762 227.803 92.4262 230.223C92.5262 230.663 92.7763 230.803 93.1863 230.853C95.4863 231.153 97.6463 232.073 99.9063 232.503C103.196 233.123 106.406 234.133 109.726 234.603C110.986 234.783 112.186 235.143 113.366 235.583C115.496 236.373 117.766 236.513 119.926 237.143C121.286 237.543 122.466 238.273 123.736 238.843C125.946 239.833 128.306 240.433 130.526 241.393C134.346 243.033 137.866 245.183 141.416 247.323C143.556 248.613 145.616 249.933 147.506 251.573C150.456 254.133 152.396 257.273 153.506 260.963C154.206 263.293 153.436 265.393 152.196 267.353C151.106 269.083 149.536 270.323 147.876 271.413C145.246 273.133 142.676 274.963 139.866 276.403C136.656 278.043 133.446 279.703 130.146 281.173C126.906 282.613 123.576 283.793 120.336 285.223C118.416 286.073 116.326 286.553 114.356 287.293C112.306 288.053 110.256 288.783 108.156 289.403C105.816 290.093 103.396 290.243 100.966 290.253C99.6263 290.253 99.6362 290.233 99.8262 291.583C100.366 295.363 101.346 299.033 102.386 302.703C103.466 306.513 104.576 310.323 105.416 314.203C106.366 318.553 107.486 322.873 108.636 327.183C110.156 332.873 111.306 338.663 113.176 344.253C113.966 346.603 114.696 348.983 115.726 351.263C116.396 352.733 116.816 354.313 117.356 355.843C118.006 357.703 118.726 359.553 119.316 361.443C120.206 364.293 121.456 366.993 122.486 369.783C123.406 372.263 124.566 374.653 125.606 377.083C126.756 379.793 127.906 382.503 129.036 385.223C129.796 387.053 130.966 388.683 131.636 390.563C132.006 391.593 132.386 392.623 132.596 393.693C132.866 395.063 131.936 396.403 130.576 396.673C129.746 396.843 128.736 396.223 128.326 395.073C127.456 392.673 126.336 390.363 125.476 387.963C124.956 386.523 124.666 384.953 124.106 383.553C122.976 380.703 122.266 377.713 120.806 374.973C119.136 371.823 117.396 368.673 116.196 365.293C115.326 362.833 114.566 360.323 113.676 357.883C112.686 355.163 111.956 352.393 111.176 349.623C109.716 344.423 108.356 339.203 107.036 333.963C105.886 329.403 104.696 324.843 103.316 320.353C102.256 316.883 102.046 313.253 101.026 309.783C100.476 307.933 100.096 306.023 99.6462 304.143L99.3262 304.103L99.3063 304.033ZM81.8162 233.633C82.1362 233.543 82.4662 233.503 82.7562 233.363C84.8162 232.403 86.7363 231.093 89.0563 230.753C89.2562 230.723 89.4863 230.633 89.3363 230.363C89.1162 229.973 89.2962 229.453 88.9262 229.113C88.6362 229.373 88.8262 229.873 88.3962 230.033C88.3462 229.973 88.2763 229.933 88.2763 229.883C88.1763 227.343 87.5762 224.913 86.7262 222.523C85.9962 220.503 85.3562 218.463 85.1762 216.283C84.9662 213.763 84.2063 211.343 83.1263 209.073C81.8363 206.353 79.7363 204.193 77.7262 202.013C76.0762 200.223 74.2262 198.603 72.3862 197.003C71.2962 196.053 70.3262 194.953 69.1262 194.113C66.5962 192.323 64.0362 190.583 61.7062 188.493C59.0762 186.133 56.2562 183.973 53.4662 181.803C51.7362 180.463 49.6162 179.733 47.8162 178.483C45.4562 176.843 42.7562 176.033 40.1262 175.013C38.4362 174.363 36.7663 173.593 35.0563 173.063C31.4663 171.943 27.7762 171.123 24.2362 169.773C21.8962 168.883 19.3762 168.463 16.9562 167.763C14.9662 167.183 13.1162 166.213 10.9962 165.993C9.67624 165.853 8.69625 166.233 7.94625 167.213C6.51625 169.073 5.60624 171.223 4.88624 173.423C3.84624 176.633 2.91625 179.883 2.31625 183.213C1.76625 186.273 1.68625 189.303 2.31625 192.383C2.71625 194.303 3.22625 196.183 3.78625 198.053C4.49625 200.433 5.40624 202.763 6.49624 204.983C8.10624 208.283 10.2962 211.243 12.3862 214.243C14.3262 217.033 16.4263 219.693 19.1163 221.853C21.7963 224.013 24.2162 226.493 26.9562 228.553C30.0062 230.843 33.4162 232.613 36.8562 234.233C40.6562 236.013 44.9062 236.313 48.8862 237.543C50.9562 238.183 53.1862 237.813 55.2962 238.193C58.1062 238.693 60.9563 238.693 63.7863 238.973C65.6363 239.153 67.4863 238.913 69.3363 238.933C69.8763 238.933 70.4762 238.953 70.7462 239.493C71.1662 240.363 71.6262 239.963 72.1362 239.653C74.8262 238.043 77.4162 236.263 80.2062 234.823C80.7762 234.533 81.4263 234.233 81.8063 233.643L81.8162 233.633ZM101.236 288.193C103.606 288.123 105.766 288.073 107.706 287.383C112.386 285.723 117.146 284.263 121.696 282.233C124.416 281.023 127.256 280.083 129.976 278.873C132.546 277.733 135.046 276.433 137.536 275.143C141.336 273.163 144.906 270.813 148.266 268.173C150.006 266.803 151.456 265.093 151.566 262.733C151.656 260.833 150.786 259.113 149.926 257.493C148.606 255.023 146.386 253.323 144.346 251.503C142.906 250.213 140.996 249.643 139.416 248.563C136.486 246.553 133.386 244.853 130.126 243.483C127.256 242.283 124.226 241.503 121.446 240.073C118.246 238.423 114.626 238.193 111.246 237.173C107.676 236.103 103.956 235.533 100.346 234.563C98.0762 233.953 95.7763 233.453 93.4963 232.893C92.9263 232.753 92.2862 232.973 91.7662 232.603C90.8362 231.933 89.8663 232.133 88.9063 232.453C88.2463 232.673 87.6263 233.003 86.9663 233.213C86.2063 233.463 85.8762 233.953 85.7562 234.733C85.2962 237.773 84.8362 240.823 84.2962 243.853C83.6062 247.733 83.5462 251.623 83.5662 255.523C83.5762 258.803 84.6762 261.923 85.8962 264.933C87.2562 268.293 88.8762 271.543 90.5662 274.763C92.2162 277.913 94.3563 280.733 96.2463 283.713C96.9863 284.873 98.1162 285.823 98.6662 287.043C99.1962 288.233 99.9463 288.273 100.936 288.203C101.136 288.193 101.336 288.203 101.256 288.203L101.236 288.193ZM94.0962 302.283C92.5362 302.283 90.9862 302.253 89.4262 302.283C85.8462 302.373 82.2763 302.473 78.6963 302.623C76.5462 302.713 74.4062 302.873 72.2662 303.053C70.2562 303.223 68.2462 303.553 66.2362 303.643C61.4962 303.863 56.7762 304.123 52.1562 305.333C48.8562 306.193 45.5262 306.983 42.3162 308.113C37.4263 309.833 33.0262 312.343 29.2362 315.993C24.8762 320.183 21.9462 325.153 20.0362 330.813C19.7462 331.663 19.8563 332.553 20.4463 333.273C22.2863 335.503 24.4562 337.333 27.1662 338.413C28.8862 339.103 30.6663 339.643 32.3663 340.353C35.2263 341.553 38.1362 342.403 41.2762 342.503C43.4262 342.573 45.5862 342.463 47.7362 342.783C48.8662 342.953 50.0762 342.873 51.2062 342.683C54.9662 342.063 58.6062 340.933 62.2462 339.863C65.3062 338.973 67.9262 337.183 70.6262 335.563C75.1162 332.853 79.4563 329.943 83.1563 326.173C84.8663 324.433 86.8562 322.973 88.3962 321.043C90.2162 318.753 91.5163 316.113 93.2163 313.743C94.5163 311.943 95.7362 310.093 96.7362 308.093C97.3862 306.803 98.2062 305.613 98.3962 304.133C98.5462 303.003 98.3562 302.763 97.2062 302.713C96.9362 302.703 96.6962 302.793 96.4462 302.883C92.9062 304.173 89.3462 305.423 85.7062 306.413C83.5262 307.013 81.3962 307.703 79.2862 308.493C76.2362 309.623 73.4362 311.303 70.5262 312.723C67.7562 314.083 64.7762 314.973 62.0462 316.383C57.3062 318.813 52.6662 321.453 47.9562 323.943C45.6162 325.183 43.3462 326.513 41.0662 327.843C37.4162 329.973 33.8262 332.203 30.3962 334.673C29.6663 335.203 28.9563 335.733 28.0063 335.803C27.6462 335.823 27.1862 336.033 27.0462 335.593C26.8662 335.033 27.4862 334.963 27.7962 334.873C28.9462 334.553 29.8763 333.913 30.8363 333.233C35.0263 330.273 39.4962 327.733 43.9362 325.183C47.9762 322.863 52.0563 320.603 56.1763 318.413C58.7663 317.033 61.4362 315.793 64.0962 314.543C65.6562 313.813 67.2762 313.223 68.8262 312.483C71.3562 311.283 73.8662 310.033 76.3562 308.753C80.6262 306.553 85.2862 305.463 89.7962 303.943C91.2462 303.453 92.7562 303.133 94.0962 302.243V302.283ZM179.936 5.29314C178.876 4.96314 177.876 4.62314 176.856 4.35314C173.776 3.52314 170.896 1.92314 167.556 2.08314C166.996 2.11314 166.446 2.26314 165.886 2.19314C163.606 1.90314 161.316 2.21314 159.056 2.38314C155.726 2.63314 152.436 3.27314 149.116 3.62314C146.446 3.90314 143.806 4.35314 141.176 4.81314C138.316 5.31314 135.516 6.14314 132.686 6.81314C129.876 7.48314 127.106 8.34314 124.536 9.63314C121.286 11.2731 118.186 13.1931 115.396 15.5631C113.046 17.5631 110.686 19.5331 108.696 21.9131C106.876 24.1031 105.706 26.6731 104.356 29.1331C102.756 32.0431 101.566 35.1431 100.176 38.1531C99.1962 40.2831 98.0462 42.3431 97.2662 44.5431C95.9062 48.3931 95.4363 52.4831 94.3763 56.4131C93.7063 58.9231 93.8662 61.5531 93.2763 64.0831C93.0663 64.9931 92.6162 65.9231 92.8162 66.8931C93.1862 66.5731 93.5362 66.2831 93.8662 65.9731C96.1462 63.7931 98.6963 61.9231 101.026 59.8031C104.276 56.8331 107.726 54.0931 111.246 51.4631C114.026 49.3931 116.876 47.4131 119.716 45.4131C122.386 43.5231 124.856 41.3831 127.446 39.3931C131.816 36.0531 136.286 32.8331 140.616 29.4431C144.586 26.3331 148.566 23.2631 152.936 20.7331C156.056 18.9231 159.146 17.0431 162.266 15.2231C165.726 13.2031 169.206 11.2231 172.666 9.21314C175.026 7.83314 177.416 6.49314 179.946 5.28314L179.936 5.29314ZM92.1563 69.8331C92.3663 69.9031 92.4462 69.9631 92.5362 69.9531C95.9762 69.7831 99.4162 69.7531 102.856 69.5231C106.536 69.2731 110.056 68.4031 113.616 67.6331C116.596 66.9931 119.496 66.0231 122.476 65.3931C125.546 64.7431 128.496 63.8331 131.356 62.5631C134.536 61.1631 137.876 60.1331 140.986 58.5631C142.926 57.5831 144.886 56.6631 146.766 55.5631C148.416 54.5931 150.026 53.5531 151.666 52.5631C153.656 51.3631 155.756 50.3631 157.566 48.8731C159.406 47.3531 161.066 45.6431 162.816 44.0231C165.366 41.6531 167.466 38.9431 169.156 35.9231C170.416 33.6731 171.646 31.4031 172.586 28.9831C173.846 25.7631 174.846 22.4731 175.426 19.0631C176.096 15.1331 176.906 11.2431 178.816 7.68314C178.996 7.33314 179.326 7.03314 179.346 6.49314C177.006 7.88314 174.776 9.24314 172.516 10.5531C169.716 12.1831 166.926 13.8231 164.156 15.4831C161.286 17.1931 158.436 18.9531 155.556 20.6431C152.756 22.2931 150.016 24.0131 147.356 25.8831C144.236 28.0731 141.236 30.4131 138.216 32.7531C135.156 35.1131 132.016 37.3731 128.966 39.7331C125.246 42.6031 121.546 45.5031 117.696 48.1831C113.486 51.1131 109.376 54.1831 105.466 57.5031C101.966 60.4831 98.4962 63.5031 95.0762 66.5731C94.0162 67.5231 93.1563 68.7031 92.1563 69.8431V69.8331ZM126.216 174.633C122.366 174.573 119.526 174.713 116.696 175.073C112.536 175.603 108.506 176.643 104.586 178.133C101.636 179.253 98.9263 180.833 96.2463 182.483C93.6663 184.073 91.3362 185.983 89.4862 188.413C88.6762 189.483 88.7463 189.593 90.0863 189.973C92.4563 190.653 94.3963 192.073 95.9963 193.843C98.1063 196.173 100.476 198.273 103.166 199.723C106.116 201.313 109.276 202.653 112.776 202.993C115.396 203.243 117.966 204.073 120.586 204.383C124.276 204.823 127.986 204.503 131.686 204.323C134.246 204.203 136.766 203.783 139.216 203.103C143.866 201.803 148.076 199.583 151.816 196.523C153.756 194.943 155.546 193.153 156.396 190.753C157.736 186.953 158.366 182.923 159.756 179.123C160.126 178.133 159.256 176.903 158.316 176.603C155.746 175.803 153.116 175.653 150.446 175.793C146.106 176.013 141.766 176.013 137.426 175.683C133.346 175.373 129.296 174.603 126.186 174.633H126.216ZM92.6962 288.203C94.0262 288.203 95.3462 288.203 96.6762 288.203C97.1862 288.203 97.3563 288.093 97.0263 287.583C95.5863 285.413 94.2762 283.153 92.7362 281.053C90.5262 278.043 88.9463 274.723 87.3662 271.373C85.9562 268.383 84.6262 265.383 83.6062 262.213C82.6462 259.223 82.2562 256.223 82.3462 253.123C82.4662 249.383 82.7962 245.663 83.5962 241.983C84.0762 239.763 84.2662 237.473 84.9262 235.283C85.0062 235.013 85.2762 234.673 85.0162 234.453C84.7362 234.213 84.3562 234.473 84.1162 234.643C82.4562 235.803 80.5862 236.573 78.9162 237.733C76.6862 239.283 74.3163 240.613 72.0563 242.113C68.7163 244.333 65.5562 246.793 62.6562 249.573C60.6462 251.503 58.5162 253.313 56.6862 255.403C54.4862 257.913 52.2762 260.433 50.4562 263.243C48.8363 265.743 47.1062 268.183 46.6262 271.243C46.1362 274.353 46.4762 277.243 48.1662 280.023C50.4162 283.703 54.1362 285.123 57.7762 286.663C60.5362 287.833 63.4662 288.453 66.4362 288.943C69.3562 289.433 72.2662 289.793 75.2162 289.873C77.7462 289.943 80.2062 289.343 82.6962 288.973C86.0062 288.473 89.3462 288.213 92.6962 288.183V288.203ZM92.3162 97.8331C93.0562 97.8331 93.6762 97.8431 94.2862 97.8331C97.8362 97.7531 101.346 98.3431 104.876 98.5631C105.956 98.6331 107.046 98.7531 108.056 99.1831C110.716 100.293 113.476 101.113 116.076 102.413C117.206 102.983 118.356 103.593 119.556 104.013C121.546 104.713 123.596 105.253 125.626 105.843C127.786 106.473 129.966 107.063 132.206 107.333C135.466 107.723 138.726 108.113 141.986 108.503C145.136 108.883 148.236 109.643 151.456 109.553C157.006 109.403 162.296 108.633 167.356 105.963C171.266 103.893 173.926 100.873 176.156 97.3031C177.956 94.4131 179.146 91.1731 180.966 88.2731C181.066 88.1131 181.246 87.9431 181.106 87.7431C180.976 87.5531 180.746 87.6031 180.556 87.6631C179.286 88.0631 177.946 88.1131 176.646 88.3231C171.906 89.0931 167.146 89.6931 162.396 90.3431C159.366 90.7631 156.326 90.7831 153.266 90.7331C148.736 90.6631 144.206 90.5331 139.686 90.3731C137.466 90.2931 135.266 89.8931 133.046 89.8131C129.766 89.6931 126.496 89.5231 123.226 89.3031C121.106 89.1631 119.016 88.6731 116.906 88.5831C113.096 88.4131 109.396 89.2131 105.796 90.4031C101.706 91.7531 98.0363 93.9531 94.4063 96.2231C93.6963 96.6731 92.9963 97.1431 92.3363 97.8431L92.3162 97.8331ZM23.2563 118.723C23.6462 119.213 23.8562 119.613 24.1862 119.863C26.7862 121.863 29.3962 123.833 31.4962 126.403C32.8962 128.123 34.9062 129.103 36.6662 130.393C37.6562 131.123 38.6562 131.843 39.8462 132.183C42.9062 133.063 46.1163 133.103 49.1963 133.953C51.7163 134.653 54.3463 134.543 56.9763 134.253C60.6863 133.843 64.1762 132.913 67.4162 131.023C70.4462 129.263 72.8162 126.793 75.2062 124.293C77.3362 122.053 78.7462 119.363 80.3462 116.783C81.6462 114.683 82.4362 112.383 83.3862 110.133C83.8962 108.933 84.1263 107.653 84.4363 106.413C84.7863 105.063 85.4562 103.813 85.5762 102.413C85.6162 102.013 85.8462 101.483 85.4562 101.213C85.1262 100.983 84.8262 101.463 84.4862 101.583C84.1462 101.703 83.7962 101.843 83.4862 102.013C79.8062 104.063 75.9262 105.683 72.1862 107.613C69.8062 108.833 67.4362 110.073 64.9962 111.183C62.1162 112.483 59.2663 113.893 56.5063 115.473C54.1463 116.823 51.5263 117.593 49.0863 118.763C43.8663 121.263 38.3862 121.543 32.7863 120.653C29.6562 120.153 26.6162 119.173 23.2762 118.723H23.2563ZM21.8063 116.763C23.6963 117.483 25.5262 117.813 27.3262 118.243C30.7662 119.063 34.1763 120.093 37.7563 120.023C40.3363 119.973 42.9562 119.983 45.4062 119.023C48.3262 117.873 51.2563 116.693 54.0863 115.343C57.0963 113.893 59.9662 112.153 62.9662 110.673C65.3662 109.483 67.7662 108.283 70.1562 107.063C74.1062 105.033 78.0062 102.923 81.9762 100.933C84.5263 99.6631 84.6062 99.2731 82.2962 97.6031C82.1662 97.5031 82.0062 97.4531 81.8662 97.3631C79.2562 95.7231 76.2862 95.3431 73.3262 94.9531C71.0462 94.6531 68.7362 94.7331 66.4962 95.1131C64.1462 95.5131 61.8162 96.0131 59.4263 96.1431C56.6763 96.3031 53.9063 96.5031 51.3063 97.4331C47.0763 98.9431 42.7563 100.263 38.7263 102.303C35.0663 104.153 31.5663 106.263 28.4763 109.033C25.9363 111.303 24.4163 114.413 21.8063 116.753V116.763ZM85.6762 70.4431C84.1362 69.6631 82.4662 69.2931 81.0362 68.4031C79.4862 67.4331 77.7462 67.0031 76.0062 66.6131C74.9662 66.3831 73.9863 65.9831 73.0062 65.6031C71.0362 64.8431 69.0563 64.1331 66.9463 63.8131C64.2663 63.4031 61.6063 62.9131 58.9263 62.4831C57.1263 62.1931 55.3763 61.6831 53.5662 61.4331C49.9562 60.9231 46.3063 60.9131 42.6963 60.3431C39.7663 59.8831 36.8062 59.5531 33.8562 59.2431C29.5762 58.7931 25.4263 57.9231 21.5063 56.0731C20.7963 55.7331 20.0862 55.3831 19.3562 55.0731C19.1062 54.9631 18.7162 54.7431 18.6562 55.2331C18.5962 55.7431 18.5262 56.2931 18.8762 56.7631C21.1062 59.7631 23.7862 62.3131 26.6762 64.6531C28.6462 66.2431 31.0462 67.1031 33.2662 68.2731C34.9462 69.1531 36.6362 70.0231 38.5162 70.3531C40.6762 70.7331 42.7862 71.2831 44.8762 71.9231C46.2962 72.3531 47.7262 72.6931 49.2162 72.8631C51.7262 73.1431 54.2463 73.0731 56.7563 73.3431C58.7663 73.5631 60.7763 73.7331 62.7863 73.8331C65.6963 73.9731 68.5962 73.4731 71.5062 73.4531C72.1663 73.4531 72.8262 73.4031 73.4762 73.2931C75.6663 72.9431 77.8562 72.5731 80.0462 72.1931C81.9762 71.8531 83.8462 71.3131 85.6762 70.4631V70.4431ZM88.0962 174.123C88.8262 173.103 89.3962 171.973 90.2962 171.103C94.9362 166.573 99.5062 161.963 105.036 158.473C107.926 156.653 110.706 154.653 113.876 153.333C117.296 151.903 120.826 150.713 123.936 148.603C124.186 148.433 124.496 148.263 124.736 148.583C124.976 148.893 124.996 149.283 124.736 149.593C124.566 149.783 124.316 149.913 124.096 150.043C121.906 151.403 119.516 152.373 117.136 153.303C114.006 154.533 110.986 155.903 108.186 157.783C105.276 159.733 102.276 161.563 99.5563 163.773C97.4463 165.483 95.5363 167.413 93.4363 169.143C91.8763 170.423 90.5362 171.943 89.2962 173.543C89.0962 173.803 88.7162 174.073 88.9462 174.383C89.1262 174.633 89.5562 174.513 89.8862 174.443C90.2462 174.373 90.6063 174.353 90.9663 174.353C93.2163 174.323 95.4663 174.303 97.7163 174.273C102.256 174.223 106.236 172.543 109.886 170.003C111.756 168.703 113.626 167.373 115.286 165.793C116.896 164.273 118.656 162.853 119.776 160.913C122.116 156.903 123.746 152.543 125.666 148.323C125.966 147.653 125.706 147.393 125.056 147.383C123.366 147.363 121.686 147.333 119.996 147.353C115.896 147.403 111.786 147.493 107.816 148.733C105.926 149.323 104.066 149.923 102.366 151.013C100.166 152.433 98.3562 154.263 96.6662 156.203C95.1062 157.993 93.7462 159.993 92.5962 162.073C91.1862 164.623 90.1763 167.373 89.1563 170.103C88.6763 171.393 88.1962 172.693 88.0962 174.103V174.123ZM88.7463 69.6931C88.7463 69.5631 88.7763 69.4831 88.7463 69.4431C86.0963 65.3831 82.9662 61.8031 78.7962 59.2031C76.1462 57.5531 73.3462 56.2131 70.3562 55.3131C67.8162 54.5531 65.1862 54.2131 62.5762 53.7231C59.5462 53.1631 56.5662 52.3731 53.5262 51.9131C47.8262 51.0531 42.0962 50.5631 36.3262 50.6031C32.8062 50.6231 29.3162 50.7531 25.8762 51.4931C23.8962 51.9231 21.9463 52.4531 20.1963 53.5231C19.7463 53.8031 19.3562 53.9931 20.1862 54.3931C21.0762 54.8231 21.9762 55.2131 22.8862 55.5931C26.4662 57.1031 30.2462 57.8531 34.0762 58.1731C39.6262 58.6431 45.1162 59.6131 50.6862 59.9231C56.1662 60.2231 61.4162 62.0031 66.8662 62.5331C69.7363 62.8131 72.3662 63.9631 75.0563 64.9031C77.2262 65.6531 79.6462 65.6131 81.5863 67.0731C82.8763 68.0431 84.5363 68.1931 85.9663 68.9131C86.7863 69.3231 87.7362 69.7731 88.7662 69.7031L88.7463 69.6931ZM163.486 109.513C161.456 109.883 159.756 110.403 157.976 110.633C153.736 111.173 149.506 111.253 145.306 110.463C142.056 109.853 138.766 109.483 135.486 109.043C132.906 108.703 130.346 108.413 127.806 107.763C123.216 106.593 118.796 105.023 114.456 103.133C110.616 101.463 106.776 99.8031 102.406 99.4831C98.0363 99.1631 93.6762 98.8331 89.2962 98.7831C88.9262 98.7831 88.5363 98.7031 88.4663 99.2231C88.3963 99.7231 88.8162 99.7131 89.1062 99.8231C90.4862 100.383 91.9063 100.853 93.2463 101.513C95.2263 102.493 97.0562 103.753 98.9462 104.893C101.116 106.203 103.146 107.743 105.556 108.643C108.086 109.593 110.566 110.683 113.176 111.413C114.956 111.913 116.786 112.253 118.556 112.783C120.076 113.243 121.636 113.633 123.206 113.813C126.526 114.193 129.866 114.423 133.206 114.693C137.516 115.043 141.816 114.693 146.126 114.563C149.756 114.453 153.286 113.683 156.786 112.773C159.156 112.153 161.266 111.043 163.486 109.503V109.513Z" fill="currentColor"/>
<path d="M81.8262 233.633C81.4362 232.543 80.4562 231.983 79.6662 231.293C76.8762 228.893 73.6962 227.073 70.5262 225.233C66.4062 222.843 61.9862 221.023 57.9162 218.553C54.9862 216.773 51.7762 215.503 48.9162 213.613C46.7262 212.173 44.7262 210.503 42.7162 208.833C40.6262 207.093 38.3063 205.673 36.0563 204.153C34.0863 202.823 32.2162 201.383 30.5262 199.703C29.0362 198.213 27.5263 196.733 25.7863 195.513C23.7263 194.063 21.8963 192.333 20.3163 190.383C18.4963 188.143 16.4162 186.143 14.4162 184.073C13.7362 183.373 13.2162 182.563 12.7462 181.743C11.6062 179.763 10.4562 177.783 9.52625 175.703C8.57625 173.573 8.48625 171.203 8.12625 168.923C8.06625 168.553 8.19625 168.093 8.65625 168.123C9.16625 168.163 9.43625 168.553 9.43625 169.103C9.42625 170.363 9.53625 171.603 9.85625 172.833C10.6162 175.713 12.0163 178.283 13.5563 180.813C15.1763 183.473 17.6463 185.363 19.6163 187.703C20.2363 188.433 20.9062 189.123 21.5262 189.853C23.0062 191.603 24.7262 193.083 26.5163 194.513C28.3162 195.953 30.0763 197.473 31.7363 199.073C33.7063 200.983 35.8662 202.603 38.1662 204.063C41.0262 205.883 43.6962 207.923 46.2462 210.153C48.4762 212.113 51.0463 213.563 53.6763 214.883C55.8363 215.963 57.9763 217.093 60.0563 218.333C63.7463 220.553 67.7463 222.193 71.3963 224.463C75.0363 226.733 78.7363 228.953 81.7563 232.073C82.2363 232.563 82.7863 233.063 81.8463 233.633H81.8262Z" fill="currentColor"/>
</svg>
