<svg viewBox="0 0 210 268" fill="none" xmlns="http://www.w3.org/2000/svg">
<path d="M79.6571 208.938C79.2371 207.958 78.9071 207.018 78.677 206.058C78.327 204.618 77.997 203.178 77.827 201.688C77.677 200.308 77.297 198.968 77.107 197.588C76.817 195.458 76.2171 193.408 75.4371 191.408C74.9771 190.228 74.497 189.048 74.147 187.828C73.467 185.428 73.2371 183.028 73.8371 180.548C74.4471 178.038 75.307 175.638 76.607 173.418C77.497 171.898 78.5071 170.448 79.6271 169.078C80.9071 167.508 82.247 165.988 83.677 164.558C86.377 161.848 89.437 159.668 93.047 158.298C94.957 157.568 96.867 156.828 98.827 156.268C101.517 155.498 104.237 154.928 107.047 154.668C110.417 154.358 113.777 154.258 117.147 154.418C119.897 154.548 122.637 154.778 125.367 155.158C127.757 155.488 130.147 155.868 132.527 156.248C134.027 156.488 135.527 156.758 137.037 156.988C138.597 157.228 140.167 157.478 141.737 157.688C144.297 158.028 146.817 158.538 149.217 159.518C149.927 159.808 150.647 160.128 151.217 160.648C152.357 161.668 152.627 163.008 152.317 164.448C151.927 166.268 151.177 167.938 150.027 169.418C148.877 170.898 147.327 171.788 145.577 172.348C143.617 172.978 141.717 173.798 139.727 174.358C138.317 174.758 136.917 175.198 135.507 175.588C134.367 175.898 133.217 176.228 132.067 176.498C130.337 176.908 128.607 177.348 126.867 177.698C125.637 177.948 124.407 178.308 123.177 178.608C121.117 179.118 119.037 179.558 116.927 179.788C113.227 180.208 109.517 180.618 105.817 181.078C103.987 181.308 102.177 181.658 100.357 181.888C98.847 182.078 97.317 182.198 95.827 182.518C93.887 182.928 91.9771 183.448 90.1171 184.138C87.747 185.018 85.687 186.438 83.637 187.848C82.047 188.938 80.6671 190.308 79.5071 191.848C79.1571 192.318 78.9371 192.888 78.6871 193.428C78.5671 193.688 78.4771 193.938 78.1871 194.058C78.0471 194.118 77.9971 194.238 78.0371 194.398C78.3971 196.108 78.477 197.848 78.737 199.568C78.987 201.248 79.1771 202.938 79.4971 204.598C79.8271 206.278 80.307 207.938 80.957 209.548C81.377 210.588 81.8071 211.638 81.9971 212.768C82.0971 213.358 82.597 213.788 82.927 214.278C83.757 215.488 84.317 216.858 85.107 218.088C85.697 219.008 86.4271 219.808 87.0271 220.708C88.7671 223.308 90.8471 225.598 93.1171 227.728C93.8671 228.438 94.347 229.378 94.977 230.198C95.677 231.108 96.3371 232.038 97.0971 232.918C97.8571 233.798 98.4971 234.788 99.2871 235.658C100.887 237.408 102.297 239.328 104.097 240.898C104.337 241.108 104.297 241.528 104.747 241.628C104.667 240.778 104.377 240.018 104.157 239.238C103.827 238.088 103.147 237.088 102.727 235.968C101.857 233.668 101.337 231.298 101.257 228.838C101.177 226.428 101.727 224.118 102.357 221.808C103.047 219.258 103.957 216.788 104.857 214.308C105.197 213.388 105.687 212.548 106.157 211.708C106.307 211.438 106.557 211.158 106.917 211.248C107.267 211.338 107.467 211.638 107.547 211.988C107.967 213.828 108.177 215.698 108.307 217.568C108.427 219.308 108.487 221.038 108.517 222.788C108.557 225.658 108.447 228.518 108.057 231.368C107.787 233.328 107.277 235.248 107.017 237.208C106.807 238.778 106.357 240.318 106.417 241.928C106.417 242.048 106.417 242.208 106.347 242.268C105.787 242.768 106.207 243.038 106.547 243.398C108.267 245.248 110.137 246.958 111.947 248.718C114.667 251.348 117.387 253.998 120.167 256.568C122.107 258.358 124.167 260.008 126.207 261.678C127.377 262.628 128.477 263.688 129.717 264.528C130.787 265.248 131.677 266.148 132.647 266.968C132.777 267.078 132.937 267.198 132.877 267.418C132.807 267.658 132.567 267.608 132.397 267.698C131.707 268.028 131.267 267.668 130.757 267.258C129.417 266.168 128.007 265.168 126.667 264.078C125.227 262.898 123.877 261.608 122.407 260.468C120.577 259.048 118.837 257.518 117.177 255.918C115.867 254.668 114.567 253.388 113.347 252.038C111.927 250.468 110.237 249.158 108.657 247.748C107.287 246.528 105.927 245.278 104.697 243.918C103.997 243.148 103.947 243.098 102.997 243.518C102.197 243.878 101.457 244.328 100.687 244.728C98.8171 245.698 96.787 246.188 94.727 246.488C93.577 246.648 92.3871 246.548 91.2171 246.508C89.0571 246.428 86.887 246.378 84.767 245.938C81.447 245.248 78.0571 244.928 74.7571 244.158C73.3071 243.818 71.8771 243.478 70.5871 242.708C70.217 242.488 69.927 242.218 69.957 241.778C69.987 241.338 70.4071 241.248 70.7471 241.158C73.5471 240.408 76.297 239.488 79.137 238.928C80.787 238.598 82.4571 238.468 84.1271 238.338C85.8471 238.198 87.5571 238.098 89.2771 237.988C91.3271 237.858 93.3071 238.258 95.2571 238.828C97.4471 239.468 99.557 240.308 101.677 241.158C101.747 241.188 101.827 241.178 102.067 241.208C101.467 240.578 100.967 240.048 100.477 239.518C98.647 237.568 96.7471 235.678 94.9971 233.648C94.1671 232.688 93.3071 231.758 92.5371 230.748C91.6871 229.638 90.797 228.558 89.987 227.418C88.847 225.798 87.627 224.228 86.477 222.618C85.297 220.978 84.057 219.388 82.857 217.758C81.347 215.718 79.987 213.578 78.707 211.398C78.147 210.448 77.207 209.828 76.397 209.108C74.5571 207.478 72.5471 206.058 70.5871 204.578C69.937 204.088 69.2171 203.698 68.5371 203.258C68.4271 203.188 68.297 203.138 68.207 203.228C67.797 203.658 67.3571 203.468 66.8771 203.368C66.4471 203.268 66.0071 203.448 65.5971 203.578C63.2171 204.298 61.007 205.398 58.827 206.588C56.477 207.868 54.1471 209.218 51.5971 210.088C49.5671 210.778 47.487 211.278 45.427 211.858C44.377 212.148 43.3271 212.438 42.2771 212.728C39.6571 213.448 36.977 213.878 34.327 214.458C31.947 214.978 29.5971 215.628 27.2171 216.148C25.2071 216.578 23.187 216.998 21.117 217.168C18.537 217.378 15.957 217.328 13.387 217.138C11.117 216.978 8.85704 216.718 6.63704 216.128C4.79704 215.638 3.18706 214.768 1.65706 213.708C1.12706 213.338 0.677053 212.838 0.247053 212.348C-0.132947 211.908 -0.0629419 211.198 0.377058 210.708C1.45706 209.518 2.66703 208.468 3.94703 207.478C5.07703 206.598 6.18705 205.708 7.33705 204.858C9.15705 203.528 11.027 202.248 12.927 201.018C16.067 198.978 19.177 196.878 22.517 195.178C24.067 194.388 25.617 193.568 27.237 192.938C29.227 192.168 31.2171 191.388 33.2771 190.798C35.4271 190.188 37.5871 189.738 39.8171 189.698C41.6671 189.668 43.497 189.888 45.297 190.298C47.097 190.708 48.8971 191.108 50.6571 191.668C52.2971 192.188 53.937 192.738 55.517 193.448C57.067 194.138 58.6171 194.868 60.1871 195.518C62.5771 196.508 64.6971 197.898 66.5371 199.728C67.3271 200.508 68.097 201.328 68.987 201.968C70.227 202.848 71.377 203.838 72.577 204.768C74.067 205.918 75.537 207.088 77.017 208.298C76.727 207.758 76.4471 207.218 76.1571 206.678C75.1171 204.788 74.0871 202.888 73.0271 201.008C72.4271 199.938 71.717 198.928 71.137 197.848C69.847 195.438 68.4971 193.068 67.5071 190.508C66.8471 188.808 66.107 187.148 65.417 185.468C64.687 183.708 63.9571 181.948 63.2571 180.178C62.7171 178.788 62.207 177.378 61.727 175.958C61.297 174.678 60.827 173.408 59.447 172.878C57.897 172.278 56.327 171.738 54.607 171.878C53.297 171.978 51.9971 171.828 50.7171 171.498C49.4071 171.168 48.107 170.828 46.797 170.518C45.707 170.268 44.677 169.858 43.697 169.358C42.267 168.618 40.767 168.178 39.177 168.008C37.287 167.798 35.6871 167.048 34.4371 165.578C32.9571 163.818 31.237 162.278 29.727 160.548C28.827 159.518 28.1471 158.318 27.4071 157.168C27.2071 156.848 26.9971 156.538 26.7471 156.258C26.0771 155.528 26.257 154.758 27.207 154.388C28.927 153.718 30.7071 153.538 32.5271 153.748C35.5271 154.108 38.4771 154.738 41.3371 155.698C42.937 156.228 44.4271 157.028 45.8371 157.968C47.4571 159.048 49.087 160.108 50.697 161.198C52.687 162.548 54.5571 164.038 56.3171 165.678C57.3471 166.638 58.357 167.608 59.297 168.658C59.487 168.878 59.577 169.188 59.8671 169.318C59.9971 169.178 59.927 169.038 59.897 168.918C59.237 166.078 58.587 163.238 57.897 160.408C57.497 158.768 57.1571 157.118 56.9671 155.438C56.8771 154.668 56.3971 154.038 56.0371 153.388C55.3671 152.178 54.8171 150.928 54.5271 149.588C54.1671 147.918 53.4671 146.388 52.7871 144.848C52.2571 143.658 51.9771 142.398 51.6871 141.148C51.2571 139.278 50.827 137.398 50.667 135.468C50.567 134.238 50.637 133.008 50.917 131.798C51.607 128.848 51.9771 125.858 52.1871 122.848C52.3371 120.738 52.147 118.648 52.107 116.548C52.107 116.238 51.917 116.228 51.737 116.208C50.217 116.018 48.8971 115.288 47.5371 114.648C46.1571 113.998 44.867 113.178 43.517 112.458C41.357 111.318 39.0271 110.588 36.8771 109.448C35.4371 108.688 34.0871 107.758 32.8071 106.738C31.7671 105.908 30.667 105.168 29.647 104.328C27.967 102.948 26.397 101.468 25.167 99.6182C23.897 97.7082 22.8271 95.7082 21.9071 93.6282C20.8771 91.2982 20.1771 88.8682 19.8071 86.3382C19.5671 84.6482 19.377 82.9582 19.237 81.2582C18.997 78.3582 18.7371 75.4582 18.0971 72.5982C17.7871 71.2282 17.687 69.8182 17.647 68.4082C17.627 67.9182 17.937 67.7282 18.427 67.8482C20.107 68.2682 21.377 69.3582 22.617 70.4582C24.157 71.8182 25.787 73.0582 27.327 74.4182C28.467 75.4282 29.537 76.5182 30.517 77.6982C31.287 78.6282 32.197 79.3782 33.177 80.0482C34.867 81.1882 36.3771 82.4882 37.5371 84.1882C38.4471 85.5182 39.6271 86.6182 40.8171 87.7082C41.5871 88.4082 42.1471 89.2582 42.6271 90.1882C43.4771 91.7982 44.2371 93.4482 45.4071 94.8782C46.0271 95.6382 46.4071 96.5482 46.7871 97.4282C47.3871 98.8582 48.287 100.118 48.947 101.508C49.437 102.538 49.7071 103.678 50.147 104.738C50.807 106.338 51.0371 108.058 51.5571 109.698C52.0271 111.198 52.417 112.708 52.547 114.278C52.557 114.418 52.577 114.578 52.647 114.678C53.6171 116.018 53.247 117.578 53.327 119.048C53.407 120.568 53.137 122.088 53.137 123.708C53.587 123.088 53.747 122.418 54.017 121.808C54.777 120.098 55.7871 118.528 56.8471 116.998C57.4471 116.138 57.937 115.258 58.137 114.128C58.457 112.348 58.817 110.558 59.357 108.808C60.167 106.188 61.0771 103.618 61.9671 101.028C62.7371 98.7782 63.627 96.5682 64.357 94.3082C65.357 91.2382 66.7771 88.3482 68.2171 85.4782C69.0471 83.8282 69.997 82.2482 70.8671 80.6182C71.5171 79.4082 71.997 78.1282 72.457 76.8382C72.757 75.9782 72.9871 75.0982 73.2871 74.2382C73.7771 72.8282 73.6571 71.4282 73.3071 70.0282C73.2671 69.8682 73.157 69.7582 73.017 69.6682C72.057 69.0482 71.067 68.4982 69.917 68.3582C67.697 68.0782 65.537 67.5582 63.417 66.8482C62.257 66.4582 61.0171 66.3182 59.8371 65.9982C57.847 65.4682 55.807 65.1482 53.857 64.4782C52.357 63.9682 50.8271 63.4982 49.4371 62.7382C48.3271 62.1282 47.257 61.4382 46.107 60.9082C45.167 60.4782 44.217 60.0582 43.357 59.4982C42.167 58.7182 41.0371 57.8482 39.8771 57.0182C39.0471 56.4182 38.2271 55.7982 37.3771 55.2082C36.0771 54.2982 35.0671 53.1182 34.1271 51.8682C33.2471 50.6982 32.4971 49.4382 31.7171 48.1882C30.7471 46.6282 30.067 44.9482 29.457 43.2282C28.997 41.9382 28.6471 40.6082 28.0971 39.3582C27.5671 38.1582 27.227 36.8982 26.697 35.7182C25.707 33.5082 25.067 31.1782 24.267 28.9082C24.147 28.5682 23.9871 28.2482 23.8171 27.9382C23.6771 27.6782 23.4571 27.4182 23.6871 27.1282C23.9471 26.7882 24.2471 26.5282 24.7471 26.6482C25.7771 26.9082 26.827 27.1382 27.857 27.3882C29.917 27.8882 31.997 28.3282 34.017 28.9482C36.147 29.5982 38.1971 30.4282 40.2571 31.2682C42.1171 32.0182 44.0371 32.5782 45.9971 33.0082C47.9371 33.4282 49.827 34.0382 51.647 34.8582C53.237 35.5782 54.8671 36.1982 56.4671 36.8882C58.1471 37.6082 59.717 38.5182 61.107 39.7282C62.507 40.9282 63.907 42.1182 65.207 43.4182C65.977 44.1782 66.7771 44.9082 67.4971 45.7282C68.0171 46.3182 68.587 46.8682 69.077 47.4882C70.127 48.7882 70.937 50.2082 71.397 51.8382C72.097 54.2982 72.447 56.7982 72.697 59.3282C72.827 60.6882 73.437 61.9582 73.8071 63.2682C74.1271 64.4082 74.477 65.5682 74.547 66.7582C74.597 67.6482 74.547 68.5582 74.727 69.4382C74.907 70.2882 75.1071 71.1282 75.2471 72.1382C75.5871 71.5982 75.8671 71.1882 76.1271 70.7482C77.3671 68.6582 78.8371 66.7382 80.2871 64.8082C81.9071 62.6482 83.6371 60.5782 85.3471 58.4982C86.7471 56.7882 88.117 55.0382 89.577 53.3782C91.087 51.6682 92.7071 50.0682 94.3771 48.4982C95.2571 47.6682 96.1771 46.8882 97.0571 46.0582C97.6571 45.4882 98.097 44.8182 98.517 44.1182C99.677 42.2182 100.967 40.4182 102.327 38.6682C102.947 37.8682 103.027 36.9682 103.027 36.0382C103.027 34.9182 102.747 33.8382 102.647 32.7282C102.537 31.6382 102.447 30.5582 102.427 29.4682C102.407 28.0582 102.297 26.6582 102.447 25.2482C102.617 23.5882 102.947 21.9582 103.517 20.3882C104.087 18.8282 104.757 17.2982 105.547 15.8282C106.247 14.5182 107.097 13.2982 107.987 12.0982C109.737 9.7382 111.517 7.40821 112.967 4.83821C113.207 4.40821 113.447 3.92821 113.947 3.67821C114.337 3.47821 114.557 3.53821 114.747 3.93821C115.047 4.55821 115.027 5.22821 115.037 5.86821C115.087 7.80821 115.297 9.74821 115.167 11.6882C114.947 15.0482 114.847 18.4182 114.257 21.7582C113.797 24.3982 112.727 26.7782 111.367 29.0482C110.157 31.0682 108.897 33.0682 107.577 35.0082C106.757 36.2182 105.937 37.4482 104.827 38.4282C104.587 38.6382 104.347 38.8582 103.987 38.7582C103.837 38.7082 103.717 38.7582 103.617 38.8782C102.397 40.3482 101.167 41.8282 99.947 43.2982C99.987 43.3382 100.037 43.3882 100.077 43.4282C100.507 43.0582 100.947 42.6982 101.367 42.3082C103.607 40.2482 105.937 38.3182 108.447 36.5882C111.937 34.1882 115.637 32.1682 119.467 30.3582C121.777 29.2582 124.117 28.2282 126.497 27.2982C127.247 27.0082 127.977 26.6182 128.707 26.3782C129.457 26.1282 129.607 25.6382 129.877 25.1182C130.437 24.0382 131.237 23.1182 131.937 22.1382C132.817 20.9182 133.617 19.6482 134.347 18.3282C135.287 16.6482 135.957 14.8382 136.897 13.1582C138.347 10.5982 140.337 8.6382 143.047 7.4182C145.387 6.3782 147.907 5.96821 150.337 5.25821C151.767 4.83821 153.167 4.31821 154.597 3.95821C157.557 3.20821 160.417 2.12821 163.387 1.42821C164.877 1.06821 166.407 0.968205 167.917 0.778205C170.137 0.498205 172.357 0.218209 174.597 0.118209C176.877 0.00820878 179.167 -0.0717955 181.437 0.0982045C183.767 0.268205 186.047 0.738211 188.257 1.62821C190.217 2.41821 192.277 2.93821 194.357 3.35821C197.057 3.90821 199.687 4.75821 202.347 5.48821C203.647 5.83821 204.977 6.05821 206.307 6.24821C206.937 6.33821 207.547 6.53821 208.187 6.55821C208.717 6.57821 208.887 7.05821 209.057 7.42821C209.207 7.74821 208.907 7.9682 208.687 8.1682C207.897 8.9182 207.107 9.6582 206.317 10.4182C205.457 11.2482 204.757 12.2182 204.017 13.1482C203.037 14.3782 201.997 15.5482 200.927 16.6882C200.167 17.4982 199.517 18.3982 198.797 19.2482C197.717 20.5282 196.397 21.5482 195.157 22.6582C193.147 24.4682 190.587 25.0682 188.227 26.1282C186.287 26.9982 184.347 27.8482 182.397 28.6882C181.627 29.0182 180.867 29.3582 180.067 29.6082C178.667 30.0282 177.277 30.4582 175.837 30.7282C173.477 31.1782 171.137 31.7482 168.757 32.0382C166.757 32.2882 164.737 32.3882 162.727 32.6182C161.237 32.7982 159.747 33.0782 158.247 33.1782C155.847 33.3382 153.447 33.3482 151.047 33.3182C149.197 33.2882 147.387 33.0182 145.567 32.6782C143.807 32.3482 142.117 31.7882 140.397 31.3582C138.377 30.8482 136.377 30.2782 134.367 29.7582C133.037 29.4182 131.867 28.6682 130.617 28.1082C130.087 27.8682 129.637 27.6882 128.977 28.0282C127.397 28.8482 125.697 29.4382 124.017 30.0282C122.587 30.5282 121.247 31.2182 119.917 31.9382C118.317 32.8082 116.717 33.7082 115.167 34.6582C113.747 35.5282 112.377 36.4682 111.007 37.4082C109.947 38.1382 108.907 38.8982 107.877 39.6682C106.317 40.8282 104.847 42.1082 103.367 43.3682C102.327 44.2582 101.277 45.1382 100.227 46.0182C97.897 47.9582 95.617 49.9582 93.547 52.1982C91.417 54.4982 89.347 56.8482 87.447 59.3482C87.127 59.7682 86.637 60.0482 86.457 60.6682C86.887 60.5282 87.1571 60.2582 87.4671 60.0682C90.2071 58.4382 93.077 57.1382 96.227 56.4682C98.267 56.0382 99.9471 54.8682 101.567 53.5782C103.317 52.1882 105.087 50.8182 107.027 49.6682C108.097 49.0282 109.207 48.4582 110.317 47.9082C111.417 47.3682 112.577 46.9582 113.737 46.5482C116.217 45.6882 118.757 45.0582 121.337 44.5982C123.147 44.2782 124.957 43.9782 126.777 43.7482C128.877 43.4782 130.997 43.2982 133.107 43.1882C135.207 43.0682 137.317 43.0982 139.417 43.2982C142.257 43.5782 145.077 43.9882 147.877 44.5482C150.407 45.0582 152.877 45.7582 155.297 46.6782C157.037 47.3482 158.737 48.1082 160.447 48.8282C163.237 50.0182 166.057 51.1482 168.747 52.5682C170.737 53.6182 172.717 54.6982 174.747 55.6582C176.557 56.5082 178.407 57.2582 180.297 57.9182C182.237 58.6082 184.187 59.2782 186.057 60.1682C186.837 60.5382 187.067 61.3082 186.657 62.0582C185.867 63.5082 184.657 64.6282 183.557 65.8182C182.387 67.0782 181.157 68.2982 179.777 69.3282C178.377 70.3682 176.787 71.0382 175.047 71.2882C172.907 71.5882 170.767 71.8482 168.617 72.1082C167.117 72.2882 165.607 72.2482 164.097 72.2882C162.787 72.3182 161.487 72.3782 160.177 72.3482C157.617 72.2882 155.057 72.3482 152.507 71.9682C150.187 71.6282 147.857 71.3582 145.577 70.8282C144.297 70.5282 142.997 70.3082 141.747 69.8182C141.157 69.5882 140.447 69.5182 139.817 69.3082C137.947 68.6982 136.017 68.3682 134.137 67.8382C132.657 67.4282 131.117 67.2682 129.667 66.7382C127.997 66.1182 126.287 65.6182 124.607 65.0282C123.347 64.5882 122.027 64.2382 120.737 63.8382C119.387 63.4182 118.117 62.8182 116.867 62.1582C115.567 61.4782 114.207 60.9382 112.847 60.3882C111.857 59.9882 110.927 59.4482 109.917 59.0782C108.057 58.3982 106.187 57.7782 104.257 57.3282C103.637 57.1882 103.017 57.0782 102.387 56.9982C101.347 56.8682 100.377 57.2382 99.417 57.5082C97.137 58.1682 94.8771 58.9282 92.6571 59.7782C90.5071 60.5982 88.367 61.4482 86.197 62.1982C85.197 62.5382 84.507 63.4382 83.8071 64.2182C83.1371 64.9582 82.4271 65.7082 82.1571 66.7282C82.0671 67.0782 81.6071 66.9982 81.4071 67.3182C80.5571 68.6782 79.6271 69.9882 78.7571 71.3282C77.7371 72.9082 76.697 74.4882 75.737 76.0982C74.647 77.9182 73.5971 79.7682 72.5971 81.6282C71.3471 83.9382 70.157 86.2882 68.957 88.6282C67.897 90.6882 67.027 92.8382 66.137 94.9682C65.137 97.3682 64.3471 99.8482 63.5571 102.318C62.7171 104.938 62.0571 107.628 61.3171 110.278C61.1371 110.908 60.947 111.528 60.737 112.228C61.217 112.088 61.5171 111.728 61.7871 111.458C63.6271 109.538 65.8671 108.178 68.1271 106.858C70.5471 105.438 73.087 104.268 75.727 103.298C77.107 102.798 78.5171 102.398 79.9371 102.038C81.0271 101.758 82.097 101.368 83.197 101.118C84.507 100.808 85.8371 100.578 87.1571 100.338C87.4671 100.278 87.657 100.168 87.887 99.9282C89.887 97.8382 92.177 96.1482 94.897 95.1182C97.817 94.0082 100.867 93.3782 103.977 93.0482C109.097 92.4982 114.237 92.3882 119.377 92.4982C123.267 92.5782 127.157 92.8182 130.977 93.5882C132.887 93.9682 134.767 94.4782 136.637 94.9882C138.517 95.4882 140.417 95.8882 142.277 96.4482C143.357 96.7682 144.457 97.0482 145.537 97.3482C146.687 97.6582 147.867 97.9682 149.037 98.2182C150.357 98.5082 151.667 98.8082 152.977 99.1382C155.337 99.7382 157.727 100.228 160.137 100.618C162.837 101.058 165.537 101.488 168.237 101.878C169.727 102.088 171.237 102.198 172.727 102.378C173.527 102.478 174.357 102.548 175.127 102.778C176.077 103.058 176.437 103.618 175.947 104.558C175.167 106.018 174.007 107.158 172.927 108.348C171.517 109.908 170.127 111.498 168.487 112.828C167.607 113.538 166.657 114.128 165.707 114.738C164.517 115.498 163.267 116.118 162.027 116.768C160.147 117.748 158.227 118.648 156.247 119.418C153.547 120.478 150.767 121.278 147.977 122.028C145.187 122.788 142.357 123.358 139.467 123.648C137.867 123.808 136.287 124.088 134.687 124.188C132.987 124.288 131.297 124.468 129.597 124.548C128.017 124.618 126.427 124.708 124.847 124.688C122.647 124.648 120.447 124.538 118.247 124.358C114.967 124.098 111.817 123.298 108.677 122.358C106.967 121.848 105.217 121.488 103.487 121.008C101.337 120.418 99.2971 119.568 97.427 118.308C96.037 117.368 94.5471 116.578 93.177 115.608C91.967 114.748 90.747 113.878 89.797 112.678C89.217 111.958 88.507 111.318 88.017 110.538C86.977 108.878 86.237 107.088 86.107 105.088C86.057 104.208 86.077 103.348 86.3371 102.498C86.4071 102.258 86.567 102.088 86.727 101.908C86.787 101.838 86.877 101.748 86.827 101.648C86.757 101.518 86.6171 101.548 86.5071 101.578C84.9471 101.978 83.367 102.268 81.827 102.718C79.187 103.498 76.517 104.188 73.987 105.328C71.867 106.278 69.7871 107.308 67.8071 108.528C65.9471 109.678 64.2271 111.018 62.6571 112.538C62.1871 112.988 61.737 113.478 61.227 113.858C59.737 114.968 59.6771 116.668 59.3371 118.248C58.9971 119.858 58.697 121.478 58.457 123.108C58.227 124.698 58.057 126.298 57.957 127.898C57.807 130.338 57.7071 132.778 57.6571 135.218C57.6071 137.638 57.657 140.058 57.637 142.488C57.617 144.548 57.667 146.618 57.857 148.668C58.077 151.058 58.317 153.428 58.697 155.808C58.997 157.638 59.237 159.488 59.577 161.318C59.877 162.958 60.377 164.548 60.727 166.168C60.927 167.078 60.9971 168.008 61.3171 168.898C61.9171 170.558 62.2371 172.298 62.8171 173.968C63.2971 175.338 63.647 176.738 64.147 178.098C64.667 179.508 65.2771 180.888 65.8671 182.268C66.507 183.758 67.007 185.308 67.727 186.768C68.107 187.538 68.477 188.318 68.797 189.138C69.867 191.908 71.137 194.608 72.637 197.168C73.947 199.408 74.9471 201.808 76.397 203.978C77.357 205.398 78.1271 206.958 78.9971 208.448C79.1271 208.668 79.3071 208.838 79.5871 209.028L79.6571 208.938ZM103.527 55.5582C103.707 55.6382 103.787 55.6982 103.877 55.7182C106.557 56.1482 109.117 57.0482 111.607 58.0782C114.277 59.1882 116.897 60.4282 119.537 61.6082C122.657 62.9882 125.987 63.8182 129.227 64.8782C131.257 65.5382 133.347 66.0282 135.457 66.4582C137.707 66.9082 139.887 67.6682 142.097 68.2882C144.427 68.9482 146.777 69.4882 149.167 69.9082C152.017 70.4082 154.897 70.7282 157.797 70.8182C160.077 70.8882 162.347 70.8682 164.627 70.8382C165.917 70.8182 167.217 70.8782 168.487 70.7382C170.297 70.5282 172.117 70.3782 173.927 70.1482C175.947 69.8982 177.857 69.3782 179.497 68.0882C180.627 67.1982 181.627 66.1782 182.657 65.1982C183.747 64.1482 184.737 63.0182 185.667 61.8282C185.947 61.4682 185.957 61.1482 185.447 60.9482C185.037 60.7882 184.667 60.5682 184.257 60.4082C182.017 59.5782 179.727 58.8382 177.527 57.9082C175.117 56.8982 172.737 55.8282 170.427 54.5782C168.497 53.5382 166.547 52.5282 164.507 51.6882C163.137 51.1182 161.797 50.4782 160.427 49.9082C158.677 49.1682 156.917 48.4682 155.167 47.7382C153.367 46.9982 151.507 46.4282 149.617 46.0082C146.777 45.3682 143.907 44.8682 141.007 44.5482C139.447 44.3782 137.877 44.1982 136.317 44.1982C133.757 44.1882 131.197 44.3682 128.647 44.6382C125.307 44.9882 121.997 45.5382 118.717 46.2982C116.317 46.8482 113.967 47.5782 111.687 48.5082C110.677 48.9182 109.677 49.3682 108.737 49.9082C106.427 51.2582 104.257 52.8282 102.167 54.5082C101.757 54.8382 101.227 55.0282 100.947 55.5382C101.287 55.6482 101.507 55.4582 101.737 55.3182C103.377 54.3382 105.167 53.7782 107.027 53.4482C108.987 53.1082 110.967 53.0382 112.947 52.9382C116.947 52.7382 120.957 52.4682 124.947 53.0482C126.947 53.3382 128.967 53.4882 130.947 53.8682C132.507 54.1682 134.017 54.6582 135.547 55.0482C137.657 55.5882 139.797 56.0082 141.877 56.6482C144.697 57.5182 147.567 58.2082 150.397 59.0582C152.337 59.6382 154.337 59.9982 156.317 60.3882C157.867 60.6982 159.377 61.2082 160.947 61.4882C163.797 61.9982 166.657 62.3182 169.547 62.5082C171.537 62.6382 173.547 62.6482 175.547 62.5682C177.087 62.5182 178.617 62.2582 180.167 62.2682C181.357 62.2682 182.537 62.1082 183.627 61.5782C183.907 61.4482 184.207 61.4582 184.507 61.4582C184.677 61.4582 184.907 61.4182 184.947 61.6482C184.987 61.9082 184.767 61.9882 184.567 62.0182C183.107 62.2682 181.717 62.7682 180.187 62.8182C177.097 62.9182 174.017 63.2182 170.917 63.0882C168.397 62.9782 165.907 62.6082 163.407 62.3382C161.697 62.1482 160.017 61.7982 158.357 61.3482C156.847 60.9382 155.307 60.6882 153.777 60.3882C151.337 59.9282 149.047 58.9582 146.627 58.4382C144.907 58.0682 143.227 57.4882 141.527 57.0182C139.367 56.4282 137.157 55.9982 135.027 55.3182C131.517 54.1982 127.877 53.8982 124.277 53.3882C122.357 53.1182 120.417 53.1582 118.477 53.2282C114.947 53.3582 111.427 53.5082 107.927 54.0682C106.417 54.3082 104.957 54.7282 103.537 55.5482L103.527 55.5582ZM66.607 201.578C66.387 201.398 66.2071 201.248 66.0271 201.088C65.1471 200.288 64.2971 199.448 63.3771 198.698C62.0171 197.588 60.3471 196.978 58.7871 196.258C57.4171 195.628 56.0671 194.928 54.6271 194.438C53.6371 194.108 52.727 193.588 51.707 193.308C49.107 192.588 46.5371 191.778 43.8771 191.268C41.9771 190.898 40.067 190.738 38.147 190.918C35.687 191.148 33.3271 191.878 30.9971 192.628C29.0471 193.248 27.147 194.088 25.267 194.918C22.737 196.038 20.3771 197.458 18.0071 198.848C14.8571 200.688 11.8571 202.758 8.84706 204.818C6.15706 206.658 3.59705 208.658 1.21705 210.878C0.607054 211.448 0.557057 211.878 1.15706 212.418C2.23706 213.398 3.47706 214.138 4.78706 214.748C6.67706 215.638 8.70706 215.988 10.7571 216.218C13.1471 216.488 15.537 216.578 17.947 216.568C20.637 216.568 23.287 216.208 25.897 215.598C28.557 214.978 31.2071 214.288 33.8671 213.678C35.7771 213.238 37.7071 212.868 39.6271 212.448C41.9571 211.938 44.227 211.238 46.517 210.588C47.987 210.168 49.4571 209.758 50.9071 209.268C53.3671 208.438 55.5871 207.118 57.8671 205.898C59.787 204.868 61.7271 203.858 63.7571 203.068C64.4271 202.808 65.1071 202.578 65.8071 202.318C65.5971 202.128 65.387 202.168 65.197 202.158C63.447 202.088 61.7171 202.338 59.9971 202.648C58.3571 202.938 56.757 203.408 55.167 203.898C52.897 204.588 50.547 204.808 48.237 205.278C46.797 205.568 45.387 205.978 43.987 206.428C42.097 207.048 40.2171 207.648 38.2471 207.968C36.5571 208.248 34.827 208.408 33.167 208.818C30.847 209.398 28.577 210.178 26.267 210.828C24.797 211.238 23.3071 211.608 21.7871 211.778C18.5371 212.148 15.2771 212.398 12.0371 212.838C8.55706 213.308 5.19704 212.738 1.76704 211.968C2.70704 211.778 3.56705 212.048 4.42705 212.208C6.63705 212.618 8.85704 212.788 11.107 212.538C13.707 212.248 16.307 211.928 18.917 211.678C21.567 211.428 24.177 211.028 26.727 210.208C29.587 209.288 32.457 208.308 35.447 207.918C38.117 207.568 40.7071 206.988 43.2471 206.118C45.3471 205.398 47.4871 204.778 49.6871 204.438C51.1771 204.208 52.6771 203.998 54.1171 203.568C55.9471 203.038 57.7471 202.428 59.6171 202.038C61.9071 201.548 64.2271 201.328 66.6271 201.568L66.607 201.578ZM150.677 110.718C152.037 110.608 153.397 110.488 154.757 110.348C158.067 109.988 161.367 109.638 164.587 108.708C167.347 107.908 170.137 107.208 172.737 105.928C173.487 105.558 174.347 105.388 174.857 104.588C175.347 103.828 175.317 103.648 174.437 103.548C172.547 103.338 170.647 103.218 168.777 102.918C166.707 102.578 164.627 102.328 162.557 101.968C160.527 101.618 158.497 101.328 156.477 100.908C154.147 100.428 151.847 99.8682 149.547 99.2882C147.787 98.8482 146.017 98.3882 144.257 97.9382C142.757 97.5482 141.277 97.1082 139.767 96.7782C137.747 96.3282 135.767 95.7682 133.767 95.2782C131.847 94.8082 129.897 94.4382 127.937 94.1482C125.827 93.8382 123.707 93.7682 121.587 93.6482C118.967 93.4982 116.347 93.5082 113.727 93.5482C111.567 93.5782 109.407 93.6082 107.247 93.8082C105.827 93.9482 104.377 93.9482 102.977 94.1982C101.087 94.5382 99.207 94.9282 97.357 95.4482C94.557 96.2382 92.047 97.5182 89.887 99.4582C89.597 99.7182 89.067 99.8982 89.417 100.488C89.447 100.538 89.3771 100.688 89.3071 100.738C89.0171 100.988 89.227 101.048 89.447 101.098C91.667 101.588 93.7371 102.508 95.8171 103.368C97.9071 104.238 100.047 104.958 102.247 105.428C104.907 105.988 107.537 106.628 110.157 107.338C111.857 107.798 113.567 108.228 115.317 108.438C117.577 108.708 119.847 108.918 122.097 109.258C124.837 109.678 127.567 110.068 130.337 110.188C132.637 110.288 134.927 110.378 137.217 110.578C139.647 110.788 142.087 110.808 144.517 110.828C146.577 110.838 148.637 110.908 150.687 110.728L150.677 110.718ZM173.577 106.068C172.297 106.598 171.167 107.118 170.007 107.538C168.127 108.208 166.177 108.678 164.237 109.188C161.927 109.788 159.597 110.188 157.237 110.468C153.797 110.888 150.357 111.188 146.877 111.188C143.567 111.188 140.257 111.188 136.957 110.938C134.707 110.768 132.457 110.668 130.207 110.528C128.347 110.418 126.477 110.318 124.647 109.978C122.327 109.548 119.987 109.278 117.647 109.088C114.907 108.878 112.247 108.348 109.617 107.598C107.927 107.118 106.237 106.638 104.507 106.288C103.187 106.028 101.877 105.748 100.577 105.438C97.887 104.798 95.4471 103.478 92.8471 102.598C91.4571 102.128 90.1171 101.498 88.6171 101.438C88.2371 101.428 87.647 101.218 87.957 102.038C88.017 102.198 87.8571 102.448 87.7871 102.658C87.7271 102.848 87.637 103.038 87.6171 103.228C87.497 104.918 87.7571 106.538 88.4671 108.098C89.1271 109.528 90.1171 110.718 91.1571 111.848C91.7871 112.538 92.4071 113.268 93.2171 113.808C94.2771 114.518 95.337 115.218 96.447 115.858C97.517 116.488 98.547 117.198 99.637 117.798C101.067 118.588 102.577 119.178 104.157 119.588C106.057 120.078 107.977 120.498 109.837 121.118C114.177 122.558 118.637 123.158 123.187 123.258C125.687 123.308 128.187 123.298 130.677 123.178C133.077 123.058 135.457 122.738 137.847 122.568C138.967 122.488 140.117 122.338 141.247 122.128C142.487 121.888 143.757 121.768 144.987 121.468C146.857 121.008 148.727 120.568 150.577 120.048C152.307 119.558 154.057 119.078 155.727 118.428C158.107 117.498 160.437 116.448 162.687 115.228C164.937 114.008 167.167 112.778 169.037 110.978C170.227 109.838 171.297 108.598 172.427 107.398C172.787 107.018 173.247 106.708 173.547 106.058L173.577 106.068ZM77.1171 191.418C77.467 190.298 77.7671 189.198 78.147 188.118C78.847 186.088 79.7471 184.178 81.1271 182.488C82.3371 181.018 83.7271 179.778 85.2571 178.668C88.6471 176.208 92.237 174.158 96.267 172.898C99.357 171.938 102.467 171.098 105.627 170.428C107.817 169.958 110.057 169.758 112.257 169.318C114.167 168.938 116.067 168.528 117.997 168.288C119.467 168.108 120.947 167.938 122.397 167.678C124.737 167.258 127.067 166.738 129.437 166.508C131.247 166.328 133.047 166.108 134.847 165.828C136.517 165.568 138.187 165.358 139.867 165.228C142.197 165.058 144.527 164.878 146.797 164.278C148.067 163.948 149.317 163.568 150.437 162.858C151.367 162.268 151.347 161.858 150.417 161.228C150.397 161.218 150.387 161.208 150.367 161.198C149.017 160.408 147.547 159.928 146.037 159.568C144.877 159.298 143.707 159.098 142.537 158.908C140.137 158.518 137.727 158.148 135.317 157.788C133.147 157.468 130.977 157.048 128.797 156.788C127.087 156.588 125.397 156.178 123.687 156.038C121.497 155.858 119.307 155.628 117.097 155.578C114.707 155.528 112.327 155.488 109.947 155.628C106.357 155.838 102.807 156.338 99.3671 157.428C96.2671 158.408 93.197 159.478 90.327 161.058C87.677 162.508 85.507 164.538 83.487 166.738C82.377 167.948 81.307 169.198 80.297 170.498C79.627 171.358 78.9671 172.238 78.4071 173.168C77.0971 175.348 76.117 177.688 75.447 180.148C75.007 181.758 74.7971 183.398 75.0571 185.038C75.2871 186.508 75.7071 187.938 76.2571 189.328C76.5271 190.018 76.607 190.788 77.107 191.408L77.1171 191.418ZM131.037 26.1382C132.537 25.5982 133.927 25.1282 135.287 24.5982C137.277 23.8182 139.277 23.0482 141.297 22.3582C143.357 21.6482 145.417 20.9282 147.487 20.2582C149.217 19.6982 150.937 19.0782 152.717 18.6282C154.337 18.2182 155.987 17.9982 157.627 17.6882C159.087 17.4082 160.527 17.0482 161.967 16.6982C164.167 16.1582 166.417 15.9482 168.657 15.6582C171.847 15.2482 175.047 14.9382 178.217 14.4382C180.407 14.0882 182.597 13.6782 184.777 13.2682C186.777 12.8882 188.767 12.4282 190.787 12.1282C192.757 11.8482 194.737 11.6282 196.677 11.2282C199.297 10.6882 201.897 10.0182 204.487 9.3482C205.487 9.0882 206.547 8.85821 207.267 7.97821C207.357 7.87821 207.487 7.74821 207.477 7.63821C207.477 7.45821 207.277 7.50821 207.147 7.48821C204.967 7.11821 202.777 6.76821 200.667 6.08821C198.327 5.33821 195.977 4.65821 193.607 4.01821C192.667 3.76821 191.717 3.58821 190.797 3.24821C188.937 2.56821 187.127 1.73821 185.187 1.30821C183.977 1.03821 182.747 0.708204 181.517 0.668204C179.317 0.598204 177.107 0.66821 174.907 0.76821C172.467 0.86821 170.047 1.15821 167.637 1.51821C166.677 1.66821 165.697 1.68821 164.737 1.86821C162.887 2.21821 161.077 2.7682 159.287 3.3482C156.517 4.2382 153.737 5.09821 150.967 5.98821C149.057 6.59821 147.107 7.0582 145.207 7.6682C142.997 8.3682 141.157 9.59821 139.637 11.2882C138.367 12.6982 137.547 14.4182 136.717 16.1082C136.057 17.4582 135.387 18.8082 134.557 20.0782C134.077 20.8082 133.617 21.5582 132.987 22.1682C132.477 22.6482 132.587 23.3482 132.257 23.8882C131.837 24.5782 131.477 25.2982 131.027 26.1282L131.037 26.1382ZM130.967 26.8982C132.147 27.4882 133.137 28.1382 134.257 28.4682C137.387 29.3782 140.527 30.2782 143.687 31.1082C145.747 31.6482 147.847 32.0382 149.997 32.1482C152.607 32.2882 155.197 32.1782 157.797 32.0482C159.897 31.9382 161.977 31.5982 164.067 31.3282C166.097 31.0682 168.147 31.0282 170.157 30.6182C171.967 30.2482 173.757 29.7782 175.577 29.4882C178.427 29.0282 181.047 27.9282 183.667 26.7882C185.647 25.9282 187.597 24.9982 189.627 24.2382C191.627 23.4882 193.547 22.6382 195.177 21.1182C196.877 19.5282 198.457 17.8582 199.987 16.1082C201.787 14.0482 203.477 11.9082 205.347 9.74821C203.817 10.1482 202.397 10.5182 200.977 10.8982C199.157 11.3882 197.347 11.9082 195.487 12.2082C192.847 12.6282 190.187 12.9282 187.567 13.4382C185.707 13.7982 183.827 14.1182 181.967 14.4782C180.097 14.8382 178.217 15.1282 176.327 15.3582C174.777 15.5482 173.217 15.6782 171.657 15.8582C169.787 16.0782 167.927 16.3482 166.057 16.5682C164.557 16.7382 163.077 17.0082 161.627 17.3982C159.767 17.8982 157.887 18.2882 155.977 18.5782C154.047 18.8682 152.157 19.2782 150.307 19.8682C148.267 20.5182 146.257 21.2382 144.237 21.9282C142.557 22.4982 140.857 23.0182 139.187 23.6282C137.477 24.2582 135.807 24.9682 134.107 25.6282C133.107 26.0182 132.097 26.3582 130.967 26.8982ZM77.5571 192.688C77.7371 192.688 77.7471 192.568 77.7771 192.478C78.2771 191.148 79.137 190.068 80.137 189.098C81.767 187.518 83.5771 186.198 85.5371 185.028C87.1971 184.038 88.837 183.078 90.667 182.458C92.517 181.838 94.387 181.328 96.297 180.978C98.777 180.538 101.287 180.328 103.767 179.938C106.797 179.458 109.867 179.198 112.907 178.828C114.967 178.578 117.057 178.418 119.087 178.018C122.337 177.388 125.547 176.588 128.767 175.808C131.117 175.238 133.487 174.738 135.807 174.068C138.457 173.298 141.107 172.558 143.717 171.648C144.787 171.278 145.927 171.068 146.927 170.568C148.247 169.908 149.347 168.918 150.057 167.578C150.817 166.128 151.487 164.658 151.457 162.968C151.457 162.848 151.507 162.718 151.377 162.648C151.227 162.568 151.187 162.728 151.097 162.798C149.827 163.728 148.447 164.368 146.907 164.788C144.327 165.478 141.687 165.638 139.057 165.918C138.207 166.008 137.357 166.098 136.517 166.198C134.207 166.488 131.907 166.818 129.597 167.078C127.897 167.258 126.227 167.558 124.557 167.878C123.097 168.158 121.637 168.438 120.167 168.668C118.657 168.908 117.127 169.028 115.627 169.298C113.447 169.698 111.277 170.158 109.077 170.438C107.737 170.608 106.397 170.808 105.087 171.138C102.267 171.838 99.437 172.548 96.677 173.448C94.6571 174.108 92.6671 174.858 90.8171 175.888C88.5371 177.158 86.3471 178.598 84.3071 180.238C82.5971 181.608 81.117 183.198 80.077 185.158C79.277 186.668 78.667 188.248 78.197 189.888C77.937 190.808 77.5571 191.698 77.5371 192.688H77.5571ZM72.9971 66.8382C73.1571 66.7482 73.107 66.6082 73.0871 66.5082C72.937 65.3482 72.687 64.1982 72.357 63.0782C72.077 62.1082 71.747 61.1382 71.547 60.1482C71.147 58.1482 71.1071 56.0882 70.7171 54.0882C70.5871 53.4282 70.4871 52.7582 70.2471 52.1282C69.5671 50.3382 68.5671 48.7382 67.3371 47.2582C66.717 46.5082 66.0271 45.8182 65.3171 45.1782C64.2071 44.1582 63.077 43.1582 61.977 42.1182C60.647 40.8582 59.2171 39.7582 57.6271 38.8682C55.6871 37.7782 53.5671 37.0782 51.5571 36.1482C49.8171 35.3382 47.9771 34.7582 46.0871 34.3682C43.8171 33.8982 41.597 33.2582 39.457 32.3682C38.417 31.9382 37.3871 31.4682 36.3171 31.0982C35.0271 30.6482 33.717 30.2782 32.417 29.8682C30.617 29.2982 28.757 28.9682 26.927 28.5282C26.807 28.4982 26.6271 28.3982 26.5571 28.5682C26.517 28.6682 26.587 28.8382 26.647 28.9582C27.397 30.2682 28.187 31.5582 29.237 32.6482C31.247 34.7282 33.297 36.7582 35.637 38.4782C37.887 40.1382 40.0971 41.8482 42.3471 43.5082C44.0571 44.7682 45.947 45.7482 47.637 47.0382C48.287 47.5282 48.8971 48.0682 49.5671 48.5282C51.6671 49.9682 53.947 51.1482 55.887 52.8482C56.867 53.6982 58.137 54.1482 59.167 54.9682C60.667 56.1582 62.3571 57.0882 63.9071 58.2182C65.7171 59.5482 67.557 60.8182 69.197 62.3582C70.047 63.1582 70.9171 63.9282 71.5671 64.9082C72.0071 65.5782 72.507 66.2082 72.987 66.8482L72.9971 66.8382ZM25.147 28.1982C25.527 29.0482 25.767 29.8982 26.047 30.7482C26.207 31.2582 26.277 31.8082 26.477 32.2782C26.847 33.1282 27.1471 34.0082 27.4371 34.8782C27.7671 35.8782 28.227 36.8182 28.607 37.7882C28.857 38.4282 29.0571 39.0882 29.3171 39.7282C29.8071 40.9382 30.237 42.1682 30.667 43.3982C31.047 44.5082 31.5471 45.5582 32.0671 46.6082C32.6871 47.8482 33.4571 49.0082 34.2771 50.1282C35.0271 51.1682 35.7171 52.2682 36.6271 53.1782C38.4071 54.9582 40.677 56.0782 42.607 57.6582C43.897 58.7182 45.4671 59.3482 46.9371 60.1282C47.5271 60.4382 48.137 60.7282 48.707 61.0782C49.667 61.6682 50.627 62.2882 51.697 62.6482C54.197 63.4882 56.717 64.2382 59.297 64.7982C61.517 65.2882 63.727 65.8382 65.887 66.5482C66.567 66.7682 67.247 66.9782 67.957 67.0782C69.677 67.3082 71.4471 67.3582 73.0371 68.5382C72.9271 68.2282 72.8871 68.0782 72.8171 67.9382C72.3071 66.8582 71.6571 65.8782 70.897 64.9582C69.8771 63.7382 68.6971 62.6882 67.5271 61.6182C66.4871 60.6782 65.2471 59.9882 64.1271 59.1482C62.6171 58.0182 61.007 57.0582 59.457 56.0082C58.007 55.0382 56.4771 54.2082 55.0971 53.1182C54.4171 52.5882 53.767 51.9982 53.017 51.5482C51.647 50.7282 50.227 49.9682 48.947 48.9982C48.107 48.3682 47.287 47.7082 46.447 47.0882C44.977 46.0082 43.337 45.1982 41.887 44.0882C40.617 43.1082 39.397 42.0482 38.077 41.1482C35.257 39.2182 32.6671 37.0282 30.2771 34.5782C28.5371 32.7982 26.9271 30.9382 26.0071 28.5782C25.8471 28.1682 25.5871 28.1082 25.1571 28.1882L25.147 28.1982ZM18.267 68.6682C18.337 69.4582 18.357 70.2482 18.487 71.0182C18.717 72.3682 19.087 73.6882 19.337 75.0282C19.827 77.6182 19.9471 80.2582 20.2771 82.8682C20.6471 85.8182 21.037 88.7482 22.177 91.5282C22.867 93.2182 23.6271 94.8682 24.5071 96.4482C25.1871 97.6782 25.927 98.8782 26.837 99.9582C28.827 102.308 31.3371 104.038 33.7471 105.908C36.2571 107.858 39.167 109.038 42.047 110.278C43.807 111.028 45.4371 111.998 47.0971 112.908C48.4571 113.658 49.857 114.288 51.327 114.778C51.647 114.888 51.7871 114.808 51.6271 114.448C51.3171 113.718 51.017 112.988 50.737 112.248C50.207 110.878 49.517 109.598 48.667 108.398C47.657 106.968 46.4571 105.698 45.4371 104.278C45.0271 103.698 44.5871 103.118 44.0571 102.658C42.7571 101.548 41.4871 100.448 40.4971 99.0282C40.0071 98.3182 39.4871 97.6082 38.8371 97.0182C36.5671 94.9582 34.3971 92.7882 32.3171 90.5282C30.5371 88.5882 28.727 86.6782 27.137 84.5782C26.337 83.5182 25.4971 82.4782 24.8071 81.3482C23.8771 79.8282 23.057 78.2582 22.167 76.7182C20.667 74.1282 19.317 71.4882 18.267 68.6782V68.6682ZM51.6271 112.048C51.5771 111.818 51.527 111.588 51.477 111.358C51.177 110.168 50.867 108.978 50.577 107.788C50.027 105.538 49.3471 103.318 48.3471 101.228C47.7171 99.8882 46.8771 98.6582 46.3371 97.2682C45.9771 96.3582 45.447 95.5382 44.897 94.7482C44.1171 93.6282 43.417 92.4682 42.827 91.2382C42.217 89.9682 41.537 88.7182 40.457 87.7882C38.917 86.4582 37.697 84.8582 36.417 83.2982C35.687 82.3982 34.907 81.5582 33.917 80.9582C32.557 80.1282 31.337 79.1382 30.267 77.9482C29.367 76.9482 28.4971 75.9182 27.4671 75.0382C25.3671 73.2482 23.257 71.4682 21.137 69.7082C20.577 69.2382 19.9771 68.8182 19.2871 68.5282C19.1271 68.4582 18.9371 68.3482 18.7871 68.4882C18.6371 68.6282 18.8071 68.7782 18.8471 68.9282C19.1471 69.9682 19.547 70.9782 20.047 71.9282C21.787 75.1982 23.4971 78.4782 25.4971 81.5982C26.7171 83.4982 28.167 85.2282 29.647 86.9182C30.777 88.1982 31.9171 89.4582 33.0971 90.6782C34.2971 91.9182 35.387 93.2482 36.697 94.3882C37.557 95.1482 38.437 95.8882 39.227 96.7282C40.907 98.4982 42.157 100.668 44.227 102.078C45.207 102.748 45.737 103.848 46.487 104.728C48.007 106.508 49.5871 108.218 50.6871 110.318C50.9871 110.898 51.2271 111.498 51.6171 112.048H51.6271ZM102.167 241.978C102.167 241.918 102.187 241.858 102.197 241.788C99.717 241.058 97.327 240.038 94.8371 239.348C93.2271 238.898 91.5871 238.608 89.9071 238.628C88.6571 238.648 87.417 238.698 86.167 238.798C84.167 238.968 82.1671 239.108 80.1871 239.438C77.3171 239.918 74.5671 240.848 71.7771 241.598C71.4171 241.698 70.747 241.638 70.767 241.968C70.797 242.348 71.3971 242.548 71.8171 242.718C71.8371 242.718 71.8571 242.718 71.8771 242.738C73.3371 243.298 74.8571 243.638 76.4071 243.888C79.4371 244.368 82.4671 244.858 85.4971 245.368C87.2971 245.668 89.127 245.658 90.947 245.768C93.577 245.938 96.127 245.658 98.607 244.748C100.177 244.178 101.567 243.288 103.047 242.548L103.017 242.358H89.477V242.158C93.707 242.098 97.947 242.038 102.177 241.978H102.167ZM27.7571 155.828C27.9171 156.428 28.327 156.808 28.577 157.278C29.317 158.648 30.267 159.858 31.337 160.988C32.487 162.198 33.6671 163.378 34.7571 164.628C35.6571 165.668 36.647 166.508 38.017 166.848C38.807 167.048 39.6071 167.188 40.4071 167.308C41.7371 167.508 42.9671 168.008 44.1571 168.598C46.0271 169.518 48.0571 169.908 50.0571 170.408C51.4671 170.758 52.8771 171.078 54.3471 170.978C55.5671 170.898 56.767 170.968 57.927 171.408C58.097 171.468 58.287 171.598 58.517 171.448C58.347 171.278 58.1971 171.078 58.0071 170.948C56.4371 169.928 55.157 168.488 53.447 167.658C52.577 167.238 51.887 166.488 50.987 166.118C48.657 165.158 46.467 163.918 44.227 162.788C42.617 161.978 40.967 161.258 39.267 160.658C37.867 160.168 36.477 159.658 35.207 158.868C34.387 158.358 33.4771 157.998 32.5371 157.718C31.4171 157.378 30.3271 156.978 29.2771 156.458C28.8171 156.228 28.4171 155.818 27.7771 155.838L27.7571 155.828ZM105.937 239.188C106.037 238.648 106.137 238.108 106.247 237.558C106.717 235.168 107.407 232.828 107.687 230.398C107.887 228.668 108.167 226.928 108.127 225.198C108.067 222.428 108.107 219.648 107.817 216.888C107.667 215.408 107.427 213.948 107.077 212.508C107.047 212.368 107.117 212.128 106.907 212.108C106.697 212.088 106.627 212.308 106.557 212.468C106.187 213.298 105.797 214.128 105.487 214.978C104.507 217.598 103.697 220.268 102.977 222.978C102.367 225.268 101.937 227.568 102.207 229.968C102.437 232.048 102.777 234.078 103.597 236.028C104.177 237.388 104.837 238.728 105.037 240.218C105.097 240.678 105.147 241.148 105.207 241.608C105.257 241.608 105.297 241.608 105.347 241.608C105.477 240.038 105.607 238.468 105.737 236.898C105.957 237.668 105.667 238.438 105.947 239.198L105.937 239.188ZM104.537 36.8882C104.617 36.8282 104.707 36.7882 104.767 36.7182C105.617 35.6282 106.517 34.5682 107.277 33.4182C108.557 31.4882 109.767 29.4982 110.967 27.5182C111.857 26.0582 112.547 24.4982 112.967 22.8382C113.487 20.7582 113.837 18.6482 113.967 16.4982C114.147 13.6782 114.547 10.8582 114.347 8.01821C114.327 7.67821 114.547 7.31821 114.237 6.93821C113.937 7.71821 113.717 8.4782 113.367 9.1682C112.067 11.6982 111.237 14.4382 109.787 16.9082C108.667 18.8182 108.257 21.0082 107.597 23.0882C107.027 24.8982 106.677 26.7782 106.177 28.6082C105.807 29.9482 105.577 31.3082 105.257 32.6482C104.927 34.0282 105.017 35.4782 104.537 36.8982V36.8882ZM60.5871 172.418C60.1171 171.328 59.647 170.428 58.987 169.658C57.227 167.608 55.2071 165.818 53.0971 164.138C51.5271 162.888 49.7971 161.858 48.147 160.738C46.7971 159.828 45.507 158.828 44.077 158.018C42.547 157.148 40.9471 156.528 39.2471 156.098C37.2871 155.608 35.3271 155.118 33.3171 154.848C31.5971 154.618 29.887 154.528 28.087 155.118C28.997 155.578 29.787 156.018 30.617 156.378C32.0271 157.008 33.567 157.318 34.947 158.048C35.727 158.468 36.5171 158.898 37.3371 159.248C38.7971 159.868 40.3071 160.368 41.7471 161.038C43.9671 162.078 46.1871 163.138 48.3171 164.378C49.9271 165.328 51.677 165.998 53.267 167.048C55.147 168.288 56.9271 169.628 58.6571 171.048C59.2371 171.518 59.827 171.968 60.607 172.408L60.5871 172.418ZM57.2871 119.028C56.9871 119.458 56.7071 119.768 56.5271 120.118C55.6471 121.868 54.877 123.678 54.177 125.518C53.567 127.138 53.2171 128.828 52.7871 130.498C52.2971 132.418 52.0971 134.338 52.3071 136.318C52.4571 137.768 52.9071 139.148 53.1171 140.578C53.327 142.018 53.857 143.358 54.387 144.708C54.807 145.778 55.237 146.838 55.547 147.948C55.787 148.828 56.0871 149.688 56.3671 150.548C56.4071 149.098 56.3671 147.678 56.3171 146.248C56.2471 143.908 56.087 141.578 55.947 139.238C55.827 137.278 55.817 135.308 55.917 133.348C56.017 131.508 56.2671 129.688 56.3771 127.848C56.4871 125.908 56.797 123.988 57.047 122.058C57.167 121.088 57.3471 120.128 57.2871 119.018V119.028ZM114.117 4.75821C113.937 4.75821 113.927 4.87821 113.867 4.95821C112.907 6.47821 111.997 8.03821 110.957 9.49821C109.637 11.3482 108.207 13.1282 106.987 15.0582C105.477 17.4382 104.477 20.0382 103.737 22.7482C103.227 24.5982 103.327 26.4882 103.337 28.3482C103.337 30.4882 103.747 32.6082 104.027 34.7282C104.047 34.9082 104.067 35.0882 104.267 35.1582C104.407 35.0882 104.377 34.9582 104.397 34.8482C104.567 33.9382 104.707 33.0082 104.917 32.1082C105.397 30.1082 105.777 28.0982 106.377 26.1282C106.897 24.4082 107.277 22.6482 107.827 20.9282C108.277 19.5182 108.567 18.0582 109.377 16.7682C109.817 16.0682 110.157 15.2982 110.497 14.5382C111.587 12.1182 112.667 9.69821 113.727 7.26821C114.067 6.47821 114.407 5.65821 114.127 4.73821L114.117 4.75821ZM94.327 57.9982C93.087 58.1882 91.957 58.6882 90.887 59.3282C92.027 58.8682 93.177 58.4482 94.327 57.9982Z" fill="currentColor"/>
<path d="M89.0271 242.268C87.4471 242.428 85.8671 242.308 84.2871 242.278C85.8671 242.258 87.4471 242.088 89.0271 242.268Z" fill="currentColor"/>
</svg>
