<svg viewBox="0 0 147 326" fill="none" xmlns="http://www.w3.org/2000/svg">
<path d="M79.2901 89.0799C79.4601 87.3699 79.6301 85.6599 79.8001 83.9399C80.0401 81.5599 80.2801 79.1799 80.5101 76.7999C80.7201 74.6699 81.04 72.5499 81.09 70.4199C81.12 69.0799 81.4501 67.6699 80.7701 66.3599C80.6801 66.1899 80.6701 66.0099 80.8001 65.8599C81.4201 65.1899 81.0401 64.7799 80.5301 64.2199C78.7401 62.2799 76.8901 60.4199 74.6401 59.0199C71.1201 56.8299 67.76 54.3699 63.9701 52.6399C62.66 52.0399 61.6101 51.0399 60.3801 50.3199C57.5601 48.6599 55.4 46.2999 53.21 43.9399C51.7701 42.3799 50.03 41.0899 48.75 39.3699C46.57 36.4499 44.41 33.5099 42.26 30.5699C40.15 27.6699 38.89 24.3599 37.73 21.0199C36.49 17.4299 35.34 13.8099 34.21 10.1899C33.32 7.33988 32.53 4.45988 32.94 1.40988C33.11 0.0998762 33.41 -0.120121 34.7201 0.0498793C38.41 0.549879 41.7201 2.03988 44.9001 3.89988C47.1001 5.17988 49.34 6.36988 51.55 7.62988C54.15 9.10988 56.5 10.9499 58.93 12.6799C60.7601 13.9799 62.5901 15.2999 64.4601 16.5499C66.6801 18.0299 68.5301 19.8799 70.1701 21.9399C71.5801 23.7199 72.9701 25.5199 74.3501 27.3299C76.2601 29.8299 77.7401 32.5299 78.84 35.5099C79.9201 38.4099 81.1901 41.2499 82.2301 44.1599C83.4601 47.5899 83.7801 51.1699 83.6601 54.7999C83.6001 56.5699 83.66 58.3499 83.5201 60.1999C85.44 57.3999 86.9101 54.4099 89.1201 51.9599C91.6001 49.2199 94.6301 47.1799 97.9401 45.5499C103.91 42.6199 110.21 40.6599 116.62 38.9899C120.27 38.0399 123.87 36.8999 127.47 35.7999C132.39 34.2999 137.29 32.7099 142.3 31.5199C143.18 31.3099 144.07 31.0899 144.97 31.0199C146.44 30.8999 147.15 31.8299 146.84 33.3099C146.53 34.7999 145.93 36.1899 145.4 37.5999C144.61 39.7299 143.5 41.6799 142.42 43.6499C140.27 47.5699 137.51 50.9799 133.94 53.6899C130.91 55.9899 127.51 57.6399 123.99 59.0499C120.8 60.3299 117.43 60.9799 114.14 61.8799C109.39 63.1899 104.49 63.7599 99.6601 64.6899C97.1601 65.1699 94.7401 65.9499 92.2301 66.3899C90.9601 66.6199 89.6601 66.5199 88.4001 66.7599C86.7501 67.0699 85.0801 67.1199 83.4101 67.0899C82.8301 67.0799 82.6701 67.2899 82.7001 67.8699C82.8501 71.5099 82.5001 75.1199 82.1001 78.7299C81.8 81.4599 81.6401 84.1999 81.3501 86.9299C81.0601 89.7699 80.6601 92.6099 80.3701 95.4499C80.1301 97.7799 79.9801 100.11 79.7901 102.44C79.7801 102.61 79.8101 102.78 79.9301 102.97C80.1001 102.42 80.3101 101.89 80.4401 101.33C81.4801 96.6799 83.5201 92.4799 86.4001 88.7199C89.7801 84.2999 94.05 81.0399 99.3501 79.1699C101.96 78.2499 104.64 77.7099 107.36 77.2499C110.43 76.7399 113.37 75.7099 116.37 74.9199C116.91 74.7799 117.46 74.7199 117.99 74.5499C118.82 74.2899 119.56 75.1099 119.34 76.0599C119.1 77.0799 118.77 78.0899 118.42 79.0799C116.78 83.6499 115.44 88.3099 113.67 92.8399C112.43 96.0099 111.11 99.1499 109.29 102.03C107.2 105.34 104.92 108.54 101.87 111.06C100.36 112.3 98.6101 113.22 96.8601 114.11C93.9301 115.58 91.0501 117.14 88.0801 118.52C85.1501 119.89 82.3101 121.36 79.6801 123.25C78.8701 123.83 78.3001 124.7 77.3601 125.11C77.1001 125.23 77.15 125.51 77.1301 125.73C76.9601 127.35 76.8 128.97 76.6301 130.62C77.1701 130.62 77.5001 130.28 77.8801 130.09C80.5601 128.78 83.2801 127.57 86.2001 126.84C88.33 126.3 89.1201 127.31 89.4701 129.06C90.2601 133 90.3801 137.01 90.5401 141.01C90.6501 143.7 90.7801 146.38 90.8301 149.07C90.8701 151.53 90.7001 153.98 90.34 156.42C89.98 158.83 89.4501 161.2 88.8201 163.55C87.9301 166.86 86.5301 169.93 84.4801 172.69C83.4401 174.09 82.5201 175.6 81.4001 176.93C79.8101 178.81 77.7301 180.09 75.5701 181.23C74.7501 181.66 74.1201 182.3 73.4801 182.93C73.2701 183.14 73.2601 183.38 73.2501 183.65C73.2101 186.55 73.2101 189.44 73.0801 192.33C72.9401 195.46 73.0801 198.59 72.9201 201.72C72.76 204.91 72.9701 208.1 73.1501 211.28C73.2401 212.92 73.3601 214.56 73.4201 216.2C73.44 216.8 73.6201 217.28 74.0401 217.69C74.7101 218.34 75.2901 219.06 75.9201 220.02C76.4501 218.46 76.9001 217.08 77.4001 215.71C78.4401 212.83 79.4001 209.92 80.6601 207.11C81.5801 205.06 82.5401 203.03 83.5701 201.03C85.3501 197.58 87.7801 194.62 90.3501 191.76C92.48 189.39 94.8101 187.21 97.2701 185.17C99.6001 183.23 102.06 181.51 104.66 179.97C108.97 177.41 113.45 175.18 118.11 173.34C121.16 172.14 124.28 171.12 127.48 170.39C130.52 169.69 133.58 169.01 136.69 168.68C137.41 168.6 138.14 168.58 138.87 168.62C140.24 168.7 140.93 169.6 140.82 170.99C140.7 172.52 140.2 173.96 139.84 175.44C139.16 178.19 138.48 180.94 137.54 183.61C136.55 186.41 135.47 189.18 134.16 191.87C133.14 193.97 132.25 196.13 131.17 198.21C129.23 201.96 126.81 205.38 123.76 208.28C120.43 211.45 116.59 213.92 112.48 215.98C108.73 217.86 104.86 219.44 100.83 220.59C97.4001 221.57 93.9701 222.57 90.4601 223.23C87.73 223.74 85.0201 224.4 82.3101 225.01C81.51 225.19 80.6701 225.11 79.84 225.51C81.7801 227.74 83.3201 230.21 84.8301 232.7C87.2301 236.68 89.3201 240.82 91.0201 245.17C92.8101 249.77 93.3601 254.51 93.4301 259.37C93.5101 265.2 92.5201 270.84 90.4201 276.28C89.1701 279.53 87.3 282.43 85.4901 285.38C85.2201 285.83 84.8701 286.16 84.2601 285.95C83.8501 285.81 83.4701 286.1 83.0601 286.1C82.76 286.1 82.8201 286.33 82.8701 286.55C84.0301 291.71 84.9201 296.94 86.3201 302.05C86.91 304.2 87.5201 306.35 88.0701 308.51C88.8001 311.38 89.4901 314.27 90.4401 317.09C91.1501 319.21 91.4901 321.45 92.2401 323.56C92.4701 324.21 92.1701 324.72 91.5201 324.95C90.8101 325.21 90.4701 324.77 90.3201 324.17C89.8701 322.36 89.3001 320.57 88.9701 318.72C88.7001 317.23 88.1401 315.8 87.7401 314.33C86.91 311.32 86.1501 308.29 85.4801 305.23C85.0401 303.18 84.3001 301.19 83.7501 299.15C83.3001 297.48 83.0301 295.78 82.7301 294.08C82.2801 291.49 81.6801 288.92 80.9501 286.4C80.62 285.26 79.5201 284.5 78.7001 283.63C75.3601 280.13 72.2901 276.4 69.2601 272.63C67.7501 270.75 66.0301 269.03 64.4101 267.23C62.3401 264.93 60.2901 262.61 58.2201 260.3C57.3301 259.31 56.4001 258.34 55.4901 257.36C53.75 255.51 52.1701 253.54 50.6501 251.5C49.3001 249.68 48.19 247.73 47.17 245.74C46.24 243.92 45.6 241.96 45.26 239.92C44.61 235.97 44.9501 232.1 45.9501 228.25C46.07 227.81 45.93 227.55 45.5401 227.32C44.05 226.45 42.49 225.71 40.92 225.01C37.52 223.49 34.55 221.42 31.9401 218.73C29.18 215.88 26.1101 213.34 23 210.85C20.1901 208.6 17.67 206.04 15.4001 203.24C13.09 200.4 10.9301 197.47 8.89005 194.43C5.95005 190.03 3.59005 185.35 1.73005 180.42C0.87005 178.12 0.26005 175.72 0.0300501 173.26C-0.0599499 172.36 -0.0299499 171.42 0.42005 170.6C1.21005 169.18 2.61005 168.74 4.66005 169.37C7.62005 170.27 10.3101 171.75 12.7601 173.64C16.2101 176.29 19.2901 179.4 22.84 181.92C25.23 183.61 27.71 185.15 30.25 186.61C33.2201 188.31 36.21 189.98 39.17 191.71C41.74 193.21 44.2801 194.78 46.8101 196.34C49.6701 198.1 52.4701 199.97 55.18 201.96C57.8 203.88 60.4001 205.81 62.66 208.16C63.1301 208.64 63.8 208.57 64.34 208.86C66.87 210.18 68.87 212.16 70.9501 214.04C71.1401 214.21 71.3201 214.39 71.4901 214.55C71.7001 214.51 71.7101 214.37 71.7001 214.27C71.33 210.03 71.2801 205.78 71.34 201.53C71.37 199.34 71.4401 197.15 71.4801 194.96C71.5201 192.54 71.6101 190.1 71.4801 187.67C71.4101 186.35 70.4301 185.29 69.9401 184.08C69.5001 183.01 69.12 181.94 67.9501 181.43C65.05 180.18 62.7901 178.01 60.4501 176C58.55 174.37 56.82 172.55 55.12 170.7C53.5 168.94 52.5 166.78 51.1101 164.88C49.82 163.11 48.5 161.36 47.32 159.52C46.0201 157.49 44.8801 155.39 43.8601 153.22C42.9201 151.2 41.6101 149.39 40.7001 147.35C40.32 146.49 39.91 145.66 39.75 144.72C39.43 142.82 40.55 141.61 42.32 141.75C44.75 141.95 47.12 142.48 49.21 143.84C53.1101 146.38 56.4601 149.52 59.2901 153.2C60.9401 155.35 62.01 157.84 63.37 160.15C63.43 160.25 63.4701 160.35 63.5201 160.44C63.7201 160.38 63.79 160.25 63.78 160.09C63.35 156.01 63.66 151.96 64.3801 147.94C64.9 145.07 65.6701 142.26 67.0301 139.7C68.1701 137.55 69.7201 135.65 71.6501 134.12C72.1501 133.72 72.6301 133.25 73.1901 132.97C74.5101 132.34 75.0601 131.33 75.0501 129.9C75.0501 129.11 75.2301 128.32 75.2201 127.54C75.2201 126.62 74.5401 125.94 74.1501 125.17C73.2901 123.44 72.3401 121.75 71.3601 120.09C70.8001 119.14 70.1401 118.23 69.4501 117.37C66.9 114.2 64.98 110.66 63.18 107.03C61.1701 102.97 60.6901 98.6299 60.6501 94.2199C60.6301 92.3299 61.04 90.4799 61.51 88.6199C62.4 85.1299 64.0001 81.9299 65.1301 78.5499C65.5601 77.2499 66.1601 76.0099 66.6101 74.7199C67.1201 73.2699 69.3101 72.7799 70.59 73.6499C72.2001 74.7499 73.1301 76.2699 74.0701 77.8499C75.3101 79.9399 76.2701 82.1699 77.4101 84.3099C78.2101 85.8099 78.6301 87.4599 79.2701 89.0599L79.2901 89.0799ZM85.34 110.83L85.3201 110.81C83.6301 113.25 81.7501 115.55 79.7501 117.73C78.3101 119.3 77.7601 121.07 77.6001 123.08C77.87 123.12 77.9701 122.95 78.1001 122.85C79.4301 121.88 80.7701 120.94 82.2201 120.16C84.3101 119.03 86.4401 117.99 88.5701 116.95C91.2501 115.64 93.87 114.23 96.59 112.99C98.6301 112.06 100.56 110.87 102.19 109.28C103.72 107.79 105.04 106.12 106.36 104.44C108.92 101.19 110.63 97.4799 112.22 93.7099C113.54 90.5799 114.58 87.3599 115.64 84.1399C116.47 81.6099 117.31 79.0899 118.14 76.5599C118.22 76.3099 118.35 76.0299 118.15 75.8099C117.92 75.5499 117.67 75.8099 117.43 75.8699C114.77 76.5899 112.14 77.4099 109.46 77.9999C106.15 78.7299 102.78 79.1899 99.5701 80.3899C95.9401 81.7499 92.7201 83.7799 90.0101 86.4799C87.2501 89.2399 85.0401 92.4499 83.4601 96.0799C81.7201 100.06 80.7001 104.23 79.8801 108.46C79.34 111.25 78.9401 114.06 78.4701 116.87C78.3801 117.4 78.2801 117.93 78.4101 118.6C79.9301 116.67 81.59 115.08 82.9601 113.21C83.6101 112.32 84.22 111.3 85.34 110.85V110.83ZM62.87 34.1799C63.12 34.1199 63.21 34.3199 63.3601 34.4599C64.97 35.9799 66.0201 37.9299 67.3301 39.6799C68.5901 41.3599 69.6301 43.1999 70.7401 44.9799C72.09 47.1299 73.4701 49.2599 74.9701 51.2999C75.8501 52.4999 76.7901 53.6399 77.5601 54.9199C78.2701 56.0899 79.22 57.1199 79.9501 58.2799C80.72 59.5099 81.7601 60.4999 82.6801 61.6499C82.9101 61.1799 82.8901 60.7999 82.8801 60.4199C82.7501 57.4699 82.9001 54.5099 82.7101 51.5499C82.55 48.9799 82.0701 46.5099 81.1801 44.1199C80.0401 41.0499 78.8 38.0199 77.5601 34.9999C76.6301 32.7299 75.6301 30.4499 74.0501 28.5499C72.5501 26.7599 71.16 24.8899 69.7401 23.0499C68.0401 20.8399 66.08 18.8999 63.7901 17.2899C61.2101 15.4799 58.5401 13.7899 56.05 11.8399C54.0201 10.2499 51.84 8.87988 49.6101 7.59988C47.3 6.27988 44.9401 5.04988 42.6301 3.72988C40.16 2.32988 37.5101 1.46988 34.7201 0.999876C33.9901 0.879876 33.71 1.16988 33.67 1.86988C33.54 4.07988 33.7301 6.25988 34.4001 8.36988C36.0401 13.4899 37.42 18.6899 39.41 23.6899C40.19 25.6499 40.98 27.6199 42.2001 29.3399C44.3101 32.3299 46.5701 35.2099 48.6501 38.2199C49.1301 38.9199 49.6701 39.5799 50.2901 40.1599C52.0801 41.8399 53.8201 43.5799 55.4901 45.3799C57.8101 47.8899 60.59 49.8899 63.5601 51.4899C66.58 53.1199 69.6001 54.6999 72.4101 56.6699C73.7401 57.5999 75.2701 58.1599 76.5501 59.1599C78.1601 60.4199 79.7501 61.6999 81.1601 63.1899C81.6201 63.6699 82.4401 63.9099 81.8901 64.8999C82.3201 64.4899 82.1901 63.9999 82.4101 63.6099C82.7701 62.9499 82.5701 62.4299 82.0601 61.8899C81.4201 61.2199 80.84 60.4799 80.3101 59.7199C78.4301 56.9899 76.6301 54.1999 74.6701 51.5199C73.26 49.5999 71.8701 47.6499 70.6401 45.5999C68.9901 42.8399 67.1801 40.1799 65.3501 37.5399C64.55 36.3899 63.7001 35.2799 62.87 34.1499L62.85 34.1699L62.87 34.1799ZM91.6701 260.78C91.5401 255.42 91.3501 251.1 89.8201 246.95C89.1801 245.22 88.7901 243.37 87.9301 241.77C87.0901 240.21 86.3301 238.61 85.4101 237.09C83.4201 233.79 81.7301 230.31 79.1601 227.38C78.2201 226.31 77.4601 225.12 76.8001 223.83C75.8101 221.9 74.59 220.08 73.09 218.5C71.2101 216.52 69.2801 214.59 67.4101 212.61C66.4801 211.63 65.4001 210.92 64.1701 210.38C61.9201 209.39 59.25 209.81 57.4501 211.53C56.5601 212.38 55.71 213.27 54.92 214.21C53.52 215.86 52.34 217.65 51.34 219.59C50.4701 221.29 49.9 223.11 49.05 224.81C48.28 226.35 47.66 228 47.4501 229.71C47.0301 233.19 46.5101 236.67 47.3601 240.18C47.8 241.98 48.25 243.78 49.09 245.41C51.3 249.69 54.3301 253.41 57.4901 257.01C59.5101 259.31 61.62 261.52 63.64 263.82C65.3801 265.8 67.1101 267.78 68.8301 269.78C71.0401 272.35 73.1001 275.04 75.2501 277.65C77.3201 280.17 79.3 282.79 82.2701 284.39C82.55 284.54 82.91 284.89 83.1301 284.61C83.6301 283.95 84.4901 283.72 84.9001 282.97C85.2601 282.31 85.6701 281.67 86.0701 281.03C88.2201 277.53 89.7401 273.81 90.5201 269.75C91.15 266.43 91.8001 263.13 91.6801 260.75L91.6701 260.78ZM139.8 170.89C139.8 170.05 139.2 169.68 138.19 169.71C136.23 169.78 134.28 170.08 132.39 170.51C130.29 170.99 128.19 171.46 126.1 172.02C122.65 172.96 119.29 174.16 116 175.53C113.03 176.76 110.15 178.21 107.37 179.81C104.1 181.69 100.91 183.7 98.0101 186.12C95.5501 188.18 93.2001 190.37 91.0601 192.78C88.98 195.13 87.0101 197.56 85.3301 200.2C83.6001 202.92 82.2801 205.87 81.0101 208.83C80.2201 210.68 79.4501 212.56 78.7601 214.45C78.1101 216.23 77.5801 218.04 76.7801 219.76C76.5701 220.22 76.2601 220.83 76.6101 221.25C77.1601 221.91 77.4401 222.73 78.0101 223.36C78.3001 223.67 78.5301 224.1 79.1601 223.97C81.0801 223.58 83.0501 223.39 84.9301 222.9C88.8901 221.87 92.9201 221.12 96.8801 220.06C102.86 218.45 108.73 216.59 114.14 213.54C116.64 212.13 119.05 210.56 121.27 208.75C125.02 205.69 127.87 201.89 130.12 197.62C132.33 193.42 134.29 189.11 135.95 184.67C137.14 181.49 138.05 178.23 138.83 174.94C139.16 173.54 139.49 172.15 139.78 170.89H139.8ZM60.35 208.4C60.11 207.91 59.7701 207.72 59.5 207.48C57.57 205.78 55.5601 204.18 53.39 202.77C51.73 201.69 50.1701 200.44 48.4901 199.4C45.5501 197.59 42.6701 195.69 39.68 193.97C37.1001 192.49 34.6101 190.84 31.9901 189.42C28.2701 187.41 24.66 185.28 21.2901 182.69C19.2001 181.08 17.2701 179.3 15.2101 177.67C13.1101 176 11.09 174.23 8.78005 172.85C7.25005 171.94 5.65005 171.15 3.91005 170.75C2.24005 170.36 1.39005 171.02 1.48005 172.81C1.58005 174.71 1.88005 176.56 2.46005 178.38C3.37005 181.26 4.47005 184.06 5.82005 186.74C7.61005 190.29 9.68005 193.67 12.0101 196.89C14.0701 199.73 16.18 202.53 18.55 205.11C20.91 207.67 23.57 209.93 26.33 212.05C28.1 213.41 29.7701 214.89 31.32 216.48C33.18 218.39 35.09 220.24 37.32 221.7C40.07 223.5 43.2001 224.58 46.0401 226.24C46.3601 226.43 46.53 226.27 46.64 225.99C46.85 225.44 47.0401 224.89 47.25 224.34C48.23 221.67 49.42 219.1 50.78 216.6C50.97 216.24 51.4001 215.95 51.4501 215.59C51.5401 214.95 50.8101 215.25 50.4901 214.99C49.1101 213.89 47.6401 212.89 46.1501 211.92C43.68 210.3 41.2001 208.71 39.03 206.69C37.78 205.53 36.2701 204.75 34.87 203.79C33.01 202.52 31.44 200.89 29.56 199.64C27.23 198.09 25.17 196.18 22.97 194.46C21.34 193.18 19.62 192.04 18.31 190.38C17.03 188.75 15.6201 187.24 13.9401 185.99C12.5701 184.96 11.1901 183.94 10.1501 182.52C8.62005 180.42 7.02005 178.38 5.46005 176.3C5.30005 176.09 5.01005 175.9 5.14005 175.47C6.26005 176.53 7.06005 177.79 7.92005 178.97C9.65005 181.34 11.4201 183.64 13.8001 185.39C15.2101 186.43 16.6101 187.47 17.66 188.89C18.39 189.88 19.17 190.83 20.1101 191.63C22.43 193.6 24.98 195.27 27.24 197.31C28.82 198.72 30.79 199.58 32.35 201.01C33.58 202.14 34.84 203.21 36.3301 204.02C38.0801 204.97 39.66 206.17 41.07 207.61C41.5201 208.06 42.05 208.45 42.59 208.79C45.5401 210.68 48.55 212.47 51.39 214.52C51.7901 214.81 52.01 214.77 52.32 214.39C53.1501 213.37 53.9701 212.33 54.89 211.4C56.3801 209.9 57.7401 208.13 60.3301 208.4H60.35ZM82.3201 65.4099C82.8901 65.8299 83.3601 65.8099 83.8101 65.7999C85.8 65.7599 87.7701 65.5899 89.7501 65.3999C92.0701 65.1799 94.2801 64.5099 96.5301 63.9799C102.57 62.5399 108.79 62.0199 114.79 60.3799C117.89 59.5299 121.08 59.0299 124.05 57.7399C130.13 55.1099 135.66 51.7899 139.5 46.1399C141.49 43.2199 143.1 40.1199 144.5 36.8899C145.02 35.6799 145.52 34.4599 145.71 33.1499C145.83 32.2899 145.65 32.1199 144.81 32.2599C143.86 32.4199 142.89 32.5499 141.97 32.8099C139.09 33.5999 136.22 34.3899 133.36 35.2599C129.28 36.4999 125.22 37.8399 121.14 39.0899C116.46 40.5199 111.71 41.6699 107.09 43.2699C102.08 44.9999 97.2801 47.0599 93.0301 50.3099C90.73 52.0699 88.9701 54.2299 87.5301 56.7099C86.8501 57.8899 86.1101 59.0399 85.2301 60.1199C84.4901 61.0199 83.7501 62.0299 84.0601 63.3599C84.1001 63.5599 84.0801 63.7299 83.8501 63.7499C83.4301 63.7799 83.41 64.1399 83.3801 64.3899C83.3101 64.9399 83.1801 65.3999 82.3301 65.3999L82.3201 65.4099ZM75.6801 168.36C75.7301 168.86 75.6901 169.14 75.6101 169.43C74.7101 172.75 73.0801 175.77 71.8001 178.94C71.4801 179.74 71.0801 180.51 70.8001 181.33C70.6401 181.82 70.9301 182.08 71.3001 182.21C71.7601 182.37 71.6101 181.91 71.6701 181.71C71.7701 181.36 72.0501 181.39 72.3001 181.34C72.9101 181.22 73.5101 181.04 73.9801 180.61C74.5701 180.07 75.2201 179.65 75.9101 179.25C77.3001 178.44 78.7501 177.68 79.8101 176.44C82.7501 172.95 85.3301 169.22 86.9301 164.92C87.6601 162.98 88.0101 160.91 88.4001 158.87C88.7801 156.89 89.2101 154.91 89.2701 152.88C89.3801 149.46 89.4001 146.04 89.1901 142.62C89.0301 140.06 88.9601 137.49 88.7801 134.93C88.6401 133.01 88.4901 131.08 88.0201 129.2C87.76 128.19 87.3001 127.95 86.3301 128.31C84.8801 128.84 83.4501 129.45 82.0101 129.99C79.1101 131.08 76.59 132.87 74.0001 134.49C72.0101 135.73 70.3501 137.44 69.1601 139.5C67.0401 143.16 66.0601 147.2 65.5801 151.35C65.0901 155.57 65.1801 159.81 65.3801 164.05C65.58 168.27 66.7701 172.28 68.1901 176.22C68.3801 176.75 68.5301 177.27 68.5201 177.84C68.4901 179.14 69.1801 180.08 70.0701 181.03C72.1201 176.91 74.4101 172.99 75.6901 168.35L75.6801 168.36ZM75.8001 118.83C75.8901 118.83 75.9701 118.83 76.0601 118.82C76.3 116.74 76.5301 114.67 76.7801 112.59C77.1001 109.89 77.4901 107.2 77.7101 104.49C77.9301 101.75 78.0501 98.9899 78.5001 96.2799C79.0701 92.7899 78.4501 89.4899 77.1401 86.3399C76.0701 83.7599 74.7301 81.2699 73.3301 78.8399C72.5001 77.3899 71.6401 75.8899 70.1501 74.9199C69.2601 74.3499 68.3801 74.5699 67.9901 75.5799C66.9701 78.2199 65.9201 80.8599 64.9501 83.5199C63.9701 86.2099 62.77 88.8699 62.51 91.7399C62.01 97.2399 62.4401 102.61 65.2301 107.57C66.6301 110.06 67.7701 112.71 69.5601 114.98C71.1101 116.94 72.4601 119.02 73.6101 121.24C74.1501 122.28 74.5701 123.4 75.4201 124.48C75.9701 120.45 75.1301 116.72 74.4801 112.98C75.1301 114.88 75.5701 116.82 75.8001 118.82V118.83ZM68.1101 180.12C68.2701 179.86 68.1401 179.69 68.0601 179.5C66.3901 175.48 64.9201 171.39 64.2001 167.07C63.96 165.64 64.0301 164.16 63.3101 162.81C62.84 161.93 62.3801 161.06 61.91 160.18C59.78 156.22 57.4701 152.4 53.9501 149.47C51.96 147.81 50.18 145.87 47.8 144.73C45.99 143.86 44.12 143.23 42.07 143.3C41.23 143.33 40.98 143.76 41.09 144.49C41.18 145.07 41.3101 145.64 41.59 146.17C42.89 148.69 44.1701 151.22 45.4901 153.73C46.5501 155.75 47.46 157.84 48.7701 159.73C49.9501 161.43 51.2901 163.01 52.3801 164.79C53.1001 165.96 53.72 167.21 54.55 168.29C56.33 170.61 58.5 172.58 60.5601 174.65C62.1901 176.28 64.2501 177.42 66.0201 178.92C66.62 179.43 67.3201 179.88 68.1001 180.11L68.1101 180.12Z" fill="currentColor"/>
<path d="M60.5801 211.37C60.9101 212.97 61.1601 214.58 61.4901 216.18C62.2801 220.11 63.1801 224.01 64.0901 227.91C64.7501 230.73 65.3901 233.55 66.0401 236.37C66.3601 237.76 66.7601 239.13 67.2501 240.48C68.0201 242.62 68.6001 244.82 69.1701 247.02C69.6701 248.95 70.5101 250.76 71.1401 252.64C72.0901 255.49 72.8701 258.4 73.9501 261.22C75.5801 265.46 77.1001 269.75 78.7601 273.98C79.8501 276.75 81.0501 279.47 82.3901 282.12C82.6401 282.61 82.9601 283.08 82.8801 283.68C82.8501 283.87 83.0501 284.13 82.7701 284.22C82.4901 284.31 82.3601 284.06 82.2601 283.84C81.8301 282.88 81.2801 281.96 81.0001 280.96C80.5901 279.48 79.8201 278.16 79.2801 276.75C78.5001 274.71 77.8801 272.59 76.9701 270.6C75.4601 267.3 74.6301 263.76 73.1601 260.45C72.2001 258.29 71.6801 255.96 70.9601 253.71C70.5001 252.27 69.9001 250.87 69.3901 249.44C68.5301 247.02 68.0101 244.49 67.1601 242.08C65.8701 238.43 65.0401 234.67 64.1901 230.91C63.1501 226.3 62.1801 221.67 61.3001 217.02C60.9401 215.15 60.7701 213.26 60.5801 211.37Z" fill="currentColor"/>
<path d="M80.5601 219.78C81.5501 218.8 82.7901 218.19 84.0201 217.62C86.9201 216.27 89.5901 214.56 92.2901 212.86C96.0001 210.52 99.6901 208.14 103.28 205.63C106.24 203.56 109.22 201.5 112 199.17C113.47 197.94 115.02 196.76 116.46 195.5C119.73 192.64 123.07 189.83 125.92 186.51C129.35 182.52 132.86 178.6 136.01 174.38C136.74 173.4 137.41 172.3 137.86 171.12C138 170.75 138.11 170.11 138.73 170.44C139.32 170.76 138.99 171.25 138.73 171.64C136.74 174.52 134.81 177.44 132.42 180.03C130.44 182.17 128.73 184.56 126.78 186.72C124.7 189.02 122.57 191.27 120.16 193.26C117.95 195.08 115.85 197.03 113.62 198.82C110.51 201.32 107.28 203.66 103.99 205.92C100.68 208.2 97.3301 210.42 93.8901 212.5C91.6501 213.86 89.4601 215.29 87.1701 216.57C85.5201 217.49 83.7501 218.2 82.0301 219.02C81.5301 219.26 81.0601 219.53 80.5701 219.79L80.5601 219.78Z" fill="currentColor"/>
<path d="M80.0801 220.1C79.4201 220.51 78.7501 220.91 78.0901 221.32C78.6201 220.7 79.2601 220.25 80.0801 220.1Z" fill="currentColor"/>
<path d="M35.52 1.82988C37.42 3.75988 39.06 5.88988 40.41 8.23988C38.81 6.07988 37.08 4.01988 35.52 1.82988Z" fill="currentColor"/>
<path d="M62.88 34.1599C61.92 33.1399 60.86 32.1799 60.52 30.7299H60.5C61.24 31.6999 61.97 32.6699 62.72 33.6199C62.86 33.7999 62.89 33.9799 62.86 34.1899L62.88 34.1699V34.1599Z" fill="currentColor"/>
<path d="M60.52 30.7199C60.25 30.7799 60.06 30.6499 59.94 30.4399C59.45 29.6099 58.56 29.0999 58.12 28.0399C59.24 28.7799 59.72 29.8899 60.5 30.7399L60.53 30.7199H60.52Z" fill="currentColor"/>
<path d="M84.7101 64.3399C88.5301 63.1599 92.0501 61.2299 95.7501 59.7799C98.1401 58.8399 100.62 58.1099 102.91 56.9199C104.59 56.0399 106.2 55.0199 108 54.3999C109.24 53.9699 110.48 53.5599 111.74 53.1699C112.6 52.9099 113.31 52.2999 114.24 52.2099C104.5 56.5099 94.8901 61.1199 84.7101 64.3299V64.3399Z" fill="currentColor"/>
<path d="M142.26 36.2899C143.02 35.4899 143.33 34.4199 144.01 33.5899C144.19 33.3699 144.52 33.1499 144.78 33.3699C145.06 33.5999 144.83 33.9099 144.65 34.1399C143.98 34.9899 143.26 35.7799 142.26 36.2999V36.2899Z" fill="currentColor"/>
<path d="M141.52 37.0099C140.83 37.5999 140.05 38.0599 139.27 38.5099C139.22 38.4499 139.18 38.3899 139.13 38.3199C139.87 37.8099 140.61 37.2899 141.35 36.7799C141.41 36.8599 141.46 36.9299 141.52 37.0099Z" fill="currentColor"/>
<path d="M114.77 51.8299C115.35 51.3399 115.98 50.9299 116.9 50.7499C116.17 51.2799 115.54 51.6699 114.77 51.8299Z" fill="currentColor"/>
<path d="M87.74 129.48C87.87 130.18 87.7 130.76 87.52 131.34C86.66 134.14 85.43 136.79 84.32 139.49C83.07 142.52 82.05 145.63 80.95 148.71C79.9 151.67 79.06 154.68 78.23 157.71C78.17 156.43 78.5 155.21 78.86 154.01C79.93 150.46 81 146.91 82.28 143.43C83.07 141.29 83.95 139.2 84.83 137.09C85.76 134.87 86.88 132.7 87.36 130.31C87.42 130.03 87.5 129.77 87.74 129.48Z" fill="currentColor"/>
<path d="M76.54 164.92C76.9 163.44 77.26 161.97 77.62 160.49C77.37 161.99 77.51 163.6 76.53 164.91H76.54V164.92Z" fill="currentColor"/>
<path d="M77.8301 159.94C77.5901 159.3 77.9401 158.78 78.0901 158.21C78.2201 158.83 78.0701 159.39 77.8301 159.94Z" fill="currentColor"/>
<path d="M76.5301 164.91C76.7801 165.88 76.2101 166.71 76.0301 167.6C75.8401 166.64 76.3701 165.82 76.5401 164.93L76.5301 164.91Z" fill="currentColor"/>
<path d="M85.33 110.83C85.18 109.99 85.89 109.57 86.3 109.1C89.3 105.67 92.2 102.16 94.98 98.5399C97.52 95.2299 100.64 92.5099 103.79 89.7999C106.14 87.7799 108.24 85.4999 110.47 83.3599C112.27 81.6199 113.96 79.7799 115.69 77.9699C115.86 77.7899 116 77.6199 116.37 77.6799C115.67 78.8799 114.8 79.9099 113.86 80.8299C110.77 83.8599 107.82 87.0299 104.62 89.9399C103.16 91.2699 101.65 92.5599 100.17 93.8699C98.27 95.5499 96.62 97.4599 94.99 99.4099C92.92 101.88 91.16 104.59 88.78 106.82C87.83 107.71 87.11 108.89 86.27 109.93C86 110.27 85.7 110.6 85.3 110.81L85.32 110.83H85.33Z" fill="currentColor"/>
<path d="M71.3201 93.6799C70.3501 87.7399 69.8401 81.7999 70.3901 75.8099C70.2901 81.7899 70.8901 87.7399 71.3201 93.6799Z" fill="currentColor"/>
<path d="M71.2801 94.4999C71.4901 95.3599 71.4901 96.2299 71.4201 97.1099C71.1501 96.2499 71.2401 95.3799 71.2801 94.4999Z" fill="currentColor"/>
</svg>
