<svg width="129" height="35" viewBox="0 0 129 35" fill="none" xmlns="http://www.w3.org/2000/svg">
<g clip-path="url(#clip0_2001_6)">
<path d="M7.602 8.022C8.20867 8.022 8.85733 8.078 9.548 8.19C10.2387 8.302 10.934 8.43733 11.634 8.596C12.334 8.75467 13.0013 8.918 13.636 9.086C14.28 9.24467 14.8587 9.38 15.372 9.492C15.8947 9.59467 16.3147 9.646 16.632 9.646C16.9027 9.646 17.1173 9.59 17.276 9.478C17.4347 9.35667 17.542 9.184 17.598 8.96C17.6353 8.792 17.6493 8.61 17.64 8.414C17.6307 8.20867 17.6353 7.98 17.654 7.728C17.71 7.23333 17.892 6.82733 18.2 6.51C18.508 6.19267 18.9607 6.034 19.558 6.034C20.0527 6.034 20.4633 6.216 20.79 6.58C21.126 6.944 21.2893 7.46667 21.28 8.148C21.2707 9.156 20.944 9.95867 20.3 10.556C19.656 11.144 18.7973 11.438 17.724 11.438C17.276 11.438 16.7207 11.3727 16.058 11.242C15.3953 11.1113 14.6813 10.9527 13.916 10.766C13.16 10.57 12.404 10.3787 11.648 10.192C10.892 9.996 10.1873 9.83267 9.534 9.702C8.88067 9.562 8.33467 9.492 7.896 9.492C7.31733 9.492 6.888 9.62267 6.608 9.884C6.328 10.1453 6.18333 10.528 6.174 11.032C6.16467 11.2747 6.18333 11.494 6.23 11.69C6.286 11.886 6.342 12.0867 6.398 12.292C6.454 12.488 6.482 12.7213 6.482 12.992C6.47267 13.468 6.3 13.874 5.964 14.21C5.628 14.5367 5.18933 14.6953 4.648 14.686C4.01333 14.686 3.50467 14.4667 3.122 14.028C2.73933 13.58 2.562 12.9687 2.59 12.194C2.60867 11.4287 2.814 10.7333 3.206 10.108C3.60733 9.47333 4.17667 8.96933 4.914 8.596C5.65133 8.21333 6.54733 8.022 7.602 8.022ZM10.738 25.368C10.654 25.648 10.64 25.858 10.696 25.998C10.752 26.138 10.864 26.236 11.032 26.292L11.858 26.516C12.2313 26.684 12.4133 26.9127 12.404 27.202C12.3947 27.4727 12.292 27.6733 12.096 27.804C11.9 27.9347 11.648 28 11.34 28H4.214C3.89667 28 3.668 27.9393 3.528 27.818C3.39733 27.6873 3.332 27.5193 3.332 27.314C3.34133 27.0993 3.40667 26.9267 3.528 26.796C3.65867 26.656 3.82667 26.544 4.032 26.46L4.858 26.25C5.01667 26.2033 5.16133 26.0913 5.292 25.914C5.42267 25.7273 5.54867 25.452 5.67 25.088C5.77267 24.78 5.91733 24.2947 6.104 23.632C6.3 22.9693 6.51933 22.204 6.762 21.336C7.014 20.4587 7.27533 19.53 7.546 18.55C7.826 17.5607 8.10133 16.576 8.372 15.596C8.64267 14.6067 8.89933 13.678 9.142 12.81C9.38467 11.9327 9.59467 11.1673 9.772 10.514C9.95867 9.85133 10.0987 9.36133 10.192 9.044L14.994 9.968C14.882 10.304 14.728 10.8033 14.532 11.466C14.3453 12.1193 14.1353 12.8753 13.902 13.734C13.6687 14.5833 13.4213 15.4887 13.16 16.45C12.8987 17.402 12.6373 18.3493 12.376 19.292C12.124 20.2347 11.886 21.1213 11.662 21.952C11.4473 22.7733 11.256 23.4827 11.088 24.08C10.9293 24.6773 10.8127 25.1067 10.738 25.368ZM34.496 14.644C35.0373 14.6627 35.4107 14.994 35.616 15.638C35.8213 16.282 35.77 17.1873 35.462 18.354C34.9953 20.146 34.3933 21.6767 33.656 22.946C32.9187 24.206 32.0647 25.2373 31.094 26.04C30.1233 26.8427 29.0547 27.4307 27.888 27.804C26.7307 28.1773 25.4893 28.364 24.164 28.364C22.96 28.364 22.0407 28.1353 21.406 27.678C20.7713 27.2113 20.4587 26.5393 20.468 25.662C20.468 24.9153 20.65 24.2573 21.014 23.688C21.378 23.1187 21.8353 22.61 22.386 22.162C22.9367 21.7047 23.506 21.28 24.094 20.888C24.6913 20.496 25.2373 20.1133 25.732 19.74C26.2267 19.3573 26.586 18.956 26.81 18.536L26.684 19.222C25.984 19.222 25.3493 19.152 24.78 19.012C24.2107 18.8627 23.6833 18.6947 23.198 18.508C22.7127 18.312 22.2507 18.1347 21.812 17.976C21.3733 17.8173 20.9347 17.7333 20.496 17.724C20.1693 17.7147 19.9267 17.78 19.768 17.92C19.6187 18.06 19.5347 18.2373 19.516 18.452C19.488 18.816 19.7167 19.1147 20.202 19.348C20.5287 19.5067 20.7713 19.6793 20.93 19.866C21.0887 20.0433 21.1587 20.2767 21.14 20.566C21.1307 20.9487 20.9953 21.2473 20.734 21.462C20.482 21.6673 20.1833 21.77 19.838 21.77C19.2313 21.77 18.7413 21.5133 18.368 21C17.9947 20.4867 17.8313 19.782 17.878 18.886C17.9247 18.074 18.1393 17.3507 18.522 16.716C18.9047 16.072 19.4273 15.568 20.09 15.204C20.7527 14.8307 21.5133 14.644 22.372 14.644C22.8667 14.644 23.3287 14.7 23.758 14.812C24.1873 14.9147 24.584 15.0173 24.948 15.12C25.312 15.2227 25.648 15.274 25.956 15.274C26.2827 15.274 26.544 15.2227 26.74 15.12C26.936 15.0173 27.1227 14.9147 27.3 14.812C27.4867 14.7 27.72 14.6487 28 14.658C28.2893 14.658 28.5273 14.7607 28.714 14.966C28.91 15.162 29.0033 15.456 28.994 15.848C28.966 16.2493 28.854 16.674 28.658 17.122C28.4713 17.57 28.2473 18.0507 27.986 18.564C27.734 19.0773 27.482 19.6187 27.23 20.188C26.978 20.7573 26.768 21.364 26.6 22.008C26.432 22.6427 26.348 23.3193 26.348 24.038C26.348 24.7007 26.4833 25.172 26.754 25.452C27.034 25.732 27.4447 25.872 27.986 25.872C28.4993 25.872 29.0453 25.732 29.624 25.452C30.2027 25.1627 30.7953 24.71 31.402 24.094C32.0087 23.4687 32.606 22.652 33.194 21.644C33.7913 20.636 34.3607 19.4087 34.902 17.962C34.4913 19.6327 34.2253 21.0093 34.104 22.092C33.992 23.1653 33.9827 24.0053 34.076 24.612C34.1787 25.2187 34.356 25.6433 34.608 25.886C34.86 26.1287 35.1493 26.25 35.476 26.25C35.8307 26.25 36.1807 26.1427 36.526 25.928C36.8713 25.704 37.1933 25.396 37.492 25.004C37.8 24.6027 38.0707 24.1313 38.304 23.59C38.5373 23.0487 38.7147 22.456 38.836 21.812C38.9107 21.4107 38.9247 21.042 38.878 20.706C38.8313 20.3607 38.7427 20.0527 38.612 19.782C38.4813 19.502 38.318 19.2593 38.122 19.054C37.8327 18.7833 37.6133 18.4847 37.464 18.158C37.324 17.8313 37.2587 17.4487 37.268 17.01C37.2773 16.618 37.3893 16.2447 37.604 15.89C37.8187 15.526 38.1127 15.232 38.486 15.008C38.8687 14.7747 39.3027 14.658 39.788 14.658C40.7027 14.658 41.3513 15.0687 41.734 15.89C42.1167 16.702 42.21 17.8127 42.014 19.222C41.8647 20.426 41.552 21.5787 41.076 22.68C40.6093 23.772 40.0213 24.7473 39.312 25.606C38.6027 26.4553 37.8047 27.1273 36.918 27.622C36.0407 28.1167 35.112 28.364 34.132 28.364C33.1427 28.364 32.326 28.1493 31.682 27.72C31.0473 27.2813 30.59 26.6607 30.31 25.858C30.0393 25.046 29.932 24.0707 29.988 22.932C30.044 21.7933 30.268 20.5193 30.66 19.11C31.0707 17.5793 31.6167 16.45 32.298 15.722C32.9887 14.9847 33.7213 14.6253 34.496 14.644ZM51.6762 14.616C53.1135 14.6253 54.3269 14.9147 55.3162 15.484C56.3055 16.044 57.0102 16.8373 57.4302 17.864C57.8595 18.8907 57.9482 20.1087 57.6962 21.518C57.5002 22.5633 57.1595 23.5107 56.6742 24.36C56.1889 25.2 55.5775 25.9233 54.8402 26.53C54.1029 27.1273 53.2629 27.5847 52.3202 27.902C51.3775 28.2193 50.3555 28.3733 49.2542 28.364C47.8262 28.3547 46.6175 28.07 45.6282 27.51C44.6482 26.95 43.9482 26.1567 43.5282 25.13C43.1082 24.094 43.0242 22.876 43.2762 21.476C43.4629 20.4307 43.7989 19.4833 44.2842 18.634C44.7789 17.7847 45.3902 17.0613 46.1182 16.464C46.8555 15.8573 47.6909 15.3953 48.6242 15.078C49.5669 14.7607 50.5842 14.6067 51.6762 14.616ZM49.1142 26.684C49.3942 26.7307 49.6649 26.6887 49.9262 26.558C50.1969 26.4273 50.4582 26.2173 50.7102 25.928C50.9622 25.6293 51.2002 25.2607 51.4242 24.822C51.6575 24.3833 51.8722 23.8747 52.0682 23.296C52.2642 22.708 52.4415 22.0547 52.6002 21.336C52.8429 20.2627 52.9689 19.3667 52.9782 18.648C52.9969 17.92 52.9082 17.3647 52.7122 16.982C52.5162 16.59 52.2222 16.3613 51.8302 16.296C51.5502 16.2587 51.2749 16.3053 51.0042 16.436C50.7429 16.5667 50.4862 16.7767 50.2342 17.066C49.9915 17.3553 49.7535 17.7193 49.5202 18.158C49.2962 18.5967 49.0862 19.11 48.8902 19.698C48.7035 20.286 48.5309 20.9393 48.3722 21.658C48.1295 22.722 47.9989 23.618 47.9802 24.346C47.9615 25.074 48.0502 25.634 48.2462 26.026C48.4422 26.4087 48.7315 26.628 49.1142 26.684ZM66.9449 28.336C66.1423 28.336 65.4749 28.2567 64.9429 28.098C64.4109 27.9487 63.9769 27.7713 63.6409 27.566C63.3049 27.3513 63.0343 27.1693 62.8289 27.02C62.6329 26.8613 62.4696 26.782 62.3389 26.782C62.1989 26.782 62.0356 26.8567 61.8489 27.006C61.6716 27.146 61.4756 27.3093 61.2609 27.496C61.0463 27.6827 60.8316 27.8507 60.6169 28C60.4023 28.14 60.1969 28.21 60.0009 28.21C59.7116 28.21 59.4923 28.1307 59.3429 27.972C59.2029 27.8133 59.1423 27.5567 59.1609 27.202L59.8469 22.148C59.8656 21.7747 59.9589 21.49 60.1269 21.294C60.2949 21.098 60.5096 21 60.7709 21C61.0229 21 61.2283 21.0887 61.3869 21.266C61.5456 21.434 61.6996 21.6907 61.8489 22.036L62.2549 23.786C62.4883 24.7287 62.9363 25.4473 63.5989 25.942C64.2616 26.4367 65.0269 26.684 65.8949 26.684C66.3989 26.684 66.8423 26.5953 67.2249 26.418C67.6076 26.2407 67.9156 25.9887 68.1489 25.662C68.3916 25.326 68.5456 24.9387 68.6109 24.5C68.7603 23.7347 68.6249 23.0067 68.2049 22.316C67.7849 21.6253 66.9636 20.9113 65.7409 20.174C64.3129 19.2967 63.3049 18.382 62.7169 17.43C62.1383 16.478 61.9189 15.3627 62.0589 14.084C62.1896 12.9827 62.5769 11.9747 63.2209 11.06C63.8743 10.136 64.7843 9.39867 65.9509 8.848C67.1269 8.288 68.5456 8.008 70.2069 8.008C71.6536 8.008 72.8576 8.23667 73.8189 8.694C74.7896 9.142 75.5129 9.72533 75.9889 10.444C76.4743 11.1627 76.6983 11.914 76.6609 12.698C76.6329 13.314 76.4556 13.8273 76.1289 14.238C75.8023 14.6487 75.3543 14.854 74.7849 14.854C74.3276 14.854 73.9543 14.7233 73.6649 14.462C73.3849 14.2007 73.1469 13.7667 72.9509 13.16L72.6429 11.956C72.4189 11.1067 72.0736 10.4813 71.6069 10.08C71.1403 9.67867 70.5803 9.478 69.9269 9.478C69.3296 9.478 68.8069 9.604 68.3589 9.856C67.9203 10.0987 67.5656 10.43 67.2949 10.85C67.0336 11.2607 66.8703 11.7273 66.8049 12.25C66.6929 13.062 66.8423 13.8087 67.2529 14.49C67.6729 15.1713 68.4569 15.8947 69.6049 16.66C70.7996 17.4533 71.7096 18.2 72.3349 18.9C72.9696 19.6 73.3896 20.3093 73.5949 21.028C73.8003 21.7373 73.8516 22.5027 73.7489 23.324C73.6463 24.304 73.2916 25.172 72.6849 25.928C72.0876 26.684 71.2943 27.2767 70.3049 27.706C69.3249 28.126 68.2049 28.336 66.9449 28.336ZM84.7074 14.616C86.1448 14.6253 87.3581 14.9147 88.3474 15.484C89.3368 16.044 90.0414 16.8373 90.4614 17.864C90.8908 18.8907 90.9794 20.1087 90.7274 21.518C90.5314 22.5633 90.1908 23.5107 89.7054 24.36C89.2201 25.2 88.6088 25.9233 87.8714 26.53C87.1341 27.1273 86.2941 27.5847 85.3514 27.902C84.4088 28.2193 83.3868 28.3733 82.2854 28.364C80.8574 28.3547 79.6488 28.07 78.6594 27.51C77.6794 26.95 76.9794 26.1567 76.5594 25.13C76.1394 24.094 76.0554 22.876 76.3074 21.476C76.4941 20.4307 76.8301 19.4833 77.3154 18.634C77.8101 17.7847 78.4214 17.0613 79.1494 16.464C79.8868 15.8573 80.7221 15.3953 81.6554 15.078C82.5981 14.7607 83.6154 14.6067 84.7074 14.616ZM82.1454 26.684C82.4254 26.7307 82.6961 26.6887 82.9574 26.558C83.2281 26.4273 83.4894 26.2173 83.7414 25.928C83.9934 25.6293 84.2314 25.2607 84.4554 24.822C84.6888 24.3833 84.9034 23.8747 85.0994 23.296C85.2954 22.708 85.4728 22.0547 85.6314 21.336C85.8741 20.2627 86.0001 19.3667 86.0094 18.648C86.0281 17.92 85.9394 17.3647 85.7434 16.982C85.5474 16.59 85.2534 16.3613 84.8614 16.296C84.5814 16.2587 84.3061 16.3053 84.0354 16.436C83.7741 16.5667 83.5174 16.7767 83.2654 17.066C83.0228 17.3553 82.7848 17.7193 82.5514 18.158C82.3274 18.5967 82.1174 19.11 81.9214 19.698C81.7348 20.286 81.5621 20.9393 81.4034 21.658C81.1608 22.722 81.0301 23.618 81.0114 24.346C80.9928 25.074 81.0814 25.634 81.2774 26.026C81.4734 26.4087 81.7628 26.628 82.1454 26.684ZM101.233 7.826C102.241 7.826 102.987 8.04533 103.473 8.484C103.958 8.92267 104.201 9.44067 104.201 10.038C104.201 10.6167 104.033 11.088 103.697 11.452C103.361 11.8067 102.875 11.984 102.241 11.984C101.858 11.984 101.527 11.9187 101.247 11.788C100.976 11.648 100.729 11.4893 100.505 11.312C100.281 11.1253 100.052 10.962 99.8187 10.822C99.5947 10.682 99.338 10.612 99.0487 10.612C98.8154 10.612 98.61 10.6633 98.4327 10.766C98.2647 10.8687 98.134 11.0087 98.0407 11.186C97.9474 11.3633 97.8914 11.564 97.8727 11.788C97.8727 12.0493 97.9334 12.3107 98.0547 12.572C98.1854 12.8333 98.3347 13.1133 98.5027 13.412C98.6707 13.7013 98.82 14.0233 98.9507 14.378C99.0907 14.7327 99.17 15.1293 99.1887 15.568C99.2167 15.9973 99.1514 16.478 98.9927 17.01L97.0187 23.464C96.804 24.2013 96.7247 24.7007 96.7807 24.962C96.846 25.2233 96.9954 25.354 97.2287 25.354C97.3967 25.354 97.5694 25.3073 97.7467 25.214C97.924 25.1113 98.1107 24.9573 98.3067 24.752C98.484 24.5933 98.6287 24.5 98.7407 24.472C98.862 24.4347 98.9787 24.444 99.0907 24.5C99.24 24.5653 99.3194 24.696 99.3287 24.892C99.3474 25.088 99.2774 25.3447 99.1187 25.662C98.8667 26.1847 98.498 26.6513 98.0127 27.062C97.5367 27.4633 96.972 27.7807 96.3187 28.014C95.6747 28.2473 94.97 28.364 94.2047 28.364C93.3927 28.364 92.7954 28.21 92.4127 27.902C92.0394 27.5847 91.8434 27.132 91.8247 26.544C91.806 25.956 91.918 25.2467 92.1607 24.416L95.8567 12.334C96.342 10.766 97.042 9.62267 97.9567 8.904C98.8807 8.18533 99.9727 7.826 101.233 7.826ZM103.43 22.148C103.43 22.148 103.589 22.0967 103.906 21.994C104.233 21.8913 104.653 21.7653 105.166 21.616C105.689 21.4573 106.249 21.2847 106.846 21.098C107.444 20.9113 108.027 20.734 108.596 20.566C109.166 20.3887 109.651 20.2347 110.052 20.104L109.576 20.636C109.679 20.3093 109.763 19.922 109.828 19.474C109.894 19.026 109.931 18.522 109.94 17.962C109.94 17.4207 109.847 16.9913 109.66 16.674C109.483 16.3567 109.222 16.198 108.876 16.198C108.559 16.198 108.242 16.324 107.924 16.576C107.607 16.828 107.308 17.1873 107.028 17.654C106.748 18.1207 106.51 18.676 106.314 19.32C106.118 19.964 105.983 20.6827 105.908 21.476C105.787 22.82 105.96 23.842 106.426 24.542C106.893 25.2327 107.612 25.578 108.582 25.578C109.096 25.578 109.576 25.4893 110.024 25.312C110.472 25.1253 110.888 24.8687 111.27 24.542C111.653 24.206 111.989 23.8093 112.278 23.352C112.502 23.0813 112.689 22.8993 112.838 22.806C112.988 22.7033 113.156 22.6567 113.342 22.666C113.557 22.6753 113.725 22.7733 113.846 22.96C113.968 23.1467 113.977 23.4407 113.874 23.842C113.669 24.6353 113.258 25.3773 112.642 26.068C112.026 26.7587 111.214 27.314 110.206 27.734C109.198 28.154 107.98 28.364 106.552 28.364C105.19 28.364 104.084 28.1353 103.234 27.678C102.394 27.2113 101.797 26.5533 101.442 25.704C101.088 24.8547 100.962 23.842 101.064 22.666C101.167 21.546 101.452 20.5007 101.918 19.53C102.394 18.5593 103.015 17.71 103.78 16.982C104.555 16.2447 105.442 15.6707 106.44 15.26C107.448 14.8493 108.536 14.644 109.702 14.644C110.626 14.644 111.387 14.8027 111.984 15.12C112.582 15.4373 113.034 15.8713 113.342 16.422C113.66 16.9633 113.851 17.5747 113.916 18.256C113.944 18.4427 113.991 18.606 114.056 18.746C114.131 18.886 114.234 18.9747 114.364 19.012C114.495 19.04 114.593 19.0913 114.658 19.166C114.733 19.2407 114.77 19.348 114.77 19.488C114.77 19.6747 114.696 19.852 114.546 20.02C114.397 20.1787 114.117 20.3187 113.706 20.44C113.305 20.552 112.782 20.7013 112.138 20.888C111.494 21.0747 110.79 21.28 110.024 21.504C109.259 21.728 108.494 21.952 107.728 22.176C106.972 22.4 106.277 22.6053 105.642 22.792C105.017 22.9693 104.513 23.1187 104.13 23.24C103.748 23.352 103.556 23.408 103.556 23.408L103.43 22.148ZM120.848 26.922C121.315 26.922 121.684 26.7913 121.954 26.53C122.234 26.2687 122.379 25.9327 122.388 25.522C122.388 25.242 122.323 24.9853 122.192 24.752C122.071 24.5093 121.838 24.2527 121.492 23.982C121.156 23.7113 120.662 23.3893 120.008 23.016C119.262 22.5773 118.664 22.1667 118.216 21.784C117.768 21.392 117.442 20.9813 117.236 20.552C117.04 20.1133 116.942 19.6187 116.942 19.068C116.952 18.2747 117.213 17.542 117.726 16.87C118.24 16.198 118.982 15.6613 119.952 15.26C120.932 14.8493 122.122 14.644 123.522 14.644C124.633 14.644 125.548 14.7793 126.266 15.05C126.985 15.3207 127.526 15.694 127.89 16.17C128.254 16.6367 128.436 17.164 128.436 17.752C128.446 18.3213 128.329 18.76 128.086 19.068C127.853 19.376 127.526 19.53 127.106 19.53C126.705 19.53 126.355 19.404 126.056 19.152C125.767 18.8907 125.478 18.424 125.188 17.752C124.899 17.1733 124.577 16.7393 124.222 16.45C123.868 16.1607 123.452 16.016 122.976 16.016C122.519 16.016 122.15 16.142 121.87 16.394C121.6 16.646 121.46 16.9913 121.45 17.43C121.45 17.7007 121.516 17.9667 121.646 18.228C121.777 18.4893 122.015 18.7787 122.36 19.096C122.715 19.4133 123.228 19.7867 123.9 20.216C124.712 20.72 125.342 21.1773 125.79 21.588C126.238 21.9893 126.546 22.4 126.714 22.82C126.882 23.2307 126.962 23.702 126.952 24.234C126.943 25.0367 126.668 25.7507 126.126 26.376C125.594 26.992 124.843 27.4773 123.872 27.832C122.911 28.1867 121.782 28.364 120.484 28.364C119.252 28.364 118.244 28.2147 117.46 27.916C116.686 27.608 116.116 27.202 115.752 26.698C115.388 26.194 115.206 25.648 115.206 25.06C115.216 24.5467 115.337 24.136 115.57 23.828C115.804 23.52 116.126 23.366 116.536 23.366C117.022 23.366 117.418 23.52 117.726 23.828C118.044 24.1267 118.338 24.5887 118.608 25.214C118.935 25.8487 119.276 26.292 119.63 26.544C119.994 26.796 120.4 26.922 120.848 26.922Z" fill="#A67070"/>
</g>
<defs>
<clipPath id="clip0_2001_6">
<rect width="129" height="35" fill="white"/>
</clipPath>
</defs>
</svg>
