<svg xmlns="http://www.w3.org/2000/svg" width="520" height="520" viewBox="0 0 520 520" fill="none"><metadata><rdf:RDF xmlns:rdf="http://www.w3.org/1999/02/22-rdf-syntax-ns#" xmlns:dc="http://purl.org/dc/elements/1.1/"><rdf:Description><dc:creator>RealFaviconGenerator</dc:creator><dc:source>https://realfavicongenerator.net</dc:source></rdf:Description></rdf:RDF></metadata><g clip-path="url(#clip0_2128_2531)">
<rect width="520" height="520" rx="111" fill="#A67070"></rect>
<path d="M167.75 154.85C172.85 154.85 179.25 155.45 186.95 156.65C194.75 157.85 202.95 159.35 211.55 161.15C220.25 162.85 228.6 164.6 236.6 166.4C244.6 168.1 251.55 169.55 257.45 170.75C263.45 171.95 267.5 172.55 269.6 172.55C272.5 172.55 274.7 172 276.2 170.9C277.8 169.7 278.7 167.95 278.9 165.65C279.1 163.05 278.8 159.95 278 156.35C277.2 152.65 276.85 148.4 276.95 143.6C277.15 138 278.85 133.45 282.05 129.95C285.35 126.45 289.45 124.7 294.35 124.7C299.05 124.7 303 126.55 306.2 130.25C309.4 133.95 310.95 138.8 310.85 144.8C310.75 154.2 307.5 161.75 301.1 167.45C294.8 173.15 287 176 277.7 176C273 176 267.05 175.4 259.85 174.2C252.65 172.9 244.8 171.3 236.3 169.4C227.8 167.5 219.25 165.65 210.65 163.85C202.15 161.95 194.1 160.35 186.5 159.05C179 157.75 172.65 157.1 167.45 157.1C160.95 157.1 156.05 158.35 152.75 160.85C149.55 163.25 147.8 167.05 147.5 172.25C147.3 176.65 147.75 180.55 148.85 183.95C150.05 187.25 151.25 190.55 152.45 193.85C153.65 197.15 154.2 200.85 154.1 204.95C153.9 210.05 152.15 214.2 148.85 217.4C145.65 220.5 141.35 222.05 135.95 222.05C130.25 221.95 125.75 219.65 122.45 215.15C119.25 210.55 117.9 204.4 118.4 196.7C118.8 189.2 120.95 182.3 124.85 176C128.85 169.6 134.45 164.5 141.65 160.7C148.95 156.8 157.65 154.85 167.75 154.85ZM194.15 356.75C193.55 358.85 193.55 360.5 194.15 361.7C194.85 362.8 196.25 363.5 198.35 363.8L210.95 365.3C212.55 365.5 213.35 366 213.35 366.8C213.35 367.1 213.15 367.4 212.75 367.7C212.45 367.9 211.9 368 211.1 368H122.15C121.55 368 121.1 367.9 120.8 367.7C120.5 367.5 120.35 367.2 120.35 366.8C120.35 366.4 120.5 366.1 120.8 365.9C121.2 365.7 121.7 365.6 122.3 365.6L135.2 363.8C136.9 363.6 138.3 362.95 139.4 361.85C140.5 360.75 141.4 359.05 142.1 356.75C142.9 354.25 144.4 349.15 146.6 341.45C148.8 333.65 151.45 324.2 154.55 313.1C157.75 302 161.15 290.05 164.75 277.25C168.35 264.35 171.95 251.5 175.55 238.7C179.15 225.8 182.45 213.8 185.45 202.7C188.55 191.6 191.15 182.25 193.25 174.65C195.45 166.95 196.9 161.9 197.6 159.5L245.6 170C244.9 172.4 243.5 177.3 241.4 184.7C239.4 192 236.9 200.95 233.9 211.55C231 222.05 227.9 233.4 224.6 245.6C221.3 257.7 218 269.85 214.7 282.05C211.4 294.15 208.3 305.45 205.4 315.95C202.6 326.45 200.2 335.35 198.2 342.65C196.2 349.85 194.85 354.55 194.15 356.75ZM338.272 371C328.972 371 321.372 369.9 315.472 367.7C309.672 365.5 305.072 362.95 301.672 360.05C298.372 357.15 295.972 354.6 294.472 352.4C292.972 350.2 291.872 349.1 291.172 349.1C290.472 349.1 288.872 350.05 286.372 351.95C283.872 353.75 281.072 355.85 277.972 358.25C274.972 360.55 272.272 362.6 269.872 364.4C267.472 366.2 265.972 367.1 265.372 367.1C264.772 367.1 264.372 366.9 264.172 366.5C264.072 366.1 264.072 365.5 264.172 364.7L279.922 297.2C280.222 296.2 280.472 295.5 280.672 295.1C280.872 294.6 281.172 294.35 281.572 294.35C282.072 294.35 282.372 294.55 282.472 294.95C282.672 295.25 282.872 295.9 283.072 296.9L289.222 328.55C291.322 340.65 295.722 349.85 302.422 356.15C309.222 362.35 317.172 365.45 326.272 365.45C331.972 365.45 337.022 364.4 341.422 362.3C345.822 360.1 349.472 357 352.372 353C355.272 348.9 357.272 344.05 358.372 338.45C360.472 329.05 359.522 320.05 355.522 311.45C351.622 302.85 343.672 294.2 331.672 285.5C317.172 275.1 307.322 265 302.122 255.2C296.922 245.4 294.922 234.2 296.122 221.6C297.122 209.5 301.372 198.4 308.872 188.3C316.372 178.1 326.622 169.95 339.622 163.85C352.722 157.65 367.922 154.55 385.222 154.55C399.522 154.55 410.972 156.8 419.572 161.3C428.272 165.7 434.472 171.5 438.172 178.7C441.872 185.8 443.472 193.35 442.972 201.35C442.572 208.35 440.722 213.9 437.422 218C434.122 222 429.772 224 424.372 224C420.572 224 417.672 222.6 415.672 219.8C413.672 216.9 412.122 212.45 411.022 206.45L408.022 189.2C405.922 177.5 402.722 169.35 398.422 164.75C394.222 160.05 388.722 157.7 381.922 157.7C374.922 157.7 368.622 159.4 363.022 162.8C357.522 166.2 353.122 170.7 349.822 176.3C346.522 181.8 344.472 187.85 343.672 194.45C342.472 205.35 343.822 214.85 347.722 222.95C351.622 230.95 359.122 239.55 370.222 248.75C381.822 258.15 390.622 266.95 396.622 275.15C402.622 283.25 406.472 291.15 408.172 298.85C409.872 306.45 409.972 314.2 408.472 322.1C406.872 331.9 402.772 340.5 396.172 347.9C389.572 355.2 381.272 360.9 371.272 365C361.272 369 350.272 371 338.272 371Z" fill="white"></path>
</g><defs>
<clipPath id="clip0_2128_2531">
<rect width="520" height="520" fill="white"></rect>
</clipPath>
</defs></svg>